<?xml version="1.0" standalone="no"?><!-- Generator: Gravit.io --><svg xmlns="http://www.w3.org/2000/svg" xmlns:xlink="http://www.w3.org/1999/xlink" style="isolation:isolate" viewBox="0 0 360 464.747" width="360" height="464.747"><defs><clipPath id="_clipPath_tH2PR3kh6h4l7t4S9Qgebnl6HjDXAHax"><rect width="360" height="464.747"/></clipPath></defs><g clip-path="url(#_clipPath_tH2PR3kh6h4l7t4S9Qgebnl6HjDXAHax)"><rect x="0" y="0" width="666.221" height="464.747" transform="matrix(1,0,0,1,0,0)" fill="none"/><g><clipPath id="_clipPath_YVJ3kbSLwxu1BIVoPnIGYp42nWkoljVP"><path d=" M -1.774 -1.902 L 666.221 -1.902 L 666.221 466.648 L -1.774 466.648 L -1.774 -1.902 Z " fill="rgb(255,255,255)"/></clipPath><g clip-path="url(#_clipPath_YVJ3kbSLwxu1BIVoPnIGYp42nWkoljVP)"><g><g><clipPath id="_clipPath_EhwpYlDQuwOkjiIdYT8zx5EdtDzQwrrm"><path d=" M -1.774 -1.902 L 666.221 -1.902 L 666.221 466.648 L -1.774 466.648 L -1.774 -1.902 Z " fill="rgb(255,255,255)"/></clipPath><g clip-path="url(#_clipPath_EhwpYlDQuwOkjiIdYT8zx5EdtDzQwrrm)"><g><g><g><g opacity="0.5"><path d=" M 160.597 374.084 L 152.008 374.084 L 153.153 328.755 L 160.024 328.755 L 160.597 374.084 Z " fill="rgb(211,186,169)"/></g><path d=" M 188.128 319.213 C 188.128 312.151 181.066 306.425 172.382 306.425 C 171.428 306.425 170.474 306.521 169.519 306.616 C 169.138 306.473 168.804 306.378 168.422 306.234 C 165.511 303.419 161.169 301.606 156.302 301.606 C 148 301.606 141.225 306.807 140.605 313.391 C 140.127 313.964 139.65 314.537 139.269 315.157 C 133.018 316.875 128.533 321.646 128.533 327.276 C 128.533 333.956 134.831 339.443 142.895 340.016 C 146.569 343.213 151.436 345.407 156.875 346.028 C 159.69 348.27 163.555 349.606 167.802 349.606 C 176.485 349.606 183.547 343.881 183.547 336.819 C 183.547 335.34 183.261 333.956 182.688 332.62 C 183.356 331.093 183.786 329.471 183.977 327.849 C 186.553 325.559 188.128 322.553 188.128 319.213 Z " fill="rgb(199,211,155)"/><g opacity="0.5"><path d=" M 127.34 368.358 L 135.976 368.358 L 134.831 323.03 L 127.96 323.03 L 127.34 368.358 Z " fill="rgb(211,186,169)"/></g><path d=" M 99.857 313.487 C 99.857 306.425 106.919 300.7 115.603 300.7 C 116.557 300.7 117.511 300.795 118.465 300.89 C 118.847 300.747 119.181 300.652 119.563 300.509 C 122.473 297.694 126.815 295.88 131.682 295.88 C 139.984 295.88 146.76 301.081 147.38 307.666 C 147.857 308.238 148.334 308.811 148.716 309.431 C 154.966 311.149 159.452 315.92 159.452 321.551 C 159.452 328.231 153.153 333.718 145.09 334.29 C 141.416 337.487 136.549 339.682 131.11 340.302 C 128.294 342.545 124.43 343.881 120.183 343.881 C 111.499 343.881 104.437 338.155 104.437 331.093 C 104.437 329.614 104.724 328.231 105.296 326.895 C 104.628 325.368 104.199 323.745 104.008 322.123 C 101.432 319.833 99.857 316.827 99.857 313.487 Z " fill="rgb(213,221,168)"/></g><g><g opacity="0.5"><path d=" M 70.895 370.266 L 79.531 370.505 L 79.626 325.177 L 72.755 324.986 L 70.895 370.266 Z " fill="rgb(211,186,169)"/></g><path d=" M 44.986 317.972 C 45.177 310.91 52.382 305.376 61.113 305.614 C 62.068 305.662 63.022 305.757 63.928 305.9 C 64.31 305.757 64.644 305.662 65.026 305.566 C 67.984 302.847 72.374 301.177 77.241 301.32 C 85.543 301.558 92.175 306.95 92.604 313.535 C 93.082 314.107 93.511 314.727 93.893 315.348 C 100.096 317.209 104.437 322.123 104.294 327.801 C 104.103 334.481 97.662 339.777 89.598 340.159 C 85.829 343.26 80.915 345.312 75.475 345.741 C 72.565 347.889 68.7 349.129 64.406 349.034 C 55.722 348.795 48.803 342.879 48.994 335.769 C 49.042 334.29 49.376 332.906 49.996 331.618 C 49.376 330.091 48.994 328.469 48.851 326.799 C 46.37 324.366 44.891 321.312 44.986 317.972 Z " fill="rgb(199,211,155)"/><g opacity="0.5"><path d=" M 104.294 368.835 L 95.706 368.549 L 98.139 323.316 L 105.01 323.507 L 104.294 368.835 Z " fill="rgb(211,186,169)"/></g><path d=" M 133.352 314.727 C 133.543 307.666 126.672 301.749 117.941 301.463 C 116.986 301.415 116.032 301.463 115.078 301.606 C 114.696 301.463 114.362 301.32 113.98 301.177 C 111.165 298.266 106.871 296.358 102.004 296.214 C 93.702 295.976 86.783 300.986 85.972 307.57 C 85.495 308.143 85.018 308.716 84.589 309.288 C 78.29 310.815 73.662 315.491 73.519 321.121 C 73.328 327.801 79.483 333.479 87.499 334.29 C 91.078 337.582 95.849 339.92 101.288 340.684 C 104.056 342.974 107.873 344.453 112.119 344.596 C 120.803 344.835 128.056 339.3 128.247 332.238 C 128.294 330.759 128.008 329.328 127.483 328.04 C 128.151 326.561 128.676 324.938 128.915 323.268 C 131.634 321.073 133.257 318.067 133.352 314.727 Z " fill="rgb(199,221,168)"/></g><g><g opacity="0.5"><path d=" M 44.032 371.221 L 36.875 371.221 L 37.829 325.893 L 43.555 325.893 L 44.032 371.221 Z " fill="rgb(211,186,169)"/></g><path d=" M 66.934 316.35 C 66.934 309.288 61.066 303.562 53.813 303.562 C 53.002 303.562 52.191 303.658 51.427 303.753 C 51.141 303.61 50.807 303.515 50.521 303.372 C 48.135 300.556 44.509 298.743 40.453 298.743 C 33.535 298.743 27.904 303.944 27.38 310.529 C 26.998 311.101 26.616 311.674 26.234 312.294 C 21.081 314.012 17.312 318.783 17.312 324.461 C 17.312 331.141 22.56 336.628 29.24 337.201 C 32.294 340.398 36.35 342.592 40.883 343.213 C 43.221 345.455 46.465 346.791 49.996 346.791 C 57.248 346.791 63.117 341.066 63.117 334.004 C 63.117 332.525 62.879 331.141 62.402 329.805 C 62.926 328.278 63.308 326.656 63.499 325.034 C 65.598 322.696 66.934 319.69 66.934 316.35 Z " fill="rgb(213,221,168)"/><g opacity="0.5"><path d=" M 16.358 365.495 L 23.515 365.495 L 22.56 320.167 L 16.835 320.167 L 16.358 365.495 Z " fill="rgb(211,186,169)"/></g></g></g><path d=" M 99.332 352.374 C 99.332 352.374 102.672 394.791 91.555 413.591 C 91.555 413.591 90.696 416.835 85.066 420.223 C 79.388 423.563 87.356 420.175 94.084 417.169 C 100.811 414.115 102.052 417.312 102.911 420.652 C 103.769 423.992 105.01 412.684 107.109 413.591 C 109.209 414.545 115.269 420.223 114.696 419.364 C 106.728 407.197 107.109 400.899 107.109 400.899 C 107.109 400.899 105.63 364.97 106.489 352.803" fill="rgb(226,194,172)"/><g><g><g><path d=" M 27.809 126.448 L 318.864 126.448 L 318.864 458.537 L 27.809 458.537 L 27.809 126.448 Z " fill="rgb(155,136,123)"/><path d=" M 27.809 126.448 L 318.864 126.448 L 318.864 458.537 L 27.809 458.537 L 27.809 126.448 Z " fill="rgb(183,161,146)"/><path d=" M 27.809 448.517 L 318.864 448.517 L 318.864 458.537 L 27.809 458.537 L 27.809 448.517 Z " fill="rgb(255,255,255)"/><g><path d=" M 180.016 436.112 L 180.016 425.615 L 163.316 425.615 L 163.316 414.163 L 143.277 414.163 L 143.277 402.712 L 123.237 402.712 L 123.237 390.783 L 104.151 390.783 L 104.151 379.809 L 50.712 379.809 L 50.712 447.563 L 70.179 447.563 L 89.932 447.563 L 103.913 447.563 L 110.115 447.563 L 110.115 447.563 L 126.768 447.563 L 143.038 447.563 L 163.173 447.563 L 179.825 447.563 L 195.762 447.563 L 195.762 436.112 L 180.016 436.112 Z " fill="rgb(255,255,255)"/></g><g><g><path d=" M 28.286 426.092 L 36.875 426.092 L 36.875 446.132 L 28.286 446.132 L 28.286 426.092 Z " fill="rgb(255,255,255)"/></g><g><path d=" M 28.286 403.189 L 36.875 403.189 L 36.875 424.183 L 28.286 424.183 L 28.286 403.189 Z " fill="rgb(255,255,255)"/></g><g><path d=" M 28.286 380.286 L 36.875 380.286 L 36.875 400.803 L 28.286 400.803 L 28.286 380.286 Z " fill="rgb(255,255,255)"/></g><g><path d=" M 28.286 357.384 L 36.875 357.384 L 36.875 377.901 L 28.286 377.901 L 28.286 357.384 Z " fill="rgb(255,255,255)"/></g><g><path d=" M 28.286 334.481 L 36.875 334.481 L 36.875 355.475 L 28.286 355.475 L 28.286 334.481 Z " fill="rgb(255,255,255)"/></g><g><path d=" M 28.286 312.055 L 36.875 312.055 L 36.875 332.095 L 28.286 332.095 L 28.286 312.055 Z " fill="rgb(255,255,255)"/></g><g><path d=" M 28.286 289.153 L 36.875 289.153 L 36.875 309.67 L 28.286 309.67 L 28.286 289.153 Z " fill="rgb(255,255,255)"/></g><g><path d=" M 28.286 265.773 L 36.875 265.773 L 36.875 286.767 L 28.286 286.767 L 28.286 265.773 Z " fill="rgb(255,255,255)"/></g><g><path d=" M 28.286 243.347 L 36.875 243.347 L 36.875 263.864 L 28.286 263.864 L 28.286 243.347 Z " fill="rgb(255,255,255)"/></g><g><path d=" M 28.286 220.445 L 36.875 220.445 L 36.875 240.962 L 28.286 240.962 L 28.286 220.445 Z " fill="rgb(255,255,255)"/></g><g><path d=" M 28.286 197.542 L 36.875 197.542 L 36.875 218.059 L 28.286 218.059 L 28.286 197.542 Z " fill="rgb(255,255,255)"/></g><g><path d=" M 28.286 174.64 L 36.875 174.64 L 36.875 195.156 L 28.286 195.156 L 28.286 174.64 Z " fill="rgb(255,255,255)"/></g><g><path d=" M 28.286 151.737 L 36.875 151.737 L 36.875 172.254 L 28.286 172.254 L 28.286 151.737 Z " fill="rgb(255,255,255)"/></g><g><path d=" M 28.286 128.834 L 36.875 128.834 L 36.875 149.828 L 28.286 149.828 L 28.286 128.834 Z " fill="rgb(255,255,255)"/></g></g><g><g><path d=" M 309.798 426.092 L 318.387 426.092 L 318.387 446.609 L 309.798 446.609 L 309.798 426.092 Z " fill="rgb(255,255,255)"/></g><g><path d=" M 309.798 403.189 L 318.387 403.189 L 318.387 424.183 L 309.798 424.183 L 309.798 403.189 Z " fill="rgb(255,255,255)"/></g><g><path d=" M 309.798 380.286 L 318.387 380.286 L 318.387 400.803 L 309.798 400.803 L 309.798 380.286 Z " fill="rgb(255,255,255)"/></g><g><path d=" M 309.798 357.384 L 318.387 357.384 L 318.387 377.901 L 309.798 377.901 L 309.798 357.384 Z " fill="rgb(255,255,255)"/></g><g><path d=" M 309.798 334.481 L 318.387 334.481 L 318.387 355.475 L 309.798 355.475 L 309.798 334.481 Z " fill="rgb(255,255,255)"/></g><g><path d=" M 309.798 312.055 L 318.387 312.055 L 318.387 332.095 L 309.798 332.095 L 309.798 312.055 Z " fill="rgb(255,255,255)"/></g><g><path d=" M 309.798 289.153 L 318.387 289.153 L 318.387 309.67 L 309.798 309.67 L 309.798 289.153 Z " fill="rgb(255,255,255)"/></g><g><path d=" M 309.798 265.773 L 318.387 265.773 L 318.387 286.767 L 309.798 286.767 L 309.798 265.773 Z " fill="rgb(255,255,255)"/></g><g><path d=" M 309.798 243.347 L 318.387 243.347 L 318.387 263.864 L 309.798 263.864 L 309.798 243.347 Z " fill="rgb(255,255,255)"/></g><g><path d=" M 309.798 220.445 L 318.387 220.445 L 318.387 240.962 L 309.798 240.962 L 309.798 220.445 Z " fill="rgb(255,255,255)"/></g><g><path d=" M 309.798 197.542 L 318.387 197.542 L 318.387 218.059 L 309.798 218.059 L 309.798 197.542 Z " fill="rgb(255,255,255)"/></g><g><path d=" M 309.798 174.64 L 318.387 174.64 L 318.387 195.156 L 309.798 195.156 L 309.798 174.64 Z " fill="rgb(255,255,255)"/></g><g><path d=" M 309.798 151.737 L 318.387 151.737 L 318.387 172.254 L 309.798 172.254 L 309.798 151.737 Z " fill="rgb(255,255,255)"/></g><g><path d=" M 309.798 128.834 L 318.387 128.834 L 318.387 149.828 L 309.798 149.828 L 309.798 128.834 Z " fill="rgb(255,255,255)"/></g></g></g><g><g><path d=" M 95.563 377.424 C 95.563 378.235 94.942 378.855 94.131 378.855 L 57.392 378.855 C 56.58 378.855 55.96 378.235 55.96 377.424 L 55.96 294.878 C 55.96 294.067 56.58 293.447 57.392 293.447 L 94.131 293.447 C 94.942 293.447 95.563 294.067 95.563 294.878 L 95.563 377.424 Z " fill="rgb(255,255,255)"/></g><g><path d=" M 89.837 371.221 C 89.837 372.032 89.217 372.652 88.406 372.652 L 63.117 372.652 C 62.306 372.652 61.686 372.032 61.686 371.221 L 61.686 301.081 C 61.686 300.27 62.306 299.65 63.117 299.65 L 88.406 299.65 C 89.217 299.65 89.837 300.27 89.837 301.081 L 89.837 371.221 Z " fill="rgb(122,104,92)"/></g><g><path d=" M 91.602 335.006 C 91.507 334.242 90.839 333.527 90.028 333.527 L 58.346 333.527 C 57.582 333.527 56.962 334.195 57.058 335.006 L 57.153 335.96 C 57.248 336.724 57.916 337.344 58.728 337.344 L 90.41 337.344 C 91.173 337.344 91.793 336.724 91.698 335.96 L 91.602 335.006 Z " fill="rgb(255,255,255)"/></g><path d=" M 91.746 331.618 L 93.654 331.618 L 93.654 338.775 L 91.746 338.775 L 91.746 331.618 Z " fill="rgb(122,104,92)"/></g><g><path d=" M 196.239 397.463 L 200.533 397.463 L 200.533 447.563 L 196.239 447.563 L 196.239 397.463 Z " fill="rgb(61,54,51)"/><path d=" M 50.712 343.07 L 55.006 343.07 L 55.006 379.809 L 50.712 379.809 L 50.712 343.07 Z " fill="rgb(61,54,51)"/><path d=" M 100.334 343.07 L 103.674 343.07 L 103.674 379.809 L 100.334 379.809 L 100.334 343.07 Z " fill="rgb(61,54,51)"/><path d=" M 124.191 352.612 L 128.008 352.612 L 128.008 402.712 L 124.191 402.712 L 124.191 352.612 Z " fill="rgb(61,54,51)"/><path d=" M 143.277 364.064 L 147.571 364.064 L 147.571 414.163 L 143.277 414.163 L 143.277 364.064 Z " fill="rgb(61,54,51)"/><path d=" M 161.408 375.515 L 165.702 375.515 L 165.702 425.615 L 161.408 425.615 L 161.408 375.515 Z " fill="rgb(61,54,51)"/><path d=" M 179.539 386.012 L 183.356 386.012 L 183.356 436.112 L 179.539 436.112 L 179.539 386.012 Z " fill="rgb(61,54,51)"/><path d=" M 46.895 341.638 L 107.014 341.638 L 107.014 345.455 L 46.895 345.455 L 46.895 341.638 Z " fill="rgb(61,54,51)"/><path d=" M 115.931 344.265 L 206.62 400.736 L 204.729 403.773 L 114.04 347.302 L 115.931 344.265 Z " fill="rgb(61,54,51)"/><path d=" M 111.022 343.26 C 111.022 344.894 109.698 346.219 108.064 346.219 C 106.43 346.219 105.105 344.894 105.105 343.26 C 105.105 341.627 106.43 340.302 108.064 340.302 C 109.698 340.302 111.022 341.627 111.022 343.26 L 111.022 343.26 Z " fill="rgb(61,54,51)"/><path d=" M 50.235 343.26 C 50.235 344.894 48.91 346.219 47.276 346.219 C 45.642 346.219 44.318 344.894 44.318 343.26 C 44.318 341.627 45.642 340.302 47.276 340.302 C 48.91 340.302 50.235 341.627 50.235 343.26 L 50.235 343.26 Z " fill="rgb(61,54,51)"/><path d=" M 118.227 345.741 C 118.227 347.375 116.902 348.7 115.269 348.7 C 113.635 348.7 112.31 347.375 112.31 345.741 C 112.31 344.108 113.635 342.783 115.269 342.783 C 116.902 342.783 118.227 344.108 118.227 345.741 Z " fill="rgb(61,54,51)"/><path d=" M 210.315 403.284 C 210.315 404.918 208.99 406.243 207.356 406.243 C 205.723 406.243 204.398 404.918 204.398 403.284 C 204.398 402.5 204.71 401.747 205.265 401.193 C 205.819 400.638 206.572 400.326 207.356 400.326 C 208.141 400.326 208.893 400.638 209.448 401.193 C 210.003 401.747 210.315 402.5 210.315 403.284 Z " fill="rgb(61,54,51)"/></g><path d=" M 32.58 269.59 L 314.092 269.59 L 314.092 280.087 L 32.58 280.087 L 32.58 269.59 Z " fill="rgb(255,255,255)"/><path d=" M 28.763 126.926 L 318.387 126.926 L 318.387 137.423 L 28.763 137.423 L 28.763 126.926 Z " fill="rgb(255,255,255)"/><path d=" M 211.985 385.535 L 285.464 385.535 L 285.464 428.477 L 211.985 428.477 L 211.985 385.535 Z " fill="rgb(255,255,255)"/><path d=" M 143.277 295.356 L 298.347 295.356 L 298.347 355.475 L 143.277 355.475 L 143.277 295.356 Z " fill="rgb(255,255,255)"/><g><g><g><path d=" M 292.526 335.34 L 292.526 334.338 L 278.116 334.338 L 278.116 349.94 L 278.832 349.94 C 281.504 340.493 289.043 336.628 292.526 335.34 Z " fill="rgb(153,136,126)"/><path d=" M 292.526 335.34 C 289.043 336.628 281.504 340.493 278.879 349.94 L 292.526 349.94 L 292.526 335.34 Z " fill="rgb(122,104,92)"/></g><g><path d=" M 276.351 335.34 L 276.351 334.338 L 261.941 334.338 L 261.941 349.94 L 262.657 349.94 C 265.329 340.493 272.867 336.628 276.351 335.34 Z " fill="rgb(153,136,126)"/><path d=" M 276.351 335.34 C 272.867 336.628 265.329 340.493 262.704 349.94 L 276.351 349.94 L 276.351 335.34 Z " fill="rgb(122,104,92)"/></g><g><path d=" M 260.128 335.34 L 260.128 334.338 L 245.718 334.338 L 245.718 349.94 L 246.434 349.94 C 249.154 340.493 256.692 336.628 260.128 335.34 Z " fill="rgb(153,136,126)"/><path d=" M 260.128 335.34 C 256.645 336.628 249.106 340.493 246.482 349.94 L 260.128 349.94 L 260.128 335.34 Z " fill="rgb(122,104,92)"/></g><g><path d=" M 243.953 335.34 L 243.953 334.338 L 229.543 334.338 L 229.543 349.94 L 230.259 349.94 C 232.979 340.493 240.47 336.628 243.953 335.34 Z " fill="rgb(153,136,126)"/><path d=" M 243.953 335.34 C 240.47 336.628 232.931 340.493 230.307 349.94 L 243.953 349.94 L 243.953 335.34 Z " fill="rgb(122,104,92)"/></g><g><path d=" M 227.778 335.34 L 227.778 334.338 L 213.368 334.338 L 213.368 349.94 L 214.084 349.94 C 216.756 340.493 224.295 336.628 227.778 335.34 Z " fill="rgb(153,136,126)"/><path d=" M 227.778 335.34 C 224.295 336.628 216.756 340.493 214.132 349.94 L 227.778 349.94 L 227.778 335.34 Z " fill="rgb(122,104,92)"/></g><g><path d=" M 211.603 335.34 L 211.603 334.338 L 197.193 334.338 L 197.193 349.94 L 197.909 349.94 C 200.581 340.493 208.12 336.628 211.603 335.34 Z " fill="rgb(153,136,126)"/><path d=" M 211.603 335.34 C 208.12 336.628 200.581 340.493 197.957 349.94 L 211.603 349.94 L 211.603 335.34 Z " fill="rgb(122,104,92)"/></g><g><path d=" M 195.428 335.34 L 195.428 334.338 L 181.018 334.338 L 181.018 349.94 L 181.734 349.94 C 184.406 340.493 191.945 336.628 195.428 335.34 Z " fill="rgb(153,136,126)"/><path d=" M 195.428 335.34 C 191.945 336.628 184.406 340.493 181.782 349.94 L 195.428 349.94 L 195.428 335.34 Z " fill="rgb(122,104,92)"/></g><g><path d=" M 179.205 335.34 L 179.205 334.338 L 164.796 334.338 L 164.796 349.94 L 165.511 349.94 C 168.231 340.493 175.77 336.628 179.205 335.34 Z " fill="rgb(153,136,126)"/><path d=" M 179.205 335.34 C 175.722 336.628 168.183 340.493 165.559 349.94 L 179.205 349.94 L 179.205 335.34 Z " fill="rgb(122,104,92)"/></g><g><path d=" M 163.03 335.34 L 163.03 334.338 L 148.621 334.338 L 148.621 349.94 L 149.336 349.94 C 152.056 340.493 159.547 336.628 163.03 335.34 Z " fill="rgb(153,136,126)"/><path d=" M 163.03 335.34 C 159.547 336.628 152.008 340.493 149.384 349.94 L 163.03 349.94 L 163.03 335.34 Z " fill="rgb(122,104,92)"/></g></g><g><g><path d=" M 292.526 318.497 L 292.526 317.495 L 278.116 317.495 L 278.116 333.097 L 278.832 333.097 C 281.504 323.65 289.043 319.785 292.526 318.497 Z " fill="rgb(153,136,126)"/><path d=" M 292.526 318.497 C 289.043 319.785 281.504 323.65 278.879 333.097 L 292.526 333.097 L 292.526 318.497 Z " fill="rgb(122,104,92)"/></g><g><path d=" M 276.351 318.497 L 276.351 317.495 L 261.941 317.495 L 261.941 333.097 L 262.657 333.097 C 265.329 323.65 272.867 319.785 276.351 318.497 Z " fill="rgb(153,136,126)"/><path d=" M 276.351 318.497 C 272.867 319.785 265.329 323.65 262.704 333.097 L 276.351 333.097 L 276.351 318.497 Z " fill="rgb(122,104,92)"/></g><g><path d=" M 260.128 318.497 L 260.128 317.495 L 245.718 317.495 L 245.718 333.097 L 246.434 333.097 C 249.154 323.65 256.692 319.785 260.128 318.497 Z " fill="rgb(153,136,126)"/><path d=" M 260.128 318.497 C 256.645 319.785 249.106 323.65 246.482 333.097 L 260.128 333.097 L 260.128 318.497 Z " fill="rgb(122,104,92)"/></g><g><path d=" M 243.953 318.497 L 243.953 317.495 L 229.543 317.495 L 229.543 333.097 L 230.259 333.097 C 232.979 323.65 240.47 319.785 243.953 318.497 Z " fill="rgb(153,136,126)"/><path d=" M 243.953 318.497 C 240.47 319.785 232.931 323.65 230.307 333.097 L 243.953 333.097 L 243.953 318.497 Z " fill="rgb(122,104,92)"/></g><g><path d=" M 227.778 318.497 L 227.778 317.495 L 213.368 317.495 L 213.368 333.097 L 214.084 333.097 C 216.756 323.65 224.295 319.785 227.778 318.497 Z " fill="rgb(153,136,126)"/><path d=" M 227.778 318.497 C 224.295 319.785 216.756 323.65 214.132 333.097 L 227.778 333.097 L 227.778 318.497 Z " fill="rgb(122,104,92)"/></g><g><path d=" M 211.603 318.497 L 211.603 317.495 L 197.193 317.495 L 197.193 333.097 L 197.909 333.097 C 200.581 323.65 208.12 319.785 211.603 318.497 Z " fill="rgb(153,136,126)"/><path d=" M 211.603 318.497 C 208.12 319.785 200.581 323.65 197.957 333.097 L 211.603 333.097 L 211.603 318.497 Z " fill="rgb(122,104,92)"/></g><g><path d=" M 195.428 318.497 L 195.428 317.495 L 181.018 317.495 L 181.018 333.097 L 181.734 333.097 C 184.406 323.65 191.945 319.785 195.428 318.497 Z " fill="rgb(153,136,126)"/><path d=" M 195.428 318.497 C 191.945 319.785 184.406 323.65 181.782 333.097 L 195.428 333.097 L 195.428 318.497 Z " fill="rgb(122,104,92)"/></g><g><path d=" M 179.205 318.497 L 179.205 317.495 L 164.796 317.495 L 164.796 333.097 L 165.511 333.097 C 168.231 323.65 175.77 319.785 179.205 318.497 Z " fill="rgb(153,136,126)"/><path d=" M 179.205 318.497 C 175.722 319.785 168.183 323.65 165.559 333.097 L 179.205 333.097 L 179.205 318.497 Z " fill="rgb(122,104,92)"/></g><g><path d=" M 163.03 318.497 L 163.03 317.495 L 148.621 317.495 L 148.621 333.097 L 149.336 333.097 C 152.056 323.65 159.547 319.785 163.03 318.497 Z " fill="rgb(153,136,126)"/><path d=" M 163.03 318.497 C 159.547 319.785 152.008 323.65 149.384 333.097 L 163.03 333.097 L 163.03 318.497 Z " fill="rgb(122,104,92)"/></g></g><g><g><path d=" M 292.526 301.654 L 292.526 300.652 L 278.116 300.652 L 278.116 316.254 L 278.832 316.254 C 281.504 306.807 289.043 302.942 292.526 301.654 Z " fill="rgb(153,136,126)"/><path d=" M 292.526 301.654 C 289.043 302.942 281.504 306.807 278.879 316.254 L 292.526 316.254 L 292.526 301.654 Z " fill="rgb(122,104,92)"/></g><g><path d=" M 276.351 301.654 L 276.351 300.652 L 261.941 300.652 L 261.941 316.254 L 262.657 316.254 C 265.329 306.807 272.867 302.942 276.351 301.654 Z " fill="rgb(153,136,126)"/><path d=" M 276.351 301.654 C 272.867 302.942 265.329 306.807 262.704 316.254 L 276.351 316.254 L 276.351 301.654 Z " fill="rgb(122,104,92)"/></g><g><path d=" M 260.128 301.654 L 260.128 300.652 L 245.718 300.652 L 245.718 316.254 L 246.434 316.254 C 249.154 306.807 256.692 302.942 260.128 301.654 Z " fill="rgb(153,136,126)"/><path d=" M 260.128 301.654 C 256.645 302.942 249.106 306.807 246.482 316.254 L 260.128 316.254 L 260.128 301.654 Z " fill="rgb(122,104,92)"/></g><g><path d=" M 243.953 301.654 L 243.953 300.652 L 229.543 300.652 L 229.543 316.254 L 230.259 316.254 C 232.979 306.807 240.47 302.942 243.953 301.654 Z " fill="rgb(153,136,126)"/><path d=" M 243.953 301.654 C 240.47 302.942 232.931 306.807 230.307 316.254 L 243.953 316.254 L 243.953 301.654 Z " fill="rgb(122,104,92)"/></g><g><path d=" M 227.778 301.654 L 227.778 300.652 L 213.368 300.652 L 213.368 316.254 L 214.084 316.254 C 216.756 306.807 224.295 302.942 227.778 301.654 Z " fill="rgb(153,136,126)"/><path d=" M 227.778 301.654 C 224.295 302.942 216.756 306.807 214.132 316.254 L 227.778 316.254 L 227.778 301.654 Z " fill="rgb(122,104,92)"/></g><g><path d=" M 211.603 301.654 L 211.603 300.652 L 197.193 300.652 L 197.193 316.254 L 197.909 316.254 C 200.581 306.807 208.12 302.942 211.603 301.654 Z " fill="rgb(153,136,126)"/><path d=" M 211.603 301.654 C 208.12 302.942 200.581 306.807 197.957 316.254 L 211.603 316.254 L 211.603 301.654 Z " fill="rgb(122,104,92)"/></g><g><path d=" M 195.428 301.654 L 195.428 300.652 L 181.018 300.652 L 181.018 316.254 L 181.734 316.254 C 184.406 306.807 191.945 302.942 195.428 301.654 Z " fill="rgb(153,136,126)"/><path d=" M 195.428 301.654 C 191.945 302.942 184.406 306.807 181.782 316.254 L 195.428 316.254 L 195.428 301.654 Z " fill="rgb(122,104,92)"/></g><g><path d=" M 179.205 301.654 L 179.205 300.652 L 164.796 300.652 L 164.796 316.254 L 165.511 316.254 C 168.231 306.807 175.77 302.942 179.205 301.654 Z " fill="rgb(153,136,126)"/><path d=" M 179.205 301.654 C 175.722 302.942 168.183 306.807 165.559 316.254 L 179.205 316.254 L 179.205 301.654 Z " fill="rgb(122,104,92)"/></g><g><path d=" M 163.03 301.654 L 163.03 300.652 L 148.621 300.652 L 148.621 316.254 L 149.336 316.254 C 152.056 306.807 159.547 302.942 163.03 301.654 Z " fill="rgb(153,136,126)"/><path d=" M 163.03 301.654 C 159.547 302.942 152.008 306.807 149.384 316.254 L 163.03 316.254 L 163.03 301.654 Z " fill="rgb(122,104,92)"/></g><g><path d=" M 195.428 335.34 L 195.428 334.338 L 181.018 334.338 L 181.018 349.94 L 181.734 349.94 C 184.406 340.493 191.945 336.628 195.428 335.34 Z " fill="rgb(153,136,126)"/><path d=" M 195.428 335.34 C 191.945 336.628 184.406 340.493 181.782 349.94 L 195.428 349.94 L 195.428 335.34 Z " fill="rgb(122,104,92)"/></g><g><path d=" M 179.205 335.34 L 179.205 334.338 L 164.796 334.338 L 164.796 349.94 L 165.511 349.94 C 168.231 340.493 175.77 336.628 179.205 335.34 Z " fill="rgb(153,136,126)"/><path d=" M 179.205 335.34 C 175.722 336.628 168.183 340.493 165.559 349.94 L 179.205 349.94 L 179.205 335.34 Z " fill="rgb(122,104,92)"/></g><g><path d=" M 163.03 335.34 L 163.03 334.338 L 148.621 334.338 L 148.621 349.94 L 149.336 349.94 C 152.056 340.493 159.547 336.628 163.03 335.34 Z " fill="rgb(153,136,126)"/><path d=" M 163.03 335.34 C 159.547 336.628 152.008 340.493 149.384 349.94 L 163.03 349.94 L 163.03 335.34 Z " fill="rgb(122,104,92)"/></g><g><path d=" M 195.428 318.497 L 195.428 317.495 L 181.018 317.495 L 181.018 333.097 L 181.734 333.097 C 184.406 323.65 191.945 319.785 195.428 318.497 Z " fill="rgb(153,136,126)"/><path d=" M 195.428 318.497 C 191.945 319.785 184.406 323.65 181.782 333.097 L 195.428 333.097 L 195.428 318.497 Z " fill="rgb(122,104,92)"/></g><g><path d=" M 179.205 318.497 L 179.205 317.495 L 164.796 317.495 L 164.796 333.097 L 165.511 333.097 C 168.231 323.65 175.77 319.785 179.205 318.497 Z " fill="rgb(153,136,126)"/><path d=" M 179.205 318.497 C 175.722 319.785 168.183 323.65 165.559 333.097 L 179.205 333.097 L 179.205 318.497 Z " fill="rgb(122,104,92)"/></g><g><path d=" M 163.03 318.497 L 163.03 317.495 L 148.621 317.495 L 148.621 333.097 L 149.336 333.097 C 152.056 323.65 159.547 319.785 163.03 318.497 Z " fill="rgb(153,136,126)"/><path d=" M 163.03 318.497 C 159.547 319.785 152.008 323.65 149.384 333.097 L 163.03 333.097 L 163.03 318.497 Z " fill="rgb(122,104,92)"/></g><g><path d=" M 195.428 301.654 L 195.428 300.652 L 181.018 300.652 L 181.018 316.254 L 181.734 316.254 C 184.406 306.807 191.945 302.942 195.428 301.654 Z " fill="rgb(153,136,126)"/><path d=" M 195.428 301.654 C 191.945 302.942 184.406 306.807 181.782 316.254 L 195.428 316.254 L 195.428 301.654 Z " fill="rgb(122,104,92)"/></g><g><path d=" M 179.205 301.654 L 179.205 300.652 L 164.796 300.652 L 164.796 316.254 L 165.511 316.254 C 168.231 306.807 175.77 302.942 179.205 301.654 Z " fill="rgb(153,136,126)"/><path d=" M 179.205 301.654 C 175.722 302.942 168.183 306.807 165.559 316.254 L 179.205 316.254 L 179.205 301.654 Z " fill="rgb(122,104,92)"/></g><g><path d=" M 163.03 301.654 L 163.03 300.652 L 148.621 300.652 L 148.621 316.254 L 149.336 316.254 C 152.056 306.807 159.547 302.942 163.03 301.654 Z " fill="rgb(153,136,126)"/><path d=" M 163.03 301.654 C 159.547 302.942 152.008 306.807 149.384 316.254 L 163.03 316.254 L 163.03 301.654 Z " fill="rgb(122,104,92)"/></g></g></g><g><g><path d=" M 280.12 408.915 L 280.12 407.913 L 265.71 407.913 L 265.71 423.515 L 266.426 423.515 C 269.098 414.068 276.637 410.203 280.12 408.915 Z " fill="rgb(153,136,126)"/><path d=" M 280.12 408.915 C 276.637 410.203 269.098 414.068 266.474 423.515 L 280.12 423.515 L 280.12 408.915 Z " fill="rgb(122,104,92)"/></g><g><path d=" M 263.897 408.915 L 263.897 407.913 L 249.488 407.913 L 249.488 423.515 L 250.203 423.515 C 252.923 414.068 260.462 410.203 263.897 408.915 Z " fill="rgb(153,136,126)"/><path d=" M 263.897 408.915 C 260.414 410.203 252.875 414.068 250.251 423.515 L 263.897 423.515 L 263.897 408.915 Z " fill="rgb(122,104,92)"/></g><g><path d=" M 247.722 408.915 L 247.722 407.913 L 233.313 407.913 L 233.313 423.515 L 234.028 423.515 C 236.748 414.068 244.239 410.203 247.722 408.915 Z " fill="rgb(153,136,126)"/><path d=" M 247.722 408.915 C 244.239 410.203 236.7 414.068 234.076 423.515 L 247.722 423.515 L 247.722 408.915 Z " fill="rgb(122,104,92)"/></g><g><path d=" M 231.547 408.915 L 231.547 407.913 L 217.138 407.913 L 217.138 423.515 L 217.853 423.515 C 220.573 414.068 228.064 410.203 231.547 408.915 Z " fill="rgb(153,136,126)"/><path d=" M 231.547 408.915 C 228.064 410.203 220.525 414.068 217.901 423.515 L 231.547 423.515 L 231.547 408.915 Z " fill="rgb(122,104,92)"/></g><g><path d=" M 280.12 392.072 L 280.12 391.07 L 265.71 391.07 L 265.71 406.672 L 266.426 406.672 C 269.098 397.225 276.637 393.36 280.12 392.072 Z " fill="rgb(153,136,126)"/><path d=" M 280.12 392.072 C 276.637 393.36 269.098 397.225 266.474 406.672 L 280.12 406.672 L 280.12 392.072 Z " fill="rgb(122,104,92)"/></g><g><path d=" M 263.897 392.072 L 263.897 391.07 L 249.488 391.07 L 249.488 406.672 L 250.203 406.672 C 252.923 397.225 260.462 393.36 263.897 392.072 Z " fill="rgb(153,136,126)"/><path d=" M 263.897 392.072 C 260.414 393.36 252.875 397.225 250.251 406.672 L 263.897 406.672 L 263.897 392.072 Z " fill="rgb(122,104,92)"/></g><g><path d=" M 247.722 392.072 L 247.722 391.07 L 233.313 391.07 L 233.313 406.672 L 234.028 406.672 C 236.748 397.225 244.239 393.36 247.722 392.072 Z " fill="rgb(153,136,126)"/><path d=" M 247.722 392.072 C 244.239 393.36 236.7 397.225 234.076 406.672 L 247.722 406.672 L 247.722 392.072 Z " fill="rgb(122,104,92)"/></g><g><path d=" M 231.547 392.072 L 231.547 391.07 L 217.138 391.07 L 217.138 406.672 L 217.853 406.672 C 220.573 397.225 228.064 393.36 231.547 392.072 Z " fill="rgb(153,136,126)"/><path d=" M 231.547 392.072 C 228.064 393.36 220.525 397.225 217.901 406.672 L 231.547 406.672 L 231.547 392.072 Z " fill="rgb(122,104,92)"/></g></g><g><g><g><path d=" M 216.661 169.725 L 262.418 169.725 L 262.418 216.055 L 216.661 216.055 L 216.661 169.725 Z " fill="rgb(255,255,255)"/><g><g><path d=" M 257.933 200.739 L 257.933 199.976 L 246.625 199.976 L 246.625 212.238 L 247.197 212.238 C 249.297 204.795 255.213 201.789 257.933 200.739 Z " fill="rgb(153,136,126)"/><path d=" M 257.933 200.739 C 255.213 201.741 249.297 204.795 247.197 212.19 L 257.933 212.19 L 257.933 200.739 Z " fill="rgb(122,104,92)"/></g><g><path d=" M 245.193 200.739 L 245.193 199.976 L 233.933 199.976 L 233.933 212.238 L 234.506 212.238 C 236.557 204.795 242.474 201.789 245.193 200.739 Z " fill="rgb(153,136,126)"/><path d=" M 245.193 200.739 C 242.474 201.741 236.557 204.795 234.458 212.19 L 245.193 212.19 L 245.193 200.739 Z " fill="rgb(122,104,92)"/></g><g><path d=" M 232.502 200.739 L 232.502 199.976 L 221.193 199.976 L 221.193 212.238 L 221.766 212.238 C 223.865 204.795 229.782 201.789 232.502 200.739 Z " fill="rgb(153,136,126)"/><path d=" M 232.502 200.739 C 229.782 201.741 223.865 204.795 221.766 212.19 L 232.502 212.19 L 232.502 200.739 Z " fill="rgb(122,104,92)"/></g><g><path d=" M 257.933 187.522 L 257.933 186.759 L 246.625 186.759 L 246.625 198.974 L 247.197 198.974 C 249.297 191.53 255.213 188.524 257.933 187.522 Z " fill="rgb(153,136,126)"/><path d=" M 257.933 187.522 C 255.213 188.572 249.297 191.578 247.197 198.974 L 257.933 198.974 L 257.933 187.522 Z " fill="rgb(122,104,92)"/></g><g><path d=" M 245.193 187.522 L 245.193 186.759 L 233.933 186.759 L 233.933 198.974 L 234.506 198.974 C 236.557 191.53 242.474 188.524 245.193 187.522 Z " fill="rgb(153,136,126)"/><path d=" M 245.193 187.522 C 242.474 188.572 236.557 191.578 234.458 198.974 L 245.193 198.974 L 245.193 187.522 Z " fill="rgb(122,104,92)"/></g><g><path d=" M 232.502 187.522 L 232.502 186.759 L 221.193 186.759 L 221.193 198.974 L 221.766 198.974 C 223.865 191.53 229.782 188.524 232.502 187.522 Z " fill="rgb(153,136,126)"/><path d=" M 232.502 187.522 C 229.782 188.572 223.865 191.578 221.766 198.974 L 232.502 198.974 L 232.502 187.522 Z " fill="rgb(122,104,92)"/></g><g><path d=" M 257.933 200.739 L 257.933 199.976 L 246.625 199.976 L 246.625 212.238 L 247.197 212.238 C 249.297 204.795 255.213 201.789 257.933 200.739 Z " fill="rgb(153,136,126)"/><path d=" M 257.933 200.739 C 255.213 201.741 249.297 204.795 247.197 212.19 L 257.933 212.19 L 257.933 200.739 Z " fill="rgb(122,104,92)"/></g><g><path d=" M 245.193 200.739 L 245.193 199.976 L 233.933 199.976 L 233.933 212.238 L 234.506 212.238 C 236.557 204.795 242.474 201.789 245.193 200.739 Z " fill="rgb(153,136,126)"/><path d=" M 245.193 200.739 C 242.474 201.741 236.557 204.795 234.458 212.19 L 245.193 212.19 L 245.193 200.739 Z " fill="rgb(122,104,92)"/></g><g><path d=" M 232.502 200.739 L 232.502 199.976 L 221.193 199.976 L 221.193 212.238 L 221.766 212.238 C 223.865 204.795 229.782 201.789 232.502 200.739 Z " fill="rgb(153,136,126)"/><path d=" M 232.502 200.739 C 229.782 201.741 223.865 204.795 221.766 212.19 L 232.502 212.19 L 232.502 200.739 Z " fill="rgb(122,104,92)"/></g><g><path d=" M 257.933 187.522 L 257.933 186.759 L 246.625 186.759 L 246.625 198.974 L 247.197 198.974 C 249.297 191.53 255.213 188.524 257.933 187.522 Z " fill="rgb(153,136,126)"/><path d=" M 257.933 187.522 C 255.213 188.572 249.297 191.578 247.197 198.974 L 257.933 198.974 L 257.933 187.522 Z " fill="rgb(122,104,92)"/></g><g><path d=" M 245.193 187.522 L 245.193 186.759 L 233.933 186.759 L 233.933 198.974 L 234.506 198.974 C 236.557 191.53 242.474 188.524 245.193 187.522 Z " fill="rgb(153,136,126)"/><path d=" M 245.193 187.522 C 242.474 188.572 236.557 191.578 234.458 198.974 L 245.193 198.974 L 245.193 187.522 Z " fill="rgb(122,104,92)"/></g><g><path d=" M 232.502 187.522 L 232.502 186.759 L 221.193 186.759 L 221.193 198.974 L 221.766 198.974 C 223.865 191.53 229.782 188.524 232.502 187.522 Z " fill="rgb(153,136,126)"/><path d=" M 232.502 187.522 C 229.782 188.572 223.865 191.578 221.766 198.974 L 232.502 198.974 L 232.502 187.522 Z " fill="rgb(122,104,92)"/></g><g><path d=" M 257.933 174.258 L 257.933 173.494 L 246.625 173.494 L 246.625 185.757 L 247.197 185.757 C 249.297 178.313 255.213 175.308 257.933 174.258 Z " fill="rgb(153,136,126)"/><path d=" M 257.933 174.258 C 255.213 175.26 249.297 178.313 247.197 185.709 L 257.933 185.709 L 257.933 174.258 Z " fill="rgb(122,104,92)"/></g><g><path d=" M 245.193 174.258 L 245.193 173.494 L 233.933 173.494 L 233.933 185.757 L 234.506 185.757 C 236.557 178.313 242.474 175.308 245.193 174.258 Z " fill="rgb(153,136,126)"/><path d=" M 245.193 174.258 C 242.474 175.26 236.557 178.313 234.458 185.709 L 245.193 185.709 L 245.193 174.258 Z " fill="rgb(122,104,92)"/></g><g><path d=" M 232.502 174.258 L 232.502 173.494 L 221.193 173.494 L 221.193 185.757 L 221.766 185.757 C 223.865 178.313 229.782 175.308 232.502 174.258 Z " fill="rgb(153,136,126)"/><path d=" M 232.502 174.258 C 229.782 175.26 223.865 178.313 221.766 185.709 L 232.502 185.709 L 232.502 174.258 Z " fill="rgb(122,104,92)"/></g></g></g><g><path d=" M 148.859 170.107 L 194.617 170.107 L 194.617 264.342 L 148.859 264.342 L 148.859 170.107 Z " fill="rgb(255,255,255)"/><g><g><path d=" M 190.132 205.033 L 190.132 204.27 L 178.823 204.27 L 178.823 216.532 L 179.396 216.532 C 181.448 209.089 187.364 206.083 190.132 205.033 Z " fill="rgb(153,136,126)"/><path d=" M 190.132 205.033 C 187.412 206.083 181.495 209.089 179.396 216.485 L 190.132 216.485 L 190.132 205.033 Z " fill="rgb(122,104,92)"/></g><g><path d=" M 177.392 205.033 L 177.392 204.27 L 166.084 204.27 L 166.084 216.532 L 166.656 216.532 C 168.756 209.089 174.672 206.083 177.392 205.033 Z " fill="rgb(153,136,126)"/><path d=" M 177.392 205.033 C 174.672 206.083 168.756 209.089 166.656 216.485 L 177.392 216.485 L 177.392 205.033 Z " fill="rgb(122,104,92)"/></g><g><path d=" M 164.7 205.033 L 164.7 204.27 L 153.392 204.27 L 153.392 216.532 L 153.964 216.532 C 156.016 209.089 161.933 206.083 164.7 205.033 Z " fill="rgb(153,136,126)"/><path d=" M 164.7 205.033 C 161.98 206.083 156.064 209.089 153.964 216.485 L 164.7 216.485 L 164.7 205.033 Z " fill="rgb(122,104,92)"/></g><g><path d=" M 190.132 191.817 L 190.132 191.053 L 178.823 191.053 L 178.823 203.268 L 179.396 203.268 C 181.448 195.872 187.364 192.866 190.132 191.817 Z " fill="rgb(153,136,126)"/><path d=" M 190.132 191.817 C 187.412 192.818 181.495 195.872 179.396 203.268 L 190.132 203.268 L 190.132 191.817 Z " fill="rgb(122,104,92)"/></g><g><path d=" M 177.392 191.817 L 177.392 191.053 L 166.084 191.053 L 166.084 203.268 L 166.656 203.268 C 168.756 195.872 174.672 192.866 177.392 191.817 Z " fill="rgb(153,136,126)"/><path d=" M 177.392 191.817 C 174.672 192.818 168.756 195.872 166.656 203.268 L 177.392 203.268 L 177.392 191.817 Z " fill="rgb(122,104,92)"/></g><g><path d=" M 164.7 191.817 L 164.7 191.053 L 153.392 191.053 L 153.392 203.268 L 153.964 203.268 C 156.016 195.872 161.933 192.866 164.7 191.817 Z " fill="rgb(153,136,126)"/><path d=" M 164.7 191.817 C 161.98 192.818 156.064 195.872 153.964 203.268 L 164.7 203.268 L 164.7 191.817 Z " fill="rgb(122,104,92)"/></g><g><path d=" M 190.132 205.033 L 190.132 204.27 L 178.823 204.27 L 178.823 216.532 L 179.396 216.532 C 181.448 209.089 187.364 206.083 190.132 205.033 Z " fill="rgb(153,136,126)"/><path d=" M 190.132 205.033 C 187.412 206.083 181.495 209.089 179.396 216.485 L 190.132 216.485 L 190.132 205.033 Z " fill="rgb(122,104,92)"/></g><g><path d=" M 177.392 205.033 L 177.392 204.27 L 166.084 204.27 L 166.084 216.532 L 166.656 216.532 C 168.756 209.089 174.672 206.083 177.392 205.033 Z " fill="rgb(153,136,126)"/><path d=" M 177.392 205.033 C 174.672 206.083 168.756 209.089 166.656 216.485 L 177.392 216.485 L 177.392 205.033 Z " fill="rgb(122,104,92)"/></g><g><path d=" M 164.7 205.033 L 164.7 204.27 L 153.392 204.27 L 153.392 216.532 L 153.964 216.532 C 156.016 209.089 161.933 206.083 164.7 205.033 Z " fill="rgb(153,136,126)"/><path d=" M 164.7 205.033 C 161.98 206.083 156.064 209.089 153.964 216.485 L 164.7 216.485 L 164.7 205.033 Z " fill="rgb(122,104,92)"/></g><g><path d=" M 190.132 191.817 L 190.132 191.053 L 178.823 191.053 L 178.823 203.268 L 179.396 203.268 C 181.448 195.872 187.364 192.866 190.132 191.817 Z " fill="rgb(153,136,126)"/><path d=" M 190.132 191.817 C 187.412 192.818 181.495 195.872 179.396 203.268 L 190.132 203.268 L 190.132 191.817 Z " fill="rgb(122,104,92)"/></g><g><path d=" M 177.392 191.817 L 177.392 191.053 L 166.084 191.053 L 166.084 203.268 L 166.656 203.268 C 168.756 195.872 174.672 192.866 177.392 191.817 Z " fill="rgb(153,136,126)"/><path d=" M 177.392 191.817 C 174.672 192.818 168.756 195.872 166.656 203.268 L 177.392 203.268 L 177.392 191.817 Z " fill="rgb(122,104,92)"/></g><g><path d=" M 164.7 191.817 L 164.7 191.053 L 153.392 191.053 L 153.392 203.268 L 153.964 203.268 C 156.016 195.872 161.933 192.866 164.7 191.817 Z " fill="rgb(153,136,126)"/><path d=" M 164.7 191.817 C 161.98 192.818 156.064 195.872 153.964 203.268 L 164.7 203.268 L 164.7 191.817 Z " fill="rgb(122,104,92)"/></g><g><path d=" M 190.132 178.6 L 190.132 177.836 L 178.823 177.836 L 178.823 190.099 L 179.396 190.099 C 181.448 182.655 187.364 179.602 190.132 178.6 Z " fill="rgb(153,136,126)"/><path d=" M 190.132 178.6 C 187.412 179.602 181.495 182.655 179.396 190.051 L 190.132 190.051 L 190.132 178.6 Z " fill="rgb(122,104,92)"/></g><g><path d=" M 177.392 178.6 L 177.392 177.836 L 166.084 177.836 L 166.084 190.099 L 166.656 190.099 C 168.756 182.655 174.672 179.602 177.392 178.6 Z " fill="rgb(153,136,126)"/><path d=" M 177.392 178.6 C 174.672 179.602 168.756 182.655 166.656 190.051 L 177.392 190.051 L 177.392 178.6 Z " fill="rgb(122,104,92)"/></g><g><path d=" M 164.7 178.6 L 164.7 177.836 L 153.392 177.836 L 153.392 190.099 L 153.964 190.099 C 156.016 182.655 161.933 179.602 164.7 178.6 Z " fill="rgb(153,136,126)"/><path d=" M 164.7 178.6 C 161.98 179.602 156.064 182.655 153.964 190.051 L 164.7 190.051 L 164.7 178.6 Z " fill="rgb(122,104,92)"/></g><g><path d=" M 190.132 244.97 L 190.132 244.206 L 178.823 244.206 L 178.823 256.469 L 179.396 256.469 C 181.448 248.978 187.364 245.972 190.132 244.97 Z " fill="rgb(153,136,126)"/><path d=" M 190.132 244.97 C 187.412 246.019 181.495 249.025 179.396 256.421 L 190.132 256.421 L 190.132 244.97 Z " fill="rgb(122,104,92)"/></g><g><path d=" M 177.392 244.97 L 177.392 244.206 L 166.084 244.206 L 166.084 256.469 L 166.656 256.469 C 168.756 248.978 174.672 245.972 177.392 244.97 Z " fill="rgb(153,136,126)"/><path d=" M 177.392 244.97 C 174.672 246.019 168.756 249.025 166.656 256.421 L 177.392 256.421 L 177.392 244.97 Z " fill="rgb(122,104,92)"/></g><g><path d=" M 164.7 244.97 L 164.7 244.206 L 153.392 244.206 L 153.392 256.469 L 153.964 256.469 C 156.016 248.978 161.933 245.972 164.7 244.97 Z " fill="rgb(153,136,126)"/><path d=" M 164.7 244.97 C 161.98 246.019 156.064 249.025 153.964 256.421 L 164.7 256.421 L 164.7 244.97 Z " fill="rgb(122,104,92)"/></g><g><path d=" M 190.132 231.705 L 190.132 230.942 L 178.823 230.942 L 178.823 243.204 L 179.396 243.204 C 181.448 235.761 187.364 232.755 190.132 231.705 Z " fill="rgb(153,136,126)"/><path d=" M 190.132 231.705 C 187.412 232.755 181.495 235.761 179.396 243.157 L 190.132 243.157 L 190.132 231.705 Z " fill="rgb(122,104,92)"/></g><g><path d=" M 177.392 231.705 L 177.392 230.942 L 166.084 230.942 L 166.084 243.204 L 166.656 243.204 C 168.756 235.761 174.672 232.755 177.392 231.705 Z " fill="rgb(153,136,126)"/><path d=" M 177.392 231.705 C 174.672 232.755 168.756 235.761 166.656 243.157 L 177.392 243.157 L 177.392 231.705 Z " fill="rgb(122,104,92)"/></g><g><path d=" M 164.7 231.705 L 164.7 230.942 L 153.392 230.942 L 153.392 243.204 L 153.964 243.204 C 156.016 235.761 161.933 232.755 164.7 231.705 Z " fill="rgb(153,136,126)"/><path d=" M 164.7 231.705 C 161.98 232.755 156.064 235.761 153.964 243.157 L 164.7 243.157 L 164.7 231.705 Z " fill="rgb(122,104,92)"/></g><g><path d=" M 190.132 218.489 L 190.132 217.725 L 178.823 217.725 L 178.823 229.988 L 179.396 229.988 C 181.448 222.544 187.364 219.491 190.132 218.489 Z " fill="rgb(153,136,126)"/><path d=" M 190.132 218.489 C 187.412 219.491 181.495 222.544 179.396 229.94 L 190.132 229.94 L 190.132 218.489 Z " fill="rgb(122,104,92)"/></g><g><path d=" M 177.392 218.489 L 177.392 217.725 L 166.084 217.725 L 166.084 229.988 L 166.656 229.988 C 168.756 222.544 174.672 219.491 177.392 218.489 Z " fill="rgb(153,136,126)"/><path d=" M 177.392 218.489 C 174.672 219.491 168.756 222.544 166.656 229.94 L 177.392 229.94 L 177.392 218.489 Z " fill="rgb(122,104,92)"/></g><g><path d=" M 164.7 218.489 L 164.7 217.725 L 153.392 217.725 L 153.392 229.988 L 153.964 229.988 C 156.016 222.544 161.933 219.491 164.7 218.489 Z " fill="rgb(153,136,126)"/><path d=" M 164.7 218.489 C 161.98 219.491 156.064 222.544 153.964 229.94 L 164.7 229.94 L 164.7 218.489 Z " fill="rgb(122,104,92)"/></g></g></g><g><path d=" M 81.058 169.725 L 126.815 169.725 L 126.815 216.055 L 81.058 216.055 L 81.058 169.725 Z " fill="rgb(255,255,255)"/><g><g><path d=" M 122.282 200.739 L 122.282 199.976 L 110.974 199.976 L 110.974 212.238 L 111.547 212.238 C 113.646 204.795 119.563 201.789 122.282 200.739 Z " fill="rgb(153,136,126)"/><path d=" M 122.282 200.739 C 119.563 201.741 113.646 204.795 111.547 212.19 L 122.282 212.19 L 122.282 200.739 Z " fill="rgb(122,104,92)"/></g><g><path d=" M 109.591 200.739 L 109.591 199.976 L 98.282 199.976 L 98.282 212.238 L 98.855 212.238 C 100.954 204.795 106.871 201.789 109.591 200.739 Z " fill="rgb(153,136,126)"/><path d=" M 109.591 200.739 C 106.871 201.741 100.954 204.795 98.855 212.19 L 109.591 212.19 L 109.591 200.739 Z " fill="rgb(122,104,92)"/></g><g><path d=" M 96.851 200.739 L 96.851 199.976 L 85.543 199.976 L 85.543 212.238 L 86.115 212.238 C 88.215 204.795 94.131 201.789 96.851 200.739 Z " fill="rgb(153,136,126)"/><path d=" M 96.851 200.739 C 94.131 201.741 88.215 204.795 86.115 212.19 L 96.851 212.19 L 96.851 200.739 Z " fill="rgb(122,104,92)"/></g><g><path d=" M 122.282 187.522 L 122.282 186.759 L 110.974 186.759 L 110.974 198.974 L 111.547 198.974 C 113.646 191.53 119.563 188.524 122.282 187.522 Z " fill="rgb(153,136,126)"/><path d=" M 122.282 187.522 C 119.563 188.572 113.646 191.578 111.547 198.974 L 122.282 198.974 L 122.282 187.522 Z " fill="rgb(122,104,92)"/></g><g><path d=" M 109.591 187.522 L 109.591 186.759 L 98.282 186.759 L 98.282 198.974 L 98.855 198.974 C 100.954 191.53 106.871 188.524 109.591 187.522 Z " fill="rgb(153,136,126)"/><path d=" M 109.591 187.522 C 106.871 188.572 100.954 191.578 98.855 198.974 L 109.591 198.974 L 109.591 187.522 Z " fill="rgb(122,104,92)"/></g><g><path d=" M 96.851 187.522 L 96.851 186.759 L 85.543 186.759 L 85.543 198.974 L 86.115 198.974 C 88.215 191.53 94.131 188.524 96.851 187.522 Z " fill="rgb(153,136,126)"/><path d=" M 96.851 187.522 C 94.131 188.572 88.215 191.578 86.115 198.974 L 96.851 198.974 L 96.851 187.522 Z " fill="rgb(122,104,92)"/></g><g><path d=" M 122.282 200.739 L 122.282 199.976 L 110.974 199.976 L 110.974 212.238 L 111.547 212.238 C 113.646 204.795 119.563 201.789 122.282 200.739 Z " fill="rgb(153,136,126)"/><path d=" M 122.282 200.739 C 119.563 201.741 113.646 204.795 111.547 212.19 L 122.282 212.19 L 122.282 200.739 Z " fill="rgb(122,104,92)"/></g><g><path d=" M 109.591 200.739 L 109.591 199.976 L 98.282 199.976 L 98.282 212.238 L 98.855 212.238 C 100.954 204.795 106.871 201.789 109.591 200.739 Z " fill="rgb(153,136,126)"/><path d=" M 109.591 200.739 C 106.871 201.741 100.954 204.795 98.855 212.19 L 109.591 212.19 L 109.591 200.739 Z " fill="rgb(122,104,92)"/></g><g><path d=" M 96.851 200.739 L 96.851 199.976 L 85.543 199.976 L 85.543 212.238 L 86.115 212.238 C 88.215 204.795 94.131 201.789 96.851 200.739 Z " fill="rgb(153,136,126)"/><path d=" M 96.851 200.739 C 94.131 201.741 88.215 204.795 86.115 212.19 L 96.851 212.19 L 96.851 200.739 Z " fill="rgb(122,104,92)"/></g><g><path d=" M 122.282 187.522 L 122.282 186.759 L 110.974 186.759 L 110.974 198.974 L 111.547 198.974 C 113.646 191.53 119.563 188.524 122.282 187.522 Z " fill="rgb(153,136,126)"/><path d=" M 122.282 187.522 C 119.563 188.572 113.646 191.578 111.547 198.974 L 122.282 198.974 L 122.282 187.522 Z " fill="rgb(122,104,92)"/></g><g><path d=" M 109.591 187.522 L 109.591 186.759 L 98.282 186.759 L 98.282 198.974 L 98.855 198.974 C 100.954 191.53 106.871 188.524 109.591 187.522 Z " fill="rgb(153,136,126)"/><path d=" M 109.591 187.522 C 106.871 188.572 100.954 191.578 98.855 198.974 L 109.591 198.974 L 109.591 187.522 Z " fill="rgb(122,104,92)"/></g><g><path d=" M 96.851 187.522 L 96.851 186.759 L 85.543 186.759 L 85.543 198.974 L 86.115 198.974 C 88.215 191.53 94.131 188.524 96.851 187.522 Z " fill="rgb(153,136,126)"/><path d=" M 96.851 187.522 C 94.131 188.572 88.215 191.578 86.115 198.974 L 96.851 198.974 L 96.851 187.522 Z " fill="rgb(122,104,92)"/></g><g><path d=" M 122.282 174.258 L 122.282 173.494 L 110.974 173.494 L 110.974 185.757 L 111.547 185.757 C 113.646 178.313 119.563 175.308 122.282 174.258 Z " fill="rgb(153,136,126)"/><path d=" M 122.282 174.258 C 119.563 175.26 113.646 178.313 111.547 185.709 L 122.282 185.709 L 122.282 174.258 Z " fill="rgb(122,104,92)"/></g><g><path d=" M 109.591 174.258 L 109.591 173.494 L 98.282 173.494 L 98.282 185.757 L 98.855 185.757 C 100.954 178.313 106.871 175.308 109.591 174.258 Z " fill="rgb(153,136,126)"/><path d=" M 109.591 174.258 C 106.871 175.26 100.954 178.313 98.855 185.709 L 109.591 185.709 L 109.591 174.258 Z " fill="rgb(122,104,92)"/></g><g><path d=" M 96.851 174.258 L 96.851 173.494 L 85.543 173.494 L 85.543 185.757 L 86.115 185.757 C 88.215 178.313 94.131 175.308 96.851 174.258 Z " fill="rgb(153,136,126)"/><path d=" M 96.851 174.258 C 94.131 175.26 88.215 178.313 86.115 185.709 L 96.851 185.709 L 96.851 174.258 Z " fill="rgb(122,104,92)"/></g></g></g></g><g><path d=" M 130.871 217.582 C 130.871 218.632 130.012 219.491 128.962 219.491 L 80.294 219.491 C 79.245 219.491 78.386 218.632 78.386 217.582 L 78.386 216.151 C 78.386 215.101 79.245 214.242 80.294 214.242 L 128.962 214.242 C 130.012 214.242 130.871 215.101 130.871 216.151 L 130.871 217.582 Z " fill="rgb(255,255,255)"/></g><g><path d=" M 265.901 217.105 C 265.901 218.155 265.042 219.013 263.993 219.013 L 215.325 219.013 C 214.275 219.013 213.416 218.155 213.416 217.105 L 213.416 215.673 C 213.416 214.624 214.275 213.765 215.325 213.765 L 263.993 213.765 C 265.042 213.765 265.901 214.624 265.901 215.673 L 265.901 217.105 Z " fill="rgb(255,255,255)"/></g></g><g><path d=" M 89.837 259.57 L 252.541 259.57 L 252.541 264.819 L 89.837 264.819 L 89.837 259.57 Z " fill="rgb(255,255,255)"/><g><g><path d=" M 247.293 223.785 L 251.11 223.785 L 251.11 259.57 L 247.293 259.57 L 247.293 223.785 Z " fill="rgb(61,54,51)"/></g><g><path d=" M 229.639 223.785 L 233.933 223.785 L 233.933 259.57 L 229.639 259.57 L 229.639 223.785 Z " fill="rgb(61,54,51)"/></g><g><path d=" M 212.462 223.785 L 216.756 223.785 L 216.756 259.57 L 212.462 259.57 L 212.462 223.785 Z " fill="rgb(61,54,51)"/></g><g><path d=" M 195.285 223.785 L 199.102 223.785 L 199.102 259.57 L 195.285 259.57 L 195.285 223.785 Z " fill="rgb(61,54,51)"/></g><g><path d=" M 178.108 223.785 L 182.402 223.785 L 182.402 259.57 L 178.108 259.57 L 178.108 223.785 Z " fill="rgb(61,54,51)"/></g><g><path d=" M 160.454 223.785 L 164.748 223.785 L 164.748 259.57 L 160.454 259.57 L 160.454 223.785 Z " fill="rgb(61,54,51)"/></g><g><path d=" M 143.754 223.785 L 147.571 223.785 L 147.571 259.57 L 143.754 259.57 L 143.754 223.785 Z " fill="rgb(61,54,51)"/></g><g><path d=" M 126.1 223.785 L 130.394 223.785 L 130.394 259.57 L 126.1 259.57 L 126.1 223.785 Z " fill="rgb(61,54,51)"/></g><g><path d=" M 108.923 223.785 L 113.217 223.785 L 113.217 259.57 L 108.923 259.57 L 108.923 223.785 Z " fill="rgb(61,54,51)"/></g><g><path d=" M 91.746 223.785 L 95.563 223.785 L 95.563 259.57 L 91.746 259.57 L 91.746 223.785 Z " fill="rgb(61,54,51)"/></g></g><path d=" M 89.837 222.353 L 252.541 222.353 L 252.541 226.648 L 89.837 226.648 L 89.837 222.353 Z " fill="rgb(61,54,51)"/><path d=" M 90.553 224.548 C 90.553 226.182 89.228 227.506 87.594 227.506 C 86.81 227.506 86.057 227.195 85.503 226.64 C 84.948 226.085 84.636 225.333 84.636 224.548 C 84.636 223.764 84.948 223.011 85.503 222.456 C 86.057 221.902 86.81 221.59 87.594 221.59 C 89.228 221.59 90.553 222.914 90.553 224.548 Z " fill="rgb(61,54,51)"/><path d=" M 257.408 224.214 C 257.408 224.999 257.097 225.751 256.542 226.306 C 255.987 226.861 255.235 227.172 254.45 227.172 C 253.665 227.172 252.913 226.861 252.358 226.306 C 251.803 225.751 251.492 224.999 251.492 224.214 C 251.492 223.43 251.803 222.677 252.358 222.122 C 252.913 221.568 253.665 221.256 254.45 221.256 C 255.235 221.256 255.987 221.568 256.542 222.122 C 257.097 222.677 257.408 223.43 257.408 224.214 Z " fill="rgb(61,54,51)"/></g></g><g opacity="0.8"><path d=" M 27.809 124.063 L 318.387 124.063 L 318.387 129.788 L 27.809 129.788 L 27.809 124.063 Z " fill="rgb(183,161,146)"/></g></g><g><g><g><path d=" M -5.4 382.243 L -7.404 378.282 L -9.408 382.243 L -8.501 382.243 L -8.501 459.396 L -6.306 459.396 L -6.306 382.243 L -5.4 382.243 Z " fill="rgb(61,54,51)"/></g><g><path d=" M -26.06 382.243 L -28.064 378.282 L -30.068 382.243 L -29.209 382.243 L -29.209 459.396 L -26.967 459.396 L -26.967 382.243 L -26.06 382.243 Z " fill="rgb(61,54,51)"/></g><g><path d=" M -46.768 382.243 L -48.772 378.282 L -50.776 382.243 L -49.869 382.243 L -49.869 459.396 L -47.627 459.396 L -47.627 382.243 L -46.768 382.243 Z " fill="rgb(61,54,51)"/></g><g><path d=" M -67.428 382.243 L -69.432 378.282 L -71.436 382.243 L -70.529 382.243 L -70.529 459.396 L -68.334 459.396 L -68.334 382.243 L -67.428 382.243 Z " fill="rgb(61,54,51)"/></g><g><path d=" M -88.088 382.243 L -90.092 378.282 L -92.096 382.243 L -91.189 382.243 L -91.189 459.396 L -88.995 459.396 L -88.995 382.243 L -88.088 382.243 Z " fill="rgb(61,54,51)"/></g><g><path d=" M -108.748 382.243 L -110.752 378.282 L -112.756 382.243 L -111.85 382.243 L -111.85 459.396 L -109.655 459.396 L -109.655 382.243 L -108.748 382.243 Z " fill="rgb(61,54,51)"/></g><g><path d=" M -129.408 382.243 L -131.412 378.282 L -133.416 382.243 L -132.51 382.243 L -132.51 459.396 L -130.315 459.396 L -130.315 382.243 L -129.408 382.243 Z " fill="rgb(61,54,51)"/></g><g><path d=" M -150.068 382.243 L -152.072 378.282 L -154.076 382.243 L -153.217 382.243 L -153.217 459.396 L -150.975 459.396 L -150.975 382.243 L -150.068 382.243 Z " fill="rgb(61,54,51)"/></g></g><g><g><path d=" M -16.183 421.511 L -18.187 417.551 L -20.191 421.511 L -19.285 421.511 L -19.285 459.396 L -17.09 459.396 L -17.09 421.511 L -16.183 421.511 Z " fill="rgb(61,54,51)"/></g><g><path d=" M -36.891 421.511 L -38.847 417.551 L -40.851 421.511 L -39.992 421.511 L -39.992 459.396 L -37.75 459.396 L -37.75 421.511 L -36.891 421.511 Z " fill="rgb(61,54,51)"/></g><g><path d=" M -57.551 421.511 L -59.555 417.551 L -61.559 421.511 L -60.653 421.511 L -60.653 459.396 L -58.41 459.396 L -58.41 421.511 L -57.551 421.511 Z " fill="rgb(61,54,51)"/></g><g><path d=" M -78.211 421.511 L -80.215 417.551 L -82.219 421.511 L -81.313 421.511 L -81.313 459.396 L -79.118 459.396 L -79.118 421.511 L -78.211 421.511 Z " fill="rgb(61,54,51)"/></g><g><path d=" M -98.871 421.511 L -100.875 417.551 L -102.879 421.511 L -101.973 421.511 L -101.973 459.396 L -99.778 459.396 L -99.778 421.511 L -98.871 421.511 Z " fill="rgb(61,54,51)"/></g><g><path d=" M -119.531 421.511 L -121.535 417.551 L -123.539 421.511 L -122.633 421.511 L -122.633 459.396 L -120.438 459.396 L -120.438 421.511 L -119.531 421.511 Z " fill="rgb(61,54,51)"/></g><g><path d=" M -140.192 421.511 L -142.196 417.551 L -144.2 421.511 L -143.293 421.511 L -143.293 459.396 L -141.098 459.396 L -141.098 421.511 L -140.192 421.511 Z " fill="rgb(61,54,51)"/></g></g></g></g></g></g><path d=" M 330.792 125.494 L 13.972 125.494 L 36.875 75.395 L 307.889 75.395 L 330.792 125.494 Z " fill="rgb(114,92,84)"/><path d=" M 312.184 76.11 C 312.184 77.017 311.373 77.78 310.371 77.78 L 33.964 77.78 C 32.914 77.78 32.103 77.017 32.103 76.11 L 32.103 74.679 C 32.103 73.772 32.962 73.009 33.964 73.009 L 310.323 73.009 C 311.373 73.009 312.136 73.772 312.136 74.679 L 312.136 76.11 L 312.184 76.11 Z " fill="rgb(91,72,66)"/><g><g><path d=" M 292.192 92.094 L 298.776 92.094 L 295.102 83.84 L 294.386 84.174 L 297.488 91.14 L 292.716 91.14 L 289.663 83.84 L 288.899 84.222 L 292.192 92.094 Z " fill="rgb(155,120,109)"/></g><g><path d=" M 284.701 95.434 L 291.285 95.434 L 287.659 87.371 L 286.895 87.848 L 290.044 94.957 L 285.273 94.957 L 282.172 87.609 L 281.408 87.8 L 284.701 95.434 Z " fill="rgb(155,120,109)"/></g><g><path d=" M 46.751 117.86 L 53.336 117.86 L 56.628 109.987 L 55.865 109.653 L 52.763 116.906 L 48.04 116.906 L 51.141 109.844 L 50.378 109.605 L 46.751 117.86 Z " fill="rgb(155,120,109)"/></g><g><path d=" M 76.62 91.617 L 83.205 91.617 L 86.497 83.792 L 85.734 83.411 L 82.632 90.663 L 77.909 90.663 L 81.01 83.697 L 80.247 83.411 L 76.62 91.617 Z " fill="rgb(155,120,109)"/></g><g><path d=" M 181.018 101.637 L 187.507 101.637 L 186.935 93.574 L 186.124 93.621 L 186.601 100.683 L 181.782 100.683 L 181.448 93.478 L 180.637 93.574 L 181.018 101.637 Z " fill="rgb(155,120,109)"/></g><g><path d=" M 173.527 104.977 L 180.064 104.977 L 179.444 97.104 L 178.633 97.295 L 179.157 104.5 L 174.338 104.5 L 174.004 97.248 L 173.193 97.152 L 173.527 104.977 Z " fill="rgb(155,120,109)"/></g></g></g></g></g><path d=" M 336.191 122.225 C 336.191 124.849 334.044 126.996 331.42 126.996 L 13.646 126.996 C 11.021 126.996 8.874 124.849 8.874 122.225 L 8.874 121.747 C 8.874 119.123 11.021 116.976 13.646 116.976 L 331.42 116.976 C 334.044 116.976 336.191 119.123 336.191 121.747 L 336.191 122.225 Z " fill="rgb(91,72,66)"/></g></svg>