<?xml version="1.0" standalone="no"?><!-- Generator: Gravit.io --><svg xmlns="http://www.w3.org/2000/svg" xmlns:xlink="http://www.w3.org/1999/xlink" style="isolation:isolate" viewBox="0 0 180 110" width="180" height="110"><defs><clipPath id="_clipPath_6pFHWgauuE5Rgcv9joQYc8Y3aljqdRYQ"><rect width="180" height="110"/></clipPath></defs><g clip-path="url(#_clipPath_6pFHWgauuE5Rgcv9joQYc8Y3aljqdRYQ)"><clipPath id="_clipPath_7RhA6VSLMidOUnFeriL11nuTepGDhWhN"><rect x="0" y="0" width="180" height="110" transform="matrix(1,0,0,1,0,0)" fill="rgb(255,255,255)"/></clipPath><g clip-path="url(#_clipPath_7RhA6VSLMidOUnFeriL11nuTepGDhWhN)"><g><g><path d=" M 156.448 89.519 L 27.513 89.519 L 27.513 41.408 L 156.448 41.408 L 156.448 89.519 Z " fill="rgb(201,190,169)"/><path d=" M 27.513 41.408 L 27.513 45.605 L 156.448 45.605 L 156.448 41.408 L 27.513 41.408 Z " fill="rgb(147,141,126)"/><path d=" M 156.448 47.705 L 27.513 47.705 L 27.513 45.601 L 156.448 45.601 L 156.448 47.705 L 156.448 47.705 Z " fill="rgb(213,204,188)"/><path d=" M 156.448 51.9 L 27.513 51.9 L 27.513 49.801 L 156.448 49.801 L 156.448 51.9 L 156.448 51.9 Z " fill="rgb(213,204,188)"/><path d=" M 156.448 56.097 L 27.513 56.097 L 27.513 54 L 156.448 54 L 156.448 56.097 L 156.448 56.097 Z " fill="rgb(213,204,188)"/><path d=" M 156.448 60.223 L 27.513 60.223 L 27.513 58.127 L 156.448 58.127 L 156.448 60.223 L 156.448 60.223 Z " fill="rgb(213,204,188)"/><path d=" M 156.448 64.42 L 27.513 64.42 L 27.513 62.324 L 156.448 62.324 L 156.448 64.42 L 156.448 64.42 Z " fill="rgb(213,204,188)"/><path d=" M 156.448 68.561 L 27.513 68.561 L 27.513 66.465 L 156.448 66.465 L 156.448 68.561 L 156.448 68.561 Z " fill="rgb(213,204,188)"/><path d=" M 156.448 72.761 L 27.513 72.761 L 27.513 70.661 L 156.448 70.661 L 156.448 72.761 L 156.448 72.761 Z " fill="rgb(213,204,188)"/><path d=" M 156.448 76.957 L 27.513 76.957 L 27.513 74.859 L 156.448 74.859 L 156.448 76.957 L 156.448 76.957 Z " fill="rgb(213,204,188)"/><path d=" M 156.448 81.155 L 27.513 81.155 L 27.513 79.059 L 156.448 79.059 L 156.448 81.155 L 156.448 81.155 Z " fill="rgb(213,204,188)"/><path d=" M 156.448 85.283 L 27.513 85.283 L 27.513 83.181 L 156.448 83.181 L 156.448 85.283 L 156.448 85.283 Z " fill="rgb(213,204,188)"/><path d=" M 156.448 89.48 L 27.513 89.48 L 27.513 87.381 L 156.448 87.381 L 156.448 89.48 L 156.448 89.48 Z " fill="rgb(213,204,188)"/><path d=" M 41.631 9.177 L 32.888 29.261 L 14.129 41.408 L 91.981 41.408 L 91.981 9.177 L 41.631 9.177 Z " fill="rgb(39,66,72)"/><path d=" M 162.485 101.841 L 21.477 101.841 L 21.477 89.519 L 162.485 89.519 L 162.485 101.841 Z " fill="rgb(39,66,72)"/><path d=" M 101.285 89.48 L 82.677 89.48 L 82.677 64.42 L 101.285 64.42 L 101.285 89.48 L 101.285 89.48 Z " fill="rgb(24,33,34)"/><path d=" M 86.597 79.773 L 85.075 79.773 L 85.075 75.665 L 86.597 75.665 L 86.597 79.773 L 86.597 79.773 Z " fill="rgb(255,255,255)"/><path d=" M 107.427 89.48 L 107.427 101.841 L 119.779 101.841 L 107.427 89.48 L 107.427 89.48 Z " fill="rgb(24,33,34)"/><path d=" M 114.484 101.841 L 69.16 101.841 L 76.223 89.48 L 107.427 89.48 L 114.484 101.841 L 114.484 101.841 Z " fill="rgb(236,231,223)"/><path d=" M 35.32 74.659 L 40.839 74.659 L 40.839 66.629 L 35.32 66.629 L 35.32 74.659 L 35.32 74.659 Z " fill="rgb(109,110,112)"/><path d=" M 43.137 74.659 L 48.655 74.659 L 48.655 66.629 L 43.137 66.629 L 43.137 74.659 L 43.137 74.659 Z " fill="rgb(109,110,112)"/><path d=" M 40.839 56.297 L 35.32 56.297 L 35.32 64.332 L 40.839 64.332 L 40.839 56.297 L 40.839 56.297 Z " fill="rgb(109,110,112)"/><path d=" M 48.655 56.297 L 43.137 56.297 L 43.137 64.332 L 48.655 64.332 L 48.655 56.297 L 48.655 56.297 Z " fill="rgb(109,110,112)"/><path d=" M 48.655 74.659 L 43.137 74.659 L 43.137 66.629 L 48.655 66.629 L 48.655 74.659 L 48.655 74.659 Z  M 40.839 74.659 L 35.32 74.659 L 35.32 66.629 L 40.839 66.629 L 40.839 74.659 L 40.839 74.659 Z  M 35.32 56.297 L 40.839 56.297 L 40.839 64.332 L 35.32 64.332 L 35.32 56.297 L 35.32 56.297 Z  M 43.137 56.297 L 48.655 56.297 L 48.655 64.332 L 43.137 64.332 L 43.137 56.297 L 43.137 56.297 Z  M 33.027 54 L 33.027 76.957 L 50.949 76.957 L 50.949 54 L 33.027 54 L 33.027 54 Z " fill="rgb(255,255,255)"/><path d=" M 60.252 74.659 L 65.772 74.659 L 65.772 66.629 L 60.252 66.629 L 60.252 74.659 L 60.252 74.659 Z " fill="rgb(109,110,112)"/><path d=" M 68.069 74.659 L 73.585 74.659 L 73.585 66.629 L 68.069 66.629 L 68.069 74.659 L 68.069 74.659 Z " fill="rgb(109,110,112)"/><path d=" M 65.772 56.297 L 60.252 56.297 L 60.252 64.332 L 65.772 64.332 L 65.772 56.297 L 65.772 56.297 Z " fill="rgb(109,110,112)"/><path d=" M 73.585 56.297 L 68.069 56.297 L 68.069 64.332 L 73.585 64.332 L 73.585 56.297 L 73.585 56.297 Z " fill="rgb(109,110,112)"/><path d=" M 73.585 74.659 L 68.069 74.659 L 68.069 66.629 L 73.585 66.629 L 73.585 74.659 L 73.585 74.659 Z  M 65.772 74.659 L 60.252 74.659 L 60.252 66.629 L 65.772 66.629 L 65.772 74.659 L 65.772 74.659 Z  M 60.252 56.297 L 65.772 56.297 L 65.772 64.332 L 60.252 64.332 L 60.252 56.297 L 60.252 56.297 Z  M 68.069 56.297 L 73.585 56.297 L 73.585 64.332 L 68.069 64.332 L 68.069 56.297 L 68.069 56.297 Z  M 57.96 54 L 57.96 76.957 L 75.883 76.957 L 75.883 54 L 57.96 54 L 57.96 54 Z " fill="rgb(255,255,255)"/><path d=" M 110.368 74.659 L 115.889 74.659 L 115.889 66.629 L 110.368 66.629 L 110.368 74.659 L 110.368 74.659 Z " fill="rgb(109,110,112)"/><path d=" M 118.184 74.659 L 123.703 74.659 L 123.703 66.629 L 118.184 66.629 L 118.184 74.659 L 118.184 74.659 Z " fill="rgb(109,110,112)"/><path d=" M 115.889 56.297 L 110.368 56.297 L 110.368 64.332 L 115.889 64.332 L 115.889 56.297 L 115.889 56.297 Z " fill="rgb(109,110,112)"/><path d=" M 123.703 56.297 L 118.184 56.297 L 118.184 64.332 L 123.703 64.332 L 123.703 56.297 L 123.703 56.297 Z " fill="rgb(109,110,112)"/><path d=" M 123.703 74.659 L 118.184 74.659 L 118.184 66.629 L 123.703 66.629 L 123.703 74.659 L 123.703 74.659 Z  M 115.889 74.659 L 110.368 74.659 L 110.368 66.629 L 115.889 66.629 L 115.889 74.659 L 115.889 74.659 Z  M 110.368 56.297 L 115.889 56.297 L 115.889 64.332 L 110.368 64.332 L 110.368 56.297 L 110.368 56.297 Z  M 118.184 56.297 L 123.703 56.297 L 123.703 64.332 L 118.184 64.332 L 118.184 56.297 L 118.184 56.297 Z  M 108.073 54 L 108.073 76.957 L 126 76.957 L 126 54 L 108.073 54 L 108.073 54 Z " fill="rgb(255,255,255)"/><path d=" M 135.532 74.659 L 141.053 74.659 L 141.053 66.629 L 135.532 66.629 L 135.532 74.659 L 135.532 74.659 Z " fill="rgb(109,110,112)"/><path d=" M 143.348 74.659 L 148.867 74.659 L 148.867 66.629 L 143.348 66.629 L 143.348 74.659 Z " fill="rgb(109,110,112)"/><path d=" M 141.053 56.297 L 135.532 56.297 L 135.532 64.332 L 141.053 64.332 L 141.053 56.297 L 141.053 56.297 Z " fill="rgb(109,110,112)"/><path d=" M 148.867 56.297 L 143.348 56.297 L 143.348 64.332 L 148.867 64.332 L 148.867 56.297 L 148.867 56.297 Z " fill="rgb(109,110,112)"/><path d=" M 148.867 74.659 L 143.348 74.659 L 143.348 66.629 L 148.867 66.629 L 148.867 74.659 L 148.867 74.659 Z  M 141.053 74.659 L 135.532 74.659 L 135.532 66.629 L 141.053 66.629 L 141.053 74.659 L 141.053 74.659 Z  M 135.532 56.297 L 141.053 56.297 L 141.053 64.332 L 135.532 64.332 L 135.532 56.297 L 135.532 56.297 Z  M 143.348 56.297 L 148.867 56.297 L 148.867 64.332 L 143.348 64.332 L 143.348 56.297 L 143.348 56.297 Z  M 133.237 54 L 133.237 76.957 L 151.163 76.957 L 151.163 54 L 133.237 54 L 133.237 54 Z " fill="rgb(255,255,255)"/><path d=" M 21.477 41.408 L 21.477 45.601 L 27.513 45.601 L 27.513 41.408 L 21.477 41.408 L 21.477 41.408 Z " fill="rgb(50,103,114)"/><path d=" M 21.477 101.841 L 27.513 101.841 L 27.513 45.601 L 21.477 45.601 L 21.477 101.841 L 21.477 101.841 Z " fill="rgb(67,142,154)"/><path d=" M 162.485 41.408 L 156.448 41.408 L 156.448 45.601 L 162.485 45.601 L 162.485 41.408 L 162.485 41.408 Z " fill="rgb(50,103,114)"/><path d=" M 156.448 45.601 L 156.448 101.841 L 162.485 101.841 L 162.485 45.601 L 156.448 45.601 L 156.448 45.601 Z " fill="rgb(67,142,154)"/><path d=" M 85.075 41.408 L 51.767 41.408 L 46.525 36.165 L 65.511 21.476 L 85.075 41.408 Z " fill="rgb(24,33,34)"/><path d=" M 151.075 29.261 L 142.328 9.177 L 91.981 9.177 L 91.981 28.819 L 82.487 36.165 L 87.729 41.408 L 91.981 41.408 L 121.039 41.408 L 169.832 41.408 L 151.075 29.261 L 151.075 29.261 Z " fill="rgb(24,33,34)"/><path d=" M 56.02 13.591 L 46.525 21.476 L 46.525 24.164 L 56.02 16.277 L 65.511 24.164 L 65.511 21.476 L 56.02 13.591 L 56.02 13.591 Z " fill="rgb(24,33,34)"/><path d=" M 46.525 24.164 L 46.525 36.165 L 65.511 36.165 L 65.511 24.164 L 56.02 16.277 L 46.525 24.164 L 46.525 24.164 Z " fill="rgb(201,190,169)"/><path d=" M 52.04 32.579 L 55.333 32.579 L 55.333 28.84 L 52.04 28.84 L 52.04 32.579 L 52.04 32.579 Z " fill="rgb(109,110,112)"/><path d=" M 56.705 32.579 L 59.995 32.579 L 59.995 28.84 L 56.705 28.84 L 56.705 32.579 L 56.705 32.579 Z " fill="rgb(109,110,112)"/><path d=" M 55.333 23.724 L 52.04 23.724 L 52.04 27.468 L 55.333 27.468 L 55.333 23.724 L 55.333 23.724 Z " fill="rgb(109,110,112)"/><path d=" M 59.995 23.724 L 56.705 23.724 L 56.705 27.468 L 59.995 27.468 L 59.995 23.724 L 59.995 23.724 Z " fill="rgb(109,110,112)"/><path d=" M 59.995 32.579 L 56.705 32.579 L 56.705 28.84 L 59.995 28.84 L 59.995 32.579 L 59.995 32.579 Z  M 55.333 32.579 L 52.04 32.579 L 52.04 28.84 L 55.333 28.84 L 55.333 32.579 L 55.333 32.579 Z  M 52.04 23.724 L 55.333 23.724 L 55.333 27.468 L 52.04 27.468 L 52.04 23.724 L 52.04 23.724 Z  M 56.705 23.724 L 59.995 23.724 L 59.995 27.468 L 56.705 27.468 L 56.705 23.724 L 56.705 23.724 Z  M 50.673 22.353 L 50.673 33.953 L 61.365 33.953 L 61.365 22.353 L 50.673 22.353 L 50.673 22.353 Z " fill="rgb(255,255,255)"/><path d=" M 91.981 13.591 L 82.487 21.476 L 82.487 24.164 L 91.981 16.277 L 101.473 24.164 L 101.473 21.476 L 91.981 13.591 L 91.981 13.591 Z " fill="rgb(24,33,34)"/><path d=" M 82.487 24.164 L 82.487 36.165 L 101.473 36.165 L 101.473 24.164 L 91.981 16.277 L 82.487 24.164 L 82.487 24.164 Z " fill="rgb(201,190,169)"/><path d=" M 88.005 32.579 L 91.296 32.579 L 91.296 28.84 L 88.005 28.84 L 88.005 32.579 L 88.005 32.579 Z " fill="rgb(109,110,112)"/><path d=" M 92.665 32.579 L 95.957 32.579 L 95.957 28.84 L 92.665 28.84 L 92.665 32.579 L 92.665 32.579 Z " fill="rgb(109,110,112)"/><path d=" M 91.296 23.724 L 88.005 23.724 L 88.005 27.468 L 91.296 27.468 L 91.296 23.724 L 91.296 23.724 Z " fill="rgb(109,110,112)"/><path d=" M 95.957 23.724 L 92.665 23.724 L 92.665 27.468 L 95.957 27.468 L 95.957 23.724 L 95.957 23.724 Z " fill="rgb(109,110,112)"/><path d=" M 95.957 32.579 L 92.665 32.579 L 92.665 28.84 L 95.957 28.84 L 95.957 32.579 L 95.957 32.579 Z  M 91.296 32.579 L 88.005 32.579 L 88.005 28.84 L 91.296 28.84 L 91.296 32.579 L 91.296 32.579 Z  M 88.005 23.724 L 91.296 23.724 L 91.296 27.468 L 88.005 27.468 L 88.005 23.724 L 88.005 23.724 Z  M 92.665 23.724 L 95.957 23.724 L 95.957 27.468 L 92.665 27.468 L 92.665 23.724 L 92.665 23.724 Z  M 86.636 22.353 L 86.636 33.953 L 97.327 33.953 L 97.327 22.353 L 86.636 22.353 L 86.636 22.353 Z " fill="rgb(255,255,255)"/><path d=" M 127.891 13.591 L 118.4 21.476 L 118.4 24.164 L 127.891 16.277 L 137.385 24.164 L 137.385 21.476 L 127.891 13.591 L 127.891 13.591 Z " fill="rgb(39,66,72)"/><path d=" M 118.4 24.164 L 118.4 36.165 L 137.385 36.165 L 137.385 24.164 L 127.891 16.277 L 118.4 24.164 L 118.4 24.164 Z " fill="rgb(201,190,169)"/><path d=" M 123.916 32.579 L 127.208 32.579 L 127.208 28.84 L 123.916 28.84 L 123.916 32.579 L 123.916 32.579 Z " fill="rgb(109,110,112)"/><path d=" M 128.576 32.579 L 131.871 32.579 L 131.871 28.84 L 128.576 28.84 L 128.576 32.579 L 128.576 32.579 Z " fill="rgb(109,110,112)"/><path d=" M 127.208 23.724 L 123.916 23.724 L 123.916 27.468 L 127.208 27.468 L 127.208 23.724 L 127.208 23.724 Z " fill="rgb(109,110,112)"/><path d=" M 131.871 23.724 L 128.576 23.724 L 128.576 27.468 L 131.871 27.468 L 131.871 23.724 L 131.871 23.724 Z " fill="rgb(109,110,112)"/><path d=" M 131.871 32.579 L 128.576 32.579 L 128.576 28.84 L 131.871 28.84 L 131.871 32.579 L 131.871 32.579 Z  M 127.208 32.579 L 123.916 32.579 L 123.916 28.84 L 127.208 28.84 L 127.208 32.579 L 127.208 32.579 Z  M 123.916 23.724 L 127.208 23.724 L 127.208 27.468 L 123.916 27.468 L 123.916 23.724 L 123.916 23.724 Z  M 128.576 23.724 L 131.871 23.724 L 131.871 27.468 L 128.576 27.468 L 128.576 23.724 L 128.576 23.724 Z  M 122.548 22.353 L 122.548 33.953 L 133.237 33.953 L 133.237 22.353 L 122.548 22.353 L 122.548 22.353 Z " fill="rgb(255,255,255)"/><line x1="32.61" y1="568.821" x2="32.61" y2="572.861"/><path d=" M 32.598 566.279 L 32.598 568.821 L 32.61 568.821 L 32.61 566.279 L 32.598 566.279 L 32.598 566.279 Z " fill="rgb(55,68,75)"/><line x1="32.61" y1="566.279" x2="32.61" y2="568.821"/></g></g></g></g></svg>