<?xml version="1.0" standalone="no"?><!-- Generator: Gravit.io --><svg xmlns="http://www.w3.org/2000/svg" xmlns:xlink="http://www.w3.org/1999/xlink" style="isolation:isolate" viewBox="0 0 210 120" width="210" height="120"><defs><clipPath id="_clipPath_wvo4zMXVeIqPhEGjHF4cvRjYJnbQ0IDu"><rect width="210" height="120"/></clipPath></defs><g clip-path="url(#_clipPath_wvo4zMXVeIqPhEGjHF4cvRjYJnbQ0IDu)"><g><path d=" M 63.197 19.732 L 63.197 57.768 L 108.503 57.768 L 63.197 19.732 Z " fill="rgb(183,182,181)"/><path d=" M 17.929 57.768 L 63.197 57.768 L 63.197 19.732 L 17.929 57.768 Z " fill="rgb(213,213,211)"/><path d=" M 108.515 57.768 L 153.784 57.768 L 153.784 19.732 L 108.515 57.768 Z " fill="rgb(213,213,211)"/><path d=" M 153.784 19.732 L 153.784 57.768 L 199.088 57.768 L 153.784 19.732 Z " fill="rgb(183,182,181)"/><path d=" M 207.317 109.816 L 85.079 109.816 L 85.079 96.652 L 207.317 96.652 L 207.317 109.816 Z " fill="rgb(96,97,99)"/><path d=" M 41.457 37.425 L 28.607 42.733 L 28.607 13.635 L 41.457 13.635 L 41.457 37.425 Z " fill="rgb(183,182,181)"/><path d=" M 43.087 21.672 L 26.976 21.672 L 26.976 13.635 L 43.087 13.635 L 43.087 21.672 Z " fill="rgb(39,66,72)"/><path d=" M 41.457 21.672 L 28.607 21.672 L 31.928 24.991 L 41.457 24.991 L 41.457 21.672 Z " fill="rgb(133,134,134)"/><path d=" M 63.197 15.843 L 17.895 53.967 L 17.895 57.798 L 63.197 19.732 L 108.503 57.768 L 108.503 53.94 L 63.197 15.843 Z " fill="rgb(133,134,134)"/><path d=" M 63.197 11.369 L 14.739 51.939 L 14.739 56.632 L 63.197 16.057 L 63.197 11.369 L 63.197 11.369" fill="rgb(39,66,72)"/><path d=" M 63.197 11.369 L 63.197 16.057 L 108.503 53.94 L 108.515 49.305 L 63.197 11.369" fill="rgb(31,48,52)"/><path d=" M 53.305 45.427 L 62.183 45.427 L 62.183 36.552 C 57.509 37.031 53.782 40.753 53.305 45.427 Z " fill="rgb(109,110,112)"/><path d=" M 73.095 45.427 C 72.618 40.753 68.89 37.031 64.217 36.552 L 64.217 45.427 L 73.095 45.427 Z " fill="rgb(109,110,112)"/><path d=" M 64.217 45.427 L 64.217 36.552 C 68.89 37.031 72.618 40.753 73.095 45.427 L 64.217 45.427 Z  M 62.183 36.552 L 62.183 45.427 L 53.305 45.427 C 53.782 40.753 57.509 37.031 62.183 36.552 Z  M 63.2 34.465 C 56.594 34.465 51.22 39.84 51.22 46.444 L 51.22 47.46 L 75.179 47.46 L 75.179 46.444 C 75.179 39.84 69.804 34.465 63.2 34.465 Z " fill="rgb(255,255,255)"/><path d=" M 108.515 57.768 L 108.503 57.777 L 108.503 57.768 L 17.929 57.768 L 17.895 57.798 L 17.895 96.652 L 108.48 96.652 L 108.503 96.652 L 199.088 96.652 L 199.088 57.768 L 108.515 57.768 Z " fill="rgb(133,134,134)"/><path d=" M 108.503 61.595 L 17.929 61.595 L 17.929 65.49 L 108.503 65.49 L 108.503 65.452 L 108.515 65.49 L 199.088 65.49 L 199.088 61.595 L 108.503 61.595 Z " fill="rgb(183,182,181)"/><path d=" M 17.929 73.28 L 108.503 73.28 L 108.503 69.384 L 17.929 69.384 L 17.929 73.28 Z " fill="rgb(183,182,181)"/><path d=" M 108.515 69.384 L 108.515 73.28 L 199.088 73.28 L 199.088 69.384 L 108.515 69.384 Z " fill="rgb(183,182,181)"/><path d=" M 17.929 81.071 L 108.503 81.071 L 108.503 77.174 L 17.929 77.174 L 17.929 81.071 Z " fill="rgb(183,182,181)"/><path d=" M 108.515 77.174 L 108.515 81.071 L 199.088 81.071 L 199.088 77.174 L 108.515 77.174 Z " fill="rgb(183,182,181)"/><path d=" M 17.929 88.86 L 108.503 88.86 L 108.503 84.965 L 17.929 84.965 L 17.929 88.86 Z " fill="rgb(183,182,181)"/><path d=" M 108.515 84.965 L 108.515 88.86 L 199.088 88.86 L 199.088 84.965 L 108.515 84.965 Z " fill="rgb(183,182,181)"/><path d=" M 17.929 96.652 L 108.503 96.652 L 108.503 92.759 L 17.929 92.759 L 17.929 96.652 Z " fill="rgb(183,182,181)"/><path d=" M 108.515 92.759 L 108.515 96.652 L 199.088 96.652 L 199.088 92.759 L 108.515 92.759 Z " fill="rgb(183,182,181)"/><path d=" M 153.784 15.843 L 108.48 53.967 L 108.48 57.798 L 153.784 19.732 L 199.088 57.768 L 199.088 53.94 L 153.784 15.843 Z " fill="rgb(133,134,134)"/><path d=" M 153.784 11.369 L 108.515 49.305 L 108.503 53.94 L 153.784 16.057 L 153.784 11.369 L 153.784 11.369" fill="rgb(39,66,72)"/><path d=" M 153.784 11.369 L 153.784 16.057 L 202.247 56.632 L 202.247 51.939 L 153.784 11.369 Z " fill="rgb(31,48,52)"/><path d=" M 162.477 84.965 L 162.477 67.523 L 154.771 67.523 L 154.771 84.965 L 162.477 84.965 Z " fill="rgb(223,226,244)"/><path d=" M 145.033 67.523 L 145.033 84.965 L 152.739 84.965 L 152.739 67.523 L 145.033 67.523 Z " fill="rgb(223,226,244)"/><path d=" M 162.477 84.965 L 154.771 84.965 L 154.771 67.523 L 162.477 67.523 L 162.477 84.965 Z  M 145.033 67.523 L 152.739 67.523 L 152.739 84.965 L 145.033 84.965 L 145.033 67.523 Z  M 143 65.49 L 143 87 L 164.509 87 L 164.509 65.49 L 143 65.49 Z " fill="rgb(255,255,255)"/><path d=" M 72.618 73.277 L 53.78 73.277 L 53.78 96.652 L 72.618 96.652 L 72.618 73.277" fill="rgb(73,92,102)"/><path d=" M 64.217 96.652 L 62.183 96.652 L 62.183 73.28 L 64.217 73.28 L 64.217 96.652 Z " fill="rgb(55,68,75)"/><path d=" M 44.77 84.965 L 44.77 67.523 L 37.064 67.523 L 37.064 84.965 L 44.77 84.965 Z " fill="rgb(223,226,244)"/><path d=" M 27.325 67.523 L 27.325 84.965 L 35.032 84.965 L 35.032 67.523 L 27.325 67.523 Z " fill="rgb(223,226,244)"/><path d=" M 44.77 84.965 L 37.064 84.965 L 37.064 67.523 L 44.77 67.523 L 44.77 84.965 Z  M 27.325 67.523 L 35.032 67.523 L 35.032 84.965 L 27.325 84.965 L 27.325 67.523 Z  M 25.293 65.49 L 25.293 87 L 46.803 87 L 46.803 65.49 L 25.293 65.49 Z " fill="rgb(255,255,255)"/><path d=" M 99.052 84.965 L 99.052 67.523 L 91.346 67.523 L 91.346 84.965 L 99.052 84.965 Z " fill="rgb(223,226,244)"/><path d=" M 81.608 67.523 L 81.608 84.965 L 89.313 84.965 L 89.313 67.523 L 81.608 67.523 Z " fill="rgb(223,226,244)"/><path d=" M 99.052 84.965 L 91.346 84.965 L 91.346 67.523 L 99.052 67.523 L 99.052 84.965 Z  M 81.608 67.523 L 89.313 67.523 L 89.313 84.965 L 81.608 84.965 L 81.608 67.523 Z  M 79.575 65.49 L 79.575 87 L 101.085 87 L 101.085 65.49 L 79.575 65.49" fill="rgb(255,255,255)"/><path d=" M 63.2 99.195 L 12.607 99.195 L 12.607 103.233 L 63.2 103.233 L 63.2 99.195" fill="rgb(223,226,244)"/><path d=" M 63.2 103.233 L 113.743 103.233 L 113.743 99.195 L 63.2 99.195 L 63.2 103.233 Z " fill="rgb(162,165,181)"/><path d=" M 113.743 96.652 L 113.743 96.649 L 63.2 96.649 L 63.2 96.652 L 113.743 96.652 Z " fill="rgb(55,68,75)"/><path d=" M 63.2 96.652 L 63.2 96.649 L 12.596 96.649 L 12.596 99.195 L 12.607 99.195 L 12.607 96.652 L 63.2 96.652" fill="rgb(55,68,75)"/><path d=" M 63.2 96.652 L 12.607 96.652 L 12.607 99.195 L 63.2 99.195 L 63.2 96.652" fill="rgb(55,68,75)"/><path d=" M 63.2 99.195 L 113.743 99.195 L 113.743 96.652 L 63.2 96.652 L 63.2 99.195" fill="rgb(30,34,35)"/><path d=" M 8.119 105.776 L 8.119 109.816 L 63.2 109.816 L 63.2 105.776 L 8.119 105.776 Z " fill="rgb(223,226,244)"/><path d=" M 63.2 109.816 L 118.316 109.816 L 118.316 105.776 L 63.2 105.776 L 63.2 109.816" fill="rgb(162,165,181)"/><path d=" M 63.2 103.233 L 63.2 103.233 L 8.108 103.233 L 8.108 105.776 L 8.119 105.776 L 8.119 103.233 L 63.2 103.233 Z " fill="rgb(55,68,75)"/><path d=" M 113.743 103.233 L 63.2 103.233 L 63.2 103.233 L 118.316 103.233 L 118.316 103.233 L 113.743 103.233 Z " fill="rgb(55,68,75)"/><path d=" M 63.2 103.233 L 8.119 103.233 L 8.119 105.776 L 63.2 105.776 L 63.2 103.233 Z " fill="rgb(55,68,75)"/><path d=" M 63.2 105.776 L 118.316 105.776 L 118.316 103.233 L 63.2 103.233 L 63.2 105.776 Z " fill="rgb(30,34,35)"/></g></g></svg>