<?xml version="1.0" standalone="no"?><!-- Generator: Gravit.io --><svg xmlns="http://www.w3.org/2000/svg" xmlns:xlink="http://www.w3.org/1999/xlink" style="isolation:isolate" viewBox="0 0 150 200" width="150" height="200"><defs><clipPath id="_clipPath_ROxKGaQqPvvXVlS6wvDN6tZsKDagN9TF"><rect width="150" height="200"/></clipPath></defs><g clip-path="url(#_clipPath_ROxKGaQqPvvXVlS6wvDN6tZsKDagN9TF)"><clipPath id="_clipPath_f2C8cLx0N5TOXYsnKaVvLl7xFnPYZUbm"><rect x="0" y="0" width="150" height="200" transform="matrix(1,0,0,1,0,0)" fill="rgb(255,255,255)"/></clipPath><g clip-path="url(#_clipPath_f2C8cLx0N5TOXYsnKaVvLl7xFnPYZUbm)"><g><clipPath id="_clipPath_pkoz2PripWFsnMYSp1aSzBbmwLawrdGQ"><rect x="0" y="0" width="150" height="200" transform="matrix(1,0,0,1,0,0)" fill="rgb(255,255,255)"/></clipPath><g clip-path="url(#_clipPath_pkoz2PripWFsnMYSp1aSzBbmwLawrdGQ)"><g><g><g><path d=" M 123.672 183.036 L 14.6 183.036 L 14.6 27.828 L 123.672 27.828 L 123.672 183.036 L 123.672 183.036 Z " fill="rgb(1,129,193)"/><path d=" M 123.672 19.229 L 14.6 19.229 L 14.6 10.631 L 123.672 10.631 L 123.672 19.229 L 123.672 19.229 Z " fill="rgb(1,129,193)"/><path d=" M 119.581 27.828 L 18.691 27.828 L 18.691 19.229 L 119.581 19.229 L 119.581 27.828 L 119.581 27.828 L 119.581 27.828 Z " fill="rgb(2,104,155)"/><path d=" M 123.672 191.636 L 14.6 191.636 L 14.6 183.036 L 123.672 183.036 L 123.672 191.636 L 123.672 191.636 L 123.672 191.636 Z " fill="rgb(0,85,151)"/><path d=" M 56.003 52.58 L 82.268 52.58 L 82.268 43.152 L 56.003 43.152 L 56.003 52.58 L 56.003 52.58 L 56.003 52.58 Z " fill="rgb(84,85,87)"/><path d=" M 82.268 52.58 L 56.003 52.58 L 56.003 43.152 L 82.268 43.152 L 82.268 52.58 L 82.268 52.58 L 82.268 52.58 Z  M 53.055 40.204 L 53.055 55.528 L 85.216 55.528 L 85.216 40.204 L 53.055 40.204 L 53.055 40.204 L 53.055 40.204 Z " fill="rgb(0,85,151)"/><path d=" M 56.003 75.565 L 82.268 75.565 L 82.268 66.136 L 56.003 66.136 L 56.003 75.565 L 56.003 75.565 L 56.003 75.565 Z " fill="rgb(84,85,87)"/><path d=" M 82.268 75.565 L 56.003 75.565 L 56.003 66.136 L 82.268 66.136 L 82.268 75.565 L 82.268 75.565 L 82.268 75.565 Z  M 53.055 63.189 L 53.055 78.513 L 85.216 78.513 L 85.216 63.189 L 53.055 63.189 L 53.055 63.189 L 53.055 63.189 Z " fill="rgb(0,85,151)"/><path d=" M 56.003 98.552 L 82.268 98.552 L 82.268 89.124 L 56.003 89.124 L 56.003 98.552 L 56.003 98.552 L 56.003 98.552 Z " fill="rgb(84,85,87)"/><path d=" M 82.268 98.552 L 56.003 98.552 L 56.003 89.124 L 82.268 89.124 L 82.268 98.552 L 82.268 98.552 L 82.268 98.552 Z  M 53.055 86.176 L 53.055 101.5 L 85.216 101.5 L 85.216 86.176 L 53.055 86.176 L 53.055 86.176 Z " fill="rgb(0,85,151)"/><path d=" M 56.003 121.536 L 82.268 121.536 L 82.268 112.108 L 56.003 112.108 L 56.003 121.536 L 56.003 121.536 L 56.003 121.536 Z " fill="rgb(84,85,87)"/><path d=" M 82.268 121.536 L 56.003 121.536 L 56.003 112.108 L 82.268 112.108 L 82.268 121.536 L 82.268 121.536 L 82.268 121.536 Z  M 53.055 109.16 L 53.055 124.484 L 85.216 124.484 L 85.216 109.16 L 53.055 109.16 L 53.055 109.16 L 53.055 109.16 Z " fill="rgb(0,85,151)"/><path d=" M 56.003 144.524 L 82.268 144.524 L 82.268 135.094 L 56.003 135.094 L 56.003 144.524 L 56.003 144.524 L 56.003 144.524 Z " fill="rgb(84,85,87)"/><path d=" M 82.268 144.524 L 56.003 144.524 L 56.003 135.094 L 82.268 135.094 L 82.268 144.524 L 82.268 144.524 L 82.268 144.524 Z  M 53.055 132.146 L 53.055 147.47 L 85.216 147.47 L 85.216 132.146 L 53.055 132.146 L 53.055 132.146 L 53.055 132.146 Z " fill="rgb(0,85,151)"/><path d=" M 95.208 46.679 L 88.735 46.679 L 88.735 40.204 L 95.208 40.204 L 95.208 46.679 L 95.208 46.679 L 95.208 46.679 Z " fill="rgb(84,85,87)"/><path d=" M 95.208 55.517 L 88.735 55.517 L 88.735 49.043 L 95.208 49.043 L 95.208 55.517 L 95.208 55.517 L 95.208 55.517 Z " fill="rgb(0,85,151)"/><path d=" M 114.239 55.503 L 98.94 55.503 L 98.94 40.204 L 114.239 40.204 L 114.239 55.503 L 114.239 55.503 L 114.239 55.503 Z " fill="rgb(84,85,87)"/><path d=" M 95.208 69.669 L 88.735 69.669 L 88.735 63.193 L 95.208 63.193 L 95.208 69.669 L 95.208 69.669 L 95.208 69.669 Z " fill="rgb(84,85,87)"/><path d=" M 95.208 78.507 L 88.735 78.507 L 88.735 72.032 L 95.208 72.032 L 95.208 78.507 L 95.208 78.507 L 95.208 78.507 Z " fill="rgb(0,85,151)"/><path d=" M 114.239 78.492 L 98.94 78.492 L 98.94 63.193 L 114.239 63.193 L 114.239 78.492 L 114.239 78.492 L 114.239 78.492 Z " fill="rgb(84,85,87)"/><path d=" M 95.208 92.656 L 88.735 92.656 L 88.735 86.182 L 95.208 86.182 L 95.208 92.656 L 95.208 92.656 L 95.208 92.656 Z " fill="rgb(84,85,87)"/><path d=" M 95.208 101.493 L 88.735 101.493 L 88.735 95.02 L 95.208 95.02 L 95.208 101.493 L 95.208 101.493 L 95.208 101.493 Z " fill="rgb(0,85,151)"/><path d=" M 114.239 101.479 L 98.94 101.479 L 98.94 86.182 L 114.239 86.182 L 114.239 101.479 L 114.239 101.479 L 114.239 101.479 Z " fill="rgb(84,85,87)"/><path d=" M 95.208 115.64 L 88.735 115.64 L 88.735 109.165 L 95.208 109.165 L 95.208 115.64 L 95.208 115.64 L 95.208 115.64 Z " fill="rgb(84,85,87)"/><path d=" M 95.208 124.477 L 88.735 124.477 L 88.735 118.004 L 95.208 118.004 L 95.208 124.477 L 95.208 124.477 L 95.208 124.477 Z " fill="rgb(0,85,151)"/><path d=" M 114.239 124.464 L 98.94 124.464 L 98.94 109.165 L 114.239 109.165 L 114.239 124.464 L 114.239 124.464 L 114.239 124.464 Z " fill="rgb(84,85,87)"/><path d=" M 95.208 138.628 L 88.735 138.628 L 88.735 132.153 L 95.208 132.153 L 95.208 138.628 L 95.208 138.628 L 95.208 138.628 Z " fill="rgb(84,85,87)"/><path d=" M 95.208 147.465 L 88.735 147.465 L 88.735 140.991 L 95.208 140.991 L 95.208 147.465 L 95.208 147.465 L 95.208 147.465 Z " fill="rgb(0,85,151)"/><path d=" M 114.239 147.451 L 98.94 147.451 L 98.94 132.153 L 114.239 132.153 L 114.239 147.451 L 114.239 147.451 L 114.239 147.451 Z " fill="rgb(84,85,87)"/><path d=" M 42.941 46.679 L 49.415 46.679 L 49.415 40.204 L 42.941 40.204 L 42.941 46.679 L 42.941 46.679 L 42.941 46.679 Z " fill="rgb(84,85,87)"/><path d=" M 42.941 55.517 L 49.415 55.517 L 49.415 49.043 L 42.941 49.043 L 42.941 55.517 L 42.941 55.517 L 42.941 55.517 Z " fill="rgb(0,85,151)"/><path d=" M 23.913 55.503 L 39.211 55.503 L 39.211 40.204 L 23.913 40.204 L 23.913 55.503 L 23.913 55.503 L 23.913 55.503 Z " fill="rgb(84,85,87)"/><path d=" M 42.941 69.669 L 49.415 69.669 L 49.415 63.193 L 42.941 63.193 L 42.941 69.669 L 42.941 69.669 L 42.941 69.669 Z " fill="rgb(84,85,87)"/><path d=" M 42.941 78.507 L 49.415 78.507 L 49.415 72.032 L 42.941 72.032 L 42.941 78.507 L 42.941 78.507 L 42.941 78.507 Z " fill="rgb(0,85,151)"/><path d=" M 23.913 78.492 L 39.211 78.492 L 39.211 63.193 L 23.913 63.193 L 23.913 78.492 L 23.913 78.492 L 23.913 78.492 Z " fill="rgb(84,85,87)"/><path d=" M 42.941 92.656 L 49.415 92.656 L 49.415 86.182 L 42.941 86.182 L 42.941 92.656 L 42.941 92.656 L 42.941 92.656 Z " fill="rgb(84,85,87)"/><path d=" M 42.941 101.493 L 49.415 101.493 L 49.415 95.02 L 42.941 95.02 L 42.941 101.493 L 42.941 101.493 L 42.941 101.493 Z " fill="rgb(0,85,151)"/><path d=" M 23.913 101.479 L 39.211 101.479 L 39.211 86.182 L 23.913 86.182 L 23.913 101.479 L 23.913 101.479 L 23.913 101.479 Z " fill="rgb(84,85,87)"/><path d=" M 42.941 115.64 L 49.415 115.64 L 49.415 109.165 L 42.941 109.165 L 42.941 115.64 L 42.941 115.64 L 42.941 115.64 Z " fill="rgb(84,85,87)"/><path d=" M 42.941 124.477 L 49.415 124.477 L 49.415 118.004 L 42.941 118.004 L 42.941 124.477 L 42.941 124.477 L 42.941 124.477 Z " fill="rgb(0,85,151)"/><path d=" M 23.913 124.464 L 39.211 124.464 L 39.211 109.165 L 23.913 109.165 L 23.913 124.464 L 23.913 124.464 L 23.913 124.464 Z " fill="rgb(84,85,87)"/><path d=" M 42.941 138.628 L 49.415 138.628 L 49.415 132.153 L 42.941 132.153 L 42.941 138.628 L 42.941 138.628 L 42.941 138.628 Z " fill="rgb(84,85,87)"/><path d=" M 42.941 147.465 L 49.415 147.465 L 49.415 140.991 L 42.941 140.991 L 42.941 147.465 L 42.941 147.465 L 42.941 147.465 Z " fill="rgb(0,85,151)"/><path d=" M 23.913 147.451 L 39.211 147.451 L 39.211 132.153 L 23.913 132.153 L 23.913 147.451 L 23.913 147.451 L 23.913 147.451 Z " fill="rgb(84,85,87)"/><path d=" M 23.913 170.424 L 39.211 170.424 L 39.211 155.127 L 23.913 155.127 L 23.913 170.424 L 23.913 170.424 L 23.913 170.424 Z " fill="rgb(84,85,87)"/><path d=" M 98.94 170.424 L 114.239 170.424 L 114.239 155.127 L 98.94 155.127 L 98.94 170.424 L 98.94 170.424 L 98.94 170.424 Z " fill="rgb(84,85,87)"/><path d=" M 22.151 49.043 L 22.151 55.503 L 31.561 55.503 L 31.561 49.043 L 22.151 49.043 L 22.151 49.043 L 22.151 49.043 Z " fill="rgb(162,172,153)"/><path d=" M 40.971 49.043 L 31.561 49.043 L 31.561 55.503 L 40.971 55.503 L 40.971 49.043 L 40.971 49.043 L 40.971 49.043 Z " fill="rgb(118,126,114)"/><path d=" M 40.971 78.501 L 40.971 72.04 L 31.561 72.04 L 31.561 78.501 L 40.971 78.501 L 40.971 78.501 L 40.971 78.501 Z " fill="rgb(118,126,114)"/><path d=" M 22.151 78.501 L 31.561 78.501 L 31.561 72.04 L 22.151 72.04 L 22.151 78.501 L 22.151 78.501 L 22.151 78.501 Z " fill="rgb(162,172,153)"/><path d=" M 40.971 101.488 L 40.971 95.028 L 31.561 95.028 L 31.561 101.488 L 40.971 101.488 L 40.971 101.488 L 40.971 101.488 Z " fill="rgb(118,126,114)"/><path d=" M 22.151 101.488 L 31.561 101.488 L 31.561 95.028 L 22.151 95.028 L 22.151 101.488 L 22.151 101.488 L 22.151 101.488 Z " fill="rgb(162,172,153)"/><path d=" M 40.971 124.472 L 40.971 118.013 L 31.561 118.013 L 31.561 124.472 L 40.971 124.472 L 40.971 124.472 L 40.971 124.472 Z " fill="rgb(118,126,114)"/><path d=" M 22.151 124.472 L 31.561 124.472 L 31.561 118.013 L 22.151 118.013 L 22.151 124.472 L 22.151 124.472 L 22.151 124.472 Z " fill="rgb(162,172,153)"/><path d=" M 22.151 147.46 L 31.561 147.46 L 31.561 141 L 22.151 141 L 22.151 147.46 L 22.151 147.46 L 22.151 147.46 Z " fill="rgb(162,172,153)"/><path d=" M 40.971 147.46 L 40.971 141 L 31.561 141 L 31.561 147.46 L 40.971 147.46 L 40.971 147.46 L 40.971 147.46 Z " fill="rgb(118,126,114)"/><path d=" M 116 49.043 L 106.588 49.043 L 106.588 55.503 L 116 55.503 L 116 49.043 L 116 49.043 L 116 49.043 Z " fill="rgb(118,126,114)"/><path d=" M 97.181 49.043 L 97.181 55.503 L 106.588 55.503 L 106.588 49.043 L 97.181 49.043 L 97.181 49.043 L 97.181 49.043 Z " fill="rgb(162,172,153)"/><path d=" M 116 78.501 L 116 72.04 L 106.588 72.04 L 106.588 78.501 L 116 78.501 L 116 78.501 L 116 78.501 Z " fill="rgb(118,126,114)"/><path d=" M 97.181 78.501 L 106.588 78.501 L 106.588 72.04 L 97.181 72.04 L 97.181 78.501 L 97.181 78.501 L 97.181 78.501 Z " fill="rgb(162,172,153)"/><path d=" M 97.181 101.488 L 106.588 101.488 L 106.588 95.028 L 97.181 95.028 L 97.181 101.488 L 97.181 101.488 L 97.181 101.488 Z " fill="rgb(162,172,153)"/><path d=" M 116 101.488 L 116 95.028 L 106.588 95.028 L 106.588 101.488 L 116 101.488 L 116 101.488 L 116 101.488 Z " fill="rgb(118,126,114)"/><path d=" M 116 124.472 L 116 118.013 L 106.588 118.013 L 106.588 124.472 L 116 124.472 L 116 124.472 L 116 124.472 Z " fill="rgb(118,126,114)"/><path d=" M 97.181 124.472 L 106.588 124.472 L 106.588 118.013 L 97.181 118.013 L 97.181 124.472 L 97.181 124.472 L 97.181 124.472 Z " fill="rgb(162,172,153)"/><path d=" M 116 147.46 L 116 141 L 106.588 141 L 106.588 147.46 L 116 147.46 L 116 147.46 L 116 147.46 Z " fill="rgb(118,126,114)"/><path d=" M 97.181 147.46 L 106.588 147.46 L 106.588 141 L 97.181 141 L 97.181 147.46 L 97.181 147.46 L 97.181 147.46 Z " fill="rgb(162,172,153)"/><path d=" M 84.667 183.036 L 53.601 183.036 L 53.601 155.127 L 84.667 155.127 L 84.667 183.036 L 84.667 183.036 Z " fill="rgb(84,85,87)"/><path d=" M 73.977 171.422 L 72.789 171.422 L 72.789 168.092 L 73.977 168.092 L 73.977 171.422 L 73.977 171.422 L 73.977 171.422 Z " fill="rgb(222,236,208)"/><path d=" M 65.485 171.422 L 64.293 171.422 L 64.293 168.092 L 65.485 168.092 L 65.485 171.422 L 65.485 171.422 L 65.485 171.422 Z " fill="rgb(222,236,208)"/><path d=" M 81.304 155.127 L 81.304 159.256 L 69.919 159.256 L 69.919 155.127 L 68.356 155.127 L 68.356 159.256 L 56.972 159.256 L 56.972 155.127 L 55.411 155.127 L 55.411 183.036 L 56.972 183.036 L 56.972 160.82 L 68.356 160.82 L 68.356 183.036 L 69.919 183.036 L 69.919 160.82 L 81.304 160.82 L 81.304 183.036 L 82.867 183.036 L 82.867 155.127 L 81.304 155.127 L 81.304 155.127 L 81.304 155.127 Z " fill="rgb(0,85,151)"/><path d=" M 84.667 183.036 L 53.601 183.036 L 53.601 187.333 L 84.667 187.333 L 84.667 183.036 L 84.667 183.036 Z " fill="rgb(244,249,239)"/><path d=" M 53.601 187.333 L 53.601 191.636 L 84.667 191.636 L 84.667 187.333 L 53.601 187.333 L 53.601 187.333 Z " fill="rgb(0,85,151)"/></g></g></g></g></g></g></g></svg>