<?xml version="1.0" standalone="no"?><!-- Generator: Gravit.io --><svg xmlns="http://www.w3.org/2000/svg" xmlns:xlink="http://www.w3.org/1999/xlink" style="isolation:isolate" viewBox="0 0 130 180" width="130" height="180"><defs><clipPath id="_clipPath_H6uS6JjArQmRJoXDrd5JjzSa6bpMIA6E"><rect width="130" height="180"/></clipPath></defs><g clip-path="url(#_clipPath_H6uS6JjArQmRJoXDrd5JjzSa6bpMIA6E)"><clipPath id="_clipPath_0XLPOoYAkpkVTee9uXoFajmD9TcSrCfO"><rect x="0" y="0" width="130" height="180" transform="matrix(1,0,0,1,0,0)" fill="rgb(255,255,255)"/></clipPath><g clip-path="url(#_clipPath_0XLPOoYAkpkVTee9uXoFajmD9TcSrCfO)"><g><g><path d=" M 17.547 63.472 L 17.547 169.72 L 116.096 169.72 L 116.096 63.441 L 66.82 22.071 L 17.547 63.472 Z " fill="rgb(167,174,223)"/><path d=" M 66.82 17.839 L 17.547 59.308 L 17.547 63.472 L 66.82 22.071 L 116.096 63.441 L 116.096 59.277 L 66.82 17.839 Z " fill="rgb(118,128,172)"/><path d=" M 66.82 12.973 L 14.112 57.104 L 14.112 62.208 L 66.82 18.076 L 66.82 12.975 L 66.82 12.973 L 66.82 12.973 Z " fill="rgb(142,97,83)"/><path d=" M 66.82 12.975 L 66.82 18.076 L 119.532 62.208 L 119.532 57.104 L 66.82 12.975 L 66.82 12.975 Z " fill="rgb(105,71,61)"/><path d=" M 32.536 157.448 L 36.987 157.448 L 36.987 150.971 L 32.536 150.971 L 32.536 157.448 L 32.536 157.448 Z " fill="rgb(109,110,112)"/><path d=" M 38.839 157.448 L 43.287 157.448 L 43.287 150.971 L 38.839 150.971 L 38.839 157.448 L 38.839 157.448 Z " fill="rgb(109,110,112)"/><path d=" M 36.987 142.639 L 32.536 142.639 L 32.536 149.119 L 36.987 149.119 L 36.987 142.639 L 36.987 142.639 Z " fill="rgb(109,110,112)"/><path d=" M 43.287 142.639 L 38.839 142.639 L 38.839 149.119 L 43.287 149.119 L 43.287 142.639 L 43.287 142.639 Z " fill="rgb(109,110,112)"/><path d=" M 43.287 157.448 L 38.839 157.448 L 38.839 150.971 L 43.287 150.971 L 43.287 157.448 L 43.287 157.448 Z  M 36.987 157.448 L 32.536 157.448 L 32.536 150.971 L 36.987 150.971 L 36.987 157.448 L 36.987 157.448 Z  M 32.536 142.639 L 36.987 142.639 L 36.987 149.119 L 32.536 149.119 L 32.536 142.639 L 32.536 142.639 Z  M 38.839 142.639 L 43.287 142.639 L 43.287 149.119 L 38.839 149.119 L 38.839 142.639 L 38.839 142.639 Z  M 30.687 140.785 L 30.687 159.301 L 45.141 159.301 L 45.141 140.785 L 30.687 140.785 L 30.687 140.785 Z " fill="rgb(255,255,255)"/><path d=" M 90.355 157.448 L 94.805 157.448 L 94.805 150.971 L 90.355 150.971 L 90.355 157.448 L 90.355 157.448 Z " fill="rgb(109,110,112)"/><path d=" M 96.656 157.448 L 101.107 157.448 L 101.107 150.971 L 96.656 150.971 L 96.656 157.448 L 96.656 157.448 Z " fill="rgb(109,110,112)"/><path d=" M 94.805 142.639 L 90.355 142.639 L 90.355 149.119 L 94.805 149.119 L 94.805 142.639 L 94.805 142.639 Z " fill="rgb(109,110,112)"/><path d=" M 101.107 142.639 L 96.656 142.639 L 96.656 149.119 L 101.107 149.119 L 101.107 142.639 L 101.107 142.639 Z " fill="rgb(109,110,112)"/><path d=" M 101.107 157.448 L 96.656 157.448 L 96.656 150.971 L 101.107 150.971 L 101.107 157.448 L 101.107 157.448 Z  M 94.805 157.448 L 90.355 157.448 L 90.355 150.971 L 94.805 150.971 L 94.805 157.448 L 94.805 157.448 Z  M 90.355 142.639 L 94.805 142.639 L 94.805 149.119 L 90.355 149.119 L 90.355 142.639 L 90.355 142.639 Z  M 96.656 142.639 L 101.107 142.639 L 101.107 149.119 L 96.656 149.119 L 96.656 142.639 L 96.656 142.639 Z  M 88.504 140.785 L 88.504 159.301 L 102.959 159.301 L 102.959 140.785 L 88.504 140.785 L 88.504 140.785 Z " fill="rgb(255,255,255)"/><path d=" M 77.067 143.821 L 56.579 143.821 L 56.579 169.72 L 77.067 169.72 L 77.067 143.821 L 77.067 143.821 Z " fill="rgb(87,98,152)"/><path d=" M 77.067 143.821 L 56.579 143.821 L 56.579 169.72 L 59.317 169.72 L 59.317 146.559 L 77.067 146.559 L 77.067 143.821 L 77.067 143.821 Z " fill="rgb(63,72,110)"/><path d=" M 61.649 58.527 L 66.1 58.527 L 66.1 52.049 L 61.649 52.049 L 61.649 58.527 L 61.649 58.527 Z " fill="rgb(109,110,112)"/><path d=" M 67.952 58.527 L 72.403 58.527 L 72.403 52.049 L 67.952 52.049 L 67.952 58.527 L 67.952 58.527 Z " fill="rgb(109,110,112)"/><path d=" M 66.1 43.717 L 61.649 43.717 L 61.649 50.197 L 66.1 50.197 L 66.1 43.717 L 66.1 43.717 Z " fill="rgb(109,110,112)"/><path d=" M 72.403 43.717 L 67.952 43.717 L 67.952 50.197 L 72.403 50.197 L 72.403 43.717 L 72.403 43.717 Z " fill="rgb(109,110,112)"/><path d=" M 72.403 58.527 L 67.952 58.527 L 67.952 52.049 L 72.403 52.049 L 72.403 58.527 L 72.403 58.527 Z  M 66.1 58.527 L 61.649 58.527 L 61.649 52.049 L 66.1 52.049 L 66.1 58.527 L 66.1 58.527 Z  M 61.649 43.717 L 66.1 43.717 L 66.1 50.197 L 61.649 50.197 L 61.649 43.717 L 61.649 43.717 Z  M 67.952 43.717 L 72.403 43.717 L 72.403 50.197 L 67.952 50.197 L 67.952 43.717 L 67.952 43.717 Z  M 59.8 41.864 L 59.8 60.38 L 74.255 60.38 L 74.255 41.864 L 59.8 41.864 L 59.8 41.864 Z " fill="rgb(255,255,255)"/><path d=" M 72.609 41.864 L 61.649 41.864 L 61.649 38.395 L 67.224 36.195 L 72.609 38.248 L 72.609 41.864 Z " fill="rgb(109,110,112)"/><path d=" M 67.031 34.631 C 63.036 34.631 59.8 37.869 59.8 41.864 L 61.828 41.864 C 61.828 38.995 64.163 36.661 67.031 36.661 C 69.901 36.661 72.236 38.995 72.236 41.864 L 74.264 41.864 C 74.264 37.869 71.027 34.631 67.031 34.631 Z " fill="rgb(255,255,255)"/><path d=" M 75.809 54.712 L 57.813 54.712 L 57.813 60.38 L 62.284 64.849 L 82.364 64.849 L 82.364 61.267 L 75.809 54.712 Z " fill="rgb(118,128,172)"/><path d=" M 75.809 60.38 L 57.813 60.38 L 57.813 54.712 L 75.809 54.712 L 75.809 60.38 L 75.809 60.38 Z " fill="rgb(183,182,181)"/><path d=" M 32.997 89.6 L 37.445 89.6 L 37.445 83.123 L 32.997 83.123 L 32.997 89.6 L 32.997 89.6 Z " fill="rgb(109,110,112)"/><path d=" M 39.3 89.6 L 43.748 89.6 L 43.748 83.123 L 39.3 83.123 L 39.3 89.6 L 39.3 89.6 Z " fill="rgb(109,110,112)"/><path d=" M 37.445 74.791 L 32.997 74.791 L 32.997 81.272 L 37.445 81.272 L 37.445 74.791 L 37.445 74.791 Z " fill="rgb(109,110,112)"/><path d=" M 43.748 74.791 L 39.3 74.791 L 39.3 81.272 L 43.748 81.272 L 43.748 74.791 L 43.748 74.791 Z " fill="rgb(109,110,112)"/><path d=" M 43.748 89.6 L 39.3 89.6 L 39.3 83.123 L 43.748 83.123 L 43.748 89.6 L 43.748 89.6 Z  M 37.445 89.6 L 32.997 89.6 L 32.997 83.123 L 37.445 83.123 L 37.445 89.6 L 37.445 89.6 Z  M 32.997 74.791 L 37.445 74.791 L 37.445 81.272 L 32.997 81.272 L 32.997 74.791 L 32.997 74.791 Z  M 39.3 74.791 L 43.748 74.791 L 43.748 81.272 L 39.3 81.272 L 39.3 74.791 L 39.3 74.791 Z  M 31.144 72.937 L 31.144 91.453 L 45.6 91.453 L 45.6 72.937 L 31.144 72.937 Z " fill="rgb(255,255,255)"/><path d=" M 47.152 85.785 L 29.16 85.785 L 29.16 91.453 L 33.628 95.924 L 53.707 95.924 L 53.707 92.34 L 47.152 85.785 Z " fill="rgb(118,128,172)"/><path d=" M 47.152 91.453 L 29.16 91.453 L 29.16 85.785 L 47.152 85.785 L 47.152 91.453 L 47.152 91.453 Z " fill="rgb(183,182,181)"/><path d=" M 89.791 89.6 L 94.241 89.6 L 94.241 83.123 L 89.791 83.123 L 89.791 89.6 L 89.791 89.6 Z " fill="rgb(109,110,112)"/><path d=" M 96.092 89.6 L 100.543 89.6 L 100.543 83.123 L 96.092 83.123 L 96.092 89.6 L 96.092 89.6 Z " fill="rgb(109,110,112)"/><path d=" M 94.241 74.791 L 89.791 74.791 L 89.791 81.272 L 94.241 81.272 L 94.241 74.791 L 94.241 74.791 Z " fill="rgb(109,110,112)"/><path d=" M 100.543 74.791 L 96.092 74.791 L 96.092 81.272 L 100.543 81.272 L 100.543 74.791 L 100.543 74.791 Z " fill="rgb(109,110,112)"/><path d=" M 100.543 89.6 L 96.092 89.6 L 96.092 83.123 L 100.543 83.123 L 100.543 89.6 L 100.543 89.6 Z  M 94.241 89.6 L 89.791 89.6 L 89.791 83.123 L 94.241 83.123 L 94.241 89.6 L 94.241 89.6 Z  M 89.791 74.791 L 94.241 74.791 L 94.241 81.272 L 89.791 81.272 L 89.791 74.791 L 89.791 74.791 Z  M 96.092 74.791 L 100.543 74.791 L 100.543 81.272 L 96.092 81.272 L 96.092 74.791 L 96.092 74.791 Z  M 87.939 72.937 L 87.939 91.453 L 102.393 91.453 L 102.393 72.937 L 87.939 72.937 Z " fill="rgb(255,255,255)"/><path d=" M 103.948 85.785 L 85.953 85.785 L 85.953 91.453 L 90.424 95.924 L 110.503 95.924 L 110.503 92.34 L 103.948 85.785 Z " fill="rgb(118,128,172)"/><path d=" M 103.948 91.453 L 85.953 91.453 L 85.953 85.785 L 103.948 85.785 L 103.948 91.453 L 103.948 91.453 Z " fill="rgb(183,182,181)"/><path d=" M 61.397 89.6 L 65.848 89.6 L 65.848 83.123 L 61.397 83.123 L 61.397 89.6 L 61.397 89.6 Z " fill="rgb(109,110,112)"/><path d=" M 67.699 89.6 L 72.148 89.6 L 72.148 83.123 L 67.699 83.123 L 67.699 89.6 L 67.699 89.6 Z " fill="rgb(109,110,112)"/><path d=" M 65.848 74.791 L 61.397 74.791 L 61.397 81.272 L 65.848 81.272 L 65.848 74.791 L 65.848 74.791 Z " fill="rgb(109,110,112)"/><path d=" M 72.148 74.791 L 67.699 74.791 L 67.699 81.272 L 72.148 81.272 L 72.148 74.791 L 72.148 74.791 Z " fill="rgb(109,110,112)"/><path d=" M 72.148 89.6 L 67.699 89.6 L 67.699 83.123 L 72.148 83.123 L 72.148 89.6 L 72.148 89.6 Z  M 65.848 89.6 L 61.397 89.6 L 61.397 83.123 L 65.848 83.123 L 65.848 89.6 L 65.848 89.6 Z  M 61.397 74.791 L 65.848 74.791 L 65.848 81.272 L 61.397 81.272 L 61.397 74.791 L 61.397 74.791 Z  M 67.699 74.791 L 72.148 74.791 L 72.148 81.272 L 67.699 81.272 L 67.699 74.791 L 67.699 74.791 Z  M 59.545 72.937 L 59.545 91.453 L 74 91.453 L 74 72.937 L 59.545 72.937 Z " fill="rgb(255,255,255)"/><path d=" M 75.555 85.785 L 57.56 85.785 L 57.56 91.453 L 62.031 95.924 L 82.109 95.924 L 82.109 92.34 L 75.555 85.785 Z " fill="rgb(118,128,172)"/><path d=" M 75.555 91.453 L 57.56 91.453 L 57.56 85.785 L 75.555 85.785 L 75.555 91.453 L 75.555 91.453 Z " fill="rgb(183,182,181)"/><path d=" M 32.997 122.909 L 37.445 122.909 L 37.445 116.433 L 32.997 116.433 L 32.997 122.909 L 32.997 122.909 Z " fill="rgb(109,110,112)"/><path d=" M 39.3 122.909 L 43.748 122.909 L 43.748 116.433 L 39.3 116.433 L 39.3 122.909 L 39.3 122.909 Z " fill="rgb(109,110,112)"/><path d=" M 37.445 108.101 L 32.997 108.101 L 32.997 114.581 L 37.445 114.581 L 37.445 108.101 L 37.445 108.101 Z " fill="rgb(109,110,112)"/><path d=" M 43.748 108.101 L 39.3 108.101 L 39.3 114.581 L 43.748 114.581 L 43.748 108.101 L 43.748 108.101 Z " fill="rgb(109,110,112)"/><path d=" M 43.748 122.909 L 39.3 122.909 L 39.3 116.433 L 43.748 116.433 L 43.748 122.909 L 43.748 122.909 Z  M 37.445 122.909 L 32.997 122.909 L 32.997 116.433 L 37.445 116.433 L 37.445 122.909 L 37.445 122.909 Z  M 32.997 108.101 L 37.445 108.101 L 37.445 114.581 L 32.997 114.581 L 32.997 108.101 L 32.997 108.101 Z  M 39.3 108.101 L 43.748 108.101 L 43.748 114.581 L 39.3 114.581 L 39.3 108.101 L 39.3 108.101 Z  M 31.144 106.248 L 31.144 124.764 L 45.6 124.764 L 45.6 106.248 L 31.144 106.248 L 31.144 106.248 Z " fill="rgb(255,255,255)"/><path d=" M 47.152 119.096 L 29.16 119.096 L 29.16 124.764 L 33.628 129.235 L 53.707 129.235 L 53.707 125.651 L 47.152 119.096 Z " fill="rgb(118,128,172)"/><path d=" M 47.152 124.764 L 29.16 124.764 L 29.16 119.096 L 47.152 119.096 L 47.152 124.764 L 47.152 124.764 Z " fill="rgb(183,182,181)"/><path d=" M 89.791 122.909 L 94.241 122.909 L 94.241 116.433 L 89.791 116.433 L 89.791 122.909 L 89.791 122.909 Z " fill="rgb(109,110,112)"/><path d=" M 96.092 122.909 L 100.543 122.909 L 100.543 116.433 L 96.092 116.433 L 96.092 122.909 L 96.092 122.909 Z " fill="rgb(109,110,112)"/><path d=" M 94.241 108.101 L 89.791 108.101 L 89.791 114.581 L 94.241 114.581 L 94.241 108.101 L 94.241 108.101 Z " fill="rgb(109,110,112)"/><path d=" M 100.543 108.101 L 96.092 108.101 L 96.092 114.581 L 100.543 114.581 L 100.543 108.101 L 100.543 108.101 Z " fill="rgb(109,110,112)"/><path d=" M 100.543 122.909 L 96.092 122.909 L 96.092 116.433 L 100.543 116.433 L 100.543 122.909 L 100.543 122.909 Z  M 94.241 122.909 L 89.791 122.909 L 89.791 116.433 L 94.241 116.433 L 94.241 122.909 L 94.241 122.909 Z  M 89.791 108.101 L 94.241 108.101 L 94.241 114.581 L 89.791 114.581 L 89.791 108.101 L 89.791 108.101 Z  M 96.092 108.101 L 100.543 108.101 L 100.543 114.581 L 96.092 114.581 L 96.092 108.101 L 96.092 108.101 Z  M 87.939 106.248 L 87.939 124.764 L 102.393 124.764 L 102.393 106.248 L 87.939 106.248 L 87.939 106.248 Z " fill="rgb(255,255,255)"/><path d=" M 103.948 119.096 L 85.953 119.096 L 85.953 124.764 L 90.424 129.235 L 110.503 129.235 L 110.503 125.651 L 103.948 119.096 Z " fill="rgb(118,128,172)"/><path d=" M 103.948 124.764 L 85.953 124.764 L 85.953 119.096 L 103.948 119.096 L 103.948 124.764 L 103.948 124.764 Z " fill="rgb(183,182,181)"/><path d=" M 61.397 122.909 L 65.848 122.909 L 65.848 116.433 L 61.397 116.433 L 61.397 122.909 L 61.397 122.909 Z " fill="rgb(109,110,112)"/><path d=" M 67.699 122.909 L 72.148 122.909 L 72.148 116.433 L 67.699 116.433 L 67.699 122.909 L 67.699 122.909 Z " fill="rgb(109,110,112)"/><path d=" M 65.848 108.101 L 61.397 108.101 L 61.397 114.581 L 65.848 114.581 L 65.848 108.101 L 65.848 108.101 Z " fill="rgb(109,110,112)"/><path d=" M 72.148 108.101 L 67.699 108.101 L 67.699 114.581 L 72.148 114.581 L 72.148 108.101 L 72.148 108.101 Z " fill="rgb(109,110,112)"/><path d=" M 72.148 122.909 L 67.699 122.909 L 67.699 116.433 L 72.148 116.433 L 72.148 122.909 L 72.148 122.909 Z  M 65.848 122.909 L 61.397 122.909 L 61.397 116.433 L 65.848 116.433 L 65.848 122.909 L 65.848 122.909 Z  M 61.397 108.101 L 65.848 108.101 L 65.848 114.581 L 61.397 114.581 L 61.397 108.101 L 61.397 108.101 Z  M 67.699 108.101 L 72.148 108.101 L 72.148 114.581 L 67.699 114.581 L 67.699 108.101 L 67.699 108.101 Z  M 59.545 106.248 L 59.545 124.764 L 74 124.764 L 74 106.248 L 59.545 106.248 L 59.545 106.248 Z " fill="rgb(255,255,255)"/><path d=" M 75.555 119.096 L 57.56 119.096 L 57.56 124.764 L 62.031 129.235 L 82.109 129.235 L 82.109 125.651 L 75.555 119.096 Z " fill="rgb(118,128,172)"/><path d=" M 75.555 124.764 L 57.56 124.764 L 57.56 119.096 L 75.555 119.096 L 75.555 124.764 L 75.555 124.764 Z " fill="rgb(183,182,181)"/><line x1="116.14" y1="169.72" x2="116.14" y2="141.191"/></g></g></g></g></svg>