<?xml version="1.0" standalone="no"?><!-- Generator: Gravit.io --><svg xmlns="http://www.w3.org/2000/svg" xmlns:xlink="http://www.w3.org/1999/xlink" style="isolation:isolate" viewBox="0 0 200 200" width="200" height="200"><defs><clipPath id="_clipPath_ir8zFppGhnOOjAjBmM29SgSCnQqiv7Uh"><rect width="200" height="200"/></clipPath></defs><g clip-path="url(#_clipPath_ir8zFppGhnOOjAjBmM29SgSCnQqiv7Uh)"><clipPath id="_clipPath_FKBY5tFkemOEndsdDQxVID7P5ZAtUU2u"><rect x="0" y="0" width="200" height="200" transform="matrix(1,0,0,1,0,0)" fill="rgb(255,255,255)"/></clipPath><g clip-path="url(#_clipPath_FKBY5tFkemOEndsdDQxVID7P5ZAtUU2u)"><g><g><path d=" M 76.875 154.069 L 52.283 154.069 L 52.283 68.876 L 76.875 68.876 L 76.875 154.069 Z " fill="rgb(227,227,227)"/><path d=" M 55.694 73.668 L 54.083 73.668 L 54.083 149.277 L 55.694 149.277 L 55.694 73.668 L 55.694 73.668 Z " fill="rgb(84,165,213)"/><path d=" M 58.915 73.668 L 57.305 73.668 L 57.305 149.277 L 58.915 149.277 L 58.915 73.668 L 58.915 73.668 Z " fill="rgb(84,165,213)"/><path d=" M 62.135 73.668 L 60.525 73.668 L 60.525 149.277 L 62.135 149.277 L 62.135 73.668 L 62.135 73.668 Z " fill="rgb(84,165,213)"/><path d=" M 65.357 73.668 L 63.745 73.668 L 63.745 149.277 L 65.357 149.277 L 65.357 73.668 L 65.357 73.668 Z " fill="rgb(84,165,213)"/><path d=" M 68.578 73.668 L 66.967 73.668 L 66.967 149.277 L 68.578 149.277 L 68.578 73.668 L 68.578 73.668 Z " fill="rgb(84,165,213)"/><path d=" M 71.797 73.668 L 70.187 73.668 L 70.187 149.277 L 71.797 149.277 L 71.797 73.668 L 71.797 73.668 Z " fill="rgb(84,165,213)"/><path d=" M 75.019 73.668 L 73.409 73.668 L 73.409 149.277 L 75.019 149.277 L 75.019 73.668 L 75.019 73.668 Z " fill="rgb(84,165,213)"/><path d=" M 76.875 103.768 L 52.283 103.768 L 52.283 101.313 L 76.875 101.313 L 76.875 103.768 L 76.875 103.768 Z " fill="rgb(227,227,227)"/><path d=" M 96.511 36.276 L 81.829 36.276 L 81.829 20.496 L 96.511 20.496 L 96.511 36.276 Z " fill="rgb(227,227,227)"/><path d=" M 85.237 22.611 L 83.628 22.611 L 83.628 34.192 L 85.237 34.192 L 85.237 22.611 L 85.237 22.611 Z " fill="rgb(84,165,213)"/><path d=" M 88.459 22.611 L 86.85 22.611 L 86.85 34.192 L 88.459 34.192 L 88.459 22.611 L 88.459 22.611 Z " fill="rgb(84,165,213)"/><path d=" M 91.681 22.611 L 90.07 22.611 L 90.07 34.192 L 91.681 34.192 L 91.681 22.611 L 91.681 22.611 Z " fill="rgb(84,165,213)"/><path d=" M 94.901 22.611 L 93.29 22.611 L 93.29 34.192 L 94.901 34.192 L 94.901 22.611 L 94.901 22.611 Z " fill="rgb(84,165,213)"/><path d=" M 126.056 154.069 L 101.465 154.069 L 101.465 68.876 L 126.056 68.876 L 126.056 154.069 Z " fill="rgb(227,227,227)"/><path d=" M 104.875 73.668 L 103.266 73.668 L 103.266 149.277 L 104.875 149.277 L 104.875 73.668 L 104.875 73.668 Z " fill="rgb(84,165,213)"/><path d=" M 108.097 73.668 L 106.487 73.668 L 106.487 149.277 L 108.097 149.277 L 108.097 73.668 L 108.097 73.668 Z " fill="rgb(84,165,213)"/><path d=" M 111.319 73.668 L 109.707 73.668 L 109.707 149.277 L 111.319 149.277 L 111.319 73.668 L 111.319 73.668 Z " fill="rgb(84,165,213)"/><path d=" M 114.539 73.668 L 112.928 73.668 L 112.928 149.277 L 114.539 149.277 L 114.539 73.668 L 114.539 73.668 Z " fill="rgb(84,165,213)"/><path d=" M 117.76 73.668 L 116.149 73.668 L 116.149 149.277 L 117.76 149.277 L 117.76 73.668 L 117.76 73.668 Z " fill="rgb(84,165,213)"/><path d=" M 120.98 73.668 L 119.369 73.668 L 119.369 149.277 L 120.98 149.277 L 120.98 73.668 L 120.98 73.668 Z " fill="rgb(84,165,213)"/><path d=" M 124.202 73.668 L 122.591 73.668 L 122.591 149.277 L 124.202 149.277 L 124.202 73.668 L 124.202 73.668 Z " fill="rgb(84,165,213)"/><path d=" M 126.056 103.768 L 101.465 103.768 L 101.465 101.313 L 126.056 101.313 L 126.056 103.768 L 126.056 103.768 Z " fill="rgb(227,227,227)"/><path d=" M 78.674 41.069 L 80.285 41.069 L 80.285 72.285 L 81.895 73.895 L 81.895 41.069 L 83.506 41.069 L 83.506 75.507 L 85.117 77.116 L 85.117 41.069 L 86.725 41.069 L 86.725 78.727 L 88.337 80.337 L 88.337 41.069 L 89.948 41.069 L 89.948 81.949 L 91.558 83.559 L 91.558 41.069 L 93.168 41.069 L 93.168 85.168 L 94.78 86.779 L 94.78 41.069 L 96.39 41.069 L 96.39 88.389 L 98 90 L 98 41.069 L 99.61 41.069 L 99.61 91.611 L 101.465 93.467 L 101.465 36.276 L 76.875 36.276 L 76.875 68.876 L 78.674 70.676 L 78.674 41.069 L 78.674 41.069 Z " fill="rgb(204,204,204)"/><path d=" M 99.61 91.611 L 99.61 149.277 L 98 149.277 L 98 90 L 96.39 88.389 L 96.39 149.277 L 94.78 149.277 L 94.78 86.779 L 93.168 85.168 L 93.168 149.277 L 91.558 149.277 L 91.558 83.559 L 89.948 81.949 L 89.948 149.277 L 88.337 149.277 L 88.337 80.337 L 86.725 78.727 L 86.725 149.277 L 85.117 149.277 L 85.117 77.116 L 83.506 75.507 L 83.506 149.277 L 81.895 149.277 L 81.895 73.895 L 80.285 72.285 L 80.285 149.277 L 78.674 149.277 L 78.674 70.676 L 76.875 68.876 L 76.875 154.069 L 101.465 154.069 L 101.465 93.467 L 99.61 91.611 Z " fill="rgb(170,170,170)"/><path d=" M 78.674 149.277 L 80.285 149.277 L 80.285 72.285 L 78.674 70.676 L 78.674 149.277 L 78.674 149.277 Z " fill="rgb(63,124,160)"/><path d=" M 78.674 41.069 L 78.674 70.676 L 80.285 72.285 L 80.285 41.069 L 78.674 41.069 L 78.674 41.069 Z " fill="rgb(84,165,213)"/><path d=" M 81.895 149.277 L 83.506 149.277 L 83.506 75.507 L 81.895 73.895 L 81.895 149.277 L 81.895 149.277 Z " fill="rgb(63,124,160)"/><path d=" M 81.895 41.069 L 81.895 73.895 L 83.506 75.507 L 83.506 41.069 L 81.895 41.069 L 81.895 41.069 Z " fill="rgb(84,165,213)"/><path d=" M 85.117 149.277 L 86.725 149.277 L 86.725 78.727 L 85.117 77.116 L 85.117 149.277 L 85.117 149.277 Z " fill="rgb(63,124,160)"/><path d=" M 85.117 41.069 L 85.117 77.116 L 86.725 78.727 L 86.725 41.069 L 85.117 41.069 L 85.117 41.069 Z " fill="rgb(84,165,213)"/><path d=" M 88.337 149.277 L 89.948 149.277 L 89.948 81.949 L 88.337 80.337 L 88.337 149.277 L 88.337 149.277 Z " fill="rgb(63,124,160)"/><path d=" M 88.337 41.069 L 88.337 80.337 L 89.948 81.949 L 89.948 41.069 L 88.337 41.069 L 88.337 41.069 Z " fill="rgb(84,165,213)"/><path d=" M 91.558 41.069 L 91.558 83.559 L 93.168 85.168 L 93.168 41.069 L 91.558 41.069 L 91.558 41.069 Z " fill="rgb(84,165,213)"/><path d=" M 91.558 149.277 L 93.168 149.277 L 93.168 85.168 L 91.558 83.559 L 91.558 149.277 Z " fill="rgb(63,124,160)"/><path d=" M 94.78 149.277 L 96.39 149.277 L 96.39 88.389 L 94.78 86.779 L 94.78 149.277 L 94.78 149.277 Z " fill="rgb(63,124,160)"/><path d=" M 94.78 41.069 L 94.78 86.779 L 96.39 88.389 L 96.39 41.069 L 94.78 41.069 L 94.78 41.069 Z " fill="rgb(84,165,213)"/><path d=" M 98 149.277 L 99.61 149.277 L 99.61 91.611 L 98 90 L 98 149.277 L 98 149.277 Z " fill="rgb(63,124,160)"/><path d=" M 98 41.069 L 98 90 L 99.61 91.611 L 99.61 41.069 L 98 41.069 L 98 41.069 Z " fill="rgb(84,165,213)"/><path d=" M 129.468 130.26 L 129.468 140.251 L 131.079 140.251 L 131.079 130.26 L 129.468 130.26 L 129.468 130.26 Z " fill="rgb(170,170,170)"/><path d=" M 137.424 127.807 L 135.91 126.293 L 135.91 127.807 L 137.424 127.807 L 137.424 127.807 Z " fill="rgb(170,170,170)"/><path d=" M 143.96 134.344 L 143.96 130.26 L 142.352 130.26 L 142.352 132.736 L 143.96 134.344 L 143.96 134.344 Z " fill="rgb(204,204,204)"/><path d=" M 132.688 130.26 L 132.688 140.251 L 134.299 140.251 L 134.299 130.26 L 132.688 130.26 L 132.688 130.26 Z " fill="rgb(170,170,170)"/><path d=" M 135.91 130.26 L 135.91 140.251 L 137.518 140.251 L 137.518 130.26 L 135.91 130.26 L 135.91 130.26 Z " fill="rgb(170,170,170)"/><path d=" M 134.299 127.807 L 134.299 124.683 L 132.688 123.073 L 132.688 127.807 L 134.299 127.807 L 134.299 127.807 Z " fill="rgb(170,170,170)"/><path d=" M 145.572 140.251 L 147.183 140.251 L 147.183 137.567 L 145.572 135.956 L 145.572 140.251 L 145.572 140.251 Z " fill="rgb(170,170,170)"/><path d=" M 140.74 130.26 L 139.876 130.26 L 140.74 131.125 L 140.74 130.26 L 140.74 130.26 Z " fill="rgb(204,204,204)"/><path d=" M 145.572 130.26 L 145.572 135.956 L 147.183 137.567 L 147.183 130.26 L 145.572 130.26 Z " fill="rgb(204,204,204)"/><path d=" M 139.876 130.26 L 139.131 130.26 L 139.131 140.251 L 140.74 140.251 L 140.74 131.125 L 139.876 130.26 L 139.876 130.26 Z " fill="rgb(170,170,170)"/><path d=" M 142.352 132.736 L 142.352 140.251 L 143.96 140.251 L 143.96 134.344 L 142.352 132.736 L 142.352 132.736 Z " fill="rgb(170,170,170)"/><path d=" M 127.858 130.26 L 126.056 130.26 L 126.056 140.251 L 127.858 140.251 L 127.858 130.26 L 127.858 130.26 Z " fill="rgb(170,170,170)"/><path d=" M 148.794 140.251 L 149.867 140.251 L 148.794 139.176 L 148.794 140.251 L 148.794 140.251 Z " fill="rgb(170,170,170)"/><path d=" M 148.794 139.176 L 149.867 140.251 L 150.648 140.251 L 150.648 130.26 L 148.794 130.26 L 148.794 139.176 Z " fill="rgb(204,204,204)"/><path d=" M 131.079 121.236 L 132.688 121.236 L 132.688 123.073 L 134.299 124.683 L 134.299 121.236 L 135.91 121.236 L 135.91 126.293 L 137.424 127.807 L 137.518 127.807 L 137.518 121.236 L 139.131 121.236 L 139.131 127.807 L 140.74 127.807 L 140.74 121.236 L 142.352 121.236 L 142.352 127.807 L 143.96 127.807 L 143.96 121.236 L 145.572 121.236 L 145.572 127.807 L 147.183 127.807 L 147.183 121.236 L 148.794 121.236 L 148.794 127.807 L 150.648 127.807 L 150.648 116.441 L 126.056 116.441 L 131.079 121.463 L 131.079 121.236 Z " fill="rgb(204,204,204)"/><path d=" M 148.794 149.284 L 147.183 149.284 L 147.183 142.704 L 145.572 142.704 L 145.572 149.284 L 143.96 149.284 L 143.96 142.704 L 142.352 142.704 L 142.352 149.284 L 140.74 149.284 L 140.74 142.704 L 139.131 142.704 L 139.131 149.284 L 137.518 149.284 L 137.518 142.704 L 135.91 142.704 L 135.91 149.284 L 134.299 149.284 L 134.299 142.704 L 132.688 142.704 L 132.688 149.284 L 131.079 149.284 L 131.079 142.704 L 129.468 142.704 L 129.468 149.284 L 127.858 149.284 L 127.858 142.704 L 126.056 142.704 L 126.056 154.069 L 150.648 154.069 L 150.648 142.704 L 148.794 142.704 L 148.794 149.284 Z " fill="rgb(170,170,170)"/><path d=" M 127.858 121.236 L 129.468 121.236 L 129.468 127.807 L 131.079 127.807 L 131.079 121.463 L 126.056 116.441 L 126.056 127.807 L 127.858 127.807 L 127.858 121.236 Z " fill="rgb(170,170,170)"/><path d=" M 127.858 149.284 L 129.468 149.284 L 129.468 142.704 L 127.858 142.704 L 127.858 149.284 L 127.858 149.284 Z " fill="rgb(63,124,160)"/><path d=" M 129.468 130.26 L 127.858 130.26 L 127.858 140.251 L 129.468 140.251 L 129.468 130.26 L 129.468 130.26 Z " fill="rgb(63,124,160)"/><path d=" M 129.468 121.236 L 127.858 121.236 L 127.858 127.807 L 129.468 127.807 L 129.468 121.236 L 129.468 121.236 Z " fill="rgb(63,124,160)"/><path d=" M 132.688 121.236 L 131.079 121.236 L 131.079 121.463 L 132.688 123.073 L 132.688 121.236 Z " fill="rgb(84,165,213)"/><path d=" M 132.688 123.073 L 131.079 121.463 L 131.079 127.807 L 132.688 127.807 L 132.688 123.073 L 132.688 123.073 Z " fill="rgb(63,124,160)"/><path d=" M 131.079 149.284 L 132.688 149.284 L 132.688 142.704 L 131.079 142.704 L 131.079 149.284 L 131.079 149.284 Z " fill="rgb(63,124,160)"/><path d=" M 131.079 130.26 L 131.079 140.251 L 132.688 140.251 L 132.688 130.26 L 131.079 130.26 L 131.079 130.26 Z " fill="rgb(63,124,160)"/><path d=" M 135.91 121.236 L 134.299 121.236 L 134.299 124.683 L 135.91 126.293 L 135.91 121.236 L 135.91 121.236 Z " fill="rgb(84,165,213)"/><path d=" M 134.299 130.26 L 134.299 140.251 L 135.91 140.251 L 135.91 130.26 L 134.299 130.26 L 134.299 130.26 Z " fill="rgb(63,124,160)"/><path d=" M 135.91 127.807 L 135.91 126.293 L 134.299 124.683 L 134.299 127.807 L 135.91 127.807 L 135.91 127.807 Z " fill="rgb(63,124,160)"/><path d=" M 134.299 149.284 L 135.91 149.284 L 135.91 142.704 L 134.299 142.704 L 134.299 149.284 L 134.299 149.284 Z " fill="rgb(63,124,160)"/><path d=" M 137.518 149.284 L 139.131 149.284 L 139.131 142.704 L 137.518 142.704 L 137.518 149.284 L 137.518 149.284 Z " fill="rgb(63,124,160)"/><path d=" M 137.518 130.26 L 137.518 140.251 L 139.131 140.251 L 139.131 130.26 L 137.518 130.26 L 137.518 130.26 Z " fill="rgb(63,124,160)"/><path d=" M 139.131 121.236 L 137.518 121.236 L 137.518 127.807 L 139.131 127.807 L 139.131 121.236 L 139.131 121.236 Z " fill="rgb(84,165,213)"/><path d=" M 140.74 149.284 L 142.352 149.284 L 142.352 142.704 L 140.74 142.704 L 140.74 149.284 L 140.74 149.284 Z " fill="rgb(63,124,160)"/><path d=" M 140.74 131.125 L 140.74 140.251 L 142.352 140.251 L 142.352 132.736 L 140.74 131.125 L 140.74 131.125 Z " fill="rgb(63,124,160)"/><path d=" M 142.352 121.236 L 140.74 121.236 L 140.74 127.807 L 142.352 127.807 L 142.352 121.236 L 142.352 121.236 Z " fill="rgb(84,165,213)"/><path d=" M 142.352 132.736 L 142.352 130.26 L 140.74 130.26 L 140.74 131.125 L 142.352 132.736 Z " fill="rgb(84,165,213)"/><path d=" M 143.96 134.344 L 143.96 140.251 L 145.572 140.251 L 145.572 135.956 L 143.96 134.344 L 143.96 134.344 Z " fill="rgb(63,124,160)"/><path d=" M 143.96 149.284 L 145.572 149.284 L 145.572 142.704 L 143.96 142.704 L 143.96 149.284 L 143.96 149.284 Z " fill="rgb(63,124,160)"/><path d=" M 145.572 121.236 L 143.96 121.236 L 143.96 127.807 L 145.572 127.807 L 145.572 121.236 L 145.572 121.236 Z " fill="rgb(84,165,213)"/><path d=" M 145.572 135.956 L 145.572 130.26 L 143.96 130.26 L 143.96 134.344 L 145.572 135.956 Z " fill="rgb(84,165,213)"/><path d=" M 148.794 121.236 L 147.183 121.236 L 147.183 127.807 L 148.794 127.807 L 148.794 121.236 L 148.794 121.236 Z " fill="rgb(84,165,213)"/><path d=" M 147.183 137.567 L 148.794 139.176 L 148.794 130.26 L 147.183 130.26 L 147.183 137.567 Z " fill="rgb(84,165,213)"/><path d=" M 147.183 149.284 L 148.794 149.284 L 148.794 142.704 L 147.183 142.704 L 147.183 149.284 L 147.183 149.284 Z " fill="rgb(63,124,160)"/><path d=" M 147.183 137.567 L 147.183 140.251 L 148.794 140.251 L 148.794 139.176 L 147.183 137.567 L 147.183 137.567 Z " fill="rgb(63,124,160)"/><path d=" M 150.648 141.031 L 150.648 140.251 L 149.867 140.251 L 150.648 141.031 L 150.648 141.031 Z " fill="rgb(227,227,227)"/><path d=" M 149.867 140.251 L 126.056 140.251 L 126.056 142.704 L 150.648 142.704 L 150.648 141.031 L 149.867 140.251 Z " fill="rgb(204,204,204)"/><path d=" M 139.131 129.513 L 137.518 127.903 L 137.424 127.807 L 126.056 127.807 L 126.056 130.26 L 127.858 130.26 L 129.468 130.26 L 131.079 130.26 L 132.688 130.26 L 134.299 130.26 L 135.91 130.26 L 137.518 130.26 L 139.131 130.26 L 139.876 130.26 L 139.131 129.513 Z " fill="rgb(204,204,204)"/><path d=" M 148.794 127.807 L 137.424 127.807 L 137.518 127.903 L 139.131 129.513 L 139.876 130.26 L 140.74 130.26 L 142.352 130.26 L 143.96 130.26 L 145.572 130.26 L 147.183 130.26 L 148.794 130.26 L 150.648 130.26 L 150.648 127.807 L 148.794 127.807 Z " fill="rgb(227,227,227)"/><path d=" M 118.593 68.876 L 108.929 68.876 L 108.929 63.625 L 118.593 63.625 L 118.593 68.876 L 118.593 68.876 Z " fill="rgb(204,204,204)"/><path d=" M 143.152 116.441 L 133.488 116.441 L 133.488 111.193 L 143.152 111.193 L 143.152 116.441 L 143.152 116.441 Z " fill="rgb(227,227,227)"/><path d=" M 138.371 102.953 L 138.268 102.953 L 137.656 111.193 L 138.982 111.193 L 138.371 102.953 Z " fill="rgb(157,157,157)"/><path d=" M 89.222 10.871 L 89.119 10.871 L 88.508 19.109 L 89.833 19.109 L 89.222 10.871 L 89.222 10.871 Z " fill="rgb(157,157,157)"/><path d=" M 87.479 19.109 L 87.479 20.496 L 89.17 20.496 L 89.17 19.109 L 87.479 19.109 L 87.479 19.109 Z " fill="rgb(227,227,227)"/><path d=" M 90.863 19.109 L 89.17 19.109 L 89.17 20.496 L 90.863 20.496 L 90.863 19.109 L 90.863 19.109 Z " fill="rgb(170,170,170)"/><path d=" M 1.969 598.236 L 1.02 598.236 L 1.02 561.195 L 1.969 561.195 L 1.969 598.236 L 1.969 598.236 Z " fill="rgb(232,232,232)"/></g></g></g></g></svg>