<svg width="322" height="396" xmlns="http://www.w3.org/2000/svg">

 <g>
  <title>background</title>
  <rect fill="none" id="canvas_background" height="398" width="324" y="-1" x="-1"/>
 </g>
 <g>
  <title>Layer 1</title>
  <path id="svg_51" fill="#D65944" clip-rule="evenodd" fill-rule="evenodd" d="m54.853878,48.588485l13.747,0l0,11.464l-13.747,0l0,-11.464z"/>
  <path id="svg_52" d="m54.853878,47.539485l13.747,0c0.579,0 1.049,0.468 1.049,1.049l0,11.464c0,0.58 -0.47,1.05 -1.049,1.05l-13.747,0c-0.58,0 -1.051,-0.47 -1.051,-1.05l0,-11.464c0.001,-0.582 0.472,-1.049 1.051,-1.049l0,0zm12.697,2.097l-11.649,0l0,9.369l11.649,0l0,-9.369z" fill="#B23532"/>
  <path id="svg_53" fill="#D65944" clip-rule="evenodd" fill-rule="evenodd" d="m54.853878,71.521485l20.14399,0l2.20404,-0.845l0,-10.62399l-22.34803,0l0,11.46899z"/>
  <path id="svg_54" d="m55.901878,70.471485l18.906,0l1.342,-0.517l0,-8.853l-20.249,0l0,9.37l0.001,0zm19.096,2.098l-20.144,0c-0.58,0 -1.051,-0.47 -1.051,-1.048l0,-11.469c0,-0.58 0.471,-1.047 1.051,-1.047l22.347,0c0.579,0 1.051,0.468 1.051,1.047l0,10.624l-0.002,0c0,0.422 -0.257,0.82 -0.673,0.981l-2.155,0.824c-0.132,0.055 -0.272,0.088 -0.424,0.088z" fill="#B23532"/>
  <path id="svg_55" fill="#D65944" clip-rule="evenodd" fill-rule="evenodd" d="m68.601868,48.588485l19.423,0l0,11.464l-19.423,0l0,-11.464z"/>
  <path id="svg_56" d="m86.975878,49.636485l-17.325,0l0,9.369l17.325,0l0,-9.369l0,0zm-18.374,-2.097l19.423,0c0.578,0 1.05,0.468 1.05,1.049l0,11.464c0,0.58 -0.472,1.05 -1.05,1.05l-19.423,0c-0.578,0 -1.05,-0.47 -1.05,-1.05l0,-11.464c-0.001,-0.582 0.471,-1.049 1.05,-1.049z" fill="#B23532"/>
  <path id="svg_57" fill="#D65944" clip-rule="evenodd" fill-rule="evenodd" d="m77.201908,70.676485l0,-10.62399l10.82299,0l0,6.47599l-10.82299,4.148z"/>
  <path id="svg_58" d="m76.150878,70.676485l0,-10.624c0,-0.58 0.472,-1.047 1.051,-1.047l10.823,0c0.578,0 1.05,0.468 1.05,1.047l0,6.476c0,0.466 -0.302,0.858 -0.721,0.995l-10.778,4.134c-0.542,0.204 -1.148,-0.067 -1.351,-0.608c-0.052,-0.125 -0.072,-0.249 -0.072,-0.373l-0.002,0l0,0zm2.102,-9.574l0,8.049l8.723,-3.341l0,-4.708l-8.723,0z" fill="#B23532"/>
  <path id="svg_59" fill="#D65944" clip-rule="evenodd" fill-rule="evenodd" d="m54.853878,71.521485l13.74799,0l0,2.45l-13.74799,5.26899l0,-7.71899z"/>
  <path id="svg_60" d="m54.853878,70.471485l13.747,0c0.579,0 1.049,0.468 1.049,1.05l0,2.45c0,0.466 -0.3,0.859 -0.717,0.997l-13.707,5.253c-0.543,0.204 -1.147,-0.067 -1.354,-0.608c-0.047,-0.122 -0.068,-0.249 -0.068,-0.372l0,0l0,-7.719c0,-0.583 0.471,-1.051 1.05,-1.051l0,0zm12.697,2.098l-11.649,0l0,5.147l11.649,-4.468l0,-0.679z" fill="#B23532"/>
  <path id="svg_61" fill="#D65944" clip-rule="evenodd" fill-rule="evenodd" d="m74.997868,71.521485l-6.396,0l0,2.45l6.396,-2.45z"/>
  <path id="svg_62" d="m68.601878,70.471485l6.396,0l0,0c0.425,0 0.823,0.259 0.982,0.675c0.206,0.542 -0.065,1.146 -0.606,1.353l-6.354,2.438c-0.126,0.053 -0.271,0.083 -0.419,0.083c-0.578,0 -1.05,-0.469 -1.05,-1.049l0,-2.45c0,-0.582 0.472,-1.05 1.051,-1.05z" fill="#B23532"/>
  <path id="svg_63" d="m173.241878,173.869485l29.743,0c0.105,0 0.19,0.09 0.19,0.195l0,7.444c0,0.108 -0.09,0.197 -0.19,0.197l-29.743,0c-0.105,0 -0.195,-0.089 -0.195,-0.197l0,-7.444c0,-0.105 0.09,-0.195 0.195,-0.195z" fill="#CBBC99" clip-rule="evenodd" fill-rule="evenodd"/>
  <path id="svg_64" fill="#EAE1B4" clip-rule="evenodd" fill-rule="evenodd" d="m36.046878,367.506485l244.48498,0l0,-272.614l-89.5,-34.298l-0.354,-23.25l-66.86798,0l-0.06201,23.5l-87.70099,32.918l0,273.744z"/>
  <path id="svg_65" d="m116.757878,23.761485l83.065,0c2.083,0 3.785,1.705 3.785,3.786l0,7.576c0,2.083 -1.702,3.79 -3.785,3.79l-83.065,0c-2.083,0 -3.789,-1.707 -3.789,-3.79l0,-7.576c0,-2.081 1.706,-3.786 3.789,-3.786z" fill="#B23532" clip-rule="evenodd" fill-rule="evenodd"/>
  <path id="svg_66" fill="#959380" clip-rule="evenodd" fill-rule="evenodd" d="m23.766908,98.987485l3.922,-1.50399l0,270.02299l8.35797,0l0,-273.22099l-0.00098,0l88.02795,-33.73401l0,-7.83701l-100.30694,38.43601l0,7.837z"/>
  <path id="svg_67" fill="#959380" clip-rule="evenodd" fill-rule="evenodd" d="m291.220888,98.987485l-2.331,-0.893l0,269.412l-8.35803,0l0,-272.614l-89.61096,-34.341l0,-7.83701l100.29999,38.43601l0,7.837z"/>
  <path id="svg_68" fill="#959380" clip-rule="evenodd" fill-rule="evenodd" d="m36.046878,306.184495l87.68599,0l0,10.222l-87.68599,0l0,-10.222z"/>
  <path id="svg_69" fill="#4E4D37" clip-rule="evenodd" fill-rule="evenodd" d="m210.527888,280.262495l43.62201,0l0,87.243l-43.62201,0l0,-87.243z"/>
  <path id="svg_70" fill="#2FBCD9" clip-rule="evenodd" fill-rule="evenodd" d="m216.273868,285.487475l32.129,0l0,82.01999l-32.129,0l0,-82.01999z"/>
  <path id="svg_71" d="m160.707878,292.801485l23.092,0c0.105,0 0.193,0.091 0.193,0.195l0,7.444c0,0.108 -0.088,0.195 -0.193,0.195l-23.092,0c-0.108,0 -0.197,-0.085 -0.197,-0.195l0,-7.444c0,-0.108 0.086,-0.195 0.197,-0.195z" fill="#CBBC99" clip-rule="evenodd" fill-rule="evenodd"/>
  <path id="svg_72" d="m36.241878,251.543485l19.009,0c0.107,0 0.196,0.091 0.196,0.197l0,7.444c0,0.104 -0.09,0.196 -0.196,0.196l-19.009,0c-0.107,0 -0.195,-0.088 -0.195,-0.196l0,-7.444c0,-0.108 0.088,-0.197 0.195,-0.197z" fill="#CBBC99" clip-rule="evenodd" fill-rule="evenodd"/>
  <path id="svg_73" d="m52.583878,134.447485l25.523,0c0.11,0 0.196,0.093 0.196,0.197l0,7.444c0,0.105 -0.088,0.195 -0.196,0.195l-25.523,0c-0.106,0 -0.196,-0.087 -0.196,-0.195l0,-7.444c0,-0.108 0.086,-0.197 0.196,-0.197z" fill="#CBBC99" clip-rule="evenodd" fill-rule="evenodd"/>
  <path id="svg_74" d="m238.996878,83.132485l10.855,0l14.865,5.699l0,1.943c0,0.107 -0.092,0.197 -0.195,0.197l-25.525,0c-0.102,0 -0.193,-0.087 -0.193,-0.197l0,-7.444c0,-0.106 0.086,-0.198 0.193,-0.198z" fill="#CBBC99" clip-rule="evenodd" fill-rule="evenodd"/>
  <path id="svg_75" d="m244.783878,150.969485l35.553,0c0.108,0 0.195,0.091 0.195,0.195l0,7.442c0,0.106 -0.092,0.196 -0.195,0.196l-35.553,0c-0.102,0 -0.196,-0.086 -0.196,-0.196l0,-7.442c0,-0.108 0.09,-0.195 0.196,-0.195z" fill="#CBBC99" clip-rule="evenodd" fill-rule="evenodd"/>
  <path id="svg_76" fill="#493C29" clip-rule="evenodd" fill-rule="evenodd" d="m92.727908,103.166485l129.817,0l0,21.94l-129.817,0l0,-21.94z"/>
  <path id="svg_77" fill="#493C29" clip-rule="evenodd" fill-rule="evenodd" d="m62.688908,178.132495l50.151,0l0,29.777l-50.151,0l0,-29.777z"/>
  <path id="svg_78" fill="#493C29" clip-rule="evenodd" fill-rule="evenodd" d="m62.688908,207.909475l50.151,0l0,12.53699l-50.151,0l0,-12.53699z"/>
  <path id="svg_79" fill="#959380" clip-rule="evenodd" fill-rule="evenodd" d="m145.468868,276.816485l0,-10.21601l10.22101,0l0,-10.221l10.21997,0l0,-10.224l10.22101,0l0,-10.219l10.22003,0l0,-10.22198l10.21796,0l0,-10.22101l10.22101,0l0,-10.21701l10.22003,0l0,-10.22098l63.52197,0l0,172.45099l-35.30597,0l0,-78.319l-25.77203,0l0,78.319l-53.54401,0l0,-1.29599l-10.21997,0l0,-10.22101l-10.22101,0l0,-10.22l-10.21899,0l0,-10.22299l-10.22198,0l0,-10.21701l-10.219,0l0,-28.07099l10.219,0l0,-10.221l10.22198,0l0,-10.22101l10.21899,0z"/>
  <path id="svg_80" d="m144.173878,285.743485l0,10.219l-10.222,0l0,10.221l-10.219,0l0,10.222l10.219,0l0,10.217l10.222,0l0,10.223l10.223,0l0,10.219l10.219,0l0,10.22l10.222,0l0,10.222l35.694,0l0,-87.244l43.618,0l0,87.245l26.382,0l0,-163.525l-54.595,0l0,10.219l-10.223,0l0,10.221l-10.222,0l0,10.22l-10.217,0l0,10.22l-10.22,0l0,10.221l-10.22,0l0,10.219l-10.222,0l0,10.222l-10.219,0l0,10.219l-10.22,0l0,0zm39.626,14.893l-23.092,0c-0.108,0 -0.197,-0.085 -0.197,-0.195l0,-7.444c0,-0.108 0.086,-0.195 0.197,-0.195l23.092,0c0.105,0 0.193,0.091 0.193,0.195l0,7.444c0,0.107 -0.088,0.195 -0.193,0.195z" fill="#DED3A0" clip-rule="evenodd" fill-rule="evenodd"/>
  <path id="svg_81" fill="#D65944" clip-rule="evenodd" fill-rule="evenodd" d="m54.331848,332.445485l52.5,0l0,32.65l-52.5,0l0,-32.65z"/>
  <path id="svg_82" d="m54.331878,331.394485l52.5,0c0.58,0 1.049,0.47 1.049,1.05l0,32.652c0,0.58 -0.47,1.049 -1.049,1.049l-52.5,0c-0.582,0 -1.051,-0.469 -1.051,-1.049l0,-32.652c0,-0.581 0.469,-1.05 1.051,-1.05l0,0zm51.448,2.101l-50.399,0l0,30.55l50.399,0l0,-30.55z" fill="#B23532"/>
  <path id="svg_83" fill="#D65944" clip-rule="evenodd" fill-rule="evenodd" d="m59.593868,332.445485l41.97701,0l0,32.65l-41.97701,0l0,-32.65z"/>
  <path id="svg_84" d="m59.593878,331.394485l41.974,0c0.581,0 1.05,0.47 1.05,1.05l0,32.652c0,0.58 -0.47,1.049 -1.05,1.049l-41.974,0c-0.582,0 -1.052,-0.469 -1.052,-1.049l0,-32.652c0,-0.581 0.47,-1.05 1.052,-1.05l0,0zm40.927,2.101l-39.877,0l0,30.55l39.877,0l0,-30.55z" fill="#B23532"/>
  <path id="svg_85" fill="#D65944" clip-rule="evenodd" fill-rule="evenodd" d="m65.324888,332.445485l30.511,0l0,32.65l-30.511,0l0,-32.65z"/>
  <path id="svg_86" d="m65.327878,331.394485l30.508,0c0.582,0 1.049,0.47 1.049,1.05l0,32.652c0,0.58 -0.467,1.049 -1.049,1.049l-30.508,0c-0.582,0 -1.051,-0.469 -1.051,-1.049l0,-32.652c-0.001,-0.581 0.469,-1.05 1.051,-1.05l0,0zm29.46,2.101l-28.414,0l0,30.55l28.414,0l0,-30.55z" fill="#B23532"/>
  <path id="svg_87" fill="#D65944" clip-rule="evenodd" fill-rule="evenodd" d="m70.407898,332.445485l20.348,0l0,32.65l-20.348,0l0,-32.65z"/>
  <path id="svg_88" d="m70.409878,331.394485l20.343,0c0.582,0 1.051,0.47 1.051,1.05l0,32.652c0,0.58 -0.47,1.049 -1.051,1.049l-20.343,0c-0.582,0 -1.051,-0.469 -1.051,-1.049l0,-32.652c0,-0.581 0.47,-1.05 1.051,-1.05l0,0zm19.295,2.101l-18.247,0l0,30.55l18.247,0l0,-30.55z" fill="#B23532"/>
  <path id="svg_89" fill="#D65944" clip-rule="evenodd" fill-rule="evenodd" d="m75.489868,332.445485l10.183,0l0,32.65l-10.183,0l0,-32.65z"/>
  <path id="svg_90" d="m75.487878,331.394485l10.183,0c0.581,0 1.051,0.47 1.051,1.05l0,32.652c0,0.58 -0.471,1.049 -1.051,1.049l-10.183,0c-0.579,0 -1.049,-0.469 -1.049,-1.049l0,-32.652c0,-0.581 0.471,-1.05 1.049,-1.05l0,0zm9.135,2.101l-8.083,0l0,30.55l8.083,0l0,-30.55z" fill="#B23532"/>
  <path id="svg_91" fill="#D65944" clip-rule="evenodd" fill-rule="evenodd" d="m75.489868,332.445485l5.092,0l0,32.65l-5.092,0l0,-32.65z"/>
  <path id="svg_92" d="m75.487878,331.394485l5.09,0c0.582,0 1.052,0.47 1.052,1.05l0,32.652c0,0.58 -0.47,1.049 -1.052,1.049l-5.09,0c-0.579,0 -1.049,-0.469 -1.049,-1.049l0,-32.652c0,-0.581 0.471,-1.05 1.049,-1.05l0,0zm4.045,2.101l-2.994,0l0,30.55l2.994,0l0,-30.55z" fill="#B23532"/>
  <path id="svg_93" fill="#DACF9C" clip-rule="evenodd" fill-rule="evenodd" d="m123.803898,38.910485l67.11699,0l0,21.641l-67.11699,0l0,-21.641z"/>
  <path id="svg_94" fill="#B23532" clip-rule="evenodd" fill-rule="evenodd" d="m19.068848,367.506485l275.04504,0l-5.224,-8.88101l-261.20098,0l-8.62006,8.88101z"/>
  <path id="svg_95" fill="#DACF9C" clip-rule="evenodd" fill-rule="evenodd" d="m36.370848,94.285495l-9.00897,3.21299l0,261.12699l9.00897,0l0,-42.22l0,-10.22098l0,-47l0,-7.444l0,-157.455z"/>
  <path id="svg_96" fill="#DACF9C" clip-rule="evenodd" fill-rule="evenodd" d="m280.281858,94.285495l9.00904,3.21299l0,261.12699l-9.00904,0l0,-42.22l0,-10.22098l0,-47l0,-7.444l0,-157.455z"/>
  <path id="svg_97" d="m36.045878,94.285485l0,0l0,0zm0.325,10.684l103.634,-44.418l-15.931,0l-0.326,0.126l0,0.167l-21.38,8.024l-0.036,0.014l-66.285,25.403l0,0.114l0.324,-0.114l0,10.684z" fill="#DACF9C" clip-rule="evenodd" fill-rule="evenodd"/>
  <path id="svg_98" d="m177.617878,60.551485l61.186,25.71l0,-2.932c0,-0.106 0.086,-0.198 0.193,-0.198l10.855,0l-58.82,-22.538l-0.111,-0.043l-13.303,0l0,0.001z" fill="#DACF9C" clip-rule="evenodd" fill-rule="evenodd"/>
  <path id="svg_99" d="m264.521878,90.971485l-14.51,0l30.27,12.719l0,-8.895l-15.564,-5.965l0,1.943c0,0.108 -0.092,0.198 -0.196,0.198z" fill="#DACF9C" clip-rule="evenodd" fill-rule="evenodd"/>
  <path id="svg_100" fill="#DACF9C" clip-rule="evenodd" fill-rule="evenodd" d="m112.839908,180.609485l2.86694,0l0,29.77701l-2.86694,0l0,-2.47703l0,-27.29998z"/>
  <path id="svg_101" fill="#DACF9C" clip-rule="evenodd" fill-rule="evenodd" d="m112.839908,210.386495l2.86694,0l0,12.53698l-50.14899,0l0,-2.47598l47.28205,0l0,-10.061z"/>
  <path id="svg_102" fill="#DACF9C" clip-rule="evenodd" fill-rule="evenodd" d="m222.544858,105.778485l2.612,0l0,21.942l-129.81799,0l0,-2.61199l127.20599,0l0,-19.33001z"/>
  <path id="svg_103" fill="#CBBD7E" clip-rule="evenodd" fill-rule="evenodd" d="m154.395878,275.524495l0,10.21899l-10.22199,0l0,10.21899l-10.22198,0l0,10.22202l-10.21906,0l0,10.22098l5.78601,0l0,-5.51599l10.22101,0l0,-10.219l10.21698,0l0,-10.22101l10.22205,0l0,-10.22l10.21795,0l0,-10.21899l10.224,0l0,-10.22101l10.22003,0l0,-10.22l10.219,0l0,-10.219l10.22003,0l0,-10.22399l10.21899,0l0,-10.219l10.22199,0l0,-10.22l48.56097,0l0,-4.70499l-54.34399,0l0,10.219l-10.22296,0l0,10.22098l-10.22205,0l0,10.22l-10.21698,0l0,10.22l-10.21899,0l0,10.22101l-10.22003,0l0,10.21899l-10.22199,0l0,10.22202l-10.21899,0z"/>
  <path id="svg_104" fill="#CBBD7E" clip-rule="evenodd" fill-rule="evenodd" d="m144.173888,331.333485l5.783,0l0,5.513l-5.783,0l0,-5.513z"/>
  <path id="svg_105" fill="#CBBD7E" clip-rule="evenodd" fill-rule="evenodd" d="m133.951908,321.111495l5.788,0l0,5.512l-5.788,0l0,-5.512z"/>
  <path id="svg_106" fill="#CBBD7E" clip-rule="evenodd" fill-rule="evenodd" d="m154.395878,341.552475l5.782,0l0,5.513l-5.782,0l0,-5.513z"/>
  <path id="svg_107" fill="#CBBD7E" clip-rule="evenodd" fill-rule="evenodd" d="m164.614868,351.770495l5.782,0l0,5.514l-5.782,0l0,-5.514z"/>
 </g>
</svg>