<?xml version="1.0" standalone="no"?><!-- Generator: Gravit.io --><svg xmlns="http://www.w3.org/2000/svg" xmlns:xlink="http://www.w3.org/1999/xlink" style="isolation:isolate" viewBox="0 0 280 450" width="280" height="450"><defs><clipPath id="_clipPath_W8Jm1OSdHFkdgO3J3sPqkK75Zew5GzxQ"><rect width="280" height="450"/></clipPath></defs><g clip-path="url(#_clipPath_W8Jm1OSdHFkdgO3J3sPqkK75Zew5GzxQ)"><g><rect x="-1" y="-1" width="282" height="452" transform="matrix(1,0,0,1,0,0)" fill="none"/></g><g><g><path d=" M 242.189 77.378 L 151.47 77.378 L 28.057 182.672 L 28.057 250.106 L 48.947 250.106 L 132.25 335.822 L 122.761 345.313 L 43.277 263.526 L 28.057 263.526 L 28.057 418.655 L 242.189 418.655 L 242.189 77.378 L 242.189 77.378 Z " fill-rule="evenodd" fill="rgb(225,224,204)"/><path d=" M 36.378 175.572 L 28.057 182.673 L 28.057 250.107 L 36.378 250.107 L 36.378 175.572 L 36.378 175.572 Z  M 36.378 263.526 L 28.057 263.526 L 28.057 403.622 L 36.378 403.622 L 36.378 263.526 Z " fill-rule="evenodd" fill="rgb(209,206,181)"/><path d=" M 242.189 77.378 L 151.47 77.378 L 28.057 182.672 L 28.057 193.809 L 156.036 84.625 L 242.189 84.625 L 242.189 77.378 L 242.189 77.378 Z " fill-rule="evenodd" fill="rgb(209,206,181)"/><path d=" M 28.028 418.653 L 242.189 418.655 L 242.189 403.622 L 28.028 403.622 L 28.028 418.653 Z " fill-rule="evenodd" fill="rgb(139,125,139)"/><path d=" M 28.028 263.526 L 51.881 263.526 L 123.575 337.297 L 123.575 418.655 L 28.028 418.655 L 28.028 263.526 L 28.028 263.526 Z " fill-rule="evenodd" fill="rgb(246,199,131)"/><path d=" M 28.028 263.526 L 51.881 263.526 L 123.575 337.297 L 123.575 347.551 L 50.003 271.845 L 28.028 271.845 L 28.028 263.526 Z " fill-rule="evenodd" fill="rgb(232,177,105)"/><path d=" M 28.028 250.341 L 57.551 250.106 L 140.854 335.822 L 131.365 345.313 L 51.881 263.526 L 28.028 263.526 L 28.028 250.341 Z " fill-rule="evenodd" fill="rgb(178,53,50)"/><path d=" M 54.062 327.67 L 102.909 327.67 L 102.909 418.654 L 54.062 418.654 L 54.062 327.67 Z " fill-rule="evenodd" fill="rgb(255,255,255)"/><path d=" M 63.187 338.941 L 93.784 338.941 L 93.784 418.654 L 63.187 418.654 L 63.187 338.941 Z " fill-rule="evenodd" fill="rgb(92,134,152)"/><path d=" M 161.671 303.248 L 208.372 303.248 L 208.372 366.588 L 161.671 366.588 L 161.671 303.248 Z " fill-rule="evenodd" fill="rgb(232,182,109)"/><path d=" M 168.381 311.029 L 201.662 311.029 L 201.662 341.626 L 168.381 341.626 L 168.381 311.029 Z " fill-rule="evenodd" fill="rgb(73,60,41)"/><path d=" M 115.17 368.197 L 137.314 368.197 C 137.424 368.197 137.516 368.288 137.516 368.399 L 137.516 376.049 C 137.516 376.158 137.424 376.25 137.314 376.25 L 115.17 376.25 C 115.061 376.25 114.971 376.158 114.971 376.049 L 114.971 368.399 C 114.971 368.289 115.061 368.197 115.17 368.197 Z " fill-rule="evenodd" fill="rgb(203,188,153)"/><path d=" M 220.628 389.2 L 233.667 389.2 C 233.779 389.2 233.869 389.292 233.869 389.401 L 233.869 397.049 C 233.869 397.161 233.779 397.25 233.667 397.25 L 220.628 397.25 C 220.52 397.25 220.426 397.161 220.426 397.049 L 220.426 389.401 C 220.426 389.289 220.52 389.2 220.628 389.2 Z " fill-rule="evenodd" fill="rgb(203,188,153)"/><path d=" M 215.807 242.493 L 233.666 242.493 C 233.778 242.493 233.868 242.587 233.868 242.695 L 233.868 250.341 C 233.868 250.452 233.778 250.544 233.666 250.544 L 215.807 250.544 C 215.7 250.544 215.608 250.455 215.608 250.341 L 215.608 242.695 C 215.609 242.58 215.7 242.493 215.807 242.493 Z " fill-rule="evenodd" fill="rgb(203,188,153)"/><path d=" M 136.643 262.183 L 163.185 262.183 C 163.295 262.183 163.385 262.274 163.385 262.384 L 163.385 270.033 C 163.385 270.143 163.296 270.235 163.185 270.235 L 136.643 270.235 C 136.531 270.235 136.441 270.143 136.441 270.033 L 136.441 262.384 C 136.441 262.274 136.53 262.183 136.643 262.183 Z " fill-rule="evenodd" fill="rgb(203,188,153)"/><path d=" M 84.643 176.566 L 120.07 176.566 L 120.07 248.494 L 84.643 248.494 L 84.643 176.566 Z " fill-rule="evenodd" fill="rgb(232,182,109)"/><path d=" M 91.89 184.888 L 112.825 184.888 L 112.825 234.538 L 91.89 234.538 L 91.89 184.888 Z " fill-rule="evenodd" fill="rgb(73,60,41)"/><path d=" M 167.309 111.08 L 217.765 111.08 L 217.765 183.008 L 167.309 183.008 L 167.309 111.08 L 167.309 111.08 Z " fill-rule="evenodd" fill="rgb(232,182,109)"/><path d=" M 177.63 119.399 L 207.445 119.399 L 207.445 169.051 L 177.63 169.051 L 177.63 119.399 L 177.63 119.399 Z " fill-rule="evenodd" fill="rgb(73,60,41)"/><path d=" M 107.834 114.608 L 129.809 114.608 C 129.921 114.608 130.011 114.701 130.011 114.807 L 130.011 122.459 C 130.011 122.567 129.919 122.658 129.809 122.658 L 107.13 122.658 C 107.023 122.658 106.929 122.57 106.929 122.459 L 106.929 115.378 L 107.834 114.608 Z " fill-rule="evenodd" fill="rgb(203,188,153)"/><path d=" M 242.189 63.96 L 145.804 63.96 L 28.057 164 L 28.028 184.888 L 151.47 77.378 L 242.189 77.378 L 242.189 63.96 L 242.189 63.96 Z " fill-rule="evenodd" fill="rgb(178,53,50)"/><path d=" M 169.453 32.173 L 214.812 32.173 L 214.812 63.959 L 169.453 63.959 L 169.453 32.173 Z " fill-rule="evenodd" fill="rgb(109,97,83)"/><path d=" M 169.453 32.173 L 214.812 32.173 L 214.812 35.701 L 169.453 35.701 L 169.453 32.173 Z " fill-rule="evenodd" fill="rgb(84,73,61)"/><path d=" M 165.458 32.173 L 218.807 32.173 C 221.926 32.173 224.475 31.221 224.475 30.058 L 224.475 17.378 C 224.475 16.214 221.925 15.264 218.807 15.264 L 165.458 15.264 C 162.341 15.264 159.79 16.214 159.79 17.378 L 159.79 30.057 C 159.789 31.221 162.34 32.173 165.458 32.173 L 165.458 32.173 Z " fill-rule="evenodd" fill="rgb(127,111,96)"/><path d=" M 39.367 107.465 L 94.479 107.465 L 77.581 121.792 L 39.367 121.792 L 39.367 107.465 L 39.367 107.465 Z " fill-rule="evenodd" fill="rgb(214,89,68)"/><path d=" M 39.367 106.384 L 94.479 106.384 L 97.417 106.384 L 95.175 108.286 L 78.274 122.611 L 77.971 122.867 L 77.58 122.867 L 39.366 122.867 L 38.283 122.867 L 38.283 121.791 L 38.283 107.465 L 38.283 106.384 L 39.367 106.384 L 39.367 106.384 L 39.367 106.384 Z  M 91.544 108.543 L 40.443 108.543 L 40.443 120.712 L 77.186 120.712 L 91.544 108.543 Z " fill="rgb(178,53,50)"/><path d=" M 39.367 136.116 L 60.678 136.116 L 77.581 121.792 L 39.367 121.792 L 39.367 136.116 L 39.367 136.116 Z " fill-rule="evenodd" fill="rgb(214,89,68)"/><path d=" M 40.443 135.036 L 60.287 135.036 L 74.643 122.867 L 40.443 122.867 L 40.443 135.036 L 40.443 135.036 L 40.443 135.036 Z  M 60.678 137.195 L 39.366 137.195 L 38.283 137.195 L 38.283 136.116 L 38.283 121.791 L 38.283 120.711 L 39.366 120.711 L 77.58 120.711 L 80.516 120.711 L 78.274 122.611 L 61.374 136.938 L 61.071 137.195 L 60.678 137.195 L 60.678 137.195 Z " fill="rgb(178,53,50)"/><path d=" M 39.367 136.116 L 60.678 136.116 L 43.778 150.444 L 39.367 150.444 L 39.367 136.116 L 39.367 136.116 Z " fill-rule="evenodd" fill="rgb(214,89,68)"/><path d=" M 39.367 135.036 L 60.679 135.036 L 63.619 135.036 L 61.375 136.938 L 44.474 151.266 L 44.173 151.522 L 43.778 151.522 L 39.367 151.522 L 38.284 151.522 L 38.284 150.444 L 38.284 136.116 L 38.284 135.036 L 39.367 135.036 L 39.367 135.036 L 39.367 135.036 Z  M 57.742 137.195 L 40.443 137.195 L 40.443 149.363 L 43.387 149.363 L 57.742 137.195 L 57.742 137.195 Z " fill="rgb(178,53,50)"/><path d=" M 43.778 150.444 L 39.367 150.444 L 39.367 154.185 L 43.778 150.444 Z " fill-rule="evenodd" fill="rgb(214,89,68)"/><path d=" M 40.841 151.522 L 40.443 151.522 L 40.443 151.859 L 40.841 151.522 L 40.841 151.522 Z  M 39.367 149.363 L 43.778 149.363 L 46.718 149.363 L 44.474 151.266 L 40.061 155.007 L 38.285 156.51 L 38.285 154.185 L 38.285 150.444 L 38.285 149.363 L 39.367 149.363 Z " fill="rgb(178,53,50)"/><path d=" M 54.896 107.465 L 82.749 107.465 L 82.749 117.411 L 77.581 121.792 L 54.896 121.792 L 54.896 107.465 L 54.896 107.465 Z " fill-rule="evenodd" fill="rgb(214,89,68)"/><path d=" M 54.896 106.384 L 82.749 106.384 L 83.823 106.384 L 83.823 107.465 L 83.823 117.411 L 83.823 117.91 L 83.441 118.233 L 78.275 122.611 L 77.972 122.867 L 77.581 122.867 L 54.896 122.867 L 53.82 122.867 L 53.82 121.791 L 53.82 107.465 L 53.82 106.384 L 54.896 106.384 L 54.896 106.384 L 54.896 106.384 Z  M 81.668 108.543 L 55.977 108.543 L 55.977 120.712 L 77.186 120.712 L 81.668 116.915 L 81.668 108.543 Z " fill="rgb(178,53,50)"/><path d=" M 39.367 121.792 L 67.213 121.792 L 67.213 130.576 L 60.678 136.116 L 39.367 136.116 L 39.367 121.792 L 39.367 121.792 Z " fill-rule="evenodd" fill="rgb(214,89,68)"/><path d=" M 39.367 120.711 L 67.213 120.711 L 68.293 120.711 L 68.293 121.791 L 68.293 130.576 L 68.293 131.075 L 67.909 131.401 L 61.374 136.939 L 61.071 137.196 L 60.678 137.196 L 39.366 137.196 L 38.283 137.196 L 38.283 136.117 L 38.283 121.792 L 38.283 120.712 L 39.367 120.712 L 39.367 120.711 L 39.367 120.711 Z  M 66.137 122.867 L 40.443 122.867 L 40.443 135.036 L 60.287 135.036 L 66.137 130.082 L 66.137 122.867 Z " fill="rgb(178,53,50)"/><path d=" M 54.896 136.116 L 60.68 136.116 L 54.896 141.02 L 54.896 136.116 Z " fill-rule="evenodd" fill="rgb(214,89,68)"/><path d=" M 54.896 135.036 L 60.68 135.036 L 63.618 135.036 L 61.376 136.938 L 55.592 141.839 L 53.82 143.342 L 53.82 141.019 L 53.82 136.116 L 53.82 135.036 L 54.896 135.036 L 54.896 135.036 L 54.896 135.036 Z  M 57.742 137.195 L 55.976 137.195 L 55.976 138.694 L 57.742 137.195 Z " fill="rgb(178,53,50)"/><path d=" M 217.763 111.08 L 221.252 116.986 L 221.252 186.234 L 170.796 186.234 L 167.307 183.01 L 217.763 183.01 L 217.763 111.08 L 217.763 111.08 Z " fill-rule="evenodd" fill="rgb(209,206,181)"/><path d=" M 120.071 176.566 L 123.52 179.291 L 123.52 251.217 L 88.095 251.217 L 84.64 248.495 L 120.071 248.495 L 120.071 176.566 L 120.071 176.566 Z " fill-rule="evenodd" fill="rgb(209,206,181)"/><path d=" M 208.372 303.248 L 210.646 305.658 L 210.646 368.999 L 163.948 368.999 L 161.671 366.587 L 208.372 366.587 L 208.372 303.248 L 208.372 303.248 Z " fill-rule="evenodd" fill="rgb(209,206,181)"/><path d=" M 233.868 84.625 L 242.189 84.625 L 242.189 403.622 L 233.868 403.622 L 233.868 84.625 L 233.868 84.625 Z " fill-rule="evenodd" fill="rgb(209,206,181)"/><path d=" M 109.299 338.674 L 114.971 338.674 L 114.971 418.653 L 109.299 418.653 L 109.299 338.674 Z " fill-rule="evenodd" fill="rgb(232,177,105)"/><path d=" M 28.028 271.845 L 33.701 271.845 L 33.701 418.654 L 28.028 418.654 L 28.028 271.845 Z " fill-rule="evenodd" fill="rgb(232,177,105)"/></g></g></g></svg>