<?xml version="1.0" standalone="no"?><!-- Generator: Gravit.io --><svg xmlns="http://www.w3.org/2000/svg" xmlns:xlink="http://www.w3.org/1999/xlink" style="isolation:isolate" viewBox="0 0 230 370" width="230" height="370"><defs><clipPath id="_clipPath_xt3m0suAE0Sq0Bh08JBt8Y9aeCe7d7vW"><rect width="230" height="370"/></clipPath></defs><g clip-path="url(#_clipPath_xt3m0suAE0Sq0Bh08JBt8Y9aeCe7d7vW)"><g><rect x="-1" y="-1" width="582" height="402" transform="matrix(1,0,0,1,0,0)" fill="none"/></g><g><path d=" M 40.509 18.709 L 188.113 18.709 L 188.113 24.613 L 40.509 24.613 L 40.509 18.709 Z " fill-rule="evenodd" fill="rgb(214,89,68)"/><path d=" M 40.509 24.613 L 188.113 24.613 L 188.113 30.516 L 40.509 30.516 L 40.509 24.613 Z " fill-rule="evenodd" fill="rgb(214,89,68)"/><path d=" M 40.509 30.515 L 188.113 30.515 L 188.113 36.419 L 40.509 36.419 L 40.509 30.515 Z " fill-rule="evenodd" fill="rgb(214,89,68)"/><path d=" M 40.509 36.419 L 188.113 36.419 L 188.113 42.324 L 40.509 42.324 L 40.509 36.419 Z " fill-rule="evenodd" fill="rgb(214,89,68)"/><path d=" M 40.509 42.321 L 188.113 42.321 L 188.113 48.225 L 40.509 48.225 L 40.509 42.321 Z " fill-rule="evenodd" fill="rgb(214,89,68)"/><path d=" M 40.509 48.226 L 188.113 48.226 L 188.113 54.129 L 40.509 54.129 L 40.509 48.226 Z " fill-rule="evenodd" fill="rgb(214,89,68)"/><path d=" M 40.509 54.127 L 188.113 54.127 L 188.113 60.033 L 40.509 60.033 L 40.509 54.127 Z " fill-rule="evenodd" fill="rgb(214,89,68)"/><path d=" M 40.509 60.032 L 188.113 60.032 L 188.113 65.936 L 40.509 65.936 L 40.509 60.032 Z " fill-rule="evenodd" fill="rgb(214,89,68)"/><path d=" M 40.509 65.934 L 188.113 65.934 L 188.113 71.838 L 40.509 71.838 L 40.509 65.934 Z " fill-rule="evenodd" fill="rgb(214,89,68)"/><path d=" M 40.509 71.838 L 188.113 71.838 L 188.113 77.741 L 40.509 77.741 L 40.509 71.838 Z " fill-rule="evenodd" fill="rgb(214,89,68)"/><path d=" M 40.509 77.741 L 188.113 77.741 L 188.113 83.645 L 40.509 83.645 L 40.509 77.741 Z " fill-rule="evenodd" fill="rgb(214,89,68)"/><path d=" M 40.509 83.644 L 188.113 83.644 L 188.113 89.548 L 40.509 89.548 L 40.509 83.644 Z " fill-rule="evenodd" fill="rgb(214,89,68)"/><path d=" M 40.509 89.546 L 188.113 89.546 L 188.113 95.452 L 40.509 95.452 L 40.509 89.546 Z " fill-rule="evenodd" fill="rgb(214,89,68)"/><path d=" M 40.509 95.45 L 188.113 95.45 L 188.113 101.354 L 40.509 101.354 L 40.509 95.45 Z " fill-rule="evenodd" fill="rgb(214,89,68)"/><path d=" M 40.506 17.862 L 188.112 17.862 C 188.579 17.862 188.956 18.24 188.956 18.709 L 188.956 24.615 C 188.956 25.08 188.579 25.461 188.112 25.461 L 40.506 25.461 C 40.04 25.461 39.659 25.08 39.659 24.615 L 39.659 18.709 C 39.659 18.24 40.04 17.862 40.506 17.862 L 40.506 17.862 Z  M 187.264 19.559 L 41.353 19.559 L 41.353 23.769 L 187.265 23.769 L 187.265 19.559 L 187.264 19.559 L 187.264 19.559 Z " fill="rgb(178,53,50)"/><path d=" M 40.506 23.768 L 188.112 23.768 C 188.579 23.768 188.956 24.144 188.956 24.613 L 188.956 30.516 C 188.956 30.986 188.579 31.366 188.112 31.366 L 40.506 31.366 C 40.04 31.366 39.659 30.986 39.659 30.516 L 39.659 24.613 C 39.659 24.144 40.04 23.768 40.506 23.768 L 40.506 23.768 Z  M 187.264 25.461 L 41.353 25.461 L 41.353 29.668 L 187.265 29.668 L 187.265 25.461 L 187.264 25.461 L 187.264 25.461 Z " fill="rgb(178,53,50)"/><path d=" M 40.506 29.668 L 188.112 29.668 C 188.579 29.668 188.956 30.049 188.956 30.517 L 188.956 36.419 C 188.956 36.89 188.579 37.268 188.112 37.268 L 40.506 37.268 C 40.04 37.268 39.659 36.89 39.659 36.419 L 39.659 30.517 C 39.659 30.049 40.04 29.668 40.506 29.668 L 40.506 29.668 Z  M 187.264 31.363 L 41.353 31.363 L 41.353 35.574 L 187.265 35.574 L 187.265 31.363 L 187.264 31.363 L 187.264 31.363 Z " fill="rgb(178,53,50)"/><path d=" M 40.506 35.572 L 188.112 35.572 C 188.579 35.572 188.956 35.951 188.956 36.419 L 188.956 42.324 C 188.956 42.791 188.579 43.171 188.112 43.171 L 40.506 43.171 C 40.04 43.171 39.659 42.791 39.659 42.324 L 39.659 36.419 C 39.659 35.951 40.04 35.572 40.506 35.572 L 40.506 35.572 Z  M 187.264 37.267 L 41.353 37.267 L 41.353 41.477 L 187.265 41.477 L 187.265 37.267 L 187.264 37.267 L 187.264 37.267 Z " fill="rgb(178,53,50)"/><path d=" M 40.506 41.477 L 188.112 41.477 C 188.579 41.477 188.956 41.855 188.956 42.321 L 188.956 48.227 C 188.956 48.697 188.579 49.074 188.112 49.074 L 40.506 49.074 C 40.04 49.074 39.659 48.697 39.659 48.227 L 39.659 42.321 C 39.659 41.855 40.04 41.477 40.506 41.477 L 40.506 41.477 Z  M 187.264 43.169 L 41.353 43.169 L 41.353 47.381 L 187.265 47.381 L 187.265 43.169 L 187.264 43.169 L 187.264 43.169 Z " fill="rgb(178,53,50)"/><path d=" M 40.506 47.379 L 188.112 47.379 C 188.579 47.379 188.956 47.76 188.956 48.228 L 188.956 54.132 C 188.956 54.598 188.579 54.979 188.112 54.979 L 40.506 54.979 C 40.04 54.979 39.659 54.598 39.659 54.132 L 39.659 48.228 C 39.659 47.76 40.04 47.379 40.506 47.379 L 40.506 47.379 Z  M 187.264 49.074 L 41.353 49.074 L 41.353 53.283 L 187.265 53.283 L 187.265 49.074 L 187.264 49.074 L 187.264 49.074 Z " fill="rgb(178,53,50)"/><path d=" M 40.506 53.28 L 188.112 53.28 C 188.579 53.28 188.956 53.663 188.956 54.127 L 188.956 60.033 C 188.956 60.502 188.579 60.882 188.112 60.882 L 40.506 60.882 C 40.04 60.882 39.659 60.502 39.659 60.033 L 39.659 54.127 C 39.659 53.663 40.04 53.28 40.506 53.28 L 40.506 53.28 Z  M 187.264 54.978 L 41.353 54.978 L 41.353 59.185 L 187.265 59.185 L 187.265 54.978 L 187.264 54.978 L 187.264 54.978 Z " fill="rgb(178,53,50)"/><path d=" M 40.506 59.185 L 188.112 59.185 C 188.579 59.185 188.956 59.566 188.956 60.033 L 188.956 65.936 C 188.956 66.405 188.579 66.784 188.112 66.784 L 40.506 66.784 C 40.04 66.784 39.659 66.405 39.659 65.936 L 39.659 60.033 C 39.659 59.566 40.04 59.185 40.506 59.185 L 40.506 59.185 Z  M 187.264 60.88 L 41.353 60.88 L 41.353 65.09 L 187.265 65.09 L 187.265 60.88 L 187.264 60.88 L 187.264 60.88 Z " fill="rgb(178,53,50)"/><path d=" M 40.506 65.09 L 188.112 65.09 C 188.579 65.09 188.956 65.468 188.956 65.937 L 188.956 71.843 C 188.956 72.31 188.579 72.687 188.112 72.687 L 40.506 72.687 C 40.04 72.687 39.659 72.31 39.659 71.843 L 39.659 65.937 C 39.659 65.468 40.04 65.09 40.506 65.09 L 40.506 65.09 Z  M 187.264 66.782 L 41.353 66.782 L 41.353 70.991 L 187.265 70.991 L 187.265 66.782 L 187.264 66.782 L 187.264 66.782 Z " fill="rgb(178,53,50)"/><path d=" M 40.506 70.991 L 188.112 70.991 C 188.579 70.991 188.956 71.372 188.956 71.838 L 188.956 77.744 C 188.956 78.21 188.579 78.591 188.112 78.591 L 40.506 78.591 C 40.04 78.591 39.659 78.21 39.659 77.744 L 39.659 71.838 C 39.659 71.372 40.04 70.991 40.506 70.991 L 40.506 70.991 Z  M 187.264 72.686 L 41.353 72.686 L 41.353 76.895 L 187.265 76.895 L 187.265 72.686 L 187.264 72.686 L 187.264 72.686 Z " fill="rgb(178,53,50)"/><path d=" M 40.506 76.895 L 188.112 76.895 C 188.579 76.895 188.956 77.274 188.956 77.741 L 188.956 83.645 C 188.956 84.116 188.579 84.492 188.112 84.492 L 40.506 84.492 C 40.04 84.492 39.659 84.116 39.659 83.645 L 39.659 77.741 C 39.659 77.274 40.04 76.895 40.506 76.895 L 40.506 76.895 Z  M 187.264 78.588 L 41.353 78.588 L 41.353 82.801 L 187.265 82.801 L 187.265 78.588 L 187.264 78.588 L 187.264 78.588 Z " fill="rgb(178,53,50)"/><path d=" M 40.506 82.798 L 188.112 82.798 C 188.579 82.798 188.956 83.179 188.956 83.646 L 188.956 89.551 C 188.956 90.018 188.579 90.398 188.112 90.398 L 40.506 90.398 C 40.04 90.398 39.659 90.018 39.659 89.551 L 39.659 83.646 C 39.659 83.179 40.04 82.798 40.506 82.798 L 40.506 82.798 Z  M 187.264 84.492 L 41.353 84.492 L 41.353 88.704 L 187.265 88.704 L 187.265 84.492 L 187.264 84.492 L 187.264 84.492 Z " fill="rgb(178,53,50)"/><path d=" M 40.506 88.702 L 188.112 88.702 C 188.579 88.702 188.956 89.082 188.956 89.551 L 188.956 95.452 C 188.956 95.922 188.579 96.301 188.112 96.301 L 40.506 96.301 C 40.04 96.301 39.659 95.922 39.659 95.452 L 39.659 89.551 C 39.659 89.082 40.04 88.702 40.506 88.702 L 40.506 88.702 Z  M 187.264 90.397 L 41.353 90.397 L 41.353 94.603 L 187.265 94.603 L 187.265 90.397 L 187.264 90.397 L 187.264 90.397 Z " fill="rgb(178,53,50)"/><path d=" M 40.506 94.603 L 188.112 94.603 C 188.579 94.603 188.956 94.982 188.956 95.452 L 188.956 101.356 C 188.956 101.825 188.579 102.203 188.112 102.203 L 40.506 102.203 C 40.04 102.203 39.659 101.825 39.659 101.356 L 39.659 95.452 C 39.659 94.982 40.04 94.603 40.506 94.603 L 40.506 94.603 Z  M 187.264 96.299 L 41.353 96.299 L 41.353 100.51 L 187.265 100.51 L 187.265 96.299 L 187.264 96.299 L 187.264 96.299 Z " fill="rgb(178,53,50)"/><path d=" M 188.112 18.709 L 196.124 18.709 L 196.124 334.582 L 188.112 334.582 L 188.112 18.709 L 188.112 18.709 Z " fill-rule="evenodd" fill="rgb(149,147,128)"/><path d=" M 32.494 18.709 L 40.509 18.709 L 40.509 334.582 L 32.494 334.582 L 32.494 18.709 Z " fill-rule="evenodd" fill="rgb(149,147,128)"/><path d=" M 32.494 108.115 L 196.124 108.115 L 196.124 158.301 L 32.494 158.301 L 32.494 108.115 Z " fill-rule="evenodd" fill="rgb(225,224,204)"/><path d=" M 32.494 158.301 L 196.124 158.301 L 196.124 181.917 L 32.494 181.917 L 32.494 158.301 Z " fill-rule="evenodd" fill="rgb(214,212,187)"/><path d=" M 89.032 181.917 L 139.589 181.917 L 139.589 312.232 L 89.032 312.232 L 89.032 181.917 L 89.032 181.917 Z " fill-rule="evenodd" fill="rgb(225,224,204)"/><path d=" M 32.494 312.232 L 196.124 312.232 L 196.124 334.582 L 32.494 334.582 L 32.494 312.232 Z " fill-rule="evenodd" fill="rgb(149,147,128)"/><path d=" M 40.506 181.917 L 81.018 181.917 L 81.018 312.232 L 40.506 312.232 L 40.506 181.917 L 40.506 181.917 Z " fill-rule="evenodd" fill="rgb(225,224,204)"/><path d=" M 40.665 230.63 L 59.797 230.63 C 59.882 230.63 59.954 230.701 59.954 230.786 L 59.954 236.797 C 59.954 236.88 59.881 236.955 59.797 236.955 L 40.665 236.955 C 40.582 236.955 40.506 236.884 40.506 236.797 L 40.506 230.786 C 40.506 230.701 40.577 230.63 40.665 230.63 Z " fill-rule="evenodd" fill="rgb(128,128,109)"/><path d=" M 52.87 203.005 L 72.002 203.005 C 72.089 203.005 72.161 203.08 72.161 203.163 L 72.161 209.175 C 72.161 209.257 72.086 209.332 72.002 209.332 L 52.87 209.332 C 52.787 209.332 52.711 209.261 52.711 209.175 L 52.711 203.163 C 52.711 203.076 52.784 203.005 52.87 203.005 Z " fill-rule="evenodd" fill="rgb(128,128,109)"/><path d=" M 61.728 269.638 L 80.859 269.638 C 80.946 269.638 81.018 269.713 81.018 269.796 L 81.018 275.806 C 81.018 275.889 80.943 275.967 80.859 275.967 L 61.728 275.967 C 61.643 275.967 61.57 275.894 61.57 275.806 L 61.57 269.796 C 61.57 269.708 61.64 269.638 61.728 269.638 Z " fill-rule="evenodd" fill="rgb(128,128,109)"/><path d=" M 40.506 280.08 L 51.865 280.08 C 51.949 280.08 52.021 280.155 52.021 280.238 L 52.021 286.249 C 52.021 286.334 51.943 286.405 51.865 286.405 L 40.506 286.405 L 40.506 280.08 L 40.506 280.08 Z " fill-rule="evenodd" fill="rgb(128,128,109)"/><path d=" M 81.018 51.026 L 89.029 51.026 L 89.029 312.232 L 81.018 312.232 L 81.018 51.026 L 81.018 51.026 Z " fill-rule="evenodd" fill="rgb(149,147,128)"/><path d=" M 94.593 312.232 L 110.733 312.232 L 110.733 282.711 C 110.733 280.16 108.919 278.07 106.696 278.07 L 98.627 278.07 C 96.408 278.07 94.592 280.16 94.592 282.711 L 94.592 312.232 L 94.593 312.232 Z " fill-rule="evenodd" fill="rgb(73,60,41)"/><path d=" M 117.885 312.232 L 134.026 312.232 L 134.026 282.711 C 134.026 280.16 132.212 278.07 129.992 278.07 L 121.923 278.07 C 119.701 278.07 117.886 280.16 117.886 282.711 L 117.886 312.232 L 117.885 312.232 Z " fill-rule="evenodd" fill="rgb(73,60,41)"/><path d=" M 89.032 266.264 L 139.589 266.264 L 139.589 272.589 L 89.032 272.589 L 89.032 266.264 Z " fill-rule="evenodd" fill="rgb(211,210,190)"/><path d=" M 89.029 194.572 L 139.589 194.572 L 139.589 200.897 L 117.471 200.897 L 117.471 236.112 L 139.589 236.112 L 139.589 242.437 L 89.029 242.437 L 89.029 236.112 L 111.147 236.112 L 111.147 200.897 L 89.029 200.897 L 89.029 194.572 Z " fill-rule="evenodd" fill="rgb(246,199,131)"/><path d=" M 89.029 200.897 L 111.147 200.897 L 111.147 236.111 L 89.029 236.111 L 89.029 200.897 L 89.029 200.897 Z " fill-rule="evenodd" fill="rgb(73,60,41)"/><path d=" M 117.471 200.897 L 139.588 200.897 L 139.588 236.111 L 117.471 236.111 L 117.471 200.897 L 117.471 200.897 Z " fill-rule="evenodd" fill="rgb(73,60,41)"/><path d=" M 127.471 200.897 L 130.326 200.897 L 130.326 217.024 L 139.589 217.024 L 139.589 220.194 L 130.326 220.194 L 130.326 236.112 L 127.471 236.112 L 127.471 220.194 L 117.471 220.194 L 117.471 217.024 L 127.471 217.024 L 127.471 200.897 Z " fill-rule="evenodd" fill="rgb(246,199,131)"/><path d=" M 99.029 200.897 L 101.884 200.897 L 101.884 217.024 L 111.147 217.024 L 111.147 220.194 L 101.884 220.194 L 101.884 236.112 L 99.029 236.112 L 99.029 220.194 L 89.029 220.194 L 89.029 217.024 L 99.029 217.024 L 99.029 200.897 Z " fill-rule="evenodd" fill="rgb(246,199,131)"/><path d=" M 147.6 181.917 L 188.112 181.917 L 188.112 312.232 L 147.6 312.232 L 147.6 181.917 L 147.6 181.917 Z " fill-rule="evenodd" fill="rgb(225,224,204)"/><path d=" M 139.589 51.026 L 147.6 51.026 L 147.6 312.232 L 139.589 312.232 L 139.589 51.026 L 139.589 51.026 Z " fill-rule="evenodd" fill="rgb(149,147,128)"/><path d=" M 147.599 290.725 L 166.342 290.725 C 166.488 290.725 166.603 290.799 166.603 290.882 L 166.603 296.892 C 166.603 296.978 166.48 297.048 166.342 297.048 L 147.599 297.048 L 147.599 290.725 Z " fill-rule="evenodd" fill="rgb(128,128,109)"/><path d=" M 170.564 254.034 L 187.872 254.034 C 188.003 254.034 188.112 254.108 188.112 254.192 L 188.112 260.201 C 188.112 260.287 188 260.359 187.872 260.359 L 170.564 260.359 L 170.564 254.034 Z " fill-rule="evenodd" fill="rgb(128,128,109)"/><path d=" M 147.599 222.406 L 163.848 222.406 C 163.972 222.406 164.072 222.479 164.072 222.563 L 164.072 228.573 C 164.072 228.656 163.967 228.728 163.848 228.728 L 147.599 228.728 L 147.599 222.406 Z " fill-rule="evenodd" fill="rgb(128,128,109)"/><path d=" M 114.308 9.431 L 130.956 30.228 L 147.599 51.026 L 114.308 51.026 L 81.018 51.026 L 97.662 30.228 L 114.308 9.431 L 114.308 9.431 Z " fill-rule="evenodd" fill="rgb(232,182,109)"/><path d=" M 114.31 48.236 C 121.098 48.236 126.636 42.697 126.636 35.908 C 126.636 29.119 121.098 23.583 114.31 23.583 C 107.521 23.583 101.983 29.119 101.983 35.908 C 101.983 42.697 107.521 48.236 114.31 48.236 Z " fill-rule="evenodd" fill="rgb(73,60,41)"/><path d=" M 89.032 67.841 L 139.589 67.841 L 139.589 72.27 L 89.032 72.27 L 89.032 67.841 Z " fill-rule="evenodd" fill="rgb(219,171,102)"/><path d=" M 32.494 101.369 L 81.018 101.369 L 81.018 108.117 L 32.494 108.117 L 32.494 101.369 L 32.494 101.369 Z  M 89.029 101.369 L 139.589 101.369 L 139.589 108.117 L 89.029 108.117 L 89.029 101.369 L 89.029 101.369 L 89.029 101.369 Z  M 147.599 101.369 L 196.123 101.369 L 196.123 108.117 L 147.599 108.117 L 147.599 101.369 Z " fill-rule="evenodd" fill="rgb(214,212,187)"/><path d=" M 67.61 129.836 L 81.324 129.836 C 81.387 129.836 81.437 129.909 81.437 129.994 L 81.437 136.004 C 81.437 136.088 81.385 136.161 81.324 136.161 L 67.61 136.161 C 67.549 136.161 67.496 136.09 67.496 136.004 L 67.496 129.994 C 67.495 129.906 67.548 129.836 67.61 129.836 Z " fill-rule="evenodd" fill="rgb(128,128,109)"/><path d=" M 32.687 141.643 L 56.336 141.643 C 56.444 141.643 56.531 141.716 56.531 141.802 L 56.531 147.814 C 56.531 147.896 56.439 147.971 56.336 147.971 L 32.687 147.971 C 32.583 147.971 32.494 147.897 32.494 147.814 L 32.494 141.802 C 32.494 141.716 32.582 141.643 32.687 141.643 Z " fill-rule="evenodd" fill="rgb(128,128,109)"/><path d=" M 174.348 119.976 L 195.945 119.976 C 196.044 119.976 196.124 120.051 196.124 120.137 L 196.124 126.147 C 196.124 126.233 196.041 126.303 195.945 126.303 L 174.348 126.303 C 174.252 126.303 174.168 126.233 174.168 126.147 L 174.168 120.137 C 174.169 120.05 174.251 119.976 174.348 119.976 Z " fill-rule="evenodd" fill="rgb(128,128,109)"/><path d=" M 89.032 72.269 L 139.589 72.269 L 139.589 108.115 L 89.032 108.115 L 89.032 72.269 Z " fill-rule="evenodd" fill="rgb(214,212,187)"/><path d=" M 147.309 131.787 L 163.073 131.787 C 163.144 131.787 163.204 131.86 163.204 131.945 L 163.204 137.955 C 163.204 138.039 163.144 138.11 163.073 138.11 L 147.309 138.11 C 147.239 138.11 147.179 138.041 147.179 137.955 L 147.179 131.945 C 147.179 131.856 147.236 131.787 147.309 131.787 Z " fill-rule="evenodd" fill="rgb(128,128,109)"/><g><g><path d=" M 93.013 74.377 L 114.725 74.377 L 114.725 104.856 L 93.013 104.856 L 93.013 74.377 Z " fill-rule="evenodd" fill="rgb(81,100,82)"/><path d=" M 93.013 74.38 L 94.551 74.38 L 103.101 74.38 L 104.636 74.38 L 113.183 74.38 L 114.721 74.38 L 114.721 75.92 L 114.721 83.431 L 114.721 84.969 L 114.721 92.596 L 114.721 94.137 L 114.721 103.321 L 114.721 104.86 L 113.183 104.86 L 104.636 104.86 L 103.101 104.86 L 94.551 104.86 L 93.013 104.86 L 93.013 103.321 L 93.013 94.137 L 93.013 92.596 L 93.013 84.969 L 93.013 83.431 L 93.013 75.92 L 93.013 74.38 L 93.013 74.38 Z  M 94.551 83.431 L 103.101 83.431 L 103.101 75.92 L 94.551 75.92 L 94.551 83.431 L 94.551 83.431 Z  M 104.636 83.431 L 113.183 83.431 L 113.183 75.92 L 104.636 75.92 L 104.636 83.431 L 104.636 83.431 Z  M 113.183 84.969 L 104.636 84.969 L 104.636 92.596 L 113.183 92.596 L 113.183 84.969 L 113.183 84.969 Z  M 103.1 84.969 L 94.55 84.969 L 94.55 92.596 L 103.1 92.596 L 103.1 84.969 L 103.1 84.969 Z  M 113.183 94.137 L 104.636 94.137 L 104.636 103.321 L 113.183 103.321 L 113.183 94.137 L 113.183 94.137 Z  M 103.1 94.137 L 94.55 94.137 L 94.55 103.321 L 103.1 103.321 L 103.1 94.137 Z " fill-rule="evenodd" fill="rgb(246,199,131)"/></g><path d=" M 114.72 76.556 L 116.745 76.556 L 116.745 107.035 L 95.035 107.035 L 95.035 104.859 L 103.1 104.859 L 104.636 104.859 L 113.183 104.859 L 114.72 104.859 L 114.72 103.32 L 114.72 94.137 L 114.72 92.596 L 114.72 84.969 L 114.72 83.431 L 114.72 76.556 L 114.72 76.556 Z " fill-rule="evenodd" fill="rgb(199,195,163)"/></g><g><path d=" M 113.937 74.377 L 135.65 74.377 L 135.65 104.856 L 113.937 104.856 L 113.937 74.377 Z " fill-rule="evenodd" fill="rgb(81,100,82)"/><path d=" M 113.937 74.38 L 115.478 74.38 L 124.025 74.38 L 125.565 74.38 L 134.11 74.38 L 135.65 74.38 L 135.65 75.92 L 135.65 83.431 L 135.65 84.969 L 135.65 92.596 L 135.65 94.137 L 135.65 103.321 L 135.65 104.86 L 134.11 104.86 L 125.565 104.86 L 124.025 104.86 L 115.478 104.86 L 113.937 104.86 L 113.937 103.321 L 113.937 94.137 L 113.937 92.596 L 113.937 84.969 L 113.937 83.431 L 113.937 75.92 L 113.937 74.38 L 113.937 74.38 Z  M 115.478 83.431 L 124.025 83.431 L 124.025 75.92 L 115.478 75.92 L 115.478 83.431 L 115.478 83.431 Z  M 125.565 83.431 L 134.11 83.431 L 134.11 75.92 L 125.565 75.92 L 125.565 83.431 L 125.565 83.431 Z  M 134.11 84.969 L 125.565 84.969 L 125.565 92.596 L 134.11 92.596 L 134.11 84.969 L 134.11 84.969 Z  M 124.025 84.969 L 115.478 84.969 L 115.478 92.596 L 124.025 92.596 L 124.025 84.969 L 124.025 84.969 Z  M 134.11 94.137 L 125.565 94.137 L 125.565 103.321 L 134.11 103.321 L 134.11 94.137 L 134.11 94.137 Z  M 124.025 94.137 L 115.478 94.137 L 115.478 103.321 L 124.025 103.321 L 124.025 94.137 Z " fill-rule="evenodd" fill="rgb(246,199,131)"/></g><path d=" M 135.65 76.556 L 137.672 76.556 L 137.672 107.035 L 115.962 107.035 L 115.962 104.859 L 124.025 104.859 L 125.565 104.859 L 134.11 104.859 L 135.65 104.859 L 135.65 103.32 L 135.65 94.137 L 135.65 92.596 L 135.65 84.969 L 135.65 83.431 L 135.65 76.556 L 135.65 76.556 Z " fill-rule="evenodd" fill="rgb(199,195,163)"/><path d=" M 11.619 361.153 L 50.421 361.153 L 50.421 334.585 L 18.262 334.585 C 14.609 334.585 11.619 337.571 11.619 341.226 L 11.619 361.153 Z " fill-rule="evenodd" fill="rgb(214,89,68)"/><path d=" M 20.767 334.585 C 20.767 334.117 21.147 333.737 21.614 333.737 C 22.086 333.737 22.462 334.117 22.462 334.585 L 22.462 361.153 C 22.462 361.621 22.087 362 21.614 362 C 21.148 362 20.767 361.621 20.767 361.153 L 20.767 334.585 Z " fill="rgb(178,53,50)"/><path d=" M 30.103 334.585 C 30.103 334.117 30.486 333.737 30.953 333.737 C 31.419 333.737 31.8 334.117 31.8 334.585 L 31.8 361.153 C 31.8 361.621 31.419 362 30.953 362 C 30.486 362 30.103 361.621 30.103 361.153 L 30.103 334.585 Z " fill="rgb(178,53,50)"/><path d=" M 39.573 334.585 C 39.573 334.117 39.953 333.737 40.421 333.737 C 40.891 333.737 41.268 334.117 41.268 334.585 L 41.268 361.153 C 41.268 361.621 40.892 362 40.421 362 C 39.954 362 39.573 361.621 39.573 361.153 L 39.573 334.585 Z " fill="rgb(178,53,50)"/><path d=" M 50.418 347.868 L 178.2 347.868 L 178.2 361.152 L 50.418 361.152 L 50.418 347.868 Z " fill-rule="evenodd" fill="rgb(178,53,50)"/><path d=" M 50.418 334.585 L 178.2 334.585 L 178.2 347.868 L 50.418 347.868 L 50.418 334.585 Z " fill-rule="evenodd" fill="rgb(225,224,204)"/><path d=" M 53.421 334.585 C 53.421 334.117 53.8 333.737 54.268 333.737 C 54.736 333.737 55.116 334.117 55.116 334.585 L 55.116 347.871 C 55.116 348.338 54.736 348.717 54.268 348.717 C 53.801 348.717 53.421 348.338 53.421 347.871 L 53.421 334.585 Z " fill="rgb(149,147,128)"/><path d=" M 58.224 334.585 C 58.224 334.117 58.604 333.737 59.071 333.737 C 59.538 333.737 59.92 334.117 59.92 334.585 L 59.92 347.871 C 59.92 348.338 59.538 348.717 59.071 348.717 C 58.605 348.717 58.224 348.338 58.224 347.871 L 58.224 334.585 Z " fill="rgb(149,147,128)"/><path d=" M 63.028 334.585 C 63.028 334.117 63.407 333.737 63.875 333.737 C 64.344 333.737 64.722 334.117 64.722 334.585 L 64.722 347.871 C 64.722 348.338 64.344 348.717 63.875 348.717 C 63.408 348.717 63.028 348.338 63.028 347.871 L 63.028 334.585 Z " fill="rgb(149,147,128)"/><path d=" M 67.831 334.585 C 67.831 334.117 68.21 333.737 68.678 333.737 C 69.147 333.737 69.525 334.117 69.525 334.585 L 69.525 347.871 C 69.525 348.338 69.147 348.717 68.678 348.717 C 68.21 348.717 67.831 348.338 67.831 347.871 L 67.831 334.585 Z " fill="rgb(149,147,128)"/><path d=" M 72.634 334.585 C 72.634 334.117 73.014 333.737 73.479 333.737 C 73.95 333.737 74.328 334.117 74.328 334.585 L 74.328 347.871 C 74.328 348.338 73.95 348.717 73.479 348.717 C 73.014 348.717 72.634 348.338 72.634 347.871 L 72.634 334.585 Z " fill="rgb(149,147,128)"/><path d=" M 77.437 334.585 C 77.437 334.117 77.817 333.737 78.284 333.737 C 78.754 333.737 79.132 334.117 79.132 334.585 L 79.132 347.871 C 79.132 348.338 78.754 348.717 78.284 348.717 C 77.818 348.717 77.437 348.338 77.437 347.871 L 77.437 334.585 Z " fill="rgb(149,147,128)"/><path d=" M 82.24 334.585 C 82.24 334.117 82.62 333.737 83.087 333.737 C 83.557 333.737 83.935 334.117 83.935 334.585 L 83.935 347.871 C 83.935 348.338 83.557 348.717 83.087 348.717 C 82.621 348.717 82.24 348.338 82.24 347.871 L 82.24 334.585 Z " fill="rgb(149,147,128)"/><path d=" M 87.044 334.585 C 87.044 334.117 87.424 333.737 87.891 333.737 C 88.361 333.737 88.739 334.117 88.739 334.585 L 88.739 347.871 C 88.739 348.338 88.361 348.717 87.891 348.717 C 87.425 348.717 87.044 348.338 87.044 347.871 L 87.044 334.585 Z " fill="rgb(149,147,128)"/><path d=" M 91.847 334.585 C 91.847 334.117 92.225 333.737 92.694 333.737 C 93.164 333.737 93.542 334.117 93.542 334.585 L 93.542 347.871 C 93.542 348.338 93.164 348.717 92.694 348.717 C 92.225 348.717 91.847 348.338 91.847 347.871 L 91.847 334.585 Z " fill="rgb(149,147,128)"/><path d=" M 96.651 334.585 C 96.651 334.117 97.029 333.737 97.498 333.737 C 97.965 333.737 98.346 334.117 98.346 334.585 L 98.346 347.871 C 98.346 348.338 97.966 348.717 97.498 348.717 C 97.029 348.717 96.651 348.338 96.651 347.871 L 96.651 334.585 Z " fill="rgb(149,147,128)"/><path d=" M 101.454 334.585 C 101.454 334.117 101.833 333.737 102.301 333.737 C 102.768 333.737 103.149 334.117 103.149 334.585 L 103.149 347.871 C 103.149 348.338 102.769 348.717 102.301 348.717 C 101.833 348.717 101.454 348.338 101.454 347.871 L 101.454 334.585 Z " fill="rgb(149,147,128)"/><path d=" M 106.257 334.585 C 106.257 334.117 106.636 333.737 107.104 333.737 C 107.572 333.737 107.952 334.117 107.952 334.585 L 107.952 347.871 C 107.952 348.338 107.572 348.717 107.104 348.717 C 106.637 348.717 106.257 348.338 106.257 347.871 L 106.257 334.585 Z " fill="rgb(149,147,128)"/><path d=" M 111.059 334.585 C 111.059 334.117 111.439 333.737 111.907 333.737 C 112.374 333.737 112.754 334.117 112.754 334.585 L 112.754 347.871 C 112.754 348.338 112.375 348.717 111.907 348.717 C 111.439 348.717 111.059 348.338 111.059 347.871 L 111.059 334.585 Z " fill="rgb(149,147,128)"/><path d=" M 115.864 334.585 C 115.864 334.117 116.243 333.737 116.711 333.737 C 117.179 333.737 117.558 334.117 117.558 334.585 L 117.558 347.871 C 117.558 348.338 117.179 348.717 116.711 348.717 C 116.243 348.717 115.864 348.338 115.864 347.871 L 115.864 334.585 Z " fill="rgb(149,147,128)"/><path d=" M 120.668 334.585 C 120.668 334.117 121.047 333.737 121.515 333.737 C 121.982 333.737 122.362 334.117 122.362 334.585 L 122.362 347.871 C 122.362 348.338 121.982 348.717 121.515 348.717 C 121.047 348.717 120.668 348.338 120.668 347.871 L 120.668 334.585 Z " fill="rgb(149,147,128)"/><path d=" M 125.47 334.585 C 125.47 334.117 125.85 333.737 126.315 333.737 C 126.786 333.737 127.164 334.117 127.164 334.585 L 127.164 347.871 C 127.164 348.338 126.786 348.717 126.315 348.717 C 125.85 348.717 125.47 348.338 125.47 347.871 L 125.47 334.585 Z " fill="rgb(149,147,128)"/><path d=" M 130.273 334.585 C 130.273 334.117 130.653 333.737 131.12 333.737 C 131.59 333.737 131.968 334.117 131.968 334.585 L 131.968 347.871 C 131.968 348.338 131.59 348.717 131.12 348.717 C 130.653 348.717 130.273 348.338 130.273 347.871 L 130.273 334.585 Z " fill="rgb(149,147,128)"/><path d=" M 135.077 334.585 C 135.077 334.117 135.457 333.737 135.925 333.737 C 136.394 333.737 136.772 334.117 136.772 334.585 L 136.772 347.871 C 136.772 348.338 136.394 348.717 135.925 348.717 C 135.457 348.717 135.077 348.338 135.077 347.871 L 135.077 334.585 Z " fill="rgb(149,147,128)"/><path d=" M 139.88 334.585 C 139.88 334.117 140.261 333.737 140.728 333.737 C 141.197 333.737 141.573 334.117 141.573 334.585 L 141.573 347.871 C 141.573 348.338 141.197 348.717 140.728 348.717 C 140.261 348.717 139.88 348.338 139.88 347.871 L 139.88 334.585 Z " fill="rgb(149,147,128)"/><path d=" M 144.683 334.585 C 144.683 334.117 145.061 333.737 145.531 333.737 C 146 333.737 146.378 334.117 146.378 334.585 L 146.378 347.871 C 146.378 348.338 146 348.717 145.531 348.717 C 145.061 348.717 144.683 348.338 144.683 347.871 L 144.683 334.585 Z " fill="rgb(149,147,128)"/><path d=" M 149.487 334.585 C 149.487 334.117 149.865 333.737 150.335 333.737 C 150.801 333.737 151.179 334.117 151.179 334.585 L 151.179 347.871 C 151.179 348.338 150.801 348.717 150.335 348.717 C 149.865 348.717 149.487 348.338 149.487 347.871 L 149.487 334.585 Z " fill="rgb(149,147,128)"/><path d=" M 154.288 334.585 C 154.288 334.117 154.668 333.737 155.139 333.737 C 155.605 333.737 155.986 334.117 155.986 334.585 L 155.986 347.871 C 155.986 348.338 155.605 348.717 155.139 348.717 C 154.668 348.717 154.288 348.338 154.288 347.871 L 154.288 334.585 Z " fill="rgb(149,147,128)"/><path d=" M 159.094 334.585 C 159.094 334.117 159.472 333.737 159.943 333.737 C 160.409 333.737 160.789 334.117 160.789 334.585 L 160.789 347.871 C 160.789 348.338 160.409 348.717 159.943 348.717 C 159.472 348.717 159.094 348.338 159.094 347.871 L 159.094 334.585 Z " fill="rgb(149,147,128)"/><path d=" M 163.897 334.585 C 163.897 334.117 164.276 333.737 164.744 333.737 C 165.212 333.737 165.591 334.117 165.591 334.585 L 165.591 347.871 C 165.591 348.338 165.212 348.717 164.744 348.717 C 164.276 348.717 163.897 348.338 163.897 347.871 L 163.897 334.585 Z " fill="rgb(149,147,128)"/><path d=" M 168.7 334.585 C 168.7 334.117 169.077 333.737 169.547 333.737 C 170.015 333.737 170.394 334.117 170.394 334.585 L 170.394 347.871 C 170.394 348.338 170.015 348.717 169.547 348.717 C 169.077 348.717 168.7 348.338 168.7 347.871 L 168.7 334.585 Z " fill="rgb(149,147,128)"/><path d=" M 173.504 334.585 C 173.504 334.117 173.881 333.737 174.351 333.737 C 174.818 333.737 175.198 334.117 175.198 334.585 L 175.198 347.871 C 175.198 348.338 174.818 348.717 174.351 348.717 C 173.881 348.717 173.504 348.338 173.504 347.871 L 173.504 334.585 Z " fill="rgb(149,147,128)"/><path d=" M 23.152 334.585 L 32.494 334.585 L 32.494 308.017 L 29.795 308.017 C 26.142 308.017 23.152 311.005 23.152 314.658 L 23.152 334.585 Z " fill-rule="evenodd" fill="rgb(120,122,117)"/><path d=" M 205.464 334.585 L 196.124 334.585 L 196.124 308.017 L 198.823 308.017 C 202.477 308.017 205.464 311.005 205.464 314.658 L 205.464 334.585 L 205.464 334.585 Z " fill-rule="evenodd" fill="rgb(120,122,117)"/><path d=" M 217 361.153 L 178.2 361.153 L 178.2 334.585 L 210.358 334.585 C 214.01 334.585 217 337.571 217 341.226 L 217 361.153 L 217 361.153 Z " fill-rule="evenodd" fill="rgb(214,89,68)"/><path d=" M 207.85 334.585 C 207.85 334.117 207.47 333.737 207.002 333.737 C 206.536 333.737 206.155 334.117 206.155 334.585 L 206.155 361.153 C 206.155 361.621 206.536 362 207.002 362 C 207.47 362 207.85 361.621 207.85 361.153 L 207.85 334.585 Z " fill="rgb(178,53,50)"/><path d=" M 198.512 334.585 C 198.512 334.117 198.131 333.737 197.664 333.737 C 197.197 333.737 196.814 334.117 196.814 334.585 L 196.814 361.153 C 196.814 361.621 197.197 362 197.664 362 C 198.131 362 198.512 361.621 198.512 361.153 L 198.512 334.585 Z " fill="rgb(178,53,50)"/><path d=" M 189.044 334.585 C 189.044 334.117 188.666 333.737 188.198 333.737 C 187.729 333.737 187.351 334.117 187.351 334.585 L 187.351 361.153 C 187.351 361.621 187.729 362 188.198 362 C 188.666 362 189.044 361.621 189.044 361.153 L 189.044 334.585 Z " fill="rgb(178,53,50)"/><path d=" M 147.6 181.92 L 188.112 181.92 L 188.112 189.51 L 147.6 189.51 L 147.6 181.92 Z " fill-rule="evenodd" fill="rgb(211,210,190)"/><path d=" M 40.506 181.92 L 81.018 181.92 L 81.018 189.51 L 40.506 189.51 L 40.506 181.92 L 40.506 181.92 Z " fill-rule="evenodd" fill="rgb(211,210,190)"/><path d=" M 89.032 181.92 L 139.589 181.92 L 139.589 189.51 L 89.032 189.51 L 89.032 181.92 Z " fill-rule="evenodd" fill="rgb(211,210,190)"/></g></g></svg>