<?xml version="1.0" standalone="no"?><!-- Generator: Gravit.io --><svg xmlns="http://www.w3.org/2000/svg" xmlns:xlink="http://www.w3.org/1999/xlink" style="isolation:isolate" viewBox="0 0 1925 1290" width="1925" height="1290"><defs><clipPath id="_clipPath_cGemaTylBDDzWArcGkltUYgj86z2nplM"><rect width="1925" height="1290"/></clipPath></defs><g clip-path="url(#_clipPath_cGemaTylBDDzWArcGkltUYgj86z2nplM)"><g><rect x="380" y="0" width="140" height="120" transform="matrix(1,0,0,1,0,0)" fill="rgb(255,222,173)"/><rect x="100" y="120" width="550" height="900" transform="matrix(1,0,0,1,0,0)" fill="rgb(255,222,173)"/><rect x="125" y="120" width="500" height="900" transform="matrix(1,0,0,1,0,0)" fill="rgb(220,220,220)"/><rect x="365" y="-90" width="20" height="500" transform="matrix(0,-1,1,0,215,535)" fill="rgb(0,0,0)"/><rect x="365" y="-40" width="20" height="500" transform="matrix(0,-1,1,0,165,585)" fill="rgb(0,0,0)"/><rect x="365" y="110" width="20" height="500" transform="matrix(0,-1,1,0,15,735)" fill="rgb(0,0,0)"/><rect x="365" y="160" width="20" height="500" transform="matrix(0,-1,1,0,-35,785)" fill="rgb(0,0,0)"/><rect x="365" y="10" width="20" height="500" transform="matrix(0,-1,1,0,115,635)" fill="rgb(0,0,0)"/><rect x="365" y="60" width="20" height="500" transform="matrix(0,-1,1,0,65,685)" fill="rgb(0,0,0)"/><rect x="365" y="210" width="20" height="500" transform="matrix(0,-1,1,0,-85,835)" fill="rgb(0,0,0)"/><rect x="365" y="260" width="20" height="500" transform="matrix(0,-1,1,0,-135,885)" fill="rgb(0,0,0)"/><rect x="365" y="310" width="20" height="500" transform="matrix(0,-1,1,0,-185,935)" fill="rgb(0,0,0)"/><rect x="365" y="360" width="20" height="500" transform="matrix(0,-1,1,0,-235,985)" fill="rgb(0,0,0)"/><rect x="365" y="410" width="20" height="500" transform="matrix(0,-1,1,0,-285,1035)" fill="rgb(0,0,0)"/><rect x="365" y="460" width="20" height="500" transform="matrix(0,-1,1,0,-335,1085)" fill="rgb(0,0,0)"/><rect x="365" y="510" width="20" height="500" transform="matrix(0,-1,1,0,-385,1135)" fill="rgb(0,0,0)"/><rect x="365" y="560" width="20" height="500" transform="matrix(0,-1,1,0,-435,1185)" fill="rgb(0,0,0)"/><rect x="365" y="610" width="20" height="500" transform="matrix(0,-1,1,0,-485,1235)" fill="rgb(0,0,0)"/><rect x="365" y="660" width="20" height="500" transform="matrix(0,-1,1,0,-535,1285)" fill="rgb(0,0,0)"/><rect x="520" y="50" width="70" height="70" transform="matrix(1,0,0,1,0,0)" fill="rgb(105,105,105)"/><g><rect x="145" y="70" width="10" height="950" transform="matrix(1,0,0,1,0,0)" fill="rgb(210,180,140)"/><rect x="235" y="70" width="10" height="950" transform="matrix(1,0,0,1,0,0)" fill="rgb(210,180,140)"/><rect x="325" y="70" width="10" height="950" transform="matrix(1,0,0,1,0,0)" fill="rgb(210,180,140)"/><rect x="415" y="70" width="10" height="950" transform="matrix(1,0,0,1,0,0)" fill="rgb(210,180,140)"/><rect x="505" y="70" width="10" height="950" transform="matrix(1,0,0,1,0,0)" fill="rgb(210,180,140)"/><rect x="595" y="70" width="10" height="950" transform="matrix(1,0,0,1,0,0)" fill="rgb(210,180,140)"/></g><rect x="95" y="70" width="560" height="20" transform="matrix(1,0,0,1,0,0)" fill="rgb(255,218,185)"/><rect x="100" y="927.255" width="480" height="50" transform="matrix(1,0,0,1,0,0)" fill="rgb(205,133,63)"/><g><rect x="0" y="1020" width="75" height="270" transform="matrix(1,0,0,1,0,0)" fill="rgb(255,222,173)"/><path d=" M 0 1020 C 34.846 973.891 75 980.304 75 980.304 L 75 1020 L 0 1020 Z " fill="rgb(255,222,173)"/></g><rect x="50" y="1020" width="750" height="270" transform="matrix(1,0,0,1,0,0)" fill="rgb(220,220,220)"/><rect x="1060" y="940" width="10" height="100" transform="matrix(1,0,0,1,0,0)" fill="rgb(105,105,105)"/><rect x="1380" y="940" width="10" height="100" transform="matrix(1,0,0,1,0,0)" fill="rgb(105,105,105)"/><rect x="1025" y="1020" width="750" height="270" transform="matrix(1,0,0,1,0,0)" fill="rgb(255,228,196)"/><rect x="800" y="1050" width="225" height="240" transform="matrix(1,0,0,1,0,0)" fill="rgb(220,220,220)"/><rect x="800" y="980" width="75" height="310" transform="matrix(1,0,0,1,0,0)" fill="rgb(255,222,173)"/><rect x="50" y="1170" width="750" height="30" transform="matrix(1,0,0,1,0,0)" fill="rgb(176,224,230)"/><rect x="50" y="1240" width="750" height="50" transform="matrix(1,0,0,1,0,0)" fill="rgb(176,224,230)"/><rect x="875" y="1070" width="150" height="30" transform="matrix(1,0,0,1,0,0)" fill="rgb(0,0,0)"/><linearGradient id="_lgradient_0" x1="0.4087186666666671" y1="-1.1430775000000004" x2="0.40871866666666656" y2="1.8716366666666655" gradientTransform="matrix(150,0,0,120,875,1120)" gradientUnits="userSpaceOnUse"><stop offset="0%" stop-opacity="1" style="stop-color:rgb(0,0,0)"/><stop offset="100%" stop-opacity="0" style="stop-color:rgb(0,0,0)"/></linearGradient><rect x="875" y="1120" width="150" height="120" transform="matrix(1,0,0,1,0,0)" fill="url(#_lgradient_0)"/><rect x="1025" y="1060" width="400" height="40" transform="matrix(1,0,0,1,0,0)" fill="rgb(176,224,230)"/><rect x="1025" y="1120" width="400" height="40" transform="matrix(1,0,0,1,0,0)" fill="rgb(176,224,230)"/><rect x="1425" y="940" width="500" height="350" transform="matrix(1,0,0,1,0,0)" fill="rgb(255,228,196)"/><rect x="875" y="1250" width="1050" height="40" transform="matrix(1,0,0,1,0,0)" fill="rgb(105,105,105)"/><rect x="1025" y="1180" width="900" height="40" transform="matrix(1,0,0,1,0,0)" fill="rgb(176,224,230)"/><g><rect x="1070" y="1060" width="10" height="160" transform="matrix(1,0,0,1,0,0)" fill="rgb(210,180,140)"/><rect x="1220" y="1060" width="10" height="160" transform="matrix(1,0,0,1,0,0)" fill="rgb(210,180,140)"/><rect x="1370" y="1060" width="10" height="160" transform="matrix(1,0,0,1,0,0)" fill="rgb(210,180,140)"/></g><rect x="1025" y="940" width="400" height="50" transform="matrix(1,0,0,1,0,0)" fill="rgb(205,133,63)"/></g></g></svg>