<?xml version="1.0" standalone="no"?><!-- Generator: Gravit.io --><svg xmlns="http://www.w3.org/2000/svg" xmlns:xlink="http://www.w3.org/1999/xlink" style="isolation:isolate" viewBox="0 0 720.733 450" width="720.733" height="450"><defs><clipPath id="_clipPath_LeiVf9TN0BRm3V9coIL7dqYtylDWSbHH"><rect width="720.733" height="450"/></clipPath></defs><g clip-path="url(#_clipPath_LeiVf9TN0BRm3V9coIL7dqYtylDWSbHH)"><g><path d=" M 208.624 435.411 L 290.645 435.411 L 290.645 -0.005 L 208.624 -0.005 L 208.624 435.411 Z " fill-rule="evenodd" fill="rgb(107,130,193)"/><path d=" M 100.184 435.411 L 210.277 435.411 L 210.277 -0.005 L 100.184 -0.005 L 100.184 435.411 Z " fill-rule="evenodd" fill="rgb(135,154,210)"/><path d=" M 415.051 435.411 L 500.235 435.411 L 500.235 235.592 L 415.051 235.592 L 415.051 435.411 Z " fill-rule="evenodd" fill="rgb(28,26,25)"/><path d=" M 468.995 435.411 L 613.217 435.411 L 613.217 86.968 L 468.995 86.968 L 468.995 435.411 Z " fill-rule="evenodd" fill="rgb(149,166,217)"/><path d=" M 609.912 435.411 L 678.169 435.411 L 678.169 86.968 L 609.912 86.968 L 609.912 435.411 Z " fill-rule="evenodd" fill="rgb(119,140,201)"/><path d=" M 468.995 235.593 L 500.783 267.383 L 500.783 435.411 L 468.995 435.411 L 468.995 235.593" fill-rule="evenodd" fill="rgb(132,150,207)"/><path d=" M 496.663 130.593 L 620.657 130.593 L 620.657 107.473 L 496.663 107.473 L 496.663 130.593" fill-rule="evenodd" fill="rgb(208,219,242)"/><path d=" M 578.513 107.473 L 610.259 107.473 L 587.293 130.593 L 555.548 130.593 L 578.513 107.473 Z  M 556.136 107.473 L 533.169 130.593 L 543.057 130.593 L 566.024 107.473 L 556.136 107.473 Z  M 513.463 107.473 L 535.84 107.473 L 512.876 130.593 L 496.663 130.593 L 496.663 124.385 L 513.463 107.473 L 513.463 107.473 Z " fill-rule="evenodd" fill="rgb(221,230,246)"/><path d=" M 617.765 130.593 L 672.535 130.593 L 672.535 107.473 L 617.765 107.473 L 617.765 130.593 Z " fill-rule="evenodd" fill="rgb(186,199,234)"/><path d=" M 496.663 130.593 L 501.548 135.479 L 609.912 135.479 L 609.912 130.593 L 496.663 130.593" fill-rule="evenodd" fill="rgb(135,155,210)"/><path d=" M 609.912 135.479 L 669.371 135.479 L 669.371 130.593 L 609.912 130.593 L 609.912 135.479 Z " fill-rule="evenodd" fill="rgb(107,128,191)"/><path d=" M 496.663 152.565 C 537.995 152.565 579.325 152.565 620.657 152.565 C 620.657 160.272 620.657 167.979 620.657 175.687 C 579.325 175.687 537.995 175.687 496.663 175.687 C 496.663 167.979 496.663 160.272 496.663 152.565" fill-rule="evenodd" fill="rgb(208,219,242)"/><path d=" M 578.513 152.565 C 589.095 152.565 599.677 152.565 610.259 152.565 C 602.604 160.272 594.948 167.979 587.293 175.687 C 576.711 175.687 566.129 175.687 555.548 175.687 C 563.204 167.979 570.859 160.272 578.513 152.565 Z  M 556.136 152.565 C 548.481 160.272 540.828 167.979 533.169 175.687 C 536.467 175.687 539.763 175.687 543.057 175.687 C 550.713 167.979 558.369 160.272 566.024 152.565 C 562.727 152.565 559.432 152.565 556.136 152.565 Z  M 513.463 152.565 C 520.921 152.565 528.381 152.565 535.84 152.565 C 528.185 160.272 520.531 167.979 512.876 175.687 C 507.471 175.687 502.067 175.687 496.663 175.687 C 496.663 173.616 496.663 171.547 496.663 169.479 C 502.263 163.841 507.861 158.204 513.463 152.565 L 513.463 152.565 Z " fill-rule="evenodd" fill="rgb(221,230,246)"/><path d=" M 617.765 152.565 C 636.02 152.565 654.277 152.565 672.535 152.565 C 672.535 160.272 672.535 167.979 672.535 175.687 C 654.277 175.687 636.02 175.687 617.765 175.687 C 617.765 167.979 617.765 160.272 617.765 152.565 Z " fill-rule="evenodd" fill="rgb(186,199,234)"/><path d=" M 496.663 175.687 C 498.291 177.313 499.92 178.941 501.548 180.571 C 537.669 180.571 573.792 180.571 609.912 180.571 C 609.912 178.941 609.912 177.313 609.912 175.687 C 572.164 175.687 534.412 175.687 496.663 175.687" fill-rule="evenodd" fill="rgb(135,155,210)"/><path d=" M 609.912 180.571 C 629.732 180.571 649.553 180.571 669.371 180.571 C 669.371 178.941 669.371 177.313 669.371 175.687 C 649.553 175.687 629.732 175.687 609.912 175.687 C 609.912 177.313 609.912 178.941 609.912 180.571 Z " fill-rule="evenodd" fill="rgb(107,128,191)"/><path d=" M 496.663 197.659 C 537.995 197.659 579.325 197.659 620.657 197.659 C 620.657 205.365 620.657 213.072 620.657 220.776 C 579.325 220.776 537.995 220.776 496.663 220.776 C 496.663 213.072 496.663 205.365 496.663 197.659" fill-rule="evenodd" fill="rgb(208,219,242)"/><path d=" M 578.513 197.659 C 589.095 197.659 599.677 197.659 610.259 197.659 C 602.604 205.365 594.948 213.072 587.293 220.776 C 576.711 220.776 566.129 220.776 555.548 220.776 C 563.204 213.072 570.859 205.365 578.513 197.659 Z  M 556.136 197.659 C 548.481 205.365 540.828 213.072 533.169 220.776 C 536.467 220.776 539.763 220.776 543.057 220.776 C 550.713 213.072 558.369 205.365 566.024 197.659 C 562.727 197.659 559.432 197.659 556.136 197.659 Z  M 513.463 197.659 C 520.921 197.659 528.381 197.659 535.84 197.659 C 528.185 205.365 520.531 213.072 512.876 220.776 C 507.471 220.776 502.067 220.776 496.663 220.776 C 496.663 218.709 496.663 216.639 496.663 214.569 C 502.263 208.932 507.861 203.296 513.463 197.659 L 513.463 197.659 Z " fill-rule="evenodd" fill="rgb(221,230,246)"/><path d=" M 617.765 197.659 C 636.02 197.659 654.277 197.659 672.535 197.659 C 672.535 205.365 672.535 213.072 672.535 220.776 C 654.277 220.776 636.02 220.776 617.765 220.776 C 617.765 213.072 617.765 205.365 617.765 197.659 Z " fill-rule="evenodd" fill="rgb(186,199,234)"/><path d=" M 496.663 220.776 C 498.291 222.405 499.92 224.035 501.548 225.663 C 537.669 225.663 573.792 225.663 609.912 225.663 C 609.912 224.035 609.912 222.405 609.912 220.776 C 572.164 220.776 534.412 220.776 496.663 220.776" fill-rule="evenodd" fill="rgb(135,155,210)"/><path d=" M 609.912 225.663 C 629.732 225.663 649.552 225.663 669.371 225.663 C 669.371 224.035 669.371 222.405 669.371 220.776 C 649.552 220.776 629.732 220.776 609.912 220.776 C 609.912 222.405 609.912 224.035 609.912 225.663 Z " fill-rule="evenodd" fill="rgb(107,128,191)"/><path d=" M 496.663 242.751 C 537.995 242.751 579.325 242.751 620.657 242.751 C 620.657 250.459 620.657 258.163 620.657 265.869 C 579.325 265.869 537.995 265.869 496.663 265.869 C 496.663 258.163 496.663 250.459 496.663 242.751" fill-rule="evenodd" fill="rgb(208,219,242)"/><path d=" M 578.513 242.751 C 589.095 242.751 599.677 242.751 610.259 242.751 C 602.604 250.459 594.948 258.163 587.293 265.869 C 576.711 265.869 566.129 265.869 555.548 265.869 C 563.204 258.163 570.859 250.459 578.513 242.751 Z  M 556.136 242.751 C 548.481 250.459 540.828 258.163 533.169 265.869 C 536.467 265.869 539.763 265.869 543.057 265.869 C 550.713 258.163 558.369 250.459 566.024 242.751 C 562.727 242.751 559.432 242.751 556.136 242.751 Z  M 513.463 242.751 C 520.921 242.751 528.381 242.751 535.84 242.751 C 528.185 250.459 520.531 258.163 512.876 265.869 C 507.471 265.869 502.067 265.869 496.663 265.869 C 496.663 263.8 496.663 261.732 496.663 259.663 C 502.263 254.024 507.861 248.388 513.463 242.751 L 513.463 242.751" fill-rule="evenodd" fill="rgb(221,230,246)"/><path d=" M 617.765 242.751 C 636.02 242.751 654.277 242.751 672.535 242.751 C 672.535 250.459 672.535 258.163 672.535 265.869 C 654.277 265.869 636.02 265.869 617.765 265.869 C 617.765 258.163 617.765 250.459 617.765 242.751 Z " fill-rule="evenodd" fill="rgb(186,199,234)"/><path d=" M 496.663 265.869 C 498.291 267.499 499.92 269.127 501.548 270.755 C 537.669 270.755 573.792 270.755 609.912 270.755 C 609.912 269.127 609.912 267.499 609.912 265.869 C 572.164 265.869 534.412 265.869 496.663 265.869" fill-rule="evenodd" fill="rgb(135,155,210)"/><path d=" M 609.912 270.755 C 629.732 270.755 649.552 270.755 669.371 270.755 C 669.371 269.127 669.371 267.499 669.371 265.869 C 649.552 265.869 629.732 265.869 609.912 265.869 C 609.912 267.499 609.912 269.127 609.912 270.755 Z " fill-rule="evenodd" fill="rgb(107,128,191)"/><path d=" M 496.663 287.843 C 537.995 287.843 579.325 287.843 620.657 287.843 C 620.657 295.548 620.657 303.256 620.657 310.963 C 579.325 310.963 537.995 310.963 496.663 310.963 C 496.663 303.256 496.663 295.548 496.663 287.843" fill-rule="evenodd" fill="rgb(208,219,242)"/><path d=" M 578.513 287.843 C 589.095 287.843 599.677 287.843 610.259 287.843 C 602.604 295.548 594.948 303.256 587.293 310.963 C 576.711 310.963 566.129 310.963 555.548 310.963 C 563.204 303.256 570.859 295.548 578.513 287.843 Z  M 556.136 287.843 C 548.481 295.548 540.827 303.256 533.169 310.963 C 536.467 310.963 539.763 310.963 543.057 310.963 C 550.713 303.256 558.369 295.548 566.024 287.843 C 562.727 287.843 559.432 287.843 556.136 287.843 Z  M 513.463 287.843 C 520.921 287.843 528.381 287.843 535.84 287.843 C 528.185 295.548 520.531 303.256 512.876 310.963 C 507.471 310.963 502.067 310.963 496.663 310.963 C 496.663 308.895 496.663 306.823 496.663 304.755 C 502.263 299.117 507.861 293.48 513.463 287.843 L 513.463 287.843 Z " fill-rule="evenodd" fill="rgb(221,230,246)"/><path d=" M 617.765 287.843 C 636.02 287.843 654.277 287.843 672.535 287.843 C 672.535 295.548 672.535 303.256 672.535 310.963 C 654.277 310.963 636.02 310.963 617.765 310.963 C 617.765 303.256 617.765 295.548 617.765 287.843 Z " fill-rule="evenodd" fill="rgb(186,199,234)"/><path d=" M 496.663 310.963 C 498.291 312.589 499.92 314.219 501.548 315.847 C 537.669 315.847 573.792 315.847 609.912 315.847 C 609.912 314.219 609.912 312.591 609.912 310.963 C 572.164 310.963 534.412 310.963 496.663 310.963" fill-rule="evenodd" fill="rgb(135,155,210)"/><path d=" M 609.912 315.847 C 629.732 315.847 649.552 315.847 669.371 315.847 C 669.371 314.219 669.371 312.591 669.371 310.963 C 649.552 310.963 629.732 310.963 609.912 310.963 C 609.912 312.591 609.912 314.219 609.912 315.847 Z " fill-rule="evenodd" fill="rgb(107,128,191)"/><path d=" M 496.663 332.933 C 537.995 332.933 579.325 332.933 620.657 332.933 C 620.657 340.641 620.657 348.348 620.657 356.055 C 579.325 356.055 537.995 356.055 496.663 356.055 C 496.663 348.348 496.663 340.641 496.663 332.933" fill-rule="evenodd" fill="rgb(208,219,242)"/><path d=" M 578.513 332.933 C 589.095 332.933 599.677 332.933 610.259 332.933 C 602.604 340.641 594.948 348.348 587.293 356.055 C 576.711 356.055 566.129 356.055 555.548 356.055 C 563.204 348.348 570.859 340.641 578.513 332.933 Z  M 556.136 332.933 C 548.481 340.641 540.827 348.348 533.169 356.055 C 536.467 356.055 539.763 356.055 543.057 356.055 C 550.713 348.348 558.369 340.641 566.024 332.933 C 562.727 332.933 559.432 332.933 556.136 332.933 Z  M 513.463 332.933 C 520.921 332.933 528.381 332.933 535.84 332.933 C 528.185 340.641 520.531 348.348 512.876 356.055 C 507.471 356.055 502.067 356.055 496.663 356.055 C 496.663 353.984 496.663 351.916 496.663 349.848 C 502.263 344.209 507.861 338.573 513.463 332.933 L 513.463 332.933" fill-rule="evenodd" fill="rgb(221,230,246)"/><path d=" M 617.765 332.933 C 636.02 332.933 654.277 332.933 672.535 332.933 C 672.535 340.641 672.535 348.348 672.535 356.055 C 654.277 356.055 636.02 356.055 617.764 356.055 C 617.765 348.348 617.765 340.641 617.765 332.933" fill-rule="evenodd" fill="rgb(186,199,234)"/><path d=" M 496.663 356.055 C 498.291 357.684 499.92 359.309 501.548 360.94 C 537.669 360.94 573.792 360.94 609.912 360.94 C 609.912 359.309 609.912 357.684 609.912 356.055 C 572.164 356.055 534.412 356.055 496.663 356.055" fill-rule="evenodd" fill="rgb(135,155,210)"/><path d=" M 609.912 360.94 C 629.732 360.94 649.552 360.94 669.371 360.94 C 669.371 359.309 669.371 357.684 669.371 356.055 C 649.552 356.055 629.732 356.055 609.912 356.055 C 609.912 357.684 609.912 359.309 609.912 360.94 Z " fill-rule="evenodd" fill="rgb(107,128,191)"/><path d=" M 496.663 401.147 L 620.657 401.147 L 620.657 378.027 L 496.663 378.027 L 496.663 401.147" fill-rule="evenodd" fill="rgb(208,219,242)"/><path d=" M 578.513 378.027 L 610.259 378.027 L 587.293 401.147 L 555.548 401.147 L 578.513 378.027 Z  M 556.136 378.027 L 533.169 401.147 L 543.057 401.147 L 566.024 378.027 L 556.136 378.027 Z  M 513.463 378.027 L 535.84 378.027 L 512.876 401.147 L 496.663 401.147 L 496.663 394.94 L 513.463 378.027 L 513.463 378.027" fill-rule="evenodd" fill="rgb(221,230,246)"/><path d=" M 617.764 401.147 L 672.535 401.147 L 672.535 378.027 L 617.764 378.027 L 617.764 401.147 Z " fill-rule="evenodd" fill="rgb(186,199,234)"/><path d=" M 496.663 401.147 L 501.548 406.031 L 609.912 406.031 L 609.912 401.147 L 496.663 401.147" fill-rule="evenodd" fill="rgb(135,155,210)"/><path d=" M 609.912 406.031 L 669.371 406.031 L 669.371 401.147 L 609.912 401.147 L 609.912 406.031 Z " fill-rule="evenodd" fill="rgb(107,128,191)"/><path d=" M 140.237 14.171 C 149.412 14.171 158.585 14.171 167.76 14.171 C 167.76 24.629 167.76 35.088 167.76 45.547 C 158.585 45.547 149.412 45.547 140.237 45.547 C 140.237 35.088 140.237 24.629 140.237 14.171 Z " fill-rule="evenodd" fill="rgb(82,104,167)"/><path d=" M 172.715 14.171 L 200.239 14.171 L 200.239 45.547 L 172.715 45.547 L 172.715 14.171" fill-rule="evenodd" fill="rgb(208,219,242)"/><path d=" M 107.76 14.171 L 135.284 14.171 L 135.284 45.547 L 107.76 45.547 L 107.76 14.171" fill-rule="evenodd" fill="rgb(208,219,242)"/><path d=" M 268.305 45.547 L 285.835 45.547 L 285.835 14.171 L 268.305 14.171 L 268.305 45.547 Z " fill-rule="evenodd" fill="rgb(83,104,167)"/><path d=" M 265.149 14.171 C 259.307 14.171 253.463 14.171 247.619 14.171 C 247.619 24.629 247.619 35.088 247.619 45.547 C 253.463 45.547 259.307 45.547 265.149 45.547 C 265.149 35.088 265.149 24.629 265.149 14.171 Z " fill-rule="evenodd" fill="rgb(186,199,234)"/><path d=" M 226.935 45.547 L 244.464 45.547 L 244.464 14.171 L 226.935 14.171 L 226.935 45.547 Z " fill-rule="evenodd" fill="rgb(83,104,167)"/><path d=" M 140.237 65.128 C 149.412 65.128 158.585 65.128 167.76 65.128 C 167.76 75.587 167.76 86.047 167.76 96.504 C 158.585 96.504 149.412 96.504 140.237 96.504 C 140.237 86.047 140.237 75.587 140.237 65.128 Z " fill-rule="evenodd" fill="rgb(208,219,242)"/><path d=" M 172.715 65.128 C 181.889 65.128 191.063 65.128 200.239 65.128 C 200.239 75.587 200.239 86.047 200.239 96.504 C 191.063 96.504 181.889 96.504 172.715 96.504 C 172.715 86.047 172.715 75.587 172.715 65.128 Z " fill-rule="evenodd" fill="rgb(208,219,242)"/><path d=" M 107.76 65.128 C 116.934 65.128 126.108 65.128 135.284 65.128 C 135.284 75.587 135.284 86.047 135.284 96.504 C 126.108 96.504 116.934 96.504 107.76 96.504 C 107.76 86.047 107.76 75.587 107.76 65.128 Z " fill-rule="evenodd" fill="rgb(82,104,167)"/><path d=" M 285.835 65.128 C 279.993 65.128 274.148 65.128 268.305 65.128 C 268.305 75.587 268.305 86.047 268.305 96.504 C 274.148 96.504 279.993 96.504 285.835 96.504 C 285.835 86.047 285.835 75.587 285.835 65.128 Z " fill-rule="evenodd" fill="rgb(83,104,167)"/><path d=" M 265.149 65.128 C 259.307 65.128 253.463 65.128 247.619 65.128 C 247.619 75.587 247.619 86.047 247.619 96.504 C 253.463 96.504 259.307 96.504 265.149 96.504 C 265.149 86.047 265.149 75.587 265.149 65.128 Z " fill-rule="evenodd" fill="rgb(186,199,234)"/><path d=" M 244.464 65.128 C 238.62 65.128 232.777 65.128 226.935 65.128 C 226.935 75.587 226.935 86.047 226.935 96.504 C 232.777 96.504 238.62 96.504 244.464 96.504 C 244.464 86.047 244.464 75.587 244.464 65.128 Z " fill-rule="evenodd" fill="rgb(83,104,167)"/><path d=" M 140.237 116.084 C 149.412 116.084 158.585 116.084 167.76 116.084 C 167.76 126.544 167.76 137.003 167.76 147.461 C 158.585 147.461 149.412 147.461 140.237 147.461 C 140.237 137.003 140.237 126.544 140.237 116.084 Z " fill-rule="evenodd" fill="rgb(82,104,167)"/><path d=" M 172.715 116.084 C 181.889 116.084 191.063 116.084 200.239 116.084 C 200.239 126.544 200.237 137.003 200.237 147.461 C 191.063 147.461 181.888 147.461 172.715 147.461 C 172.715 137.003 172.715 126.544 172.715 116.084 Z " fill-rule="evenodd" fill="rgb(208,219,242)"/><path d=" M 107.76 116.084 C 116.934 116.084 126.108 116.084 135.284 116.084 C 135.284 126.544 135.284 137.003 135.284 147.461 C 126.108 147.461 116.934 147.461 107.76 147.461 C 107.76 137.003 107.76 126.544 107.76 116.084 Z " fill-rule="evenodd" fill="rgb(208,219,242)"/><path d=" M 285.835 116.084 C 279.993 116.084 274.148 116.084 268.305 116.084 C 268.305 126.544 268.305 137.003 268.305 147.461 C 274.148 147.461 279.993 147.461 285.835 147.461 C 285.835 137.003 285.835 126.544 285.835 116.084 Z " fill-rule="evenodd" fill="rgb(83,104,167)"/><path d=" M 265.149 116.084 C 259.307 116.084 253.463 116.084 247.619 116.084 C 247.619 126.544 247.619 137.003 247.619 147.461 C 253.463 147.461 259.307 147.461 265.149 147.461 C 265.149 137.003 265.149 126.544 265.149 116.084 Z " fill-rule="evenodd" fill="rgb(83,104,167)"/><path d=" M 244.464 116.084 C 238.62 116.084 232.777 116.084 226.935 116.084 C 226.935 126.544 226.935 137.003 226.935 147.461 C 232.777 147.461 238.62 147.461 244.464 147.461 C 244.464 137.003 244.464 126.544 244.464 116.084 Z " fill-rule="evenodd" fill="rgb(186,199,234)"/><path d=" M 140.237 167.043 C 149.412 167.043 158.585 167.043 167.76 167.043 C 167.76 177.501 167.76 187.96 167.76 198.417 C 158.585 198.417 149.412 198.417 140.237 198.417 C 140.237 187.96 140.237 177.501 140.237 167.043 Z " fill-rule="evenodd" fill="rgb(208,219,242)"/><path d=" M 172.715 167.043 C 181.888 167.043 191.063 167.043 200.237 167.043 C 200.237 177.501 200.237 187.96 200.237 198.417 C 191.063 198.417 181.888 198.417 172.715 198.417 C 172.715 187.96 172.715 177.501 172.715 167.043 Z " fill-rule="evenodd" fill="rgb(208,219,242)"/><path d=" M 107.76 167.043 C 116.934 167.043 126.108 167.043 135.284 167.043 C 135.284 177.501 135.284 187.96 135.284 198.417 C 126.108 198.417 116.934 198.417 107.76 198.417 C 107.76 187.96 107.76 177.501 107.76 167.043 Z " fill-rule="evenodd" fill="rgb(82,104,167)"/><path d=" M 285.835 167.043 C 279.993 167.043 274.148 167.043 268.305 167.043 C 268.305 177.501 268.305 187.96 268.305 198.417 C 274.148 198.417 279.993 198.417 285.835 198.417 C 285.835 187.96 285.835 177.501 285.835 167.043 Z " fill-rule="evenodd" fill="rgb(186,199,234)"/><path d=" M 265.149 167.043 C 259.307 167.043 253.463 167.043 247.619 167.043 C 247.619 177.501 247.619 187.96 247.619 198.417 C 253.463 198.417 259.307 198.417 265.149 198.417 C 265.149 187.96 265.149 177.501 265.149 167.043 Z " fill-rule="evenodd" fill="rgb(83,104,167)"/><path d=" M 244.464 167.043 C 238.62 167.043 232.777 167.043 226.935 167.043 C 226.935 177.501 226.935 187.96 226.935 198.417 C 232.777 198.417 238.62 198.417 244.464 198.417 C 244.464 187.96 244.464 177.501 244.464 167.043 Z " fill-rule="evenodd" fill="rgb(83,104,167)"/><path d=" M 140.237 217.999 C 149.412 217.999 158.585 217.999 167.76 217.999 C 167.76 228.459 167.76 238.917 167.76 249.375 C 158.585 249.375 149.412 249.375 140.237 249.375 C 140.237 238.917 140.237 228.459 140.237 217.999 Z " fill-rule="evenodd" fill="rgb(208,219,242)"/><path d=" M 172.715 217.999 C 181.888 217.999 191.063 217.999 200.237 217.999 C 200.237 228.459 200.237 238.917 200.237 249.375 C 191.063 249.375 181.888 249.375 172.715 249.375 C 172.715 238.917 172.715 228.459 172.715 217.999 Z " fill-rule="evenodd" fill="rgb(82,104,167)"/><path d=" M 107.76 217.999 C 116.934 217.999 126.108 217.999 135.283 217.999 C 135.283 228.459 135.283 238.917 135.283 249.375 C 126.108 249.375 116.934 249.375 107.76 249.375 C 107.76 238.917 107.76 228.459 107.76 217.999" fill-rule="evenodd" fill="rgb(208,219,242)"/><path d=" M 140.237 268.957 C 149.412 268.957 158.585 268.957 167.76 268.957 C 167.76 279.413 167.76 289.875 167.76 300.332 C 158.585 300.332 149.412 300.332 140.237 300.332 C 140.237 289.875 140.237 279.413 140.237 268.957 Z " fill-rule="evenodd" fill="rgb(82,104,167)"/><path d=" M 172.715 268.957 C 181.888 268.957 191.063 268.957 200.237 268.957 C 200.237 279.413 200.237 289.875 200.237 300.332 C 191.063 300.332 181.888 300.332 172.715 300.332 C 172.715 289.875 172.715 279.413 172.715 268.957 Z " fill-rule="evenodd" fill="rgb(82,104,167)"/><path d=" M 107.76 268.957 C 116.934 268.957 126.108 268.957 135.283 268.957 C 135.283 279.413 135.283 289.875 135.283 300.332 C 126.108 300.332 116.934 300.332 107.76 300.332 C 107.76 289.875 107.76 279.413 107.76 268.957" fill-rule="evenodd" fill="rgb(208,219,242)"/><path d=" M 140.237 319.913 C 149.412 319.913 158.585 319.913 167.76 319.913 C 167.76 330.372 167.76 340.832 167.76 351.289 C 158.585 351.289 149.412 351.289 140.237 351.289 C 140.237 340.832 140.237 330.372 140.237 319.913 Z " fill-rule="evenodd" fill="rgb(208,219,242)"/><path d=" M 172.715 319.913 C 181.888 319.913 191.063 319.913 200.237 319.913 C 200.237 330.372 200.237 340.832 200.237 351.289 C 191.063 351.289 181.888 351.289 172.715 351.289 C 172.715 340.832 172.715 330.372 172.715 319.913 Z " fill-rule="evenodd" fill="rgb(82,104,167)"/><path d=" M 107.76 319.913 C 116.934 319.913 126.108 319.913 135.283 319.913 C 135.283 330.372 135.283 340.832 135.283 351.289 C 126.108 351.289 116.934 351.289 107.76 351.289 C 107.76 340.832 107.76 330.372 107.76 319.913" fill-rule="evenodd" fill="rgb(208,219,242)"/><path d=" M 140.237 370.871 C 149.412 370.871 158.585 370.871 167.76 370.871 C 167.76 381.328 167.76 391.789 167.76 402.245 C 158.585 402.245 149.412 402.245 140.237 402.245 C 140.237 391.789 140.237 381.328 140.237 370.871 Z " fill-rule="evenodd" fill="rgb(208,219,242)"/><path d=" M 172.713 370.871 L 200.237 370.871 L 200.237 402.245 L 172.713 402.245 L 172.713 370.871 Z " fill-rule="evenodd" fill="rgb(208,219,242)"/><path d=" M 107.76 370.871 L 135.283 370.871 L 135.283 402.245 L 107.759 402.245 L 107.76 370.871" fill-rule="evenodd" fill="rgb(82,104,167)"/><path d=" M 184.956 435.411 L 421.52 435.411 L 421.52 235.593 L 184.956 235.593 L 184.956 435.411 Z " fill-rule="evenodd" fill="rgb(47,45,45)"/><path d=" M 285.835 217.999 C 279.993 217.999 274.148 217.999 268.305 217.999 C 268.305 223.864 268.305 229.729 268.305 235.593 C 274.148 235.593 279.993 235.593 285.835 235.593 C 285.835 229.729 285.835 223.864 285.835 217.999 Z " fill-rule="evenodd" fill="rgb(83,104,167)"/><path d=" M 265.149 217.999 C 259.307 217.999 253.463 217.999 247.619 217.999 C 247.619 223.864 247.619 229.729 247.619 235.593 C 253.463 235.593 259.307 235.593 265.149 235.593 C 265.149 229.729 265.149 223.864 265.149 217.999 Z " fill-rule="evenodd" fill="rgb(83,104,167)"/><path d=" M 244.464 217.999 C 238.62 217.999 232.777 217.999 226.935 217.999 C 226.935 223.864 226.935 229.729 226.935 235.593 C 232.777 235.593 238.62 235.593 244.464 235.593 C 244.464 229.729 244.464 223.864 244.464 217.999 Z " fill-rule="evenodd" fill="rgb(186,199,234)"/><path d=" M 231.08 434.035 L 361.264 434.035 L 361.264 349.681 L 231.08 349.681 L 231.08 434.035 Z " fill-rule="evenodd" fill="rgb(186,199,234)"/><path d=" M 342.328 349.681 L 258.531 434.035 L 290.277 434.035 L 361.264 362.573 L 361.264 349.681 L 342.328 349.681 Z  M 319.948 349.681 L 236.155 434.035 L 246.041 434.035 L 329.835 349.681 L 319.948 349.681 Z  M 277.276 349.681 L 299.653 349.681 L 231.08 418.711 L 231.08 396.184 L 277.276 349.681 L 277.276 349.681 Z " fill-rule="evenodd" fill="rgb(208,219,242)"/><path d=" M 294.383 431.973 L 297.96 431.973 L 297.96 352.156 L 294.383 352.156 L 294.383 431.973 Z " fill-rule="evenodd" fill="rgb(255,255,255)"/><path d=" M 226.333 434.035 L 231.56 434.035 L 231.56 349.681 L 226.333 349.681 L 226.333 434.035 Z " fill-rule="evenodd" fill="rgb(95,96,98)"/><path d=" M 201.215 342.523 L 390.104 342.523 L 390.104 331.515 L 201.215 331.515 L 201.215 342.523 Z " fill-rule="evenodd" fill="rgb(178,177,176)"/><path d=" M 171.7 342.523 L 360.588 342.523 L 360.588 331.515 L 171.7 331.515 L 171.7 342.523 Z " fill-rule="evenodd" fill="rgb(232,232,231)"/><path d=" M 204.227 342.523 L 213.624 342.523 L 213.624 434.035 L 204.227 434.035 L 204.227 342.523 Z  M 365.981 342.523 L 375.379 342.523 L 375.379 434.035 L 365.981 434.035 L 365.981 342.523 L 365.981 342.523 Z " fill-rule="evenodd" fill="rgb(82,104,167)"/><path d=" M 204.227 351.335 L 213.623 351.335 L 213.623 342.523 L 204.227 342.523 L 204.227 351.335 Z " fill-rule="evenodd" fill="rgb(70,90,150)"/><path d=" M 365.981 351.335 L 375.379 351.335 L 375.379 342.523 L 365.981 342.523 L 365.981 351.335 Z " fill-rule="evenodd" fill="rgb(70,90,150)"/></g></g></svg>