<?xml version="1.0" standalone="no"?><!-- Generator: Gravit.io --><svg xmlns="http://www.w3.org/2000/svg" xmlns:xlink="http://www.w3.org/1999/xlink" style="isolation:isolate" viewBox="0 0 130 210" width="130" height="210"><defs><clipPath id="_clipPath_m7V6RYpeppwoaRbsMfhsNNbXkMBT6ToH"><rect width="130" height="210"/></clipPath></defs><g clip-path="url(#_clipPath_m7V6RYpeppwoaRbsMfhsNNbXkMBT6ToH)"><clipPath id="_clipPath_IsDCsrB0m80UUH2CZvUgzMPsgyHpdIci"><rect x="0" y="-44" width="130" height="250" transform="matrix(1,0,0,1,0,0)" fill="rgb(255,255,255)"/></clipPath><g clip-path="url(#_clipPath_IsDCsrB0m80UUH2CZvUgzMPsgyHpdIci)"><g><clipPath id="_clipPath_deikBZAXjyKv9FUE1pVmPdgYVmmzLbJY"><rect x="0" y="-44" width="130" height="250" transform="matrix(1,0,0,1,0,0)" fill="rgb(255,255,255)"/></clipPath><g clip-path="url(#_clipPath_deikBZAXjyKv9FUE1pVmPdgYVmmzLbJY)"><g><g><g><path d=" M 110.475 41 C 75.408 41.175 45.551 41.185 20.873 41 L 20.873 198.205 L 110.475 198.205 L 110.475 41 Z " fill="rgb(255,238,0)"/><path d=" M 98.745 198.187 L 64.556 198.187 L 51.119 184.702 L 80.229 179.577 L 98.745 198.187 Z " fill="rgb(174,183,0)"/><path d=" M 113.173 41 L 18.173 41 L 18.173 33.258 L 95.423 33.258 L 113.173 33.258 L 113.173 41 Z " fill="rgb(0,0,0)"/><path d=" M 28.565 81.545 L 44.628 81.545 L 44.628 69.436 L 28.565 69.436 L 28.565 81.545 L 28.565 81.545 Z " fill="rgb(223,226,244)"/><path d=" M 28.565 69.436 L 31.473 69.436 L 31.473 81.545 L 28.565 81.545 L 28.565 69.436 L 28.565 69.436 Z  M 32.843 69.436 L 35.912 69.436 L 35.912 81.545 L 32.843 81.545 L 32.843 69.436 L 32.843 69.436 Z  M 37.281 69.436 L 40.396 69.436 L 40.396 81.545 L 37.281 81.545 L 37.281 69.436 L 37.281 69.436 Z  M 41.764 69.436 L 44.628 69.436 L 44.628 81.545 L 41.764 81.545 L 41.764 69.436 L 41.764 69.436 Z  M 45.997 81.545 L 45.997 68.061 L 27.196 68.061 L 27.196 81.545 L 25.827 81.545 L 25.827 84.389 L 47.367 84.389 L 47.367 81.545 L 45.997 81.545 L 45.997 81.545 Z " fill="rgb(42,41,40)"/><path d=" M 25.827 75.904 L 25.827 81.545 L 27.196 81.545 L 27.196 77.28 L 45.997 77.28 L 45.997 81.545 L 47.367 81.545 L 47.367 77.28 L 47.367 75.904 L 25.827 75.904 Z " fill="rgb(139,140,139)"/><path d=" M 86.601 81.545 L 102.664 81.545 L 102.664 69.436 L 86.601 69.436 L 86.601 81.545 L 86.601 81.545 Z " fill="rgb(223,226,244)"/><path d=" M 86.601 69.436 L 89.511 69.436 L 89.511 81.545 L 86.601 81.545 L 86.601 69.436 L 86.601 69.436 Z  M 90.879 69.436 L 93.949 69.436 L 93.949 81.545 L 90.879 81.545 L 90.879 69.436 L 90.879 69.436 Z  M 95.316 69.436 L 98.431 69.436 L 98.431 81.545 L 95.316 81.545 L 95.316 69.436 L 95.316 69.436 Z  M 99.803 69.436 L 102.664 69.436 L 102.664 81.545 L 99.803 81.545 L 99.803 69.436 L 99.803 69.436 Z  M 104.035 81.545 L 104.035 68.061 L 85.232 68.061 L 85.232 81.545 L 83.863 81.545 L 83.863 84.389 L 105.403 84.389 L 105.403 81.545 L 104.035 81.545 L 104.035 81.545 Z " fill="rgb(42,41,40)"/><path d=" M 83.863 75.904 L 83.863 81.545 L 85.232 81.545 L 85.232 77.28 L 104.035 77.28 L 104.035 81.545 L 105.403 81.545 L 105.403 77.28 L 105.403 75.904 L 83.863 75.904 L 83.863 75.904 Z " fill="rgb(139,140,139)"/><path d=" M 57.644 81.545 L 73.705 81.545 L 73.705 69.436 L 57.644 69.436 L 57.644 81.545 L 57.644 81.545 Z " fill="rgb(223,226,244)"/><path d=" M 57.644 69.436 L 60.552 69.436 L 60.552 81.545 L 57.644 81.545 L 57.644 69.436 L 57.644 69.436 Z  M 61.921 69.436 L 64.991 69.436 L 64.991 81.545 L 61.921 81.545 L 61.921 69.436 L 61.921 69.436 Z  M 66.359 69.436 L 69.475 69.436 L 69.475 81.545 L 66.359 81.545 L 66.359 69.436 L 66.359 69.436 Z  M 70.844 69.436 L 73.705 69.436 L 73.705 81.545 L 70.844 81.545 L 70.844 69.436 L 70.844 69.436 Z  M 75.076 81.545 L 75.076 68.061 L 56.273 68.061 L 56.273 81.545 L 54.905 81.545 L 54.905 84.389 L 76.445 84.389 L 76.445 81.545 L 75.076 81.545 L 75.076 81.545 Z " fill="rgb(42,41,40)"/><path d=" M 54.905 75.904 L 54.905 81.545 L 56.273 81.545 L 56.273 77.28 L 75.076 77.28 L 75.076 81.545 L 76.445 81.545 L 76.445 77.28 L 76.445 75.904 L 54.905 75.904 L 54.905 75.904 Z " fill="rgb(139,140,139)"/><path d=" M 57.644 69.436 L 60.552 69.436 L 60.552 81.545 L 57.644 81.545 L 57.644 69.436 L 57.644 69.436 Z  M 61.921 69.436 L 64.991 69.436 L 64.991 81.545 L 61.921 81.545 L 61.921 69.436 L 61.921 69.436 Z  M 66.359 69.436 L 69.475 69.436 L 69.475 81.545 L 66.359 81.545 L 66.359 69.436 L 66.359 69.436 Z  M 70.844 69.436 L 73.705 69.436 L 73.705 81.545 L 70.844 81.545 L 70.844 69.436 L 70.844 69.436 Z  M 75.076 81.545 L 75.076 68.061 L 56.273 68.061 L 56.273 81.545 L 54.905 81.545 L 54.905 84.389 L 76.445 84.389 L 76.445 81.545 L 75.076 81.545 L 75.076 81.545 Z " fill="rgb(42,41,40)"/><path d=" M 54.905 75.904 L 54.905 81.545 L 56.273 81.545 L 56.273 77.28 L 75.076 77.28 L 75.076 81.545 L 76.445 81.545 L 76.445 77.28 L 76.445 75.904 L 54.905 75.904 L 54.905 75.904 Z " fill="rgb(139,140,139)"/><path d=" M 28.565 48.375 L 31.473 48.375 L 31.473 60.484 L 28.565 60.484 L 28.565 48.375 L 28.565 48.375 Z  M 32.843 48.375 L 35.912 48.375 L 35.912 60.484 L 32.843 60.484 L 32.843 48.375 L 32.843 48.375 Z  M 37.281 48.375 L 40.396 48.375 L 40.396 60.484 L 37.281 60.484 L 37.281 48.375 L 37.281 48.375 Z  M 41.764 48.375 L 44.628 48.375 L 44.628 60.484 L 41.764 60.484 L 41.764 48.375 L 41.764 48.375 Z  M 45.997 60.484 L 45.997 47 L 27.196 47 L 27.196 60.484 L 25.827 60.484 L 25.827 63.328 L 47.367 63.328 L 47.367 60.484 L 45.997 60.484 L 45.997 60.484 Z " fill="rgb(42,41,40)"/><path d=" M 25.827 54.842 L 25.827 60.484 L 27.196 60.484 L 27.196 56.218 L 45.997 56.218 L 45.997 60.484 L 47.367 60.484 L 47.367 56.218 L 47.367 54.842 L 25.827 54.842 Z " fill="rgb(139,140,139)"/><path d=" M 86.601 48.375 L 89.511 48.375 L 89.511 60.484 L 86.601 60.484 L 86.601 48.375 L 86.601 48.375 Z  M 90.879 48.375 L 93.949 48.375 L 93.949 60.484 L 90.879 60.484 L 90.879 48.375 L 90.879 48.375 Z  M 95.316 48.375 L 98.431 48.375 L 98.431 60.484 L 95.316 60.484 L 95.316 48.375 L 95.316 48.375 Z  M 99.803 48.375 L 102.664 48.375 L 102.664 60.484 L 99.803 60.484 L 99.803 48.375 L 99.803 48.375 Z  M 104.035 60.484 L 104.035 47 L 85.232 47 L 85.232 60.484 L 83.863 60.484 L 83.863 63.328 L 105.403 63.328 L 105.403 60.484 L 104.035 60.484 L 104.035 60.484 Z " fill="rgb(42,41,40)"/><path d=" M 83.863 54.842 L 83.863 60.484 L 85.232 60.484 L 85.232 56.218 L 104.035 56.218 L 104.035 60.484 L 105.403 60.484 L 105.403 56.218 L 105.403 54.842 L 83.863 54.842 L 83.863 54.842 Z " fill="rgb(139,140,139)"/><path d=" M 57.644 48.375 L 60.552 48.375 L 60.552 60.484 L 57.644 60.484 L 57.644 48.375 L 57.644 48.375 Z  M 61.921 48.375 L 64.991 48.375 L 64.991 60.484 L 61.921 60.484 L 61.921 48.375 L 61.921 48.375 Z  M 66.359 48.375 L 69.475 48.375 L 69.475 60.484 L 66.359 60.484 L 66.359 48.375 L 66.359 48.375 Z  M 70.844 48.375 L 73.705 48.375 L 73.705 60.484 L 70.844 60.484 L 70.844 48.375 L 70.844 48.375 Z  M 75.076 60.484 L 75.076 47 L 56.273 47 L 56.273 60.484 L 54.905 60.484 L 54.905 63.328 L 76.445 63.328 L 76.445 60.484 L 75.076 60.484 L 75.076 60.484 Z " fill="rgb(42,41,40)"/><path d=" M 54.905 54.842 L 54.905 60.484 L 56.273 60.484 L 56.273 56.218 L 75.076 56.218 L 75.076 60.484 L 76.445 60.484 L 76.445 56.218 L 76.445 54.842 L 54.905 54.842 L 54.905 54.842 Z " fill="rgb(139,140,139)"/><path d=" M 28.565 102.84 L 44.628 102.84 L 44.628 90.731 L 28.565 90.731 L 28.565 102.84 L 28.565 102.84 Z " fill="rgb(223,226,244)"/><path d=" M 28.565 90.731 L 31.473 90.731 L 31.473 102.84 L 28.565 102.84 L 28.565 90.731 L 28.565 90.731 Z  M 32.843 90.731 L 35.912 90.731 L 35.912 102.84 L 32.843 102.84 L 32.843 90.731 L 32.843 90.731 Z  M 37.281 90.731 L 40.396 90.731 L 40.396 102.84 L 37.281 102.84 L 37.281 90.731 L 37.281 90.731 Z  M 41.764 90.731 L 44.628 90.731 L 44.628 102.84 L 41.764 102.84 L 41.764 90.731 L 41.764 90.731 Z  M 45.997 102.84 L 45.997 89.355 L 27.196 89.355 L 27.196 102.84 L 25.827 102.84 L 25.827 105.684 L 47.367 105.684 L 47.367 102.84 L 45.997 102.84 L 45.997 102.84 Z " fill="rgb(42,41,40)"/><path d=" M 25.827 97.199 L 25.827 102.84 L 27.196 102.84 L 27.196 98.574 L 45.997 98.574 L 45.997 102.84 L 47.367 102.84 L 47.367 98.574 L 47.367 97.199 L 25.827 97.199 Z " fill="rgb(139,140,139)"/><path d=" M 86.601 102.84 L 102.664 102.84 L 102.664 90.731 L 86.601 90.731 L 86.601 102.84 L 86.601 102.84 Z " fill="rgb(223,226,244)"/><path d=" M 86.601 90.731 L 89.511 90.731 L 89.511 102.84 L 86.601 102.84 L 86.601 90.731 L 86.601 90.731 Z  M 90.879 90.731 L 93.949 90.731 L 93.949 102.84 L 90.879 102.84 L 90.879 90.731 L 90.879 90.731 Z  M 95.316 90.731 L 98.431 90.731 L 98.431 102.84 L 95.316 102.84 L 95.316 90.731 L 95.316 90.731 Z  M 99.803 90.731 L 102.664 90.731 L 102.664 102.84 L 99.803 102.84 L 99.803 90.731 L 99.803 90.731 Z  M 104.035 102.84 L 104.035 89.355 L 85.232 89.355 L 85.232 102.84 L 83.863 102.84 L 83.863 105.684 L 105.403 105.684 L 105.403 102.84 L 104.035 102.84 L 104.035 102.84 Z " fill="rgb(42,41,40)"/><path d=" M 83.863 97.199 L 83.863 102.84 L 85.232 102.84 L 85.232 98.574 L 104.035 98.574 L 104.035 102.84 L 105.403 102.84 L 105.403 98.574 L 105.403 97.199 L 83.863 97.199 L 83.863 97.199 Z " fill="rgb(139,140,139)"/><path d=" M 57.644 102.84 L 73.705 102.84 L 73.705 90.731 L 57.644 90.731 L 57.644 102.84 L 57.644 102.84 Z " fill="rgb(223,226,244)"/><path d=" M 57.644 90.731 L 60.552 90.731 L 60.552 102.84 L 57.644 102.84 L 57.644 90.731 L 57.644 90.731 Z  M 61.921 90.731 L 64.991 90.731 L 64.991 102.84 L 61.921 102.84 L 61.921 90.731 L 61.921 90.731 Z  M 66.359 90.731 L 69.475 90.731 L 69.475 102.84 L 66.359 102.84 L 66.359 90.731 L 66.359 90.731 Z  M 70.844 90.731 L 73.705 90.731 L 73.705 102.84 L 70.844 102.84 L 70.844 90.731 L 70.844 90.731 Z  M 75.076 102.84 L 75.076 89.355 L 56.273 89.355 L 56.273 102.84 L 54.905 102.84 L 54.905 105.684 L 76.445 105.684 L 76.445 102.84 L 75.076 102.84 L 75.076 102.84 Z " fill="rgb(42,41,40)"/><path d=" M 54.905 97.199 L 54.905 102.84 L 56.273 102.84 L 56.273 98.574 L 75.076 98.574 L 75.076 102.84 L 76.445 102.84 L 76.445 98.574 L 76.445 97.199 L 54.905 97.199 L 54.905 97.199 Z " fill="rgb(139,140,139)"/><path d=" M 28.565 124.135 L 44.628 124.135 L 44.628 112.026 L 28.565 112.026 L 28.565 124.135 L 28.565 124.135 Z " fill="rgb(223,226,244)"/><path d=" M 28.565 112.026 L 31.473 112.026 L 31.473 124.135 L 28.565 124.135 L 28.565 112.026 L 28.565 112.026 Z  M 32.843 112.026 L 35.912 112.026 L 35.912 124.135 L 32.843 124.135 L 32.843 112.026 L 32.843 112.026 Z  M 37.281 112.026 L 40.396 112.026 L 40.396 124.135 L 37.281 124.135 L 37.281 112.026 L 37.281 112.026 Z  M 41.764 112.026 L 44.628 112.026 L 44.628 124.135 L 41.764 124.135 L 41.764 112.026 L 41.764 112.026 Z  M 45.997 124.135 L 45.997 110.65 L 27.196 110.65 L 27.196 124.135 L 25.827 124.135 L 25.827 126.979 L 47.367 126.979 L 47.367 124.135 L 45.997 124.135 Z " fill="rgb(42,41,40)"/><path d=" M 25.827 118.493 L 25.827 124.135 L 27.196 124.135 L 27.196 119.869 L 45.997 119.869 L 45.997 124.135 L 47.367 124.135 L 47.367 119.869 L 47.367 118.493 L 25.827 118.493 Z " fill="rgb(139,140,139)"/><path d=" M 86.601 124.135 L 102.664 124.135 L 102.664 112.026 L 86.601 112.026 L 86.601 124.135 L 86.601 124.135 Z " fill="rgb(223,226,244)"/><path d=" M 86.601 112.026 L 89.511 112.026 L 89.511 124.135 L 86.601 124.135 L 86.601 112.026 L 86.601 112.026 Z  M 90.879 112.026 L 93.949 112.026 L 93.949 124.135 L 90.879 124.135 L 90.879 112.026 L 90.879 112.026 Z  M 95.316 112.026 L 98.431 112.026 L 98.431 124.135 L 95.316 124.135 L 95.316 112.026 L 95.316 112.026 Z  M 99.803 112.026 L 102.664 112.026 L 102.664 124.135 L 99.803 124.135 L 99.803 112.026 L 99.803 112.026 Z  M 104.035 124.135 L 104.035 110.65 L 85.232 110.65 L 85.232 124.135 L 83.863 124.135 L 83.863 126.979 L 105.403 126.979 L 105.403 124.135 L 104.035 124.135 Z " fill="rgb(42,41,40)"/><path d=" M 83.863 118.493 L 83.863 124.135 L 85.232 124.135 L 85.232 119.869 L 104.035 119.869 L 104.035 124.135 L 105.403 124.135 L 105.403 119.869 L 105.403 118.493 L 83.863 118.493 L 83.863 118.493 Z " fill="rgb(139,140,139)"/><path d=" M 57.644 124.135 L 73.705 124.135 L 73.705 112.026 L 57.644 112.026 L 57.644 124.135 L 57.644 124.135 Z " fill="rgb(223,226,244)"/><path d=" M 57.644 112.026 L 60.552 112.026 L 60.552 124.135 L 57.644 124.135 L 57.644 112.026 L 57.644 112.026 Z  M 61.921 112.026 L 64.991 112.026 L 64.991 124.135 L 61.921 124.135 L 61.921 112.026 L 61.921 112.026 Z  M 66.359 112.026 L 69.475 112.026 L 69.475 124.135 L 66.359 124.135 L 66.359 112.026 L 66.359 112.026 Z  M 70.844 112.026 L 73.705 112.026 L 73.705 124.135 L 70.844 124.135 L 70.844 112.026 L 70.844 112.026 Z  M 75.076 124.135 L 75.076 110.65 L 56.273 110.65 L 56.273 124.135 L 54.905 124.135 L 54.905 126.979 L 76.445 126.979 L 76.445 124.135 L 75.076 124.135 Z " fill="rgb(42,41,40)"/><path d=" M 54.905 118.493 L 54.905 124.135 L 56.273 124.135 L 56.273 119.869 L 75.076 119.869 L 75.076 124.135 L 76.445 124.135 L 76.445 119.869 L 76.445 118.493 L 54.905 118.493 L 54.905 118.493 Z " fill="rgb(139,140,139)"/><path d=" M 28.565 145.43 L 44.628 145.43 L 44.628 133.321 L 28.565 133.321 L 28.565 145.43 L 28.565 145.43 Z " fill="rgb(223,226,244)"/><path d=" M 28.565 133.321 L 31.473 133.321 L 31.473 145.43 L 28.565 145.43 L 28.565 133.321 L 28.565 133.321 Z  M 32.843 133.321 L 35.912 133.321 L 35.912 145.43 L 32.843 145.43 L 32.843 133.321 L 32.843 133.321 Z  M 37.281 133.321 L 40.396 133.321 L 40.396 145.43 L 37.281 145.43 L 37.281 133.321 L 37.281 133.321 Z  M 41.764 133.321 L 44.628 133.321 L 44.628 145.43 L 41.764 145.43 L 41.764 133.321 L 41.764 133.321 Z  M 45.997 145.43 L 45.997 131.945 L 27.196 131.945 L 27.196 145.43 L 25.827 145.43 L 25.827 148.274 L 47.367 148.274 L 47.367 145.43 L 45.997 145.43 L 45.997 145.43 Z " fill="rgb(42,41,40)"/><path d=" M 25.827 139.788 L 25.827 145.43 L 27.196 145.43 L 27.196 141.163 L 45.997 141.163 L 45.997 145.43 L 47.367 145.43 L 47.367 141.163 L 47.367 139.788 L 25.827 139.788 Z " fill="rgb(139,140,139)"/><path d=" M 86.601 145.43 L 102.664 145.43 L 102.664 133.321 L 86.601 133.321 L 86.601 145.43 L 86.601 145.43 Z " fill="rgb(223,226,244)"/><path d=" M 86.601 133.321 L 89.511 133.321 L 89.511 145.43 L 86.601 145.43 L 86.601 133.321 L 86.601 133.321 Z  M 90.879 133.321 L 93.949 133.321 L 93.949 145.43 L 90.879 145.43 L 90.879 133.321 L 90.879 133.321 Z  M 95.316 133.321 L 98.431 133.321 L 98.431 145.43 L 95.316 145.43 L 95.316 133.321 L 95.316 133.321 Z  M 99.803 133.321 L 102.664 133.321 L 102.664 145.43 L 99.803 145.43 L 99.803 133.321 L 99.803 133.321 Z  M 104.035 145.43 L 104.035 131.945 L 85.232 131.945 L 85.232 145.43 L 83.863 145.43 L 83.863 148.274 L 105.403 148.274 L 105.403 145.43 L 104.035 145.43 L 104.035 145.43 Z " fill="rgb(42,41,40)"/><path d=" M 83.863 139.788 L 83.863 145.43 L 85.232 145.43 L 85.232 141.163 L 104.035 141.163 L 104.035 145.43 L 105.403 145.43 L 105.403 141.163 L 105.403 139.788 L 83.863 139.788 Z " fill="rgb(139,140,139)"/><path d=" M 57.644 145.43 L 73.705 145.43 L 73.705 133.321 L 57.644 133.321 L 57.644 145.43 L 57.644 145.43 Z " fill="rgb(223,226,244)"/><path d=" M 57.644 133.321 L 60.552 133.321 L 60.552 145.43 L 57.644 145.43 L 57.644 133.321 L 57.644 133.321 Z  M 61.921 133.321 L 64.991 133.321 L 64.991 145.43 L 61.921 145.43 L 61.921 133.321 L 61.921 133.321 Z  M 66.359 133.321 L 69.475 133.321 L 69.475 145.43 L 66.359 145.43 L 66.359 133.321 L 66.359 133.321 Z  M 70.844 133.321 L 73.705 133.321 L 73.705 145.43 L 70.844 145.43 L 70.844 133.321 L 70.844 133.321 Z  M 75.076 145.43 L 75.076 131.945 L 56.273 131.945 L 56.273 145.43 L 54.905 145.43 L 54.905 148.274 L 76.445 148.274 L 76.445 145.43 L 75.076 145.43 L 75.076 145.43 Z " fill="rgb(42,41,40)"/><path d=" M 54.905 139.788 L 54.905 145.43 L 56.273 145.43 L 56.273 141.163 L 75.076 141.163 L 75.076 145.43 L 76.445 145.43 L 76.445 141.163 L 76.445 139.788 L 54.905 139.788 Z " fill="rgb(139,140,139)"/><path d=" M 28.565 166.725 L 44.628 166.725 L 44.628 154.616 L 28.565 154.616 L 28.565 166.725 Z " fill="rgb(223,226,244)"/><path d=" M 28.565 154.616 L 31.473 154.616 L 31.473 166.725 L 28.565 166.725 L 28.565 154.616 L 28.565 154.616 Z  M 32.843 154.616 L 35.912 154.616 L 35.912 166.725 L 32.843 166.725 L 32.843 154.616 L 32.843 154.616 Z  M 37.281 154.616 L 40.396 154.616 L 40.396 166.725 L 37.281 166.725 L 37.281 154.616 L 37.281 154.616 Z  M 41.764 154.616 L 44.628 154.616 L 44.628 166.725 L 41.764 166.725 L 41.764 154.616 L 41.764 154.616 Z  M 45.997 166.725 L 45.997 153.24 L 27.196 153.24 L 27.196 166.725 L 25.827 166.725 L 25.827 169.567 L 47.367 169.567 L 47.367 166.725 L 45.997 166.725 Z " fill="rgb(42,41,40)"/><path d=" M 25.827 161.083 L 25.827 166.725 L 27.196 166.725 L 27.196 162.459 L 45.997 162.459 L 45.997 166.725 L 47.367 166.725 L 47.367 162.459 L 47.367 161.083 L 25.827 161.083 Z " fill="rgb(139,140,139)"/><path d=" M 86.601 166.725 L 102.664 166.725 L 102.664 154.616 L 86.601 154.616 L 86.601 166.725 Z " fill="rgb(223,226,244)"/><path d=" M 86.601 154.616 L 89.511 154.616 L 89.511 166.725 L 86.601 166.725 L 86.601 154.616 L 86.601 154.616 Z  M 90.879 154.616 L 93.949 154.616 L 93.949 166.725 L 90.879 166.725 L 90.879 154.616 L 90.879 154.616 Z  M 95.316 154.616 L 98.431 154.616 L 98.431 166.725 L 95.316 166.725 L 95.316 154.616 L 95.316 154.616 Z  M 99.803 154.616 L 102.664 154.616 L 102.664 166.725 L 99.803 166.725 L 99.803 154.616 L 99.803 154.616 Z  M 104.035 166.725 L 104.035 153.24 L 85.232 153.24 L 85.232 166.725 L 83.863 166.725 L 83.863 169.567 L 105.403 169.567 L 105.403 166.725 L 104.035 166.725 Z " fill="rgb(42,41,40)"/><path d=" M 83.863 161.083 L 83.863 166.725 L 85.232 166.725 L 85.232 162.459 L 104.035 162.459 L 104.035 166.725 L 105.403 166.725 L 105.403 162.459 L 105.403 161.083 L 83.863 161.083 L 83.863 161.083 Z " fill="rgb(139,140,139)"/><path d=" M 57.644 166.725 L 73.705 166.725 L 73.705 154.616 L 57.644 154.616 L 57.644 166.725 Z " fill="rgb(223,226,244)"/><path d=" M 57.644 154.616 L 60.552 154.616 L 60.552 166.725 L 57.644 166.725 L 57.644 154.616 L 57.644 154.616 Z  M 61.921 154.616 L 64.991 154.616 L 64.991 166.725 L 61.921 166.725 L 61.921 154.616 L 61.921 154.616 Z  M 66.359 154.616 L 69.475 154.616 L 69.475 166.725 L 66.359 166.725 L 66.359 154.616 L 66.359 154.616 Z  M 70.844 154.616 L 73.705 154.616 L 73.705 166.725 L 70.844 166.725 L 70.844 154.616 L 70.844 154.616 Z  M 75.076 166.725 L 75.076 153.24 L 56.273 153.24 L 56.273 166.725 L 54.905 166.725 L 54.905 169.567 L 76.445 169.567 L 76.445 166.725 L 75.076 166.725 Z " fill="rgb(42,41,40)"/><path d=" M 54.905 161.083 L 54.905 166.725 L 56.273 166.725 L 56.273 162.459 L 75.076 162.459 L 75.076 166.725 L 76.445 166.725 L 76.445 162.459 L 76.445 161.083 L 54.905 161.083 L 54.905 161.083 Z " fill="rgb(139,140,139)"/><path d=" M 28.565 188.02 L 44.628 188.02 L 44.628 175.911 L 28.565 175.911 L 28.565 188.02 L 28.565 188.02 Z " fill="rgb(223,226,244)"/><path d=" M 28.565 175.911 L 31.473 175.911 L 31.473 188.02 L 28.565 188.02 L 28.565 175.911 L 28.565 175.911 Z  M 32.843 175.911 L 35.912 175.911 L 35.912 188.02 L 32.843 188.02 L 32.843 175.911 L 32.843 175.911 Z  M 37.281 175.911 L 40.396 175.911 L 40.396 188.02 L 37.281 188.02 L 37.281 175.911 L 37.281 175.911 Z  M 41.764 175.911 L 44.628 175.911 L 44.628 188.02 L 41.764 188.02 L 41.764 175.911 L 41.764 175.911 Z  M 45.997 188.02 L 45.997 174.535 L 27.196 174.535 L 27.196 188.02 L 25.827 188.02 L 25.827 190.861 L 47.367 190.861 L 47.367 188.02 L 45.997 188.02 L 45.997 188.02 Z " fill="rgb(42,41,40)"/><path d=" M 25.827 182.378 L 25.827 188.02 L 27.196 188.02 L 27.196 183.756 L 45.997 183.756 L 45.997 188.02 L 47.367 188.02 L 47.367 183.756 L 47.367 182.378 L 25.827 182.378 Z " fill="rgb(139,140,139)"/><path d=" M 86.601 188.02 L 102.664 188.02 L 102.664 175.911 L 86.601 175.911 L 86.601 188.02 L 86.601 188.02 Z " fill="rgb(223,226,244)"/><path d=" M 86.601 175.911 L 89.511 175.911 L 89.511 188.02 L 86.601 188.02 L 86.601 175.911 L 86.601 175.911 Z  M 90.879 175.911 L 93.949 175.911 L 93.949 188.02 L 90.879 188.02 L 90.879 175.911 L 90.879 175.911 Z  M 95.316 175.911 L 98.431 175.911 L 98.431 188.02 L 95.316 188.02 L 95.316 175.911 L 95.316 175.911 Z  M 99.803 175.911 L 102.664 175.911 L 102.664 188.02 L 99.803 188.02 L 99.803 175.911 L 99.803 175.911 Z  M 104.035 188.02 L 104.035 174.535 L 85.232 174.535 L 85.232 188.02 L 83.863 188.02 L 83.863 190.861 L 105.403 190.861 L 105.403 188.02 L 104.035 188.02 L 104.035 188.02 Z " fill="rgb(42,41,40)"/><path d=" M 83.863 182.378 L 83.863 188.02 L 85.232 188.02 L 85.232 183.756 L 104.035 183.756 L 104.035 188.02 L 105.403 188.02 L 105.403 183.756 L 105.403 182.378 L 83.863 182.378 L 83.863 182.378 Z " fill="rgb(139,140,139)"/><path d=" M 51.119 179.577 L 51.119 184.702 L 65.673 184.702 L 65.673 179.577 L 51.119 179.577 L 51.119 179.577 Z " fill="rgb(139,140,139)"/><path d=" M 80.229 179.577 L 65.673 179.577 L 65.673 184.702 L 80.229 184.702 L 80.229 179.577 L 80.229 179.577 Z " fill="rgb(99,101,102)"/><path d=" M 60.447 186.08 L 60.447 194.077 L 64.537 198.187 L 64.991 198.187 L 64.991 186.08 L 60.447 186.08 Z " fill="rgb(162,165,181)"/><path d=" M 59.077 186.08 L 54.695 186.08 L 54.695 188.295 L 59.077 192.698 L 59.077 186.08 Z " fill="rgb(162,165,181)"/><path d=" M 54.695 188.295 L 54.695 198.187 L 59.077 198.187 L 59.077 192.698 L 54.695 188.295 L 54.695 188.295 Z " fill="rgb(223,226,244)"/><path d=" M 60.447 198.187 L 64.537 198.187 L 60.447 194.077 L 60.447 198.187 L 60.447 198.187 Z " fill="rgb(223,226,244)"/><path d=" M 66.359 186.08 L 66.359 198.187 L 70.947 198.187 L 70.947 186.08 L 66.359 186.08 L 66.359 186.08 Z " fill="rgb(162,165,181)"/><path d=" M 72.316 186.08 L 72.316 198.187 L 76.652 198.187 L 76.652 186.08 L 72.316 186.08 L 72.316 186.08 Z " fill="rgb(162,165,181)"/><path d=" M 53.324 184.702 L 53.324 186.918 L 54.695 188.295 L 54.695 186.08 L 59.077 186.08 L 60.447 186.08 L 64.991 186.08 L 66.359 186.08 L 70.947 186.08 L 72.316 186.08 L 76.652 186.08 L 76.652 198.187 L 78.023 198.187 L 78.023 184.702 L 53.324 184.702 Z " fill="rgb(26,24,23)"/><path d=" M 53.324 186.918 L 53.324 198.187 L 54.695 198.187 L 54.695 188.295 L 53.324 186.918 L 53.324 186.918 Z " fill="rgb(42,41,40)"/><path d=" M 60.447 194.077 L 60.447 186.08 L 59.077 186.08 L 59.077 192.698 L 60.447 194.077 L 60.447 194.077 Z " fill="rgb(42,41,40)"/><path d=" M 59.077 192.698 L 59.077 198.187 L 60.447 198.187 L 60.447 194.077 L 59.077 192.698 L 59.077 192.698 Z " fill="rgb(42,41,40)"/><path d=" M 64.991 186.08 L 64.991 198.187 L 66.359 198.187 L 66.359 186.08 L 64.991 186.08 L 64.991 186.08 Z " fill="rgb(42,41,40)"/><path d=" M 70.947 186.08 L 70.947 198.187 L 72.316 198.187 L 72.316 186.08 L 70.947 186.08 L 70.947 186.08 Z " fill="rgb(42,41,40)"/><path d=" M 97.709 2.732 L 97.38 2.732 L 95.458 28.86 L 99.634 28.86 L 97.709 2.732 L 97.709 2.732 Z " fill="rgb(152,153,153)"/><path d=" M 92.108 28.86 L 92.108 33.257 L 97.444 33.257 L 97.444 28.86 L 92.108 28.86 L 92.108 28.86 Z " fill="rgb(229,229,228)"/><path d=" M 102.78 28.861 L 97.444 28.861 L 97.444 33.258 L 102.78 33.258 L 102.78 28.861 L 102.78 28.861 Z " fill="rgb(168,168,166)"/><path d=" M 71.631 26.732 L 89.136 26.732 L 89.136 33.258 L 71.631 33.258 L 71.631 26.732 L 71.631 26.732 Z " fill="rgb(168,168,166)"/><path d=" M 28.566 48.317 L 31.473 48.317 L 31.473 54.842 L 28.566 54.842 L 28.566 48.317 L 28.566 48.317 Z " fill="rgb(223,226,244)"/><path d=" M 28.566 56.218 L 31.473 56.218 L 31.473 60.484 L 28.566 60.484 L 28.566 56.218 L 28.566 56.218 Z " fill="rgb(223,226,244)"/><path d=" M 41.721 56.218 L 44.628 56.218 L 44.628 60.484 L 41.721 60.484 L 41.721 56.218 L 41.721 56.218 Z " fill="rgb(223,226,244)"/><path d=" M 57.645 56.218 L 60.552 56.218 L 60.552 60.484 L 57.645 60.484 L 57.645 56.218 L 57.645 56.218 Z " fill="rgb(223,226,244)"/><path d=" M 70.817 56.171 L 73.724 56.171 L 73.724 60.437 L 70.817 60.437 L 70.817 56.171 L 70.817 56.171 Z " fill="rgb(223,226,244)"/><path d=" M 99.778 56.218 L 102.686 56.218 L 102.686 60.484 L 99.778 60.484 L 99.778 56.218 L 99.778 56.218 Z " fill="rgb(223,226,244)"/><path d=" M 86.601 56.218 L 89.508 56.218 L 89.508 60.484 L 86.601 60.484 L 86.601 56.218 L 86.601 56.218 Z " fill="rgb(223,226,244)"/><path d=" M 37.282 56.218 L 40.351 56.218 L 40.351 60.484 L 37.282 60.484 L 37.282 56.218 L 37.282 56.218 Z " fill="rgb(223,226,244)"/><path d=" M 32.843 56.218 L 35.912 56.218 L 35.912 60.484 L 32.843 60.484 L 32.843 56.218 L 32.843 56.218 Z " fill="rgb(223,226,244)"/><path d=" M 61.875 56.218 L 64.944 56.218 L 64.944 60.484 L 61.875 60.484 L 61.875 56.218 L 61.875 56.218 Z " fill="rgb(223,226,244)"/><path d=" M 66.359 56.218 L 69.428 56.218 L 69.428 60.484 L 66.359 60.484 L 66.359 56.218 L 66.359 56.218 Z " fill="rgb(223,226,244)"/><path d=" M 90.926 56.218 L 93.995 56.218 L 93.995 60.484 L 90.926 60.484 L 90.926 56.218 L 90.926 56.218 Z " fill="rgb(223,226,244)"/><path d=" M 95.315 56.218 L 98.384 56.218 L 98.384 60.484 L 95.315 60.484 L 95.315 56.218 L 95.315 56.218 Z " fill="rgb(223,226,244)"/><path d=" M 32.843 48.317 L 35.912 48.317 L 35.912 54.842 L 32.843 54.842 L 32.843 48.317 L 32.843 48.317 Z " fill="rgb(223,226,244)"/><path d=" M 37.282 48.317 L 40.351 48.317 L 40.351 54.842 L 37.282 54.842 L 37.282 48.317 L 37.282 48.317 Z " fill="rgb(223,226,244)"/><path d=" M 41.764 48.317 L 44.628 48.317 L 44.628 54.842 L 41.764 54.842 L 41.764 48.317 L 41.764 48.317 Z " fill="rgb(223,226,244)"/><path d=" M 57.645 48.317 L 60.509 48.317 L 60.509 54.842 L 57.645 54.842 L 57.645 48.317 L 57.645 48.317 Z " fill="rgb(223,226,244)"/><path d=" M 70.888 48.317 L 73.752 48.317 L 73.752 54.842 L 70.888 54.842 L 70.888 48.317 L 70.888 48.317 Z " fill="rgb(223,226,244)"/><path d=" M 99.8 48.317 L 102.664 48.317 L 102.664 54.842 L 99.8 54.842 L 99.8 48.317 L 99.8 48.317 Z " fill="rgb(223,226,244)"/><path d=" M 86.601 48.317 L 89.465 48.317 L 89.465 54.842 L 86.601 54.842 L 86.601 48.317 L 86.601 48.317 Z " fill="rgb(223,226,244)"/><path d=" M 66.359 48.317 L 69.475 48.317 L 69.475 54.842 L 66.359 54.842 L 66.359 48.317 L 66.359 48.317 Z " fill="rgb(223,226,244)"/><path d=" M 61.875 48.317 L 64.991 48.317 L 64.991 54.842 L 61.875 54.842 L 61.875 48.317 L 61.875 48.317 Z " fill="rgb(223,226,244)"/><path d=" M 90.879 48.317 L 93.995 48.317 L 93.995 54.842 L 90.879 54.842 L 90.879 48.317 L 90.879 48.317 Z " fill="rgb(223,226,244)"/><path d=" M 95.315 48.317 L 98.431 48.317 L 98.431 54.842 L 95.315 54.842 L 95.315 48.317 L 95.315 48.317 Z " fill="rgb(223,226,244)"/><line x1="-220.102" y1="404.94" x2="-220.102" y2="409"/><path d=" M -220.114 402.384 L -220.114 404.94 L -220.102 404.94 L -220.102 402.384 L -220.114 402.384 L -220.114 402.384 Z " fill="rgb(55,68,75)"/><line x1="-220.102" y1="402.384" x2="-220.102" y2="404.94"/></g></g></g></g></g></g></g></svg>