<?xml version="1.0" standalone="no"?><!-- Generator: Gravit.io --><svg xmlns="http://www.w3.org/2000/svg" xmlns:xlink="http://www.w3.org/1999/xlink" style="isolation:isolate" viewBox="0 0 130 200" width="130" height="200"><defs><clipPath id="_clipPath_tTJy6pXAN8i3ykuyAEtc0BCdH6CvRWRy"><rect width="130" height="200"/></clipPath></defs><g clip-path="url(#_clipPath_tTJy6pXAN8i3ykuyAEtc0BCdH6CvRWRy)"><clipPath id="_clipPath_FDJC1x0KnhYoTFf3DWjal7RJFcx9JK09"><rect x="0" y="0" width="130" height="200" transform="matrix(1,0,0,1,0,0)" fill="rgb(255,255,255)"/></clipPath><g clip-path="url(#_clipPath_FDJC1x0KnhYoTFf3DWjal7RJFcx9JK09)"><g><g><path d=" M 107.475 49.007 L 17.873 49.007 L 17.873 184.263 L 107.475 184.263 L 107.475 49.007 Z " fill="rgb(83,51,55)"/><path d=" M 95.745 184.245 L 61.556 184.245 L 48.119 170.828 L 77.229 165.729 L 95.745 184.245 Z " fill="rgb(61,38,41)"/><path d=" M 110 49.007 L 15 49.007 L 15 41.304 L 110 41.304 L 110 49.007 Z " fill="rgb(42,41,40)"/><path d=" M 25.565 68.189 L 41.628 68.189 L 41.628 56.141 L 25.565 56.141 L 25.565 68.189 L 25.565 68.189 Z " fill="rgb(223,226,244)"/><path d=" M 25.565 56.141 L 28.473 56.141 L 28.473 68.189 L 25.565 68.189 L 25.565 56.141 L 25.565 56.141 Z  M 29.843 56.141 L 32.912 56.141 L 32.912 68.189 L 29.843 68.189 L 29.843 56.141 L 29.843 56.141 Z  M 34.281 56.141 L 37.396 56.141 L 37.396 68.189 L 34.281 68.189 L 34.281 56.141 L 34.281 56.141 Z  M 38.764 56.141 L 41.628 56.141 L 41.628 68.189 L 38.764 68.189 L 38.764 56.141 L 38.764 56.141 Z  M 42.997 68.189 L 42.997 54.773 L 24.196 54.773 L 24.196 68.189 L 22.827 68.189 L 22.827 71.019 L 44.367 71.019 L 44.367 68.189 L 42.997 68.189 L 42.997 68.189 Z " fill="rgb(42,41,40)"/><path d=" M 22.827 62.576 L 22.827 68.189 L 24.196 68.189 L 24.196 63.945 L 42.997 63.945 L 42.997 68.189 L 44.367 68.189 L 44.367 63.945 L 44.367 62.576 L 22.827 62.576 Z " fill="rgb(139,140,139)"/><path d=" M 83.601 68.189 L 99.664 68.189 L 99.664 56.141 L 83.601 56.141 L 83.601 68.189 L 83.601 68.189 Z " fill="rgb(223,226,244)"/><path d=" M 83.601 56.141 L 86.511 56.141 L 86.511 68.189 L 83.601 68.189 L 83.601 56.141 L 83.601 56.141 Z  M 87.879 56.141 L 90.949 56.141 L 90.949 68.189 L 87.879 68.189 L 87.879 56.141 L 87.879 56.141 Z  M 92.316 56.141 L 95.431 56.141 L 95.431 68.189 L 92.316 68.189 L 92.316 56.141 L 92.316 56.141 Z  M 96.803 56.141 L 99.664 56.141 L 99.664 68.189 L 96.803 68.189 L 96.803 56.141 L 96.803 56.141 Z  M 101.035 68.189 L 101.035 54.773 L 82.232 54.773 L 82.232 68.189 L 80.863 68.189 L 80.863 71.019 L 102.403 71.019 L 102.403 68.189 L 101.035 68.189 L 101.035 68.189 Z " fill="rgb(42,41,40)"/><path d=" M 80.863 62.576 L 80.863 68.189 L 82.232 68.189 L 82.232 63.945 L 101.035 63.945 L 101.035 68.189 L 102.403 68.189 L 102.403 63.945 L 102.403 62.576 L 80.863 62.576 L 80.863 62.576 Z " fill="rgb(139,140,139)"/><path d=" M 54.644 68.189 L 70.705 68.189 L 70.705 56.141 L 54.644 56.141 L 54.644 68.189 L 54.644 68.189 Z " fill="rgb(223,226,244)"/><path d=" M 54.644 56.141 L 57.552 56.141 L 57.552 68.189 L 54.644 68.189 L 54.644 56.141 L 54.644 56.141 Z  M 58.921 56.141 L 61.991 56.141 L 61.991 68.189 L 58.921 68.189 L 58.921 56.141 L 58.921 56.141 Z  M 63.359 56.141 L 66.475 56.141 L 66.475 68.189 L 63.359 68.189 L 63.359 56.141 L 63.359 56.141 Z  M 67.844 56.141 L 70.705 56.141 L 70.705 68.189 L 67.844 68.189 L 67.844 56.141 L 67.844 56.141 Z  M 72.076 68.189 L 72.076 54.773 L 53.273 54.773 L 53.273 68.189 L 51.905 68.189 L 51.905 71.019 L 73.445 71.019 L 73.445 68.189 L 72.076 68.189 L 72.076 68.189 Z " fill="rgb(42,41,40)"/><path d=" M 51.905 62.576 L 51.905 68.189 L 53.273 68.189 L 53.273 63.945 L 72.076 63.945 L 72.076 68.189 L 73.445 68.189 L 73.445 63.945 L 73.445 62.576 L 51.905 62.576 L 51.905 62.576 Z " fill="rgb(139,140,139)"/><path d=" M 25.565 89.377 L 41.628 89.377 L 41.628 77.329 L 25.565 77.329 L 25.565 89.377 L 25.565 89.377 Z " fill="rgb(223,226,244)"/><path d=" M 25.565 77.329 L 28.473 77.329 L 28.473 89.377 L 25.565 89.377 L 25.565 77.329 L 25.565 77.329 Z  M 29.843 77.329 L 32.912 77.329 L 32.912 89.377 L 29.843 89.377 L 29.843 77.329 L 29.843 77.329 Z  M 34.281 77.329 L 37.396 77.329 L 37.396 89.377 L 34.281 89.377 L 34.281 77.329 L 34.281 77.329 Z  M 38.764 77.329 L 41.628 77.329 L 41.628 89.377 L 38.764 89.377 L 38.764 77.329 L 38.764 77.329 Z  M 42.997 89.377 L 42.997 75.96 L 24.196 75.96 L 24.196 89.377 L 22.827 89.377 L 22.827 92.207 L 44.367 92.207 L 44.367 89.377 L 42.997 89.377 L 42.997 89.377 Z " fill="rgb(42,41,40)"/><path d=" M 22.827 83.764 L 22.827 89.377 L 24.196 89.377 L 24.196 85.133 L 42.997 85.133 L 42.997 89.377 L 44.367 89.377 L 44.367 85.133 L 44.367 83.764 L 22.827 83.764 Z " fill="rgb(139,140,139)"/><path d=" M 83.601 89.377 L 99.664 89.377 L 99.664 77.329 L 83.601 77.329 L 83.601 89.377 L 83.601 89.377 Z " fill="rgb(223,226,244)"/><path d=" M 83.601 77.329 L 86.511 77.329 L 86.511 89.377 L 83.601 89.377 L 83.601 77.329 L 83.601 77.329 Z  M 87.879 77.329 L 90.949 77.329 L 90.949 89.377 L 87.879 89.377 L 87.879 77.329 L 87.879 77.329 Z  M 92.316 77.329 L 95.431 77.329 L 95.431 89.377 L 92.316 89.377 L 92.316 77.329 L 92.316 77.329 Z  M 96.803 77.329 L 99.664 77.329 L 99.664 89.377 L 96.803 89.377 L 96.803 77.329 L 96.803 77.329 Z  M 101.035 89.377 L 101.035 75.96 L 82.232 75.96 L 82.232 89.377 L 80.863 89.377 L 80.863 92.207 L 102.403 92.207 L 102.403 89.377 L 101.035 89.377 L 101.035 89.377 Z " fill="rgb(42,41,40)"/><path d=" M 80.863 83.764 L 80.863 89.377 L 82.232 89.377 L 82.232 85.133 L 101.035 85.133 L 101.035 89.377 L 102.403 89.377 L 102.403 85.133 L 102.403 83.764 L 80.863 83.764 L 80.863 83.764 Z " fill="rgb(139,140,139)"/><path d=" M 54.644 89.377 L 70.705 89.377 L 70.705 77.329 L 54.644 77.329 L 54.644 89.377 L 54.644 89.377 Z " fill="rgb(223,226,244)"/><path d=" M 54.644 77.329 L 57.552 77.329 L 57.552 89.377 L 54.644 89.377 L 54.644 77.329 L 54.644 77.329 Z  M 58.921 77.329 L 61.991 77.329 L 61.991 89.377 L 58.921 89.377 L 58.921 77.329 L 58.921 77.329 Z  M 63.359 77.329 L 66.475 77.329 L 66.475 89.377 L 63.359 89.377 L 63.359 77.329 L 63.359 77.329 Z  M 67.844 77.329 L 70.705 77.329 L 70.705 89.377 L 67.844 89.377 L 67.844 77.329 L 67.844 77.329 Z  M 72.076 89.377 L 72.076 75.96 L 53.273 75.96 L 53.273 89.377 L 51.905 89.377 L 51.905 92.207 L 73.445 92.207 L 73.445 89.377 L 72.076 89.377 L 72.076 89.377 Z " fill="rgb(42,41,40)"/><path d=" M 51.905 83.764 L 51.905 89.377 L 53.273 89.377 L 53.273 85.133 L 72.076 85.133 L 72.076 89.377 L 73.445 89.377 L 73.445 85.133 L 73.445 83.764 L 51.905 83.764 L 51.905 83.764 Z " fill="rgb(139,140,139)"/><path d=" M 25.565 110.565 L 41.628 110.565 L 41.628 98.517 L 25.565 98.517 L 25.565 110.565 L 25.565 110.565 Z " fill="rgb(223,226,244)"/><path d=" M 25.565 98.517 L 28.473 98.517 L 28.473 110.565 L 25.565 110.565 L 25.565 98.517 L 25.565 98.517 Z  M 29.843 98.517 L 32.912 98.517 L 32.912 110.565 L 29.843 110.565 L 29.843 98.517 L 29.843 98.517 Z  M 34.281 98.517 L 37.396 98.517 L 37.396 110.565 L 34.281 110.565 L 34.281 98.517 L 34.281 98.517 Z  M 38.764 98.517 L 41.628 98.517 L 41.628 110.565 L 38.764 110.565 L 38.764 98.517 L 38.764 98.517 Z  M 42.997 110.565 L 42.997 97.148 L 24.196 97.148 L 24.196 110.565 L 22.827 110.565 L 22.827 113.395 L 44.367 113.395 L 44.367 110.565 L 42.997 110.565 Z " fill="rgb(42,41,40)"/><path d=" M 22.827 104.952 L 22.827 110.565 L 24.196 110.565 L 24.196 106.321 L 42.997 106.321 L 42.997 110.565 L 44.367 110.565 L 44.367 106.321 L 44.367 104.952 L 22.827 104.952 Z " fill="rgb(139,140,139)"/><path d=" M 83.601 110.565 L 99.664 110.565 L 99.664 98.517 L 83.601 98.517 L 83.601 110.565 L 83.601 110.565 Z " fill="rgb(223,226,244)"/><path d=" M 83.601 98.517 L 86.511 98.517 L 86.511 110.565 L 83.601 110.565 L 83.601 98.517 L 83.601 98.517 Z  M 87.879 98.517 L 90.949 98.517 L 90.949 110.565 L 87.879 110.565 L 87.879 98.517 L 87.879 98.517 Z  M 92.316 98.517 L 95.431 98.517 L 95.431 110.565 L 92.316 110.565 L 92.316 98.517 L 92.316 98.517 Z  M 96.803 98.517 L 99.664 98.517 L 99.664 110.565 L 96.803 110.565 L 96.803 98.517 L 96.803 98.517 Z  M 101.035 110.565 L 101.035 97.148 L 82.232 97.148 L 82.232 110.565 L 80.863 110.565 L 80.863 113.395 L 102.403 113.395 L 102.403 110.565 L 101.035 110.565 Z " fill="rgb(42,41,40)"/><path d=" M 80.863 104.952 L 80.863 110.565 L 82.232 110.565 L 82.232 106.321 L 101.035 106.321 L 101.035 110.565 L 102.403 110.565 L 102.403 106.321 L 102.403 104.952 L 80.863 104.952 L 80.863 104.952 Z " fill="rgb(139,140,139)"/><path d=" M 54.644 110.565 L 70.705 110.565 L 70.705 98.517 L 54.644 98.517 L 54.644 110.565 L 54.644 110.565 Z " fill="rgb(223,226,244)"/><path d=" M 54.644 98.517 L 57.552 98.517 L 57.552 110.565 L 54.644 110.565 L 54.644 98.517 L 54.644 98.517 Z  M 58.921 98.517 L 61.991 98.517 L 61.991 110.565 L 58.921 110.565 L 58.921 98.517 L 58.921 98.517 Z  M 63.359 98.517 L 66.475 98.517 L 66.475 110.565 L 63.359 110.565 L 63.359 98.517 L 63.359 98.517 Z  M 67.844 98.517 L 70.705 98.517 L 70.705 110.565 L 67.844 110.565 L 67.844 98.517 L 67.844 98.517 Z  M 72.076 110.565 L 72.076 97.148 L 53.273 97.148 L 53.273 110.565 L 51.905 110.565 L 51.905 113.395 L 73.445 113.395 L 73.445 110.565 L 72.076 110.565 Z " fill="rgb(42,41,40)"/><path d=" M 51.905 104.952 L 51.905 110.565 L 53.273 110.565 L 53.273 106.321 L 72.076 106.321 L 72.076 110.565 L 73.445 110.565 L 73.445 106.321 L 73.445 104.952 L 51.905 104.952 L 51.905 104.952 Z " fill="rgb(139,140,139)"/><path d=" M 25.565 131.753 L 41.628 131.753 L 41.628 119.705 L 25.565 119.705 L 25.565 131.753 L 25.565 131.753 Z " fill="rgb(223,226,244)"/><path d=" M 25.565 119.705 L 28.473 119.705 L 28.473 131.753 L 25.565 131.753 L 25.565 119.705 L 25.565 119.705 Z  M 29.843 119.705 L 32.912 119.705 L 32.912 131.753 L 29.843 131.753 L 29.843 119.705 L 29.843 119.705 Z  M 34.281 119.705 L 37.396 119.705 L 37.396 131.753 L 34.281 131.753 L 34.281 119.705 L 34.281 119.705 Z  M 38.764 119.705 L 41.628 119.705 L 41.628 131.753 L 38.764 131.753 L 38.764 119.705 L 38.764 119.705 Z  M 42.997 131.753 L 42.997 118.336 L 24.196 118.336 L 24.196 131.753 L 22.827 131.753 L 22.827 134.583 L 44.367 134.583 L 44.367 131.753 L 42.997 131.753 L 42.997 131.753 Z " fill="rgb(42,41,40)"/><path d=" M 22.827 126.14 L 22.827 131.753 L 24.196 131.753 L 24.196 127.508 L 42.997 127.508 L 42.997 131.753 L 44.367 131.753 L 44.367 127.508 L 44.367 126.14 L 22.827 126.14 Z " fill="rgb(139,140,139)"/><path d=" M 83.601 131.753 L 99.664 131.753 L 99.664 119.705 L 83.601 119.705 L 83.601 131.753 L 83.601 131.753 Z " fill="rgb(223,226,244)"/><path d=" M 83.601 119.705 L 86.511 119.705 L 86.511 131.753 L 83.601 131.753 L 83.601 119.705 L 83.601 119.705 Z  M 87.879 119.705 L 90.949 119.705 L 90.949 131.753 L 87.879 131.753 L 87.879 119.705 L 87.879 119.705 Z  M 92.316 119.705 L 95.431 119.705 L 95.431 131.753 L 92.316 131.753 L 92.316 119.705 L 92.316 119.705 Z  M 96.803 119.705 L 99.664 119.705 L 99.664 131.753 L 96.803 131.753 L 96.803 119.705 L 96.803 119.705 Z  M 101.035 131.753 L 101.035 118.336 L 82.232 118.336 L 82.232 131.753 L 80.863 131.753 L 80.863 134.583 L 102.403 134.583 L 102.403 131.753 L 101.035 131.753 L 101.035 131.753 Z " fill="rgb(42,41,40)"/><path d=" M 80.863 126.14 L 80.863 131.753 L 82.232 131.753 L 82.232 127.508 L 101.035 127.508 L 101.035 131.753 L 102.403 131.753 L 102.403 127.508 L 102.403 126.14 L 80.863 126.14 Z " fill="rgb(139,140,139)"/><path d=" M 54.644 131.753 L 70.705 131.753 L 70.705 119.705 L 54.644 119.705 L 54.644 131.753 L 54.644 131.753 Z " fill="rgb(223,226,244)"/><path d=" M 54.644 119.705 L 57.552 119.705 L 57.552 131.753 L 54.644 131.753 L 54.644 119.705 L 54.644 119.705 Z  M 58.921 119.705 L 61.991 119.705 L 61.991 131.753 L 58.921 131.753 L 58.921 119.705 L 58.921 119.705 Z  M 63.359 119.705 L 66.475 119.705 L 66.475 131.753 L 63.359 131.753 L 63.359 119.705 L 63.359 119.705 Z  M 67.844 119.705 L 70.705 119.705 L 70.705 131.753 L 67.844 131.753 L 67.844 119.705 L 67.844 119.705 Z  M 72.076 131.753 L 72.076 118.336 L 53.273 118.336 L 53.273 131.753 L 51.905 131.753 L 51.905 134.583 L 73.445 134.583 L 73.445 131.753 L 72.076 131.753 L 72.076 131.753 Z " fill="rgb(42,41,40)"/><path d=" M 51.905 126.14 L 51.905 131.753 L 53.273 131.753 L 53.273 127.508 L 72.076 127.508 L 72.076 131.753 L 73.445 131.753 L 73.445 127.508 L 73.445 126.14 L 51.905 126.14 Z " fill="rgb(139,140,139)"/><path d=" M 25.565 152.941 L 41.628 152.941 L 41.628 140.893 L 25.565 140.893 L 25.565 152.941 Z " fill="rgb(223,226,244)"/><path d=" M 25.565 140.893 L 28.473 140.893 L 28.473 152.941 L 25.565 152.941 L 25.565 140.893 L 25.565 140.893 Z  M 29.843 140.893 L 32.912 140.893 L 32.912 152.941 L 29.843 152.941 L 29.843 140.893 L 29.843 140.893 Z  M 34.281 140.893 L 37.396 140.893 L 37.396 152.941 L 34.281 152.941 L 34.281 140.893 L 34.281 140.893 Z  M 38.764 140.893 L 41.628 140.893 L 41.628 152.941 L 38.764 152.941 L 38.764 140.893 L 38.764 140.893 Z  M 42.997 152.941 L 42.997 139.524 L 24.196 139.524 L 24.196 152.941 L 22.827 152.941 L 22.827 155.769 L 44.367 155.769 L 44.367 152.941 L 42.997 152.941 Z " fill="rgb(42,41,40)"/><path d=" M 22.827 147.328 L 22.827 152.941 L 24.196 152.941 L 24.196 148.697 L 42.997 148.697 L 42.997 152.941 L 44.367 152.941 L 44.367 148.697 L 44.367 147.328 L 22.827 147.328 Z " fill="rgb(139,140,139)"/><path d=" M 83.601 152.941 L 99.664 152.941 L 99.664 140.893 L 83.601 140.893 L 83.601 152.941 Z " fill="rgb(223,226,244)"/><path d=" M 83.601 140.893 L 86.511 140.893 L 86.511 152.941 L 83.601 152.941 L 83.601 140.893 L 83.601 140.893 Z  M 87.879 140.893 L 90.949 140.893 L 90.949 152.941 L 87.879 152.941 L 87.879 140.893 L 87.879 140.893 Z  M 92.316 140.893 L 95.431 140.893 L 95.431 152.941 L 92.316 152.941 L 92.316 140.893 L 92.316 140.893 Z  M 96.803 140.893 L 99.664 140.893 L 99.664 152.941 L 96.803 152.941 L 96.803 140.893 L 96.803 140.893 Z  M 101.035 152.941 L 101.035 139.524 L 82.232 139.524 L 82.232 152.941 L 80.863 152.941 L 80.863 155.769 L 102.403 155.769 L 102.403 152.941 L 101.035 152.941 Z " fill="rgb(42,41,40)"/><path d=" M 80.863 147.328 L 80.863 152.941 L 82.232 152.941 L 82.232 148.697 L 101.035 148.697 L 101.035 152.941 L 102.403 152.941 L 102.403 148.697 L 102.403 147.328 L 80.863 147.328 L 80.863 147.328 Z " fill="rgb(139,140,139)"/><path d=" M 54.644 152.941 L 70.705 152.941 L 70.705 140.893 L 54.644 140.893 L 54.644 152.941 Z " fill="rgb(223,226,244)"/><path d=" M 54.644 140.893 L 57.552 140.893 L 57.552 152.941 L 54.644 152.941 L 54.644 140.893 L 54.644 140.893 Z  M 58.921 140.893 L 61.991 140.893 L 61.991 152.941 L 58.921 152.941 L 58.921 140.893 L 58.921 140.893 Z  M 63.359 140.893 L 66.475 140.893 L 66.475 152.941 L 63.359 152.941 L 63.359 140.893 L 63.359 140.893 Z  M 67.844 140.893 L 70.705 140.893 L 70.705 152.941 L 67.844 152.941 L 67.844 140.893 L 67.844 140.893 Z  M 72.076 152.941 L 72.076 139.524 L 53.273 139.524 L 53.273 152.941 L 51.905 152.941 L 51.905 155.769 L 73.445 155.769 L 73.445 152.941 L 72.076 152.941 Z " fill="rgb(42,41,40)"/><path d=" M 51.905 147.328 L 51.905 152.941 L 53.273 152.941 L 53.273 148.697 L 72.076 148.697 L 72.076 152.941 L 73.445 152.941 L 73.445 148.697 L 73.445 147.328 L 51.905 147.328 L 51.905 147.328 Z " fill="rgb(139,140,139)"/><path d=" M 25.565 174.129 L 41.628 174.129 L 41.628 162.081 L 25.565 162.081 L 25.565 174.129 L 25.565 174.129 Z " fill="rgb(223,226,244)"/><path d=" M 25.565 162.081 L 28.473 162.081 L 28.473 174.129 L 25.565 174.129 L 25.565 162.081 L 25.565 162.081 Z  M 29.843 162.081 L 32.912 162.081 L 32.912 174.129 L 29.843 174.129 L 29.843 162.081 L 29.843 162.081 Z  M 34.281 162.081 L 37.396 162.081 L 37.396 174.129 L 34.281 174.129 L 34.281 162.081 L 34.281 162.081 Z  M 38.764 162.081 L 41.628 162.081 L 41.628 174.129 L 38.764 174.129 L 38.764 162.081 L 38.764 162.081 Z  M 42.997 174.129 L 42.997 160.712 L 24.196 160.712 L 24.196 174.129 L 22.827 174.129 L 22.827 176.956 L 44.367 176.956 L 44.367 174.129 L 42.997 174.129 L 42.997 174.129 Z " fill="rgb(42,41,40)"/><path d=" M 22.827 168.516 L 22.827 174.129 L 24.196 174.129 L 24.196 169.887 L 42.997 169.887 L 42.997 174.129 L 44.367 174.129 L 44.367 169.887 L 44.367 168.516 L 22.827 168.516 Z " fill="rgb(139,140,139)"/><path d=" M 83.601 174.129 L 99.664 174.129 L 99.664 162.081 L 83.601 162.081 L 83.601 174.129 L 83.601 174.129 Z " fill="rgb(223,226,244)"/><path d=" M 83.601 162.081 L 86.511 162.081 L 86.511 174.129 L 83.601 174.129 L 83.601 162.081 L 83.601 162.081 Z  M 87.879 162.081 L 90.949 162.081 L 90.949 174.129 L 87.879 174.129 L 87.879 162.081 L 87.879 162.081 Z  M 92.316 162.081 L 95.431 162.081 L 95.431 174.129 L 92.316 174.129 L 92.316 162.081 L 92.316 162.081 Z  M 96.803 162.081 L 99.664 162.081 L 99.664 174.129 L 96.803 174.129 L 96.803 162.081 L 96.803 162.081 Z  M 101.035 174.129 L 101.035 160.712 L 82.232 160.712 L 82.232 174.129 L 80.863 174.129 L 80.863 176.956 L 102.403 176.956 L 102.403 174.129 L 101.035 174.129 L 101.035 174.129 Z " fill="rgb(42,41,40)"/><path d=" M 80.863 168.516 L 80.863 174.129 L 82.232 174.129 L 82.232 169.887 L 101.035 169.887 L 101.035 174.129 L 102.403 174.129 L 102.403 169.887 L 102.403 168.516 L 80.863 168.516 L 80.863 168.516 Z " fill="rgb(139,140,139)"/><path d=" M 48.119 165.729 L 48.119 170.828 L 62.673 170.828 L 62.673 165.729 L 48.119 165.729 L 48.119 165.729 Z " fill="rgb(139,140,139)"/><path d=" M 77.229 165.729 L 62.673 165.729 L 62.673 170.828 L 77.229 170.828 L 77.229 165.729 L 77.229 165.729 Z " fill="rgb(99,101,102)"/><path d=" M 57.447 172.199 L 57.447 180.156 L 61.537 184.245 L 61.991 184.245 L 61.991 172.199 L 57.447 172.199 Z " fill="rgb(162,165,181)"/><path d=" M 56.077 172.199 L 51.695 172.199 L 51.695 174.403 L 56.077 178.784 L 56.077 172.199 Z " fill="rgb(162,165,181)"/><path d=" M 51.695 174.403 L 51.695 184.245 L 56.077 184.245 L 56.077 178.784 L 51.695 174.403 L 51.695 174.403 Z " fill="rgb(223,226,244)"/><path d=" M 57.447 184.245 L 61.537 184.245 L 57.447 180.156 L 57.447 184.245 L 57.447 184.245 Z " fill="rgb(223,226,244)"/><path d=" M 63.359 172.199 L 63.359 184.245 L 67.947 184.245 L 67.947 172.199 L 63.359 172.199 L 63.359 172.199 Z " fill="rgb(162,165,181)"/><path d=" M 69.316 172.199 L 69.316 184.245 L 73.652 184.245 L 73.652 172.199 L 69.316 172.199 L 69.316 172.199 Z " fill="rgb(162,165,181)"/><path d=" M 50.324 170.828 L 50.324 173.033 L 51.695 174.403 L 51.695 172.199 L 56.077 172.199 L 57.447 172.199 L 61.991 172.199 L 63.359 172.199 L 67.947 172.199 L 69.316 172.199 L 73.652 172.199 L 73.652 184.245 L 75.023 184.245 L 75.023 170.828 L 50.324 170.828 Z " fill="rgb(26,24,23)"/><path d=" M 50.324 173.033 L 50.324 184.245 L 51.695 184.245 L 51.695 174.403 L 50.324 173.033 L 50.324 173.033 Z " fill="rgb(42,41,40)"/><path d=" M 57.447 180.156 L 57.447 172.199 L 56.077 172.199 L 56.077 178.784 L 57.447 180.156 L 57.447 180.156 Z " fill="rgb(42,41,40)"/><path d=" M 56.077 178.784 L 56.077 184.245 L 57.447 184.245 L 57.447 180.156 L 56.077 178.784 L 56.077 178.784 Z " fill="rgb(42,41,40)"/><path d=" M 61.991 172.199 L 61.991 184.245 L 63.359 184.245 L 63.359 172.199 L 61.991 172.199 L 61.991 172.199 Z " fill="rgb(42,41,40)"/><path d=" M 67.947 172.199 L 67.947 184.245 L 69.316 184.245 L 69.316 172.199 L 67.947 172.199 L 67.947 172.199 Z " fill="rgb(42,41,40)"/><path d=" M 94.435 10.933 L 94.105 10.933 L 92.183 36.929 L 96.36 36.929 L 94.435 10.933 L 94.435 10.933 Z " fill="rgb(152,153,153)"/><path d=" M 88.935 36.929 L 88.935 41.304 L 94.271 41.304 L 94.271 36.929 L 88.935 36.929 L 88.935 36.929 Z " fill="rgb(229,229,228)"/><path d=" M 99.607 36.929 L 94.271 36.929 L 94.271 41.304 L 99.607 41.304 L 99.607 36.929 L 99.607 36.929 Z " fill="rgb(168,168,166)"/><path d=" M 68.357 34.811 L 85.861 34.811 L 85.861 41.304 L 68.357 41.304 L 68.357 34.811 L 68.357 34.811 Z " fill="rgb(168,168,166)"/><line x1="-223.102" y1="389.96" x2="-223.102" y2="394"/><path d=" M -223.114 387.417 L -223.114 389.96 L -223.102 389.96 L -223.102 387.417 L -223.114 387.417 L -223.114 387.417 Z " fill="rgb(55,68,75)"/><line x1="-223.102" y1="387.417" x2="-223.102" y2="389.96"/></g></g></g></g></svg>