<?xml version="1.0" standalone="no"?><!-- Generator: Gravit.io --><svg xmlns="http://www.w3.org/2000/svg" xmlns:xlink="http://www.w3.org/1999/xlink" style="isolation:isolate" viewBox="0 0 150 260" width="150" height="260"><defs><clipPath id="_clipPath_MFkyR8iy5ITFEJZPGhZh8DpjcZ2Trfg1"><rect width="150" height="260"/></clipPath></defs><g clip-path="url(#_clipPath_MFkyR8iy5ITFEJZPGhZh8DpjcZ2Trfg1)"><clipPath id="_clipPath_gRLJBaSpBWUTS2iNVQsJiC8QaLca7LoJ"><rect x="0" y="9" width="150" height="260" transform="matrix(1,0,0,1,0,0)" fill="rgb(255,255,255)"/></clipPath><g clip-path="url(#_clipPath_gRLJBaSpBWUTS2iNVQsJiC8QaLca7LoJ)"><g><clipPath id="_clipPath_GK5ygdC4tw1TBhguac5aGKi6gqHfgiZ6"><rect x="0" y="9" width="150" height="250" transform="matrix(1,0,0,1,0,0)" fill="rgb(255,255,255)"/></clipPath><g clip-path="url(#_clipPath_GK5ygdC4tw1TBhguac5aGKi6gqHfgiZ6)"><g><g><g><path d=" M 129.569 245.998 L 20.497 245.998 L 20.497 48.599 L 129.569 48.599 L 129.569 245.998 Z " fill="rgb(130,0,28)"/><path d=" M 129.503 40 L 20.431 40 L 20.431 31.402 L 129.503 31.402 L 129.503 40 Z " fill="rgb(130,0,28)"/><path d=" M 125.478 48.599 L 24.588 48.599 L 24.588 40 L 125.478 40 L 125.478 48.599 L 125.478 48.599 Z " fill="rgb(100,1,23)"/><path d=" M 129.505 254.598 L 20.433 254.598 L 20.433 245.998 L 129.505 245.998 L 129.505 254.598 L 129.505 254.598 Z " fill="rgb(100,1,23)"/><path d=" M 61.836 115.542 L 88.101 115.542 L 88.101 106.114 L 61.836 106.114 L 61.836 115.542 L 61.836 115.542 Z " fill="rgb(84,85,87)"/><path d=" M 88.101 115.542 L 61.836 115.542 L 61.836 106.114 L 88.101 106.114 L 88.101 115.542 L 88.101 115.542 Z  M 58.888 103.166 L 58.888 118.49 L 91.049 118.49 L 91.049 103.166 L 58.888 103.166 L 58.888 103.166 Z " fill="rgb(100,1,23)"/><path d=" M 88.1 115.542 L 61.835 115.542 L 61.835 106.114 L 88.1 106.114 L 88.1 115.542 L 88.1 115.542 Z  M 58.887 103.166 L 58.887 118.49 L 91.048 118.49 L 91.048 103.166 L 58.887 103.166 L 58.887 103.166 Z " fill="rgb(100,1,23)"/><path d=" M 61.836 138.527 L 88.101 138.527 L 88.101 129.098 L 61.836 129.098 L 61.836 138.527 L 61.836 138.527 Z " fill="rgb(84,85,87)"/><path d=" M 88.101 138.527 L 61.836 138.527 L 61.836 129.098 L 88.101 129.098 L 88.101 138.527 L 88.101 138.527 Z  M 58.888 126.151 L 58.888 141.475 L 91.049 141.475 L 91.049 126.151 L 58.888 126.151 L 58.888 126.151 Z " fill="rgb(100,1,23)"/><path d=" M 61.836 161.514 L 88.101 161.514 L 88.101 152.086 L 61.836 152.086 L 61.836 161.514 L 61.836 161.514 Z " fill="rgb(84,85,87)"/><path d=" M 88.101 161.514 L 61.836 161.514 L 61.836 152.086 L 88.101 152.086 L 88.101 161.514 L 88.101 161.514 Z  M 58.888 149.138 L 58.888 164.462 L 91.049 164.462 L 91.049 149.138 L 58.888 149.138 Z " fill="rgb(100,1,23)"/><path d=" M 61.836 184.498 L 88.101 184.498 L 88.101 175.07 L 61.836 175.07 L 61.836 184.498 L 61.836 184.498 Z " fill="rgb(84,85,87)"/><path d=" M 88.101 184.498 L 61.836 184.498 L 61.836 175.07 L 88.101 175.07 L 88.101 184.498 L 88.101 184.498 Z  M 58.888 172.122 L 58.888 187.446 L 91.049 187.446 L 91.049 172.122 L 58.888 172.122 L 58.888 172.122 Z " fill="rgb(100,1,23)"/><path d=" M 61.836 207.486 L 88.101 207.486 L 88.101 198.056 L 61.836 198.056 L 61.836 207.486 L 61.836 207.486 Z " fill="rgb(84,85,87)"/><path d=" M 88.101 207.486 L 61.836 207.486 L 61.836 198.056 L 88.101 198.056 L 88.101 207.486 L 88.101 207.486 Z  M 58.888 195.108 L 58.888 210.432 L 91.049 210.432 L 91.049 195.108 L 58.888 195.108 L 58.888 195.108 Z " fill="rgb(100,1,23)"/><path d=" M 101.041 109.641 L 94.568 109.641 L 94.568 103.166 L 101.041 103.166 L 101.041 109.641 L 101.041 109.641 Z " fill="rgb(84,85,87)"/><path d=" M 101.041 118.479 L 94.568 118.479 L 94.568 112.005 L 101.041 112.005 L 101.041 118.479 L 101.041 118.479 Z " fill="rgb(100,1,23)"/><path d=" M 120.072 118.465 L 104.773 118.465 L 104.773 103.166 L 120.072 103.166 L 120.072 118.465 L 120.072 118.465 Z " fill="rgb(84,85,87)"/><path d=" M 88.101 93.014 L 61.836 93.014 L 61.836 83.586 L 88.101 83.586 L 88.101 93.014 L 88.101 93.014 Z " fill="rgb(84,85,87)"/><path d=" M 88.165 70.052 L 61.9 70.052 L 61.9 60.624 L 88.165 60.624 L 88.165 70.052 L 88.165 70.052 Z " fill="rgb(84,85,87)"/><path d=" M 101.041 132.631 L 94.568 132.631 L 94.568 126.155 L 101.041 126.155 L 101.041 132.631 L 101.041 132.631 Z " fill="rgb(84,85,87)"/><path d=" M 101.041 141.469 L 94.568 141.469 L 94.568 134.994 L 101.041 134.994 L 101.041 141.469 L 101.041 141.469 Z " fill="rgb(100,1,23)"/><path d=" M 120.072 141.454 L 104.773 141.454 L 104.773 126.155 L 120.072 126.155 L 120.072 141.454 L 120.072 141.454 Z " fill="rgb(84,85,87)"/><path d=" M 101.041 155.618 L 94.568 155.618 L 94.568 149.144 L 101.041 149.144 L 101.041 155.618 L 101.041 155.618 Z " fill="rgb(84,85,87)"/><path d=" M 101.041 164.455 L 94.568 164.455 L 94.568 157.982 L 101.041 157.982 L 101.041 164.455 L 101.041 164.455 Z " fill="rgb(100,1,23)"/><path d=" M 120.072 164.441 L 104.773 164.441 L 104.773 149.144 L 120.072 149.144 L 120.072 164.441 L 120.072 164.441 Z " fill="rgb(84,85,87)"/><path d=" M 101.041 178.602 L 94.568 178.602 L 94.568 172.127 L 101.041 172.127 L 101.041 178.602 L 101.041 178.602 Z " fill="rgb(84,85,87)"/><path d=" M 101.041 187.439 L 94.568 187.439 L 94.568 180.966 L 101.041 180.966 L 101.041 187.439 L 101.041 187.439 Z " fill="rgb(100,1,23)"/><path d=" M 120.072 187.426 L 104.773 187.426 L 104.773 172.127 L 120.072 172.127 L 120.072 187.426 L 120.072 187.426 Z " fill="rgb(84,85,87)"/><path d=" M 101.041 201.59 L 94.568 201.59 L 94.568 195.115 L 101.041 195.115 L 101.041 201.59 L 101.041 201.59 Z " fill="rgb(84,85,87)"/><path d=" M 101.041 210.427 L 94.568 210.427 L 94.568 203.953 L 101.041 203.953 L 101.041 210.427 L 101.041 210.427 Z " fill="rgb(100,1,23)"/><path d=" M 120.072 210.413 L 104.773 210.413 L 104.773 195.115 L 120.072 195.115 L 120.072 210.413 L 120.072 210.413 Z " fill="rgb(84,85,87)"/><path d=" M 48.774 109.641 L 55.248 109.641 L 55.248 103.166 L 48.774 103.166 L 48.774 109.641 L 48.774 109.641 Z " fill="rgb(84,85,87)"/><path d=" M 48.774 118.479 L 55.248 118.479 L 55.248 112.005 L 48.774 112.005 L 48.774 118.479 L 48.774 118.479 Z " fill="rgb(100,1,23)"/><path d=" M 29.746 118.465 L 45.044 118.465 L 45.044 103.166 L 29.746 103.166 L 29.746 118.465 L 29.746 118.465 Z " fill="rgb(84,85,87)"/><path d=" M 48.774 132.631 L 55.248 132.631 L 55.248 126.155 L 48.774 126.155 L 48.774 132.631 L 48.774 132.631 Z " fill="rgb(84,85,87)"/><path d=" M 48.774 141.469 L 55.248 141.469 L 55.248 134.994 L 48.774 134.994 L 48.774 141.469 L 48.774 141.469 Z " fill="rgb(100,1,23)"/><path d=" M 29.746 141.454 L 45.044 141.454 L 45.044 126.155 L 29.746 126.155 L 29.746 141.454 L 29.746 141.454 Z " fill="rgb(84,85,87)"/><path d=" M 48.774 155.618 L 55.248 155.618 L 55.248 149.144 L 48.774 149.144 L 48.774 155.618 L 48.774 155.618 Z " fill="rgb(84,85,87)"/><path d=" M 48.774 164.455 L 55.248 164.455 L 55.248 157.982 L 48.774 157.982 L 48.774 164.455 L 48.774 164.455 Z " fill="rgb(100,1,23)"/><path d=" M 29.746 164.441 L 45.044 164.441 L 45.044 149.144 L 29.746 149.144 L 29.746 164.441 L 29.746 164.441 Z " fill="rgb(84,85,87)"/><path d=" M 48.774 178.602 L 55.248 178.602 L 55.248 172.127 L 48.774 172.127 L 48.774 178.602 L 48.774 178.602 Z " fill="rgb(84,85,87)"/><path d=" M 48.774 187.439 L 55.248 187.439 L 55.248 180.966 L 48.774 180.966 L 48.774 187.439 L 48.774 187.439 Z " fill="rgb(100,1,23)"/><path d=" M 29.746 187.426 L 45.044 187.426 L 45.044 172.127 L 29.746 172.127 L 29.746 187.426 L 29.746 187.426 Z " fill="rgb(84,85,87)"/><path d=" M 48.774 201.59 L 55.248 201.59 L 55.248 195.115 L 48.774 195.115 L 48.774 201.59 L 48.774 201.59 Z " fill="rgb(84,85,87)"/><path d=" M 48.774 210.427 L 55.248 210.427 L 55.248 203.953 L 48.774 203.953 L 48.774 210.427 L 48.774 210.427 Z " fill="rgb(100,1,23)"/><path d=" M 29.746 210.413 L 45.044 210.413 L 45.044 195.115 L 29.746 195.115 L 29.746 210.413 L 29.746 210.413 Z " fill="rgb(84,85,87)"/><path d=" M 29.746 233.386 L 45.044 233.386 L 45.044 218.089 L 29.746 218.089 L 29.746 233.386 L 29.746 233.386 Z " fill="rgb(84,85,87)"/><path d=" M 104.773 233.386 L 120.072 233.386 L 120.072 218.089 L 104.773 218.089 L 104.773 233.386 L 104.773 233.386 Z " fill="rgb(84,85,87)"/><path d=" M 27.984 112.005 L 27.984 118.465 L 37.394 118.465 L 37.394 112.005 L 27.984 112.005 L 27.984 112.005 Z " fill="rgb(162,172,153)"/><path d=" M 46.804 112.005 L 37.394 112.005 L 37.394 118.465 L 46.804 118.465 L 46.804 112.005 L 46.804 112.005 Z " fill="rgb(118,126,114)"/><path d=" M 46.804 141.463 L 46.804 135.002 L 37.394 135.002 L 37.394 141.463 L 46.804 141.463 L 46.804 141.463 Z " fill="rgb(118,126,114)"/><path d=" M 27.984 141.463 L 37.394 141.463 L 37.394 135.002 L 27.984 135.002 L 27.984 141.463 L 27.984 141.463 Z " fill="rgb(162,172,153)"/><path d=" M 46.804 164.45 L 46.804 157.99 L 37.394 157.99 L 37.394 164.45 L 46.804 164.45 L 46.804 164.45 Z " fill="rgb(118,126,114)"/><path d=" M 27.984 164.45 L 37.394 164.45 L 37.394 157.99 L 27.984 157.99 L 27.984 164.45 L 27.984 164.45 Z " fill="rgb(162,172,153)"/><path d=" M 46.804 187.434 L 46.804 180.975 L 37.394 180.975 L 37.394 187.434 L 46.804 187.434 L 46.804 187.434 Z " fill="rgb(118,126,114)"/><path d=" M 27.984 187.434 L 37.394 187.434 L 37.394 180.975 L 27.984 180.975 L 27.984 187.434 L 27.984 187.434 Z " fill="rgb(162,172,153)"/><path d=" M 27.984 210.422 L 37.394 210.422 L 37.394 203.962 L 27.984 203.962 L 27.984 210.422 L 27.984 210.422 Z " fill="rgb(162,172,153)"/><path d=" M 46.804 210.422 L 46.804 203.962 L 37.394 203.962 L 37.394 210.422 L 46.804 210.422 L 46.804 210.422 Z " fill="rgb(118,126,114)"/><path d=" M 121.833 112.005 L 112.421 112.005 L 112.421 118.465 L 121.833 118.465 L 121.833 112.005 L 121.833 112.005 Z " fill="rgb(118,126,114)"/><path d=" M 103.014 112.005 L 103.014 118.465 L 112.421 118.465 L 112.421 112.005 L 103.014 112.005 L 103.014 112.005 Z " fill="rgb(162,172,153)"/><path d=" M 88.165 93.014 L 61.9 93.014 L 61.9 83.586 L 88.165 83.586 L 88.165 93.014 L 88.165 93.014 Z  M 58.952 80.638 L 58.952 95.962 L 91.113 95.962 L 91.113 80.638 L 58.952 80.638 L 58.952 80.638 Z " fill="rgb(100,1,23)"/><path d=" M 101.105 87.113 L 94.632 87.113 L 94.632 80.638 L 101.105 80.638 L 101.105 87.113 L 101.105 87.113 Z " fill="rgb(84,85,87)"/><path d=" M 101.105 95.951 L 94.632 95.951 L 94.632 89.477 L 101.105 89.477 L 101.105 95.951 L 101.105 95.951 Z " fill="rgb(100,1,23)"/><path d=" M 120.136 95.937 L 104.837 95.937 L 104.837 80.638 L 120.136 80.638 L 120.136 95.937 L 120.136 95.937 Z " fill="rgb(84,85,87)"/><path d=" M 48.838 87.113 L 55.312 87.113 L 55.312 80.638 L 48.838 80.638 L 48.838 87.113 L 48.838 87.113 Z " fill="rgb(84,85,87)"/><path d=" M 48.838 95.951 L 55.312 95.951 L 55.312 89.477 L 48.838 89.477 L 48.838 95.951 L 48.838 95.951 Z " fill="rgb(100,1,23)"/><path d=" M 29.809 95.937 L 45.107 95.937 L 45.107 80.638 L 29.809 80.638 L 29.809 95.937 L 29.809 95.937 Z " fill="rgb(84,85,87)"/><path d=" M 28.048 89.477 L 28.048 95.937 L 37.458 95.937 L 37.458 89.477 L 28.048 89.477 L 28.048 89.477 Z " fill="rgb(162,172,153)"/><path d=" M 46.868 89.477 L 37.458 89.477 L 37.458 95.937 L 46.868 95.937 L 46.868 89.477 L 46.868 89.477 Z " fill="rgb(118,126,114)"/><path d=" M 121.897 89.477 L 112.485 89.477 L 112.485 95.937 L 121.897 95.937 L 121.897 89.477 L 121.897 89.477 Z " fill="rgb(118,126,114)"/><path d=" M 103.078 89.477 L 103.078 95.937 L 112.485 95.937 L 112.485 89.477 L 103.078 89.477 L 103.078 89.477 Z " fill="rgb(162,172,153)"/><path d=" M 88.165 70.052 L 61.9 70.052 L 61.9 60.624 L 88.165 60.624 L 88.165 70.052 L 88.165 70.052 Z  M 58.952 57.676 L 58.952 73 L 91.113 73 L 91.113 57.676 L 58.952 57.676 L 58.952 57.676 Z " fill="rgb(100,1,23)"/><path d=" M 101.105 64.151 L 94.632 64.151 L 94.632 57.676 L 101.105 57.676 L 101.105 64.151 L 101.105 64.151 Z " fill="rgb(84,85,87)"/><path d=" M 101.105 72.989 L 94.632 72.989 L 94.632 66.515 L 101.105 66.515 L 101.105 72.989 L 101.105 72.989 Z " fill="rgb(100,1,23)"/><path d=" M 120.136 72.975 L 104.837 72.975 L 104.837 57.676 L 120.136 57.676 L 120.136 72.975 L 120.136 72.975 Z " fill="rgb(84,85,87)"/><path d=" M 48.838 64.151 L 55.312 64.151 L 55.312 57.676 L 48.838 57.676 L 48.838 64.151 L 48.838 64.151 Z " fill="rgb(84,85,87)"/><path d=" M 48.838 72.989 L 55.312 72.989 L 55.312 66.515 L 48.838 66.515 L 48.838 72.989 L 48.838 72.989 Z " fill="rgb(100,1,23)"/><path d=" M 29.809 72.975 L 45.107 72.975 L 45.107 57.676 L 29.809 57.676 L 29.809 72.975 L 29.809 72.975 Z " fill="rgb(84,85,87)"/><path d=" M 28.048 66.515 L 28.048 72.975 L 37.458 72.975 L 37.458 66.515 L 28.048 66.515 L 28.048 66.515 Z " fill="rgb(162,172,153)"/><path d=" M 46.868 66.515 L 37.458 66.515 L 37.458 72.975 L 46.868 72.975 L 46.868 66.515 L 46.868 66.515 Z " fill="rgb(118,126,114)"/><path d=" M 121.897 66.515 L 112.485 66.515 L 112.485 72.975 L 121.897 72.975 L 121.897 66.515 L 121.897 66.515 Z " fill="rgb(118,126,114)"/><path d=" M 103.078 66.515 L 103.078 72.975 L 112.485 72.975 L 112.485 66.515 L 103.078 66.515 L 103.078 66.515 Z " fill="rgb(162,172,153)"/><path d=" M 121.833 141.463 L 121.833 135.002 L 112.421 135.002 L 112.421 141.463 L 121.833 141.463 L 121.833 141.463 Z " fill="rgb(118,126,114)"/><path d=" M 103.014 141.463 L 112.421 141.463 L 112.421 135.002 L 103.014 135.002 L 103.014 141.463 L 103.014 141.463 Z " fill="rgb(162,172,153)"/><path d=" M 103.014 164.45 L 112.421 164.45 L 112.421 157.99 L 103.014 157.99 L 103.014 164.45 L 103.014 164.45 Z " fill="rgb(162,172,153)"/><path d=" M 121.833 164.45 L 121.833 157.99 L 112.421 157.99 L 112.421 164.45 L 121.833 164.45 L 121.833 164.45 Z " fill="rgb(118,126,114)"/><path d=" M 121.833 187.434 L 121.833 180.975 L 112.421 180.975 L 112.421 187.434 L 121.833 187.434 L 121.833 187.434 Z " fill="rgb(118,126,114)"/><path d=" M 103.014 187.434 L 112.421 187.434 L 112.421 180.975 L 103.014 180.975 L 103.014 187.434 L 103.014 187.434 Z " fill="rgb(162,172,153)"/><path d=" M 121.833 210.422 L 121.833 203.962 L 112.421 203.962 L 112.421 210.422 L 121.833 210.422 L 121.833 210.422 Z " fill="rgb(118,126,114)"/><path d=" M 103.014 210.422 L 112.421 210.422 L 112.421 203.962 L 103.014 203.962 L 103.014 210.422 L 103.014 210.422 Z " fill="rgb(162,172,153)"/><path d=" M 90.5 245.998 L 59.434 245.998 L 59.434 218.089 L 90.5 218.089 L 90.5 245.998 Z " fill="rgb(84,85,87)"/><path d=" M 79.81 234.384 L 78.622 234.384 L 78.622 231.054 L 79.81 231.054 L 79.81 234.384 L 79.81 234.384 Z " fill="rgb(222,236,208)"/><path d=" M 71.318 234.384 L 70.126 234.384 L 70.126 231.054 L 71.318 231.054 L 71.318 234.384 L 71.318 234.384 Z " fill="rgb(222,236,208)"/><path d=" M 87.137 218.089 L 87.137 222.218 L 75.752 222.218 L 75.752 218.089 L 74.189 218.089 L 74.189 222.218 L 62.805 222.218 L 62.805 218.089 L 61.244 218.089 L 61.244 245.998 L 62.805 245.998 L 62.805 223.782 L 74.189 223.782 L 74.189 245.998 L 75.752 245.998 L 75.752 223.782 L 87.137 223.782 L 87.137 245.998 L 88.7 245.998 L 88.7 218.089 L 87.137 218.089 L 87.137 218.089 Z " fill="rgb(100,1,23)"/><path d=" M 90.5 245.998 L 59.434 245.998 L 59.434 250.295 L 90.5 250.295 L 90.5 245.998 Z " fill="rgb(244,249,239)"/><path d=" M 59.434 250.295 L 59.434 254.598 L 90.5 254.598 L 90.5 250.295 L 59.434 250.295 Z " fill="rgb(100,1,23)"/></g></g></g></g></g></g></g></svg>