<?xml version="1.0" standalone="no"?><!-- Generator: Gravit.io --><svg xmlns="http://www.w3.org/2000/svg" xmlns:xlink="http://www.w3.org/1999/xlink" style="isolation:isolate" viewBox="0 0 200 180" width="200" height="180"><defs><clipPath id="_clipPath_k4goSoNGCwytu440SlSMCCTmOdpWgoQY"><rect width="200" height="180"/></clipPath></defs><g clip-path="url(#_clipPath_k4goSoNGCwytu440SlSMCCTmOdpWgoQY)"><g><path d=" M 106.593 41.555 L 92.617 38.835 L 92.617 15.677 L 106.593 15.677 L 106.593 41.555 Z " fill="rgb(183,182,181)"/><path d=" M 108.367 24.42 L 90.843 24.42 L 90.843 15.677 L 108.367 15.677 L 108.367 24.42 Z " fill="rgb(229,229,228)"/><path d=" M 106.593 24.42 L 92.617 24.42 L 96.23 28.031 L 106.593 28.031 L 106.593 24.42" fill="rgb(133,134,134)"/><path d=" M 16.609 53.804 L 16.609 160.052 L 115.159 160.052 L 115.159 53.773 L 65.882 28.616 L 16.609 53.804 Z " fill="rgb(227,178,98)"/><path d=" M 65.882 24.384 L 16.609 49.641 L 16.609 53.804 L 65.882 28.616 L 115.159 53.773 L 115.159 49.609 L 65.882 24.384" fill="rgb(167,132,75)"/><path d=" M 115.159 146.807 L 16.609 146.807 L 16.609 160.052 L 115.159 160.052 L 115.159 146.807 Z " fill="rgb(109,32,23)"/><path d=" M 78.569 122.901 L 56.191 122.901 L 56.191 146.807 L 102.476 146.807 L 78.569 122.901 Z " fill="rgb(167,132,75)"/><path d=" M 56.191 146.807 L 56.191 160.052 L 115.157 160.069 L 115.16 159.491 L 102.476 146.807 L 56.191 146.807 Z " fill="rgb(48,23,19)"/><path d=" M 65.882 19.52 L 13.174 47.436 L 13.174 52.54 L 65.882 24.621 L 65.882 19.52 L 65.882 19.52 Z " fill="rgb(75,123,199)"/><path d=" M 65.882 19.52 L 65.882 24.621 L 118.592 52.54 L 118.592 47.436 L 65.882 19.52" fill="rgb(51,93,168)"/><path d=" M 32.056 96.148 L 42.81 96.148 L 42.81 81.335 L 32.056 81.335 L 32.056 96.148 Z " fill="rgb(109,110,112)"/><path d=" M 42.81 96.148 L 38.359 96.148 L 38.359 81.335 L 42.81 81.335 L 42.81 96.148 Z  M 32.056 96.148 L 32.056 81.335 L 36.507 81.335 L 36.507 96.148 L 32.056 96.148 Z  M 30.205 79.483 L 30.205 98 L 44.661 98 L 44.661 79.483 L 30.205 79.483 Z " fill="rgb(255,255,255)"/><path d=" M 60.507 96.148 L 71.26 96.148 L 71.26 81.335 L 60.507 81.335 L 60.507 96.148 Z " fill="rgb(109,110,112)"/><path d=" M 71.26 96.148 L 66.81 96.148 L 66.81 81.335 L 71.26 81.335 L 71.26 96.148 Z  M 60.507 96.148 L 60.507 81.335 L 64.957 81.335 L 64.957 96.148 L 60.507 96.148 Z  M 58.656 79.483 L 58.656 98 L 73.111 98 L 73.111 79.483 L 58.656 79.483" fill="rgb(255,255,255)"/><path d=" M 88.851 96.148 L 99.605 96.148 L 99.605 81.335 L 88.851 81.335 L 88.851 96.148 Z " fill="rgb(109,110,112)"/><path d=" M 99.605 96.148 L 95.154 96.148 L 95.154 81.335 L 99.605 81.335 L 99.605 96.148 Z  M 88.851 96.148 L 88.851 81.335 L 93.302 81.335 L 93.302 96.148 L 88.851 96.148 Z  M 87 79.483 L 87 98 L 101.456 98 L 101.456 79.483 L 87 79.483" fill="rgb(255,255,255)"/><path d=" M 32.056 126.396 L 42.81 126.396 L 42.81 111.581 L 32.056 111.581 L 32.056 126.396" fill="rgb(109,110,112)"/><path d=" M 42.81 126.396 L 38.359 126.396 L 38.359 111.581 L 42.81 111.581 L 42.81 126.396 Z  M 32.056 126.396 L 32.056 111.581 L 36.507 111.581 L 36.507 126.396 L 32.056 126.396 Z  M 30.205 109.731 L 30.205 128.247 L 44.661 128.247 L 44.661 109.731 L 30.205 109.731 Z " fill="rgb(255,255,255)"/><path d=" M 88.851 126.396 L 99.605 126.396 L 99.605 111.581 L 88.851 111.581 L 88.851 126.396" fill="rgb(109,110,112)"/><path d=" M 99.605 126.396 L 95.154 126.396 L 95.154 111.581 L 99.605 111.581 L 99.605 126.396 Z  M 88.851 126.396 L 88.851 111.581 L 93.302 111.581 L 93.302 126.396 L 88.851 126.396 Z  M 87 109.731 L 87 128.247 L 101.456 128.247 L 101.456 109.731 L 87 109.731" fill="rgb(255,255,255)"/><path d=" M 60.507 63.6 L 71.26 63.6 L 71.26 48.785 L 60.507 48.785 L 60.507 63.6 Z " fill="rgb(109,110,112)"/><path d=" M 71.26 63.6 L 66.81 63.6 L 66.81 48.785 L 71.26 48.785 L 71.26 63.6 Z  M 60.507 63.6 L 60.507 48.785 L 64.957 48.785 L 64.957 63.6 L 60.507 63.6 Z  M 58.656 46.935 L 58.656 65.452 L 73.111 65.452 L 73.111 46.935 L 58.656 46.935" fill="rgb(255,255,255)"/><path d=" M 74.87 59.783 L 56.875 59.783 L 56.875 65.452 L 61.345 69.923 L 81.425 69.923 L 81.425 66.339 L 74.87 59.783" fill="rgb(167,132,75)"/><path d=" M 74.87 65.452 L 56.875 65.452 L 56.875 59.783 L 74.87 59.783 L 74.87 65.452" fill="rgb(183,182,181)"/><path d=" M 81.883 133.561 L 49.934 133.561 L 49.934 129.341 L 81.883 129.341 L 81.883 133.561 Z " fill="rgb(229,229,228)"/><path d=" M 56.191 160.052 L 53.247 160.052 L 53.247 133.561 L 56.191 133.561 L 56.191 160.052 Z " fill="rgb(35,68,129)"/><path d=" M 78.57 160.052 L 75.627 160.052 L 75.627 133.561 L 78.57 133.561 L 78.57 160.052 Z " fill="rgb(30,52,92)"/><path d=" M 74.016 160.052 L 57.802 160.052 L 57.802 133.561 L 74.016 133.561 L 74.016 160.052 Z " fill="rgb(59,59,60)"/><path d=" M 53.247 122.901 L 53.247 129.341 L 65.909 129.341 L 65.909 117.515 L 53.247 122.901" fill="rgb(35,68,129)"/><path d=" M 78.57 122.901 L 65.909 117.515 L 65.909 129.341 L 78.57 129.341 L 78.57 122.901 Z " fill="rgb(30,52,92)"/><path d=" M 186.295 110.029 L 115.159 110.029 L 115.159 160.052 L 186.295 160.052 L 186.295 110.029 Z " fill="rgb(167,132,75)"/><path d=" M 189.243 105.831 L 115.159 105.831 L 115.159 110.029 L 189.243 110.029 L 189.243 105.831" fill="rgb(75,123,199)"/><path d=" M 189.243 82.229 L 115.159 82.229 L 115.159 105.831 L 189.243 105.831 L 189.243 82.229" fill="rgb(51,93,168)"/><path d=" M 186.295 160.052 L 115.159 160.052 L 115.159 146.807 L 186.295 146.807 L 186.295 160.052 Z " fill="rgb(48,23,19)"/><path d=" M 171.431 126.125 L 130.023 126.125 L 130.023 160.052 L 171.431 160.052 L 171.431 126.125 Z " fill="rgb(35,68,129)"/><path d=" M 171.431 124.461 L 130.023 124.461 L 130.023 160.069 L 132.76 160.069 L 132.76 127.199 L 171.431 127.199 L 171.431 124.461 Z " fill="rgb(30,52,92)"/><path d=" M 130.023 129.936 L 130.023 132.675 L 132.76 132.675 L 132.76 129.936 L 130.023 129.936 Z " fill="rgb(34,62,108)"/><path d=" M 171.431 129.936 L 132.76 129.936 L 132.76 132.675 L 171.431 132.675 L 171.431 129.936 Z " fill="rgb(51,93,168)"/><path d=" M 130.023 138.151 L 132.76 138.151 L 132.76 135.413 L 130.023 135.413 L 130.023 138.151 Z " fill="rgb(34,62,108)"/><path d=" M 171.431 138.151 L 171.431 135.413 L 132.76 135.413 L 132.76 138.151 L 171.431 138.151 Z " fill="rgb(51,93,168)"/><path d=" M 130.023 143.627 L 132.76 143.627 L 132.76 140.888 L 130.023 140.888 L 130.023 143.627 Z " fill="rgb(34,62,108)"/><path d=" M 171.431 143.627 L 171.431 140.888 L 132.76 140.888 L 132.76 143.627 L 171.431 143.627 Z " fill="rgb(51,93,168)"/><path d=" M 171.431 149.101 L 171.431 146.363 L 132.76 146.363 L 132.76 149.101 L 171.431 149.101 Z " fill="rgb(51,93,168)"/><path d=" M 130.023 149.101 L 132.76 149.101 L 132.76 146.363 L 130.023 146.363 L 130.023 149.101 Z " fill="rgb(34,62,108)"/><path d=" M 171.431 154.577 L 171.431 151.839 L 132.76 151.839 L 132.76 154.577 L 171.431 154.577 Z " fill="rgb(51,93,168)"/><path d=" M 130.023 154.577 L 132.76 154.577 L 132.76 151.839 L 130.023 151.839 L 130.023 154.577 Z " fill="rgb(34,62,108)"/><path d=" M 171.431 160.052 L 171.431 157.315 L 132.76 157.315 L 132.76 160.052 L 171.431 160.052 Z " fill="rgb(51,93,168)"/><path d=" M 130.023 160.052 L 132.76 160.052 L 132.76 157.315 L 130.023 157.315 L 130.023 160.052 Z " fill="rgb(34,62,108)"/></g></g></svg>