<?xml version="1.0" standalone="no"?><!-- Generator: Gravit.io --><svg xmlns="http://www.w3.org/2000/svg" xmlns:xlink="http://www.w3.org/1999/xlink" style="isolation:isolate" viewBox="0 0 300 400" width="300" height="400"><defs><clipPath id="_clipPath_edCvDyLDZPa2gGKX3yZm2PtAs8i6cAeQ"><rect width="300" height="400"/></clipPath></defs><g clip-path="url(#_clipPath_edCvDyLDZPa2gGKX3yZm2PtAs8i6cAeQ)"><g><rect x="-1" y="-1" width="582" height="402" transform="matrix(1,0,0,1,0,0)" fill="none"/></g><g><path d=" M 135.079 13.804 L 127.264 13.804 L 131.172 9.202 L 135.079 13.804 Z " fill-rule="evenodd" fill="rgb(214,89,68)"/><path d=" M 135.079 14.785 L 127.265 14.785 C 126.721 14.785 126.286 14.345 126.286 13.804 C 126.286 13.543 126.388 13.303 126.557 13.128 L 130.423 8.571 C 130.771 8.16 131.389 8.11 131.8 8.455 C 131.845 8.496 131.888 8.54 131.926 8.583 L 135.822 13.175 C 136.169 13.584 136.119 14.205 135.706 14.548 C 135.525 14.705 135.302 14.778 135.078 14.778 L 135.078 14.785 L 135.079 14.785 L 135.079 14.785 Z  M 129.374 12.827 L 132.969 12.827 L 131.173 10.709 L 129.374 12.827 Z " fill="rgb(178,53,50)"/><path d=" M 127.259 13.804 L 135.08 13.804 L 140.291 19.946 L 122.049 19.946 L 127.259 13.804 L 127.259 13.804 Z " fill-rule="evenodd" fill="rgb(214,89,68)"/><path d=" M 127.259 12.829 L 135.079 12.829 C 135.399 12.829 135.682 12.983 135.858 13.218 L 141.033 19.318 C 141.381 19.726 141.327 20.343 140.919 20.691 C 140.734 20.843 140.511 20.921 140.29 20.921 L 140.29 20.922 L 122.049 20.922 C 121.51 20.922 121.074 20.485 121.074 19.946 C 121.074 19.681 121.178 19.441 121.345 19.269 L 126.515 13.175 C 126.708 12.949 126.985 12.834 127.259 12.834 L 127.259 12.829 L 127.259 12.829 L 127.259 12.829 Z  M 134.628 14.785 L 127.711 14.785 L 124.158 18.968 L 138.179 18.968 L 134.628 14.785 Z " fill="rgb(178,53,50)"/><path d=" M 122.049 19.946 L 140.291 19.946 L 145.5 26.084 L 116.841 26.084 L 122.049 19.946 L 122.049 19.946 Z " fill-rule="evenodd" fill="rgb(214,89,68)"/><path d=" M 122.049 18.968 L 140.29 18.968 C 140.609 18.968 140.892 19.125 141.069 19.361 L 146.243 25.456 C 146.592 25.867 146.539 26.483 146.127 26.831 C 145.946 26.981 145.723 27.06 145.499 27.06 L 145.499 27.062 L 116.841 27.062 C 116.299 27.062 115.863 26.625 115.863 26.083 C 115.863 25.818 115.963 25.581 116.134 25.408 L 121.307 19.317 C 121.497 19.087 121.773 18.973 122.049 18.973 L 122.049 18.968 L 122.049 18.968 L 122.049 18.968 Z  M 139.839 20.925 L 122.503 20.925 L 118.949 25.108 L 143.388 25.108 L 139.839 20.925 L 139.839 20.925 Z " fill="rgb(178,53,50)"/><path d=" M 116.841 26.086 L 145.501 26.086 L 150.711 32.224 L 132.61 32.224 L 131.172 28.91 L 129.73 32.224 L 111.627 32.224 L 116.841 26.086 L 116.841 26.086 Z " fill-rule="evenodd" fill="rgb(214,89,68)"/><path d=" M 116.841 25.108 L 145.501 25.108 C 145.82 25.108 146.105 25.262 146.281 25.501 L 151.454 31.595 C 151.801 32.006 151.748 32.624 151.342 32.972 C 151.156 33.125 150.931 33.202 150.711 33.202 L 150.711 33.204 L 132.609 33.204 C 132.182 33.204 131.816 32.928 131.686 32.54 L 131.171 31.356 L 130.621 32.613 C 130.462 32.981 130.104 33.198 129.728 33.201 L 129.728 33.203 L 111.625 33.203 C 111.089 33.203 110.651 32.765 110.651 32.224 C 110.651 31.959 110.753 31.723 110.922 31.547 L 116.093 25.456 C 116.284 25.228 116.559 25.112 116.838 25.112 L 116.838 25.108 L 116.841 25.108 L 116.841 25.108 Z  M 145.051 27.065 L 117.288 27.065 L 113.737 31.25 L 129.092 31.25 L 130.275 28.52 C 130.37 28.304 130.543 28.123 130.783 28.017 C 131.273 27.802 131.846 28.029 132.062 28.52 L 133.249 31.25 L 148.602 31.25 L 145.051 27.065 L 145.051 27.065 Z " fill="rgb(178,53,50)"/><path d=" M 111.627 32.224 L 129.727 32.224 L 127.063 38.364 L 106.419 38.364 L 111.627 32.224 L 111.627 32.224 Z  M 132.61 32.224 L 150.714 32.224 L 155.924 38.364 L 135.28 38.364 L 132.61 32.224 Z " fill-rule="evenodd" fill="rgb(214,89,68)"/><path d=" M 111.627 31.25 L 129.727 31.25 C 130.268 31.25 130.708 31.686 130.708 32.225 C 130.708 32.394 130.664 32.548 130.592 32.687 L 127.955 38.756 C 127.795 39.122 127.437 39.34 127.062 39.34 L 127.062 39.344 L 106.418 39.344 C 105.875 39.344 105.44 38.904 105.44 38.365 C 105.44 38.103 105.542 37.865 105.712 37.688 L 110.879 31.599 C 111.07 31.369 111.349 31.253 111.625 31.253 L 111.625 31.25 L 111.627 31.25 L 111.627 31.25 Z  M 128.243 33.203 L 112.078 33.203 L 108.526 37.388 L 126.423 37.388 L 128.243 33.203 L 128.243 33.203 Z  M 132.61 31.25 L 150.714 31.25 C 151.033 31.25 151.315 31.403 151.493 31.639 L 156.667 37.736 C 157.015 38.145 156.964 38.764 156.553 39.11 C 156.367 39.264 156.147 39.342 155.924 39.342 L 155.924 39.344 L 135.28 39.344 C 134.85 39.344 134.489 39.067 134.358 38.682 L 131.716 32.617 C 131.5 32.123 131.729 31.547 132.221 31.333 C 132.345 31.276 132.48 31.251 132.61 31.251 L 132.61 31.25 L 132.61 31.25 L 132.61 31.25 Z  M 150.261 33.203 L 134.1 33.203 L 135.915 37.388 L 153.811 37.388 L 150.261 33.203 Z " fill="rgb(178,53,50)"/><path d=" M 106.416 38.366 L 127.061 38.366 L 125.113 42.848 L 124.394 44.504 L 101.208 44.504 L 106.416 38.366 L 106.416 38.366 Z  M 135.28 38.366 L 155.924 38.366 L 161.132 44.504 L 137.951 44.504 L 137.229 42.848 L 135.28 38.366 Z " fill-rule="evenodd" fill="rgb(214,89,68)"/><path d=" M 106.416 37.388 L 127.061 37.388 C 127.601 37.388 128.04 37.826 128.04 38.367 C 128.04 38.534 127.998 38.689 127.924 38.829 L 126.006 43.238 L 125.286 44.896 C 125.129 45.262 124.769 45.48 124.394 45.48 L 124.394 45.486 L 101.208 45.486 C 100.669 45.486 100.229 45.043 100.229 44.506 C 100.229 44.244 100.334 44.004 100.503 43.829 L 105.671 37.737 C 105.867 37.511 106.139 37.391 106.415 37.391 L 106.415 37.388 L 106.416 37.388 L 106.416 37.388 Z  M 125.573 39.344 L 106.868 39.344 L 103.315 43.529 L 123.753 43.529 L 124.218 42.461 L 125.573 39.344 L 125.573 39.344 Z  M 135.28 37.388 L 155.924 37.388 C 156.244 37.388 156.529 37.541 156.703 37.779 L 161.879 43.874 C 162.225 44.287 162.175 44.904 161.764 45.249 C 161.581 45.404 161.355 45.479 161.132 45.479 L 161.132 45.485 L 137.951 45.485 C 137.52 45.485 137.156 45.204 137.023 44.822 L 136.335 43.237 L 134.386 38.757 C 134.17 38.265 134.399 37.687 134.889 37.475 C 135.017 37.418 135.149 37.39 135.28 37.39 L 135.28 37.388 L 135.28 37.388 L 135.28 37.388 Z  M 155.472 39.344 L 136.767 39.344 L 138.121 42.46 L 138.59 43.528 L 159.026 43.528 L 155.472 39.344 Z " fill="rgb(178,53,50)"/><path d=" M 101.208 44.505 L 124.389 44.505 L 121.722 50.645 L 95.998 50.645 L 101.208 44.505 L 101.208 44.505 L 101.208 44.505 Z  M 137.951 44.505 L 161.135 44.505 L 166.346 50.645 L 140.618 50.645 L 137.951 44.505 Z " fill-rule="evenodd" fill="rgb(214,89,68)"/><path d=" M 101.208 43.528 L 124.389 43.528 C 124.931 43.528 125.368 43.965 125.368 44.505 C 125.368 44.674 125.328 44.829 125.257 44.967 L 122.619 51.036 C 122.457 51.4 122.099 51.619 121.723 51.619 L 121.723 51.623 L 95.999 51.623 C 95.457 51.623 95.02 51.184 95.02 50.644 C 95.02 50.381 95.124 50.142 95.294 49.967 L 100.461 43.873 C 100.654 43.647 100.93 43.531 101.208 43.531 L 101.208 43.528 L 101.208 43.528 L 101.208 43.528 Z  M 122.904 45.485 L 101.657 45.485 L 98.106 49.666 L 121.085 49.666 L 122.904 45.485 L 122.904 45.485 Z  M 137.951 43.528 L 161.135 43.528 C 161.454 43.528 161.737 43.683 161.914 43.919 L 167.087 50.015 C 167.436 50.428 167.384 51.042 166.976 51.39 C 166.79 51.547 166.567 51.619 166.346 51.619 L 166.346 51.623 L 140.618 51.623 C 140.191 51.623 139.825 51.344 139.692 50.959 L 137.058 44.895 C 136.84 44.403 137.066 43.827 137.56 43.613 C 137.687 43.558 137.819 43.531 137.951 43.531 L 137.951 43.528 L 137.951 43.528 L 137.951 43.528 Z  M 160.683 45.485 L 139.436 45.485 L 141.255 49.666 L 164.234 49.666 L 160.683 45.485 Z " fill="rgb(178,53,50)"/><path d=" M 95.996 50.645 L 121.722 50.645 L 119.053 56.783 L 90.785 56.783 L 95.996 50.645 L 95.996 50.645 L 95.996 50.645 Z  M 140.618 50.645 L 166.346 50.645 L 171.554 56.783 L 143.286 56.783 L 140.618 50.645 L 140.618 50.645 Z " fill-rule="evenodd" fill="rgb(214,89,68)"/><path d=" M 95.996 49.666 L 121.722 49.666 C 122.264 49.666 122.7 50.105 122.7 50.645 C 122.7 50.812 122.659 50.968 122.586 51.107 L 119.949 57.174 C 119.788 57.542 119.431 57.762 119.053 57.762 L 119.053 57.762 L 90.785 57.762 C 90.248 57.762 89.806 57.324 89.806 56.783 C 89.806 56.52 89.911 56.282 90.081 56.106 L 95.251 50.015 C 95.443 49.787 95.716 49.673 95.995 49.673 L 95.995 49.666 L 95.996 49.666 L 95.996 49.666 Z  M 120.236 51.623 L 96.445 51.623 L 92.895 55.808 L 118.416 55.808 L 120.236 51.623 L 120.236 51.623 Z  M 140.618 49.666 L 166.346 49.666 C 166.662 49.666 166.95 49.823 167.126 50.059 L 172.301 56.153 C 172.646 56.568 172.597 57.182 172.187 57.528 C 172.001 57.685 171.779 57.762 171.554 57.762 L 171.554 57.762 L 143.286 57.762 C 142.858 57.762 142.494 57.487 142.362 57.098 L 139.725 51.035 C 139.51 50.54 139.735 49.967 140.229 49.751 C 140.353 49.696 140.489 49.671 140.618 49.671 L 140.618 49.666 L 140.618 49.666 L 140.618 49.666 Z  M 165.895 51.623 L 142.103 51.623 L 143.924 55.808 L 169.446 55.808 L 165.895 51.623 Z " fill="rgb(178,53,50)"/><path d=" M 90.784 56.785 L 114.872 56.785 L 114.872 62.923 L 85.575 62.923 L 90.784 56.785 L 90.784 56.785 Z  M 147.47 56.785 L 171.557 56.785 L 176.768 62.923 L 147.47 62.923 L 147.47 56.785 Z " fill-rule="evenodd" fill="rgb(214,89,68)"/><path d=" M 90.784 55.808 L 114.872 55.808 C 115.411 55.808 115.849 56.246 115.849 56.785 L 115.849 62.923 C 115.849 63.464 115.411 63.902 114.872 63.902 L 85.575 63.902 C 85.033 63.902 84.597 63.464 84.597 62.923 C 84.597 62.662 84.702 62.422 84.868 62.245 L 90.04 56.156 C 90.231 55.928 90.508 55.808 90.784 55.808 L 90.784 55.808 L 90.784 55.808 L 90.784 55.808 Z  M 113.895 57.764 L 91.235 57.764 L 87.683 61.949 L 113.895 61.949 L 113.895 57.764 L 113.895 57.764 Z  M 147.47 55.808 L 171.557 55.808 C 171.876 55.808 172.158 55.961 172.338 56.199 L 177.509 62.294 C 177.858 62.707 177.807 63.322 177.395 63.671 C 177.21 63.824 176.987 63.899 176.768 63.899 L 176.768 63.901 L 147.47 63.901 C 146.928 63.901 146.491 63.463 146.491 62.922 L 146.491 56.784 C 146.492 56.246 146.928 55.808 147.47 55.808 L 147.47 55.808 Z  M 171.107 57.764 L 148.446 57.764 L 148.446 61.949 L 174.655 61.949 L 171.107 57.764 Z " fill="rgb(178,53,50)"/><path d=" M 85.575 62.925 L 114.872 62.925 L 114.872 69.063 L 90.424 69.063 L 80.364 69.063 L 81.205 68.072 L 85.575 62.925 L 85.575 62.925 L 85.575 62.925 Z  M 147.47 62.925 L 176.768 62.925 L 181.135 68.072 L 181.976 69.063 L 171.914 69.063 L 147.47 69.063 L 147.47 62.925 Z " fill-rule="evenodd" fill="rgb(214,89,68)"/><path d=" M 85.575 61.949 L 114.872 61.949 C 115.411 61.949 115.849 62.385 115.849 62.926 L 115.849 69.064 C 115.849 69.603 115.411 70.044 114.872 70.044 L 90.424 70.044 L 80.364 70.044 C 79.825 70.044 79.385 69.603 79.385 69.064 C 79.385 68.803 79.493 68.564 79.658 68.387 L 80.458 67.443 L 84.828 62.295 C 85.021 62.069 85.295 61.949 85.575 61.949 L 85.575 61.949 L 85.575 61.949 L 85.575 61.949 Z  M 113.895 63.902 L 86.022 63.902 L 82.474 68.087 L 90.423 68.087 L 113.895 68.087 L 113.895 63.902 L 113.895 63.902 Z  M 147.47 61.949 L 176.768 61.949 C 177.084 61.949 177.37 62.101 177.546 62.338 L 181.879 67.443 L 182.72 68.436 C 183.068 68.847 183.02 69.465 182.604 69.809 C 182.423 69.964 182.2 70.041 181.976 70.041 L 181.976 70.044 L 171.914 70.044 L 147.47 70.044 C 146.928 70.044 146.491 69.603 146.491 69.064 L 146.491 62.926 C 146.492 62.384 146.928 61.949 147.47 61.949 L 147.47 61.949 L 147.47 61.949 Z  M 176.318 63.902 L 148.446 63.902 L 148.446 68.087 L 171.915 68.087 L 179.87 68.087 L 176.318 63.902 Z " fill="rgb(178,53,50)"/><path d=" M 80.362 69.068 L 90.424 69.068 L 90.424 75.206 L 75.155 75.206 L 80.362 69.068 L 80.362 69.068 Z  M 171.915 69.068 L 181.978 69.068 L 187.187 75.206 L 171.916 75.206 L 171.916 69.068 L 171.915 69.068 L 171.915 69.068 Z " fill-rule="evenodd" fill="rgb(214,89,68)"/><path d=" M 80.362 68.087 L 90.424 68.087 C 90.964 68.087 91.403 68.528 91.403 69.068 L 91.403 75.206 C 91.403 75.743 90.965 76.182 90.424 76.182 L 75.155 76.182 C 74.613 76.182 74.175 75.743 74.175 75.206 C 74.175 74.941 74.278 74.704 74.446 74.528 L 79.62 68.435 C 79.811 68.207 80.085 68.093 80.362 68.093 L 80.362 68.087 L 80.362 68.087 L 80.362 68.087 Z  M 89.446 70.044 L 80.814 70.044 L 77.261 74.228 L 89.446 74.228 L 89.446 70.044 L 89.446 70.044 L 89.446 70.044 Z  M 171.915 68.087 L 181.978 68.087 C 182.297 68.087 182.582 68.242 182.76 68.478 L 187.931 74.574 C 188.282 74.987 188.229 75.603 187.818 75.951 C 187.634 76.103 187.411 76.179 187.187 76.179 L 187.187 76.183 L 171.916 76.183 C 171.379 76.183 170.943 75.744 170.943 75.207 L 170.943 69.069 C 170.942 68.528 171.377 68.087 171.915 68.087 L 171.915 68.087 Z  M 181.528 70.044 L 172.893 70.044 L 172.893 74.228 L 185.076 74.228 L 181.528 70.044 Z " fill="rgb(178,53,50)"/><path d=" M 75.155 75.206 L 90.424 75.206 L 90.424 81.346 L 69.942 81.346 L 75.155 75.206 L 75.155 75.206 Z  M 171.915 75.206 L 187.186 75.206 L 192.401 81.346 L 171.915 81.346 L 171.915 75.206 L 171.915 75.206 Z " fill-rule="evenodd" fill="rgb(214,89,68)"/><path d=" M 75.155 74.231 L 90.424 74.231 C 90.964 74.231 91.403 74.666 91.403 75.206 L 91.403 81.346 C 91.403 81.886 90.965 82.321 90.424 82.321 L 69.942 82.321 C 69.402 82.321 68.966 81.886 68.966 81.346 C 68.966 81.082 69.067 80.842 69.237 80.666 L 74.406 74.573 C 74.598 74.345 74.876 74.231 75.155 74.231 L 75.155 74.231 L 75.155 74.231 L 75.155 74.231 Z  M 89.446 76.182 L 75.602 76.182 L 72.049 80.369 L 89.445 80.369 L 89.445 76.182 L 89.446 76.182 L 89.446 76.182 Z  M 171.915 74.231 L 187.186 74.231 C 187.507 74.231 187.792 74.381 187.969 74.62 L 193.143 80.715 C 193.491 81.126 193.44 81.74 193.029 82.088 C 192.844 82.247 192.622 82.32 192.401 82.32 L 192.401 82.32 L 171.915 82.32 C 171.378 82.32 170.942 81.885 170.942 81.345 L 170.942 75.205 C 170.942 74.666 171.377 74.231 171.915 74.231 L 171.915 74.231 L 171.915 74.231 Z  M 186.739 76.182 L 172.893 76.182 L 172.893 80.369 L 190.289 80.369 L 186.739 76.182 Z " fill="rgb(178,53,50)"/><path d=" M 69.94 81.345 L 90.423 81.345 L 90.423 87.483 L 64.729 87.483 L 69.94 81.345 L 69.94 81.345 Z  M 171.915 81.345 L 192.401 81.345 L 197.609 87.483 L 171.915 87.483 L 171.915 81.345 L 171.915 81.345 Z " fill-rule="evenodd" fill="rgb(214,89,68)"/><path d=" M 69.94 80.369 L 90.423 80.369 C 90.963 80.369 91.402 80.807 91.402 81.346 L 91.402 87.484 C 91.402 88.026 90.964 88.461 90.423 88.461 L 64.729 88.461 C 64.19 88.461 63.754 88.025 63.754 87.484 C 63.754 87.219 63.858 86.984 64.025 86.807 L 69.195 80.716 C 69.387 80.486 69.665 80.372 69.94 80.372 L 69.94 80.369 L 69.94 80.369 L 69.94 80.369 Z  M 89.446 82.323 L 70.393 82.323 L 66.838 86.508 L 89.445 86.508 L 89.445 82.323 L 89.446 82.323 L 89.446 82.323 Z  M 171.915 80.369 L 192.401 80.369 C 192.719 80.369 193.001 80.521 193.18 80.758 L 198.353 86.854 C 198.702 87.267 198.651 87.881 198.24 88.229 C 198.054 88.385 197.833 88.458 197.609 88.458 L 197.609 88.46 L 171.915 88.46 C 171.378 88.46 170.942 88.024 170.942 87.483 L 170.942 81.345 C 170.942 80.807 171.377 80.369 171.915 80.369 L 171.915 80.369 L 171.915 80.369 Z  M 191.95 82.323 L 172.893 82.323 L 172.893 86.508 L 195.498 86.508 L 191.95 82.323 Z " fill="rgb(178,53,50)"/><path d=" M 64.729 87.486 L 90.423 87.486 L 90.423 93.624 L 59.52 93.624 L 64.729 87.486 L 64.729 87.486 Z  M 171.915 87.486 L 197.609 87.486 L 202.821 93.624 L 171.915 93.624 L 171.915 87.486 Z " fill-rule="evenodd" fill="rgb(214,89,68)"/><path d=" M 64.729 86.507 L 90.423 86.507 C 90.963 86.507 91.402 86.946 91.402 87.486 L 91.402 93.624 C 91.402 94.164 90.964 94.603 90.423 94.603 L 59.52 94.603 C 58.979 94.603 58.541 94.164 58.541 93.624 C 58.541 93.361 58.645 93.122 58.815 92.946 L 63.982 86.855 C 64.177 86.627 64.449 86.509 64.728 86.509 L 64.728 86.507 L 64.729 86.507 L 64.729 86.507 Z  M 89.446 88.465 L 65.179 88.465 L 61.628 92.648 L 89.445 92.648 L 89.445 88.465 L 89.446 88.465 Z  M 171.915 86.507 L 197.609 86.507 C 197.93 86.507 198.213 86.659 198.389 86.898 L 203.564 92.995 C 203.914 93.407 203.861 94.023 203.452 94.37 C 203.267 94.522 203.042 94.599 202.821 94.599 L 202.821 94.603 L 171.915 94.603 C 171.378 94.603 170.942 94.164 170.942 93.624 L 170.942 87.486 C 170.942 86.947 171.377 86.507 171.915 86.507 L 171.915 86.507 L 171.915 86.507 Z  M 197.159 88.465 L 172.893 88.465 L 172.893 92.648 L 200.711 92.648 L 197.159 88.465 Z " fill="rgb(178,53,50)"/><path d=" M 59.518 93.628 L 90.423 93.628 L 90.423 99.766 L 54.308 99.766 L 59.518 93.628 L 59.518 93.628 Z  M 171.915 93.628 L 202.821 93.628 L 208.032 99.766 L 171.915 99.766 L 171.915 93.628 Z " fill-rule="evenodd" fill="rgb(214,89,68)"/><path d=" M 59.518 92.648 L 90.423 92.648 C 90.963 92.648 91.402 93.085 91.402 93.628 L 91.402 99.766 C 91.402 100.308 90.964 100.743 90.423 100.743 L 54.308 100.743 C 53.769 100.743 53.33 100.307 53.33 99.766 C 53.33 99.502 53.434 99.262 53.603 99.084 L 58.773 92.995 C 58.966 92.767 59.241 92.649 59.517 92.649 L 59.517 92.648 L 59.518 92.648 L 59.518 92.648 Z  M 89.446 94.603 L 59.968 94.603 L 56.417 98.786 L 89.445 98.786 L 89.445 94.603 L 89.446 94.603 Z  M 171.915 92.648 L 202.821 92.648 C 203.141 92.648 203.425 92.802 203.603 93.036 L 208.774 99.133 C 209.123 99.544 209.073 100.161 208.663 100.508 C 208.477 100.663 208.254 100.74 208.032 100.74 L 208.032 100.742 L 171.915 100.742 C 171.378 100.742 170.942 100.306 170.942 99.765 L 170.942 93.627 C 170.942 93.085 171.377 92.648 171.915 92.648 L 171.915 92.648 L 171.915 92.648 Z  M 202.373 94.603 L 172.894 94.603 L 172.894 98.786 L 205.922 98.786 L 202.373 94.603 Z " fill="rgb(178,53,50)"/><path d=" M 54.308 99.766 L 90.423 99.766 L 90.423 105.904 L 49.095 105.904 L 54.308 99.766 L 54.308 99.766 Z  M 171.915 99.766 L 208.032 99.766 L 213.244 105.904 L 171.915 105.904 L 171.915 99.766 Z " fill-rule="evenodd" fill="rgb(214,89,68)"/><path d=" M 54.308 98.787 L 90.423 98.787 C 90.963 98.787 91.402 99.225 91.402 99.766 L 91.402 105.904 C 91.402 106.446 90.964 106.881 90.423 106.881 L 49.095 106.881 C 48.557 106.881 48.121 106.445 48.121 105.904 C 48.121 105.642 48.223 105.402 48.392 105.227 L 53.561 99.136 C 53.751 98.908 54.031 98.79 54.307 98.79 L 54.307 98.787 L 54.308 98.787 L 54.308 98.787 Z  M 89.446 100.743 L 54.758 100.743 L 51.205 104.924 L 89.445 104.924 L 89.445 100.743 L 89.446 100.743 L 89.446 100.743 Z  M 171.915 98.787 L 208.032 98.787 C 208.348 98.787 208.634 98.942 208.813 99.178 L 213.987 105.273 C 214.335 105.684 214.284 106.3 213.873 106.646 C 213.69 106.803 213.465 106.878 213.244 106.878 L 213.244 106.88 L 171.915 106.88 C 171.378 106.88 170.942 106.444 170.942 105.903 L 170.942 99.765 C 170.942 99.225 171.377 98.787 171.915 98.787 L 171.915 98.787 L 171.915 98.787 Z  M 207.582 100.743 L 172.894 100.743 L 172.894 104.924 L 211.136 104.924 L 207.582 100.743 L 207.582 100.743 Z " fill="rgb(178,53,50)"/><path d=" M 49.095 105.904 L 90.423 105.904 L 90.423 112.044 L 43.887 112.044 L 49.095 105.904 L 49.095 105.904 Z  M 171.915 105.904 L 213.244 105.904 L 218.453 112.044 L 171.915 112.044 L 171.915 105.904 Z " fill-rule="evenodd" fill="rgb(214,89,68)"/><path d=" M 49.095 104.928 L 90.423 104.928 C 90.963 104.928 91.402 105.366 91.402 105.905 L 91.402 112.045 C 91.402 112.584 90.964 113.02 90.423 113.02 L 43.887 113.02 C 43.348 113.02 42.907 112.584 42.907 112.045 C 42.907 111.782 43.014 111.539 43.181 111.367 L 48.353 105.274 C 48.546 105.046 48.819 104.93 49.095 104.93 L 49.095 104.928 L 49.095 104.928 L 49.095 104.928 Z  M 89.446 106.881 L 49.546 106.881 L 45.995 111.066 L 89.446 111.066 L 89.446 106.881 L 89.446 106.881 Z  M 171.915 104.928 L 213.244 104.928 C 213.562 104.928 213.848 105.083 214.023 105.319 L 219.199 111.417 C 219.546 111.826 219.496 112.44 219.084 112.789 C 218.9 112.945 218.674 113.02 218.453 113.02 L 218.453 113.02 L 171.915 113.02 C 171.378 113.02 170.942 112.584 170.942 112.045 L 170.942 105.905 C 170.942 105.366 171.377 104.928 171.915 104.928 L 171.915 104.928 L 171.915 104.928 Z  M 212.792 106.881 L 172.893 106.881 L 172.893 111.066 L 216.344 111.066 L 212.792 106.881 L 212.792 106.881 Z " fill="rgb(178,53,50)"/><path d=" M 43.887 112.044 L 90.423 112.044 L 90.423 118.182 L 38.677 118.182 L 43.887 112.044 L 43.887 112.044 Z  M 171.915 112.044 L 218.453 112.044 L 223.665 118.182 L 171.915 118.182 L 171.915 112.044 Z " fill-rule="evenodd" fill="rgb(214,89,68)"/><path d=" M 43.887 111.068 L 90.423 111.068 C 90.963 111.068 91.402 111.506 91.402 112.045 L 91.402 118.183 C 91.402 118.724 90.964 119.162 90.423 119.162 L 38.677 119.162 C 38.138 119.162 37.698 118.724 37.698 118.183 C 37.698 117.92 37.802 117.683 37.972 117.505 L 43.139 111.416 C 43.334 111.183 43.609 111.068 43.887 111.068 L 43.887 111.068 L 43.887 111.068 Z  M 89.446 113.023 L 44.335 113.023 L 40.785 117.206 L 89.446 117.206 L 89.446 113.023 L 89.446 113.023 Z  M 171.915 111.068 L 218.453 111.068 C 218.771 111.068 219.055 111.221 219.232 111.457 L 224.408 117.554 C 224.758 117.966 224.704 118.582 224.294 118.932 C 224.111 119.082 223.888 119.16 223.665 119.16 L 223.665 119.162 L 171.915 119.162 C 171.378 119.162 170.942 118.724 170.942 118.183 L 170.942 112.045 C 170.942 111.505 171.377 111.068 171.915 111.068 L 171.915 111.068 Z  M 218.002 113.023 L 172.893 113.023 L 172.893 117.206 L 221.555 117.206 L 218.002 113.023 Z " fill="rgb(178,53,50)"/><path d=" M 98.089 259.359 L 164.251 259.359 L 164.251 351.293 L 98.089 351.293 L 98.089 259.359 L 98.089 259.359 Z " fill-rule="evenodd" fill="rgb(225,224,204)"/><path d=" M 173.013 259.359 L 226.236 259.359 L 226.236 351.293 L 173.013 351.293 L 173.013 259.359 L 173.013 259.359 Z " fill-rule="evenodd" fill="rgb(225,224,204)"/><path d=" M 36.103 259.359 L 89.326 259.359 L 89.326 351.293 L 36.103 351.293 L 36.103 259.359 L 36.103 259.359 Z " fill-rule="evenodd" fill="rgb(225,224,204)"/><path d=" M 36.103 351.293 L 226.236 351.293 L 226.236 374.161 L 36.103 374.161 L 36.103 351.293 Z " fill-rule="evenodd" fill="rgb(199,195,163)"/><path d=" M 36.103 374.16 L 226.236 374.16 L 226.236 391.773 L 36.103 391.773 L 36.103 374.16 Z " fill-rule="evenodd" fill="rgb(181,175,142)"/><path d=" M 27.34 118.185 L 31.721 118.185 L 36.102 118.185 L 89.325 118.185 L 98.087 118.185 L 164.252 118.185 L 173.017 118.185 L 226.237 118.185 L 230.621 118.185 L 235 118.185 L 235 391.774 L 226.237 391.774 L 226.237 259.359 L 173.017 259.359 L 173.017 391.774 L 164.252 391.774 L 164.252 259.359 L 98.087 259.359 L 98.087 391.774 L 89.325 391.774 L 89.325 259.359 L 36.102 259.359 L 36.102 391.774 L 27.34 391.774 L 27.34 118.185 L 27.34 118.185 Z  M 36.102 126.947 L 36.102 250.596 L 89.325 250.596 L 89.325 126.947 L 36.102 126.947 L 36.102 126.947 Z  M 98.086 126.947 L 98.086 250.596 L 164.251 250.596 L 164.251 126.947 L 98.086 126.947 L 98.086 126.947 Z  M 173.016 126.947 L 173.016 250.596 L 226.236 250.596 L 226.236 126.947 L 173.016 126.947 Z " fill-rule="evenodd" fill="rgb(209,206,181)"/><path d=" M 88.528 67.747 L 114.11 67.747 L 114.11 118.185 L 88.528 118.185 L 88.528 67.747 L 88.528 67.747 L 88.528 67.747 Z  M 148.229 67.747 L 173.813 67.747 L 173.813 118.185 L 148.229 118.185 L 148.229 67.747 L 148.229 67.747 Z " fill-rule="evenodd" fill="rgb(181,175,142)"/><path d=" M 96.434 75.393 L 114.872 75.393 L 114.872 118.185 L 96.434 118.185 L 96.434 75.393 L 96.434 75.393 Z  M 147.47 75.393 L 165.905 75.393 L 165.905 118.185 L 147.47 118.185 L 147.47 75.393 Z " fill-rule="evenodd" fill="rgb(209,206,181)"/><path d=" M 113.646 56.787 L 148.693 56.787 L 148.693 118.185 L 113.646 118.185 L 113.646 56.787 Z " fill-rule="evenodd" fill="rgb(181,175,142)"/><path d=" M 131.172 26.084 L 137.93 41.437 L 144.686 56.785 L 131.172 56.785 L 117.655 56.785 L 124.411 41.437 L 131.172 26.084 Z " fill-rule="evenodd" fill="rgb(109,97,83)"/><path d=" M 121.824 61.676 L 140.518 61.676 L 140.518 118.185 L 121.824 118.185 L 121.824 61.676 Z " fill-rule="evenodd" fill="rgb(73,60,41)"/><path d=" M 121.824 73.256 L 129.784 73.256 L 129.784 61.68 L 132.555 61.68 L 132.555 73.256 L 140.517 73.256 L 140.517 76.023 L 132.555 76.023 L 132.555 88.548 L 140.517 88.548 L 140.517 91.313 L 132.555 91.313 L 132.555 104.447 L 140.517 104.447 L 140.517 107.213 L 132.555 107.213 L 132.555 118.185 L 129.784 118.185 L 129.784 107.213 L 121.824 107.213 L 121.824 104.447 L 129.784 104.447 L 129.784 91.313 L 121.824 91.313 L 121.824 88.548 L 129.784 88.548 L 129.784 76.023 L 121.824 76.023 L 121.824 73.256 Z " fill-rule="evenodd" fill="rgb(181,175,142)"/><path d=" M 72.292 145.514 L 89.144 145.514 C 89.244 145.514 89.326 145.599 89.326 145.697 L 89.326 152.631 C 89.326 152.727 89.24 152.814 89.144 152.814 L 72.292 152.814 C 72.192 152.814 72.108 152.731 72.108 152.631 L 72.108 145.697 C 72.108 145.598 72.192 145.514 72.292 145.514 Z " fill-rule="evenodd" fill="rgb(209,206,181)"/><path d=" M 147.213 139.956 L 164.067 139.956 C 164.171 139.956 164.252 140.039 164.252 140.135 L 164.252 147.071 C 164.252 147.167 164.166 147.254 164.067 147.254 L 147.213 147.254 C 147.118 147.254 147.03 147.172 147.03 147.071 L 147.03 140.135 C 147.031 140.035 147.115 139.956 147.213 139.956 Z " fill-rule="evenodd" fill="rgb(209,206,181)"/><path d=" M 173.196 151.266 L 190.049 151.266 C 190.153 151.266 190.231 151.351 190.231 151.449 L 190.231 158.381 C 190.231 158.48 190.15 158.564 190.049 158.564 L 173.196 158.564 C 173.101 158.564 173.016 158.482 173.016 158.381 L 173.016 151.449 C 173.016 151.347 173.095 151.266 173.196 151.266 Z " fill-rule="evenodd" fill="rgb(209,206,181)"/><path d=" M 209.201 140.198 L 226.054 140.198 C 226.156 140.198 226.237 140.28 226.237 140.381 L 226.237 147.313 C 226.237 147.411 226.154 147.496 226.054 147.496 L 209.201 147.496 C 209.103 147.496 209.016 147.414 209.016 147.313 L 209.016 140.381 C 209.016 140.28 209.102 140.198 209.201 140.198 Z " fill-rule="evenodd" fill="rgb(209,206,181)"/><path d=" M 215.67 274.972 L 226.235 274.972 L 226.235 282.272 L 215.67 282.272 C 215.577 282.272 215.49 282.189 215.49 282.091 L 215.49 275.157 C 215.491 275.056 215.572 274.972 215.67 274.972 Z " fill-rule="evenodd" fill="rgb(209,206,181)"/><path d=" M 55.747 281.72 L 72.6 281.72 C 72.704 281.72 72.786 281.802 72.786 281.899 L 72.786 288.833 C 72.786 288.933 72.699 289.019 72.6 289.019 L 55.747 289.019 C 55.651 289.019 55.564 288.936 55.564 288.833 L 55.564 281.899 C 55.564 281.802 55.646 281.72 55.747 281.72 Z " fill-rule="evenodd" fill="rgb(209,206,181)"/><path d=" M 178.949 164.708 L 181.88 164.708 L 198.159 164.708 L 201.091 164.708 L 217.368 164.708 L 220.304 164.708 L 220.304 168.431 L 220.304 186.599 L 220.304 190.32 L 220.304 208.763 L 220.304 212.486 L 220.304 234.693 L 220.304 238.416 L 217.368 238.416 L 201.091 238.416 L 198.159 238.416 L 181.88 238.416 L 178.949 238.416 L 178.949 234.693 L 178.949 212.486 L 178.949 208.763 L 178.949 190.32 L 178.949 186.599 L 178.949 168.431 L 178.949 164.708 L 178.949 164.708 L 178.949 164.708 Z  M 181.879 186.599 L 198.158 186.599 L 198.158 168.431 L 181.879 168.431 L 181.879 186.599 L 181.879 186.599 Z  M 201.09 186.599 L 217.367 186.599 L 217.367 168.431 L 201.09 168.431 L 201.09 186.599 L 201.09 186.599 Z  M 217.368 190.32 L 201.091 190.32 L 201.091 208.763 L 217.368 208.763 L 217.368 190.32 L 217.368 190.32 Z  M 198.159 190.32 L 181.88 190.32 L 181.88 208.763 L 198.159 208.763 L 198.159 190.32 L 198.159 190.32 Z  M 217.368 212.486 L 201.091 212.486 L 201.091 234.693 L 217.368 234.693 L 217.368 212.486 L 217.368 212.486 Z  M 198.159 212.486 L 181.88 212.486 L 181.88 234.693 L 198.159 234.693 L 198.159 212.486 Z " fill-rule="evenodd" fill="rgb(255,255,255)"/><path d=" M 103.035 164.708 L 105.762 164.708 L 120.884 164.708 L 123.609 164.708 L 138.734 164.708 L 138.734 164.708 L 141.458 164.708 L 156.582 164.708 L 159.307 164.708 L 159.307 168.431 L 159.307 186.599 L 159.307 190.32 L 159.307 208.763 L 159.307 212.486 L 159.307 234.693 L 159.307 238.416 L 156.582 238.416 L 141.458 238.416 L 138.734 238.416 L 138.734 238.416 L 123.609 238.416 L 120.884 238.416 L 105.762 238.416 L 103.035 238.416 L 103.035 234.693 L 103.035 212.486 L 103.035 208.763 L 103.035 190.32 L 103.035 186.599 L 103.035 168.431 L 103.035 164.708 L 103.035 164.708 L 103.035 164.708 Z  M 141.457 168.431 L 141.457 186.599 L 156.581 186.599 L 156.581 168.431 L 141.457 168.431 L 141.457 168.431 L 141.457 168.431 Z  M 141.457 190.32 L 141.457 208.763 L 156.581 208.763 L 156.581 190.32 L 141.457 190.32 L 141.457 190.32 Z  M 141.457 212.486 L 141.457 234.693 L 156.581 234.693 L 156.581 212.486 L 141.457 212.486 L 141.457 212.486 Z  M 105.761 186.599 L 120.883 186.599 L 120.883 168.431 L 105.761 168.431 L 105.761 186.599 L 105.761 186.599 Z  M 123.608 186.599 L 138.733 186.599 L 138.733 168.431 L 123.608 168.431 L 123.608 186.599 L 123.608 186.599 Z  M 138.733 190.32 L 123.608 190.32 L 123.608 208.763 L 138.733 208.763 L 138.733 190.32 L 138.733 190.32 Z  M 120.883 190.32 L 105.761 190.32 L 105.761 208.763 L 120.883 208.763 L 120.883 190.32 L 120.883 190.32 Z  M 138.733 212.486 L 123.608 212.486 L 123.608 234.693 L 138.733 234.693 L 138.733 212.486 L 138.733 212.486 Z  M 120.883 212.486 L 105.761 212.486 L 105.761 234.693 L 120.883 234.693 L 120.883 212.486 Z " fill-rule="evenodd" fill="rgb(255,255,255)"/><path d=" M 64.179 164.708 L 80.458 164.708 L 83.394 164.708 L 83.394 168.431 L 83.394 186.599 L 83.394 190.32 L 83.394 208.763 L 83.394 212.486 L 83.394 234.693 L 83.394 238.416 L 80.458 238.416 L 64.179 238.416 L 61.249 238.416 L 44.971 238.416 L 42.035 238.416 L 42.035 234.693 L 42.035 212.486 L 42.035 208.763 L 42.035 190.32 L 42.035 186.599 L 42.035 168.431 L 42.035 164.708 L 44.971 164.708 L 61.249 164.708 L 64.179 164.708 L 64.179 164.708 L 64.179 164.708 Z  M 89.325 250.596 L 89.325 152.631 C 89.325 152.727 89.239 152.814 89.143 152.814 L 72.291 152.814 C 72.191 152.814 72.107 152.731 72.107 152.631 L 72.107 145.697 C 72.107 145.597 72.191 145.514 72.291 145.514 L 89.143 145.514 C 89.243 145.514 89.325 145.599 89.325 145.697 L 89.325 126.947 L 36.102 126.947 L 36.102 250.596 L 89.325 250.596 Z " fill-rule="evenodd" fill="rgb(225,224,204)"/><path d=" M 98.086 126.947 L 98.086 250.596 L 164.251 250.596 L 164.251 147.071 C 164.251 147.167 164.165 147.254 164.066 147.254 L 147.212 147.254 C 147.117 147.254 147.029 147.172 147.029 147.071 L 147.029 140.135 C 147.029 140.035 147.113 139.956 147.212 139.956 L 164.066 139.956 C 164.17 139.956 164.251 140.039 164.251 140.135 L 164.251 126.947 L 98.086 126.947 L 98.086 126.947 Z  M 103.035 164.708 L 105.762 164.708 L 120.884 164.708 L 123.609 164.708 L 138.734 164.708 L 141.458 164.708 L 156.582 164.708 L 159.307 164.708 L 159.307 168.431 L 159.307 186.599 L 159.307 190.32 L 159.307 208.763 L 159.307 212.486 L 159.307 234.693 L 159.307 238.416 L 156.582 238.416 L 141.458 238.416 L 138.734 238.416 L 123.609 238.416 L 120.884 238.416 L 105.762 238.416 L 103.035 238.416 L 103.035 234.693 L 103.035 212.486 L 103.035 208.763 L 103.035 190.32 L 103.035 186.599 L 103.035 168.431 L 103.035 164.708 L 103.035 164.708 Z " fill-rule="evenodd" fill="rgb(225,224,204)"/><path d=" M 173.016 126.947 L 173.016 151.449 C 173.016 151.347 173.095 151.266 173.196 151.266 L 190.049 151.266 C 190.153 151.266 190.231 151.351 190.231 151.449 L 190.231 158.381 C 190.231 158.48 190.15 158.564 190.049 158.564 L 173.196 158.564 C 173.101 158.564 173.016 158.482 173.016 158.381 L 173.016 250.597 L 226.236 250.597 L 226.236 147.313 C 226.236 147.411 226.153 147.496 226.053 147.496 L 209.2 147.496 C 209.102 147.496 209.015 147.414 209.015 147.313 L 209.015 140.381 C 209.015 140.279 209.101 140.198 209.2 140.198 L 226.053 140.198 C 226.155 140.198 226.236 140.28 226.236 140.381 L 226.236 126.947 L 173.016 126.947 L 173.016 126.947 Z  M 181.879 164.708 L 198.158 164.708 L 201.09 164.708 L 217.367 164.708 L 220.303 164.708 L 220.303 168.431 L 220.303 186.599 L 220.303 190.32 L 220.303 208.763 L 220.303 212.486 L 220.303 234.693 L 220.303 238.416 L 217.367 238.416 L 201.09 238.416 L 198.158 238.416 L 181.879 238.416 L 178.948 238.416 L 178.948 234.693 L 178.948 212.486 L 178.948 208.763 L 178.948 190.32 L 178.948 186.599 L 178.948 168.431 L 178.948 164.708 L 181.879 164.708 L 181.879 164.708 Z " fill-rule="evenodd" fill="rgb(225,224,204)"/><path d=" M 53.067 327.206 L 72.362 327.206 L 72.362 351.293 L 53.067 351.293 L 53.067 327.206 Z " fill-rule="evenodd" fill="rgb(149,147,128)"/><path d=" M 44.815 321.868 L 80.615 321.868 L 80.615 327.208 L 44.815 327.208 L 44.815 321.868 Z " fill-rule="evenodd" fill="rgb(149,147,128)"/><path d=" M 47.395 321.868 L 47.395 306.09 L 50.67 306.09 L 50.67 311.734 L 56.54 311.734 L 56.54 306.09 L 59.817 306.09 L 59.817 311.734 L 65.614 311.734 L 65.614 306.09 L 68.887 306.09 L 68.887 311.734 L 74.758 311.734 L 74.758 306.09 L 78.037 306.09 L 78.037 321.868 L 74.758 321.868 L 74.758 315.01 L 68.887 315.01 L 68.887 321.868 L 65.614 321.868 L 65.614 315.01 L 59.817 315.01 L 59.817 321.868 L 56.54 321.868 L 56.54 315.01 L 50.67 315.01 L 50.67 321.868 L 47.395 321.868 Z " fill-rule="evenodd" fill="rgb(149,147,128)"/><path d=" M 47.395 321.868 L 47.395 318.899 L 50.67 318.899 L 50.67 321.868 L 47.395 321.868 L 47.395 321.868 Z  M 78.037 318.899 L 78.037 321.868 L 74.759 321.868 L 74.759 318.899 L 78.037 318.899 L 78.037 318.899 Z  M 68.887 318.899 L 68.887 321.868 L 65.614 321.868 L 65.614 318.899 L 68.887 318.899 L 68.887 318.899 Z  M 59.817 318.899 L 59.817 321.868 L 56.54 321.868 L 56.54 318.899 L 59.817 318.899 Z " fill-rule="evenodd" fill="rgb(126,124,107)"/><path d=" M 189.977 327.206 L 209.273 327.206 L 209.273 351.293 L 189.977 351.293 L 189.977 327.206 Z " fill-rule="evenodd" fill="rgb(149,147,128)"/><path d=" M 181.725 321.868 L 217.524 321.868 L 217.524 327.208 L 181.725 327.208 L 181.725 321.868 Z " fill-rule="evenodd" fill="rgb(149,147,128)"/><path d=" M 184.305 321.868 L 184.305 306.09 L 187.583 306.09 L 187.583 311.734 L 193.451 311.734 L 193.451 306.09 L 196.728 306.09 L 196.728 311.734 L 202.522 311.734 L 202.522 306.09 L 205.8 306.09 L 205.8 311.734 L 211.671 311.734 L 211.671 306.09 L 214.947 306.09 L 214.947 321.868 L 211.671 321.868 L 211.671 315.01 L 205.8 315.01 L 205.8 321.868 L 202.522 321.868 L 202.522 315.01 L 196.728 315.01 L 196.728 321.868 L 193.451 321.868 L 193.451 315.01 L 187.583 315.01 L 187.583 321.868 L 184.305 321.868 Z " fill-rule="evenodd" fill="rgb(149,147,128)"/><path d=" M 184.305 321.868 L 184.305 318.899 L 187.582 318.899 L 187.582 321.868 L 184.305 321.868 L 184.305 321.868 Z  M 214.947 318.899 L 214.947 321.868 L 211.672 321.868 L 211.672 318.899 L 214.947 318.899 L 214.947 318.899 Z  M 205.8 318.899 L 205.8 321.868 L 202.522 321.868 L 202.522 318.899 L 205.8 318.899 L 205.8 318.899 Z  M 196.728 318.899 L 196.728 321.868 L 193.451 321.868 L 193.451 318.899 L 196.728 318.899 Z " fill-rule="evenodd" fill="rgb(126,124,107)"/><path d=" M 102.169 351.295 L 160.065 351.295 L 160.065 288.308 C 160.065 272.386 147.041 259.359 131.119 259.359 L 131.119 259.359 C 115.197 259.359 102.169 272.386 102.169 288.308 L 102.169 351.295 Z " fill-rule="evenodd" fill="rgb(181,175,142)"/><path d=" M 134.386 324.291 L 134.386 351.295 L 127.849 351.295 L 127.849 324.291 L 118.267 324.291 L 118.267 351.295 L 111.73 351.295 L 111.73 324.291 L 102.169 324.291 L 102.169 317.758 L 160.066 317.758 L 160.066 324.291 L 150.506 324.291 L 150.506 351.295 L 143.97 351.295 L 143.97 324.291 L 134.386 324.291 L 134.386 324.291 Z " fill-rule="evenodd" fill="rgb(225,224,204)"/><path d=" M 111.521 300.145 L 150.715 300.145 C 153.786 300.145 156.3 302.658 156.3 305.728 L 156.3 305.728 C 156.3 308.796 153.786 311.309 150.715 311.309 L 111.521 311.309 C 108.451 311.309 105.938 308.797 105.938 305.728 L 105.938 305.728 C 105.938 302.658 108.451 300.145 111.521 300.145 Z " fill-rule="evenodd" fill="rgb(73,60,41)"/><path d=" M 154.717 292.621 L 154.717 291.453 C 154.717 283.759 150.988 276.896 145.248 272.579 L 145.248 292.621 L 154.717 292.621 L 154.717 292.621 Z  M 138.71 269.115 C 136.325 268.295 133.772 267.852 131.119 267.852 L 131.119 267.852 C 128.466 267.852 125.91 268.299 123.523 269.115 L 123.523 292.621 L 138.71 292.621 L 138.71 269.115 L 138.71 269.115 Z  M 116.99 272.579 C 111.248 276.896 107.517 283.759 107.517 291.453 L 107.517 292.621 L 116.99 292.621 L 116.99 272.579 L 116.99 272.579 Z " fill-rule="evenodd" fill="rgb(73,60,41)"/><path d=" M 117.65 56.787 L 144.686 56.787 L 144.686 59.009 L 117.65 59.009 L 117.65 56.787 Z " fill-rule="evenodd" fill="rgb(156,151,128)"/><path d=" M 42.036 164.708 L 44.972 164.708 L 61.25 164.708 L 64.18 164.708 L 80.459 164.708 L 83.395 164.708 L 83.395 168.431 L 83.395 186.599 L 83.395 190.32 L 83.395 208.763 L 83.395 212.486 L 83.395 234.693 L 83.395 238.416 L 80.459 238.416 L 64.18 238.416 L 61.25 238.416 L 44.972 238.416 L 42.036 238.416 L 42.036 234.693 L 42.036 212.486 L 42.036 208.763 L 42.036 190.32 L 42.036 186.599 L 42.036 168.431 L 42.036 164.708 L 42.036 164.708 L 42.036 164.708 Z  M 44.971 186.599 L 61.249 186.599 L 61.249 168.431 L 44.971 168.431 L 44.971 186.599 L 44.971 186.599 Z  M 64.179 186.599 L 80.458 186.599 L 80.458 168.431 L 64.179 168.431 L 64.179 186.599 L 64.179 186.599 Z  M 80.459 190.32 L 64.18 190.32 L 64.18 208.763 L 80.459 208.763 L 80.459 190.32 L 80.459 190.32 Z  M 61.25 190.32 L 44.972 190.32 L 44.972 208.763 L 61.25 208.763 L 61.25 190.32 L 61.25 190.32 Z  M 80.459 212.486 L 64.18 212.486 L 64.18 234.693 L 80.459 234.693 L 80.459 212.486 L 80.459 212.486 Z  M 61.25 212.486 L 44.972 212.486 L 44.972 234.693 L 61.25 234.693 L 61.25 212.486 Z " fill-rule="evenodd" fill="rgb(255,255,255)"/><path d=" M 83.394 166.547 L 85.385 166.547 L 85.385 170.275 L 85.385 188.442 L 85.385 192.165 L 85.385 210.605 L 85.385 214.331 L 85.385 236.538 L 85.385 240.261 L 82.452 240.261 L 66.174 240.261 L 63.241 240.261 L 46.963 240.261 L 44.029 240.261 L 44.029 238.417 L 44.97 238.417 L 61.248 238.417 L 64.178 238.417 L 80.457 238.417 L 83.393 238.417 L 83.393 234.694 L 83.393 212.487 L 83.393 208.764 L 83.393 190.321 L 83.393 186.6 L 83.393 168.432 L 83.393 166.547 L 83.394 166.547 L 83.394 166.547 Z  M 61.25 170.274 L 61.25 168.431 L 44.972 168.431 L 44.972 186.599 L 46.964 186.599 L 46.964 170.274 L 61.25 170.274 L 61.25 170.274 Z  M 80.459 170.274 L 80.459 168.431 L 64.18 168.431 L 64.18 186.599 L 66.175 186.599 L 66.175 170.274 L 80.459 170.274 L 80.459 170.274 Z  M 80.459 192.164 L 80.459 190.32 L 64.18 190.32 L 64.18 208.763 L 66.175 208.763 L 66.175 192.163 L 80.459 192.163 L 80.459 192.164 L 80.459 192.164 Z  M 61.25 192.164 L 61.25 190.32 L 44.972 190.32 L 44.972 208.763 L 46.964 208.763 L 46.964 192.163 L 61.25 192.163 L 61.25 192.164 L 61.25 192.164 Z  M 80.459 214.33 L 80.459 212.486 L 64.18 212.486 L 64.18 234.693 L 66.175 234.693 L 66.175 214.33 L 80.459 214.33 L 80.459 214.33 Z  M 61.25 214.33 L 61.25 212.486 L 44.972 212.486 L 44.972 234.693 L 46.964 234.693 L 46.964 214.33 L 61.25 214.33 Z " fill-rule="evenodd" fill="rgb(212,209,182)"/><path d=" M 44.971 168.431 L 61.249 168.431 L 61.249 186.599 L 44.971 186.599 L 44.971 168.431 Z " fill-rule="evenodd" fill="rgb(73,60,41)"/><path d=" M 44.971 190.32 L 61.249 190.32 L 61.249 208.763 L 44.971 208.763 L 44.971 190.32 Z " fill-rule="evenodd" fill="rgb(73,60,41)"/><path d=" M 64.179 190.32 L 80.458 190.32 L 80.458 208.763 L 64.179 208.763 L 64.179 190.32 Z " fill-rule="evenodd" fill="rgb(73,60,41)"/><path d=" M 64.179 168.431 L 80.458 168.431 L 80.458 186.599 L 64.179 186.599 L 64.179 168.431 Z " fill-rule="evenodd" fill="rgb(73,60,41)"/><path d=" M 64.179 212.486 L 80.458 212.486 L 80.458 234.693 L 64.179 234.693 L 64.179 212.486 Z " fill-rule="evenodd" fill="rgb(73,60,41)"/><path d=" M 44.971 212.486 L 61.249 212.486 L 61.249 234.693 L 44.971 234.693 L 44.971 212.486 Z " fill-rule="evenodd" fill="rgb(73,60,41)"/><path d=" M 181.879 168.431 L 198.158 168.431 L 198.158 186.599 L 181.879 186.599 L 181.879 168.431 Z " fill-rule="evenodd" fill="rgb(73,60,41)"/><path d=" M 181.879 190.32 L 198.158 190.32 L 198.158 208.763 L 181.879 208.763 L 181.879 190.32 Z " fill-rule="evenodd" fill="rgb(73,60,41)"/><path d=" M 201.09 190.32 L 217.367 190.32 L 217.367 208.763 L 201.09 208.763 L 201.09 190.32 Z " fill-rule="evenodd" fill="rgb(73,60,41)"/><path d=" M 201.09 168.431 L 217.367 168.431 L 217.367 186.599 L 201.09 186.599 L 201.09 168.431 Z " fill-rule="evenodd" fill="rgb(73,60,41)"/><path d=" M 201.09 212.486 L 217.367 212.486 L 217.367 234.693 L 201.09 234.693 L 201.09 212.486 Z " fill-rule="evenodd" fill="rgb(73,60,41)"/><path d=" M 181.879 212.486 L 198.158 212.486 L 198.158 234.693 L 181.879 234.693 L 181.879 212.486 Z " fill-rule="evenodd" fill="rgb(73,60,41)"/><path d=" M 105.761 168.431 L 120.883 168.431 L 120.883 186.599 L 105.761 186.599 L 105.761 168.431 Z " fill-rule="evenodd" fill="rgb(73,60,41)"/><path d=" M 105.761 190.32 L 120.883 190.32 L 120.883 208.763 L 105.761 208.763 L 105.761 190.32 Z " fill-rule="evenodd" fill="rgb(73,60,41)"/><path d=" M 105.761 212.486 L 120.883 212.486 L 120.883 234.693 L 105.761 234.693 L 105.761 212.486 Z " fill-rule="evenodd" fill="rgb(73,60,41)"/><path d=" M 123.608 212.486 L 138.733 212.486 L 138.733 234.693 L 123.608 234.693 L 123.608 212.486 Z " fill-rule="evenodd" fill="rgb(73,60,41)"/><path d=" M 123.608 190.32 L 138.733 190.32 L 138.733 208.763 L 123.608 208.763 L 123.608 190.32 Z " fill-rule="evenodd" fill="rgb(73,60,41)"/><path d=" M 123.608 168.431 L 138.733 168.431 L 138.733 186.599 L 123.608 186.599 L 123.608 168.431 Z " fill-rule="evenodd" fill="rgb(73,60,41)"/><path d=" M 141.457 168.431 L 156.581 168.431 L 156.581 186.599 L 141.457 186.599 L 141.457 168.431 Z " fill-rule="evenodd" fill="rgb(73,60,41)"/><path d=" M 141.457 190.32 L 156.581 190.32 L 156.581 208.763 L 141.457 208.763 L 141.457 190.32 Z " fill-rule="evenodd" fill="rgb(73,60,41)"/><path d=" M 141.457 212.486 L 156.581 212.486 L 156.581 234.693 L 141.457 234.693 L 141.457 212.486 Z " fill-rule="evenodd" fill="rgb(73,60,41)"/><path d=" M 159.305 166.547 L 161.301 166.547 L 161.301 170.274 L 161.301 188.441 L 161.301 192.164 L 161.301 210.604 L 161.301 214.33 L 161.301 236.536 L 161.301 240.26 L 158.366 240.26 L 142.085 240.26 L 139.156 240.26 L 122.877 240.26 L 119.946 240.26 L 119.946 238.416 L 137.162 238.416 L 140.095 238.416 L 156.374 238.416 L 159.305 238.416 L 159.305 234.693 L 159.305 212.486 L 159.305 208.763 L 159.305 190.32 L 159.305 186.599 L 159.305 168.431 L 159.305 166.547 L 159.305 166.547 Z " fill-rule="evenodd" fill="rgb(212,209,182)"/><path d=" M 220.303 166.547 L 222.297 166.547 L 222.297 170.274 L 222.297 188.441 L 222.297 192.164 L 222.297 210.604 L 222.297 214.33 L 222.297 236.536 L 222.297 240.26 L 219.366 240.26 L 203.085 240.26 L 200.154 240.26 L 183.874 240.26 L 180.942 240.26 L 180.942 238.416 L 198.159 238.416 L 201.09 238.416 L 217.368 238.416 L 220.303 238.416 L 220.303 234.693 L 220.303 212.486 L 220.303 208.763 L 220.303 190.32 L 220.303 186.599 L 220.303 168.431 L 220.303 166.547 L 220.303 166.547 Z " fill-rule="evenodd" fill="rgb(212,209,182)"/><path d=" M 53.067 327.208 L 72.362 327.208 L 72.362 330.12 L 53.067 330.12 L 53.067 327.208 Z " fill-rule="evenodd" fill="rgb(126,124,107)"/><path d=" M 189.977 327.208 L 209.273 327.208 L 209.273 330.12 L 189.977 330.12 L 189.977 327.208 Z " fill-rule="evenodd" fill="rgb(126,124,107)"/><path d=" M 102.169 324.291 L 111.73 324.291 L 111.73 351.295 L 102.169 351.295 L 102.169 324.291 Z " fill-rule="evenodd" fill="rgb(73,60,41)"/><path d=" M 118.267 324.291 L 127.849 324.291 L 127.849 351.295 L 118.267 351.295 L 118.267 324.291 Z " fill-rule="evenodd" fill="rgb(73,60,41)"/><path d=" M 134.386 324.291 L 143.97 324.291 L 143.97 351.295 L 134.386 351.295 L 134.386 324.291 Z " fill-rule="evenodd" fill="rgb(73,60,41)"/><path d=" M 150.506 324.291 L 160.066 324.291 L 160.066 351.295 L 150.506 351.295 L 150.506 324.291 Z " fill-rule="evenodd" fill="rgb(73,60,41)"/></g></g></svg>