<?xml version="1.0" standalone="no"?><!-- Generator: Gravit.io --><svg xmlns="http://www.w3.org/2000/svg" xmlns:xlink="http://www.w3.org/1999/xlink" style="isolation:isolate" viewBox="0 0 541.333 200" width="541.333" height="200"><defs><clipPath id="_clipPath_SRoLsd8AHje3l6LTkNpJ4gorwPOnp1DX"><rect width="541.333" height="200"/></clipPath></defs><g clip-path="url(#_clipPath_SRoLsd8AHje3l6LTkNpJ4gorwPOnp1DX)"><clipPath id="_clipPath_YxHembXRCwrdbjl0LtQnu56HLQvEWO8B"><rect x="0" y="0" width="541.333" height="200" transform="matrix(1,0,0,1,0,0)" fill="rgb(255,255,255)"/></clipPath><g clip-path="url(#_clipPath_YxHembXRCwrdbjl0LtQnu56HLQvEWO8B)"><g><g><path d=" M 303.908 180.912 L 250.428 180.912 L 250.428 52.061 L 303.908 52.061 L 303.908 180.912 L 303.908 180.912 Z " fill="rgb(227,227,227)"/><path d=" M 281.477 172.671 L 272.859 172.671 L 272.859 180.999 L 281.477 180.999 L 281.477 172.671 L 281.477 172.671 Z " fill="rgb(58,58,58)"/><path d=" M 277.731 180.999 L 276.607 180.999 L 276.607 172.671 L 277.731 172.671 L 277.731 180.999 L 277.731 180.999 Z " fill="rgb(144,144,144)"/><path d=" M 257.845 90.607 L 254.343 90.607 L 254.343 153.835 L 257.845 153.835 L 257.845 90.607 L 257.845 90.607 Z " fill="rgb(63,183,182)"/><path d=" M 264.851 90.607 L 261.348 90.607 L 261.348 153.835 L 264.851 153.835 L 264.851 90.607 L 264.851 90.607 Z " fill="rgb(63,183,182)"/><path d=" M 271.855 90.607 L 268.351 90.607 L 268.351 153.835 L 271.855 153.835 L 271.855 90.607 L 271.855 90.607 Z " fill="rgb(63,183,182)"/><path d=" M 278.859 90.607 L 275.357 90.607 L 275.357 153.835 L 278.859 153.835 L 278.859 90.607 L 278.859 90.607 Z " fill="rgb(63,183,182)"/><path d=" M 285.864 90.607 L 282.361 90.607 L 282.361 153.835 L 285.864 153.835 L 285.864 90.607 L 285.864 90.607 Z " fill="rgb(63,183,182)"/><path d=" M 292.867 90.607 L 289.364 90.607 L 289.364 153.835 L 292.867 153.835 L 292.867 90.607 L 292.867 90.607 Z " fill="rgb(63,183,182)"/><path d=" M 299.872 90.607 L 296.368 90.607 L 296.368 153.835 L 299.872 153.835 L 299.872 90.607 L 299.872 90.607 Z " fill="rgb(63,183,182)"/><path d=" M 257.845 58.708 L 254.343 58.708 L 254.343 72.988 L 257.845 72.988 L 257.845 58.708 L 257.845 58.708 Z " fill="rgb(63,183,182)"/><path d=" M 264.851 58.708 L 261.348 58.708 L 261.348 72.988 L 264.851 72.988 L 264.851 58.708 L 264.851 58.708 Z " fill="rgb(63,183,182)"/><path d=" M 271.855 58.708 L 268.351 58.708 L 268.351 72.988 L 271.855 72.988 L 271.855 58.708 L 271.855 58.708 Z " fill="rgb(63,183,182)"/><path d=" M 278.859 58.708 L 275.357 58.708 L 275.357 72.988 L 278.859 72.988 L 278.859 58.708 L 278.859 58.708 Z " fill="rgb(63,183,182)"/><path d=" M 285.864 58.708 L 282.361 58.708 L 282.361 72.988 L 285.864 72.988 L 285.864 58.708 L 285.864 58.708 Z " fill="rgb(63,183,182)"/><path d=" M 292.867 58.708 L 289.364 58.708 L 289.364 72.988 L 292.867 72.988 L 292.867 58.708 L 292.867 58.708 Z " fill="rgb(63,183,182)"/><path d=" M 299.872 58.708 L 296.368 58.708 L 296.368 72.988 L 299.872 72.988 L 299.872 58.708 L 299.872 58.708 Z " fill="rgb(63,183,182)"/><path d=" M 303.908 87.613 L 250.428 87.613 L 250.428 76.151 L 303.908 76.151 L 303.908 87.613 Z " fill="rgb(170,170,170)"/><path d=" M 266.661 38.911 L 266.661 52.061 L 277.167 52.061 L 277.167 38.911 L 266.661 38.911 L 266.661 38.911 Z " fill="rgb(227,227,227)"/><path d=" M 287.675 38.911 L 277.167 38.911 L 277.167 52.061 L 287.675 52.061 L 287.675 38.911 L 287.675 38.911 Z " fill="rgb(170,170,170)"/><path d=" M 280.06 38.911 L 274.277 38.911 L 274.277 36.369 L 280.06 36.369 L 280.06 38.911 L 280.06 38.911 Z " fill="rgb(122,122,122)"/><path d=" M 303.908 87.613 L 250.428 87.613 L 253.42 90.607 L 303.908 90.607 L 303.908 87.613 L 303.908 87.613 Z " fill="rgb(193,193,193)"/><path d=" M 254.343 157.691 L 254.343 168.533 L 271.685 168.533 L 282.531 157.691 L 254.343 157.691 L 254.343 157.691 Z " fill="rgb(63,183,182)"/><path d=" M 299.872 157.691 L 282.531 157.691 L 271.685 168.533 L 299.872 168.533 L 299.872 157.691 L 299.872 157.691 Z " fill="rgb(47,137,137)"/><path d=" M 303.908 79.364 L 250.428 79.364 L 250.428 76.151 L 303.908 76.151 L 303.908 79.364 Z " fill="rgb(187,187,187)"/><path d=" M 1.969 598.236 L 1.02 598.236 L 1.02 561.195 L 1.969 561.195 L 1.969 598.236 L 1.969 598.236 Z " fill="rgb(232,232,232)"/></g></g></g></g></svg>