<?xml version="1.0" standalone="no"?><!-- Generator: Gravit.io --><svg xmlns="http://www.w3.org/2000/svg" xmlns:xlink="http://www.w3.org/1999/xlink" style="isolation:isolate" viewBox="0 0 1055 878.5" width="1055" height="878.5"><defs><clipPath id="_clipPath_SZ0oCeOhMliuf7c5IlYlmhqk2UHP8wCS"><rect width="1055" height="878.5"/></clipPath></defs><g clip-path="url(#_clipPath_SZ0oCeOhMliuf7c5IlYlmhqk2UHP8wCS)"><g><rect x="20" y="128.5" width="400" height="750" transform="matrix(1,0,0,1,0,0)" fill="rgb(168,170,169)"/><g><rect x="0" y="118.5" width="40" height="760" transform="matrix(1,0,0,1,0,0)" fill="rgb(128,128,128)"/><rect x="5" y="108.5" width="30" height="570" transform="matrix(1,0,0,1,0,0)" fill="rgb(105,105,105)"/></g><rect x="820" y="128.5" width="215" height="750" transform="matrix(1,0,0,1,0,0)" fill="rgb(168,170,169)"/><rect x="420" y="128.5" width="400" height="750" transform="matrix(1,0,0,1,0,0)" fill="rgb(168,170,169)"/><rect x="15" y="198.5" width="1005" height="10" transform="matrix(1,0,0,1,0,0)" fill="rgb(105,105,105)"/><rect x="15" y="378.5" width="1005" height="10" transform="matrix(1,0,0,1,0,0)" fill="rgb(105,105,105)"/><rect x="15" y="418.5" width="1005" height="10" transform="matrix(1,0,0,1,0,0)" fill="rgb(105,105,105)"/><g><rect x="400" y="118.5" width="40" height="760" transform="matrix(1,0,0,1,0,0)" fill="rgb(128,128,128)"/><rect x="405" y="108.5" width="30" height="570" transform="matrix(1,0,0,1,0,0)" fill="rgb(105,105,105)"/></g><g><rect x="800" y="118.5" width="40" height="760" transform="matrix(1,0,0,1,0,0)" fill="rgb(128,128,128)"/><rect x="805" y="108.5" width="30" height="570" transform="matrix(1,0,0,1,0,0)" fill="rgb(105,105,105)"/></g><g><g><rect x="62.5" y="483.5" width="40" height="120" transform="matrix(1,0,0,1,0,0)" fill="rgb(255,255,255)"/><rect x="67.5" y="488.5" width="30" height="110" transform="matrix(1,0,0,1,0,0)" fill="rgb(152,251,152)"/></g><g><rect x="102.5" y="483.5" width="40" height="120" transform="matrix(1,0,0,1,0,0)" fill="rgb(255,255,255)"/><rect x="107.5" y="488.5" width="30" height="110" transform="matrix(1,0,0,1,0,0)" fill="rgb(152,251,152)"/></g><g><rect x="142.5" y="483.5" width="40" height="120" transform="matrix(1,0,0,1,0,0)" fill="rgb(255,255,255)"/><rect x="147.5" y="488.5" width="30" height="110" transform="matrix(1,0,0,1,0,0)" fill="rgb(152,251,152)"/></g></g><g><g><rect x="257.5" y="483.5" width="40" height="120" transform="matrix(1,0,0,1,0,0)" fill="rgb(255,255,255)"/><rect x="262.5" y="488.5" width="30" height="110" transform="matrix(1,0,0,1,0,0)" fill="rgb(152,251,152)"/></g><g><rect x="297.5" y="483.5" width="40" height="120" transform="matrix(1,0,0,1,0,0)" fill="rgb(255,255,255)"/><rect x="302.5" y="488.5" width="30" height="110" transform="matrix(1,0,0,1,0,0)" fill="rgb(152,251,152)"/></g><g><rect x="337.5" y="483.5" width="40" height="120" transform="matrix(1,0,0,1,0,0)" fill="rgb(255,255,255)"/><rect x="342.5" y="488.5" width="30" height="110" transform="matrix(1,0,0,1,0,0)" fill="rgb(152,251,152)"/></g></g><g><g><g><rect x="62.5" y="253.5" width="40" height="120" transform="matrix(1,0,0,1,0,0)" fill="rgb(255,255,255)"/><rect x="67.5" y="258.5" width="30" height="110" transform="matrix(1,0,0,1,0,0)" fill="rgb(152,251,152)"/></g><g><rect x="102.5" y="253.5" width="40" height="120" transform="matrix(1,0,0,1,0,0)" fill="rgb(255,255,255)"/><rect x="107.5" y="258.5" width="30" height="110" transform="matrix(1,0,0,1,0,0)" fill="rgb(152,251,152)"/></g><g><rect x="142.5" y="253.5" width="40" height="120" transform="matrix(1,0,0,1,0,0)" fill="rgb(255,255,255)"/><rect x="147.5" y="258.5" width="30" height="110" transform="matrix(1,0,0,1,0,0)" fill="rgb(152,251,152)"/></g></g><g><g><rect x="257.5" y="253.5" width="40" height="120" transform="matrix(1,0,0,1,0,0)" fill="rgb(255,255,255)"/><rect x="262.5" y="258.5" width="30" height="110" transform="matrix(1,0,0,1,0,0)" fill="rgb(152,251,152)"/></g><g><rect x="297.5" y="253.5" width="40" height="120" transform="matrix(1,0,0,1,0,0)" fill="rgb(255,255,255)"/><rect x="302.5" y="258.5" width="30" height="110" transform="matrix(1,0,0,1,0,0)" fill="rgb(152,251,152)"/></g><g><rect x="337.5" y="253.5" width="40" height="120" transform="matrix(1,0,0,1,0,0)" fill="rgb(255,255,255)"/><rect x="342.5" y="258.5" width="30" height="110" transform="matrix(1,0,0,1,0,0)" fill="rgb(152,251,152)"/></g></g></g><g><g><g><rect x="462.5" y="253.5" width="40" height="120" transform="matrix(1,0,0,1,0,0)" fill="rgb(255,255,255)"/><rect x="467.5" y="258.5" width="30" height="110" transform="matrix(1,0,0,1,0,0)" fill="rgb(152,251,152)"/></g><g><rect x="502.5" y="253.5" width="40" height="120" transform="matrix(1,0,0,1,0,0)" fill="rgb(255,255,255)"/><rect x="507.5" y="258.5" width="30" height="110" transform="matrix(1,0,0,1,0,0)" fill="rgb(152,251,152)"/></g><g><rect x="542.5" y="253.5" width="40" height="120" transform="matrix(1,0,0,1,0,0)" fill="rgb(255,255,255)"/><rect x="547.5" y="258.5" width="30" height="110" transform="matrix(1,0,0,1,0,0)" fill="rgb(152,251,152)"/></g></g><g><g><rect x="657.5" y="253.5" width="40" height="120" transform="matrix(1,0,0,1,0,0)" fill="rgb(255,255,255)"/><rect x="662.5" y="258.5" width="30" height="110" transform="matrix(1,0,0,1,0,0)" fill="rgb(152,251,152)"/></g><g><rect x="697.5" y="253.5" width="40" height="120" transform="matrix(1,0,0,1,0,0)" fill="rgb(255,255,255)"/><rect x="702.5" y="258.5" width="30" height="110" transform="matrix(1,0,0,1,0,0)" fill="rgb(152,251,152)"/></g><g><rect x="737.5" y="253.5" width="40" height="120" transform="matrix(1,0,0,1,0,0)" fill="rgb(255,255,255)"/><rect x="742.5" y="258.5" width="30" height="110" transform="matrix(1,0,0,1,0,0)" fill="rgb(152,251,152)"/></g></g></g><g><g><g><rect x="462.5" y="483.5" width="40" height="120" transform="matrix(1,0,0,1,0,0)" fill="rgb(255,255,255)"/><rect x="467.5" y="488.5" width="30" height="110" transform="matrix(1,0,0,1,0,0)" fill="rgb(152,251,152)"/></g><g><rect x="502.5" y="483.5" width="40" height="120" transform="matrix(1,0,0,1,0,0)" fill="rgb(255,255,255)"/><rect x="507.5" y="488.5" width="30" height="110" transform="matrix(1,0,0,1,0,0)" fill="rgb(152,251,152)"/></g><g><rect x="542.5" y="483.5" width="40" height="120" transform="matrix(1,0,0,1,0,0)" fill="rgb(255,255,255)"/><rect x="547.5" y="488.5" width="30" height="110" transform="matrix(1,0,0,1,0,0)" fill="rgb(152,251,152)"/></g></g><g><g><rect x="657.5" y="483.5" width="40" height="120" transform="matrix(1,0,0,1,0,0)" fill="rgb(255,255,255)"/><rect x="662.5" y="488.5" width="30" height="110" transform="matrix(1,0,0,1,0,0)" fill="rgb(152,251,152)"/></g><g><rect x="697.5" y="483.5" width="40" height="120" transform="matrix(1,0,0,1,0,0)" fill="rgb(255,255,255)"/><rect x="702.5" y="488.5" width="30" height="110" transform="matrix(1,0,0,1,0,0)" fill="rgb(152,251,152)"/></g><g><rect x="737.5" y="483.5" width="40" height="120" transform="matrix(1,0,0,1,0,0)" fill="rgb(255,255,255)"/><rect x="742.5" y="488.5" width="30" height="110" transform="matrix(1,0,0,1,0,0)" fill="rgb(152,251,152)"/></g></g></g><g><g><rect x="847.5" y="483.5" width="40" height="120" transform="matrix(1,0,0,1,0,0)" fill="rgb(255,255,255)"/><rect x="852.5" y="488.5" width="30" height="110" transform="matrix(1,0,0,1,0,0)" fill="rgb(152,251,152)"/></g><g><rect x="887.5" y="483.5" width="40" height="120" transform="matrix(1,0,0,1,0,0)" fill="rgb(255,255,255)"/><rect x="892.5" y="488.5" width="30" height="110" transform="matrix(1,0,0,1,0,0)" fill="rgb(152,251,152)"/></g><g><rect x="927.5" y="483.5" width="40" height="120" transform="matrix(1,0,0,1,0,0)" fill="rgb(255,255,255)"/><rect x="932.5" y="488.5" width="30" height="110" transform="matrix(1,0,0,1,0,0)" fill="rgb(152,251,152)"/></g><g><rect x="967.5" y="483.5" width="40" height="120" transform="matrix(1,0,0,1,0,0)" fill="rgb(255,255,255)"/><rect x="972.5" y="488.5" width="30" height="110" transform="matrix(1,0,0,1,0,0)" fill="rgb(152,251,152)"/></g></g><g><rect x="1015" y="118.5" width="40" height="760" transform="matrix(1,0,0,1,0,0)" fill="rgb(128,128,128)"/><rect x="1020" y="108.5" width="30" height="570" transform="matrix(1,0,0,1,0,0)" fill="rgb(105,105,105)"/></g><g><g><rect x="847.5" y="253.5" width="40" height="120" transform="matrix(1,0,0,1,0,0)" fill="rgb(255,255,255)"/><rect x="852.5" y="258.5" width="30" height="110" transform="matrix(1,0,0,1,0,0)" fill="rgb(152,251,152)"/></g><g><rect x="887.5" y="253.5" width="40" height="120" transform="matrix(1,0,0,1,0,0)" fill="rgb(255,255,255)"/><rect x="892.5" y="258.5" width="30" height="110" transform="matrix(1,0,0,1,0,0)" fill="rgb(152,251,152)"/></g><g><rect x="927.5" y="253.5" width="40" height="120" transform="matrix(1,0,0,1,0,0)" fill="rgb(255,255,255)"/><rect x="932.5" y="258.5" width="30" height="110" transform="matrix(1,0,0,1,0,0)" fill="rgb(152,251,152)"/></g><g><rect x="967.5" y="253.5" width="40" height="120" transform="matrix(1,0,0,1,0,0)" fill="rgb(255,255,255)"/><rect x="972.5" y="258.5" width="30" height="110" transform="matrix(1,0,0,1,0,0)" fill="rgb(152,251,152)"/></g></g><rect x="160" y="108.5" width="120" height="90" transform="matrix(1,0,0,1,0,0)" fill="rgb(168,170,169)"/><rect x="560" y="108.5" width="120" height="90" transform="matrix(1,0,0,1,0,0)" fill="rgb(168,170,169)"/><rect x="882.5" y="108.5" width="90" height="90" transform="matrix(1,0,0,1,0,0)" fill="rgb(168,170,169)"/><g><rect x="62.5" y="477.5" width="120" height="5" transform="matrix(1,0,0,1,0,0)" fill="rgb(105,105,105)"/><rect x="62.5" y="469.5" width="120" height="5" transform="matrix(1,0,0,1,0,0)" fill="rgb(105,105,105)"/><rect x="62.5" y="461.5" width="120" height="5" transform="matrix(1,0,0,1,0,0)" fill="rgb(105,105,105)"/></g><g><rect x="257.5" y="477.5" width="120" height="5" transform="matrix(1,0,0,1,0,0)" fill="rgb(105,105,105)"/><rect x="257.5" y="469.5" width="120" height="5" transform="matrix(1,0,0,1,0,0)" fill="rgb(105,105,105)"/><rect x="257.5" y="461.5" width="120" height="5" transform="matrix(1,0,0,1,0,0)" fill="rgb(105,105,105)"/></g><g><rect x="62.5" y="247.5" width="120" height="5" transform="matrix(1,0,0,1,0,0)" fill="rgb(105,105,105)"/><rect x="62.5" y="239.5" width="120" height="5" transform="matrix(1,0,0,1,0,0)" fill="rgb(105,105,105)"/><rect x="62.5" y="231.5" width="120" height="5" transform="matrix(1,0,0,1,0,0)" fill="rgb(105,105,105)"/></g><g><rect x="257.5" y="247.5" width="120" height="5" transform="matrix(1,0,0,1,0,0)" fill="rgb(105,105,105)"/><rect x="257.5" y="239.5" width="120" height="5" transform="matrix(1,0,0,1,0,0)" fill="rgb(105,105,105)"/><rect x="257.5" y="231.5" width="120" height="5" transform="matrix(1,0,0,1,0,0)" fill="rgb(105,105,105)"/></g><g><rect x="462.5" y="247.5" width="120" height="5" transform="matrix(1,0,0,1,0,0)" fill="rgb(105,105,105)"/><rect x="462.5" y="239.5" width="120" height="5" transform="matrix(1,0,0,1,0,0)" fill="rgb(105,105,105)"/><rect x="462.5" y="231.5" width="120" height="5" transform="matrix(1,0,0,1,0,0)" fill="rgb(105,105,105)"/></g><g><rect x="657.5" y="247.5" width="120" height="5" transform="matrix(1,0,0,1,0,0)" fill="rgb(105,105,105)"/><rect x="657.5" y="239.5" width="120" height="5" transform="matrix(1,0,0,1,0,0)" fill="rgb(105,105,105)"/><rect x="657.5" y="231.5" width="120" height="5" transform="matrix(1,0,0,1,0,0)" fill="rgb(105,105,105)"/></g><g><rect x="462.5" y="477.5" width="120" height="5" transform="matrix(1,0,0,1,0,0)" fill="rgb(105,105,105)"/><rect x="462.5" y="469.5" width="120" height="5" transform="matrix(1,0,0,1,0,0)" fill="rgb(105,105,105)"/><rect x="462.5" y="461.5" width="120" height="5" transform="matrix(1,0,0,1,0,0)" fill="rgb(105,105,105)"/></g><g><rect x="657.6" y="477.5" width="120" height="5" transform="matrix(1,0,0,1,0,0)" fill="rgb(105,105,105)"/><rect x="657.6" y="469.5" width="120" height="5" transform="matrix(1,0,0,1,0,0)" fill="rgb(105,105,105)"/><rect x="657.6" y="461.5" width="120" height="5" transform="matrix(1,0,0,1,0,0)" fill="rgb(105,105,105)"/></g><g><rect x="847.5" y="247.5" width="160" height="5" transform="matrix(1,0,0,1,0,0)" fill="rgb(105,105,105)"/><rect x="847.5" y="239.5" width="160" height="5" transform="matrix(1,0,0,1,0,0)" fill="rgb(105,105,105)"/><rect x="847.5" y="231.5" width="160" height="5" transform="matrix(1,0,0,1,0,0)" fill="rgb(105,105,105)"/></g><g><rect x="847.5" y="477.5" width="160" height="5" transform="matrix(1,0,0,1,0,0)" fill="rgb(105,105,105)"/><rect x="847.5" y="469.5" width="160" height="5" transform="matrix(1,0,0,1,0,0)" fill="rgb(105,105,105)"/><rect x="847.5" y="461.5" width="160" height="5" transform="matrix(1,0,0,1,0,0)" fill="rgb(105,105,105)"/></g><g><g><rect x="145" y="167.5" width="150" height="5" transform="matrix(1,0,0,1,0,0)" fill="rgb(105,105,105)"/><rect x="145" y="157.5" width="150" height="5" transform="matrix(1,0,0,1,0,0)" fill="rgb(105,105,105)"/><rect x="145" y="147.5" width="150" height="5" transform="matrix(1,0,0,1,0,0)" fill="rgb(105,105,105)"/></g><rect x="217.5" y="0" width="5" height="160" transform="matrix(1,0,0,1,0,0)" fill="rgb(0,0,0)"/><g><rect x="195" y="140" width="50" height="40" transform="matrix(1,0,0,1,0,0)" fill="rgb(105,105,105)"/><rect x="200" y="135" width="40" height="50" transform="matrix(1,0,0,1,0,0)" fill="rgb(128,128,128)"/><rect x="205" y="130" width="30" height="60" transform="matrix(1,0,0,1,0,0)" fill="rgb(192,192,192)"/></g><rect x="212.5" y="0" width="15" height="5" transform="matrix(1,0,0,1,0,0)" fill="rgb(0,0,0)"/></g><g><g><rect x="545" y="167.5" width="150" height="5" transform="matrix(1,0,0,1,0,0)" fill="rgb(105,105,105)"/><rect x="545" y="157.5" width="150" height="5" transform="matrix(1,0,0,1,0,0)" fill="rgb(105,105,105)"/><rect x="545" y="147.5" width="150" height="5" transform="matrix(1,0,0,1,0,0)" fill="rgb(105,105,105)"/></g><rect x="617.5" y="0" width="5" height="160" transform="matrix(1,0,0,1,0,0)" fill="rgb(0,0,0)"/><g><rect x="595" y="140" width="50" height="40" transform="matrix(1,0,0,1,0,0)" fill="rgb(105,105,105)"/><rect x="600" y="135" width="40" height="50" transform="matrix(1,0,0,1,0,0)" fill="rgb(128,128,128)"/><rect x="605" y="130" width="30" height="60" transform="matrix(1,0,0,1,0,0)" fill="rgb(192,192,192)"/></g><rect x="612.5" y="0" width="15" height="5" transform="matrix(1,0,0,1,0,0)" fill="rgb(0,0,0)"/></g><g><g><rect x="852.5" y="167.5" width="150" height="5" transform="matrix(1,0,0,1,0,0)" fill="rgb(105,105,105)"/><rect x="852.5" y="157.5" width="150" height="5" transform="matrix(1,0,0,1,0,0)" fill="rgb(105,105,105)"/><rect x="852.5" y="147.5" width="150" height="5" transform="matrix(1,0,0,1,0,0)" fill="rgb(105,105,105)"/></g><rect x="925" y="0" width="5" height="160" transform="matrix(1,0,0,1,0,0)" fill="rgb(0,0,0)"/><g><rect x="902.5" y="140" width="50" height="40" transform="matrix(1,0,0,1,0,0)" fill="rgb(105,105,105)"/><rect x="907.5" y="135" width="40" height="50" transform="matrix(1,0,0,1,0,0)" fill="rgb(128,128,128)"/><rect x="912.5" y="130" width="30" height="60" transform="matrix(1,0,0,1,0,0)" fill="rgb(192,192,192)"/></g><rect x="920" y="0" width="15" height="5" transform="matrix(1,0,0,1,0,0)" fill="rgb(0,0,0)"/></g><g><rect x="40" y="628.5" width="359.981" height="248.938" transform="matrix(1,0,0,1,0,0)" fill="rgb(255,255,255)"/><rect x="45.956" y="628.5" width="348.075" height="11.159" transform="matrix(1,0,0,1,0,0)" fill="rgb(255,255,255)"/><path d=" M 232.755 642.668 C 236.935 647.138 234.607 652.91 227.555 655.559 C 220.502 658.209 211.397 656.733 207.216 652.263 C 203.036 647.793 205.364 642.022 212.417 639.372 C 218.737 636.998 226.847 637.911 231.49 641.52" fill="rgb(255,255,255)"/><rect x="47.446" y="822.648" width="345.089" height="1.889" transform="matrix(-1,0,0,-1,439.981,1647.185)" fill="rgb(0,0,0)"/><rect x="47.446" y="682.825" width="345.089" height="1.889" transform="matrix(-1,0,0,-1,439.981,1367.54)" fill="rgb(0,0,0)"/><rect x="45.956" y="871.9" width="348.071" height="5.396" transform="matrix(1,0,0,1,0,0)" fill="rgb(255,255,255)"/><g><rect x="390.976" y="678.924" width="7.556" height="10.351" transform="matrix(0,-1,1,0,-289.346,1078.853)" fill="rgb(40,23,11)"/><rect x="390.963" y="818.658" width="7.556" height="10.351" transform="matrix(0,-1,1,0,-429.093,1218.575)" fill="rgb(40,23,11)"/><rect x="391.046" y="868.133" width="7.556" height="10.351" transform="matrix(0,-1,1,0,-478.485,1268.133)" fill="rgb(40,23,11)"/><rect x="390.971" y="628.521" width="7.556" height="10.351" transform="matrix(0,-1,1,0,-238.947,1028.446)" fill="rgb(40,23,11)"/></g><rect x="98.666" y="751.933" width="247.032" height="2.981" transform="matrix(0,-1,1,0,-531.242,975.605)" fill="rgb(0,0,0)"/><rect x="93.962" y="752.185" width="247.487" height="2.981" transform="matrix(0,-1,1,0,-535.97,971.381)" fill="rgb(0,0,0)"/><rect x="292.836" y="778.646" width="188.966" height="2.981" transform="matrix(0,-1,1,0,-392.817,1167.456)" fill="rgb(0,0,0)"/><rect x="265.802" y="872.73" width="122.955" height="1.889" transform="matrix(-1,0,0,-1,654.559,1747.35)" fill="rgb(0,0,0)"/><rect x="394.031" y="628.5" width="5.962" height="248.938" transform="matrix(1,0,0,1,0,0)" fill="rgb(0,0,0)"/><rect x="171.24" y="778.632" width="188.953" height="2.968" transform="matrix(0,-1,1,0,-514.4,1045.833)" fill="rgb(0,0,0)"/><rect x="264.232" y="685.641" width="124.558" height="1.889" transform="matrix(-1,0,0,-1,653.023,1373.171)" fill="rgb(0,0,0)"/><rect x="254.409" y="824.633" width="18.895" height="0.745" transform="matrix(0,-1,1,0,-561.149,1088.862)" fill="rgb(255,255,255)"/><rect x="205.691" y="663.649" width="36.693" height="0.735" transform="matrix(0,-1,1,0,-439.98,888.054)" fill="rgb(255,255,255)"/><rect x="193.237" y="659.382" width="45.195" height="0.745" transform="matrix(0,-1,1,0,-443.92,875.589)" fill="rgb(255,255,255)"/><rect x="379.737" y="825.409" width="18.895" height="0.745" transform="matrix(0,-1,1,0,-436.597,1214.966)" fill="rgb(255,255,255)"/><g><rect x="180.671" y="685.187" width="34.788" height="136.988" transform="matrix(1,0,0,1,0,0)" fill="rgb(36,31,28)"/><rect x="180.671" y="825.006" width="34.788" height="50.072" transform="matrix(1,0,0,1,0,0)" fill="rgb(36,31,28)"/><rect x="51.179" y="825.006" width="124.352" height="50.072" transform="matrix(1,0,0,1,0,0)" fill="rgb(36,31,28)"/><rect x="51.179" y="685.187" width="124.352" height="136.988" transform="matrix(1,0,0,1,0,0)" fill="rgb(36,31,28)"/></g><g><rect x="54.754" y="753.178" width="247.367" height="2.981" transform="matrix(0,-1,1,0,-576.23,933.107)" fill="rgb(0,0,0)"/><g><rect x="75.163" y="753.761" width="247.263" height="2.215" transform="matrix(0,-1,1,0,-556.074,953.663)" fill="rgb(0,0,0)"/><rect x="53.758" y="753.761" width="247.263" height="2.215" transform="matrix(0,-1,1,0,-577.479,932.258)" fill="rgb(0,0,0)"/><rect x="32.271" y="753.761" width="247.263" height="2.215" transform="matrix(0,-1,1,0,-598.967,910.771)" fill="rgb(0,0,0)"/><rect x="10.858" y="753.761" width="247.263" height="2.215" transform="matrix(0,-1,1,0,-620.379,889.358)" fill="rgb(0,0,0)"/><rect x="-10.629" y="753.525" width="247.263" height="2.215" transform="matrix(0,-1,1,0,-641.631,867.635)" fill="rgb(0,0,0)"/><rect x="-32.038" y="753.525" width="247.263" height="2.215" transform="matrix(0,-1,1,0,-663.039,846.226)" fill="rgb(0,0,0)"/><rect x="-53.525" y="753.525" width="247.263" height="2.215" transform="matrix(0,-1,1,0,-684.526,824.739)" fill="rgb(0,0,0)"/><rect x="-74.934" y="753.525" width="247.263" height="2.215" transform="matrix(0,-1,1,0,-705.936,803.33)" fill="rgb(0,0,0)"/></g><rect x="93.579" y="753.634" width="247.487" height="2.215" transform="matrix(0,-1,1,0,-537.42,972.064)" fill="rgb(0,0,0)"/></g><rect x="224.404" y="685.187" width="34.788" height="136.988" transform="matrix(1,0,0,1,0,0)" fill="rgb(36,31,28)"/><rect x="224.404" y="825.006" width="34.788" height="50.072" transform="matrix(1,0,0,1,0,0)" fill="rgb(36,31,28)"/><rect x="267.947" y="825.006" width="117.133" height="47.238" transform="matrix(1,0,0,1,0,0)" fill="rgb(36,31,28)"/><rect x="267.947" y="688" width="117.133" height="134.173" transform="matrix(1,0,0,1,0,0)" fill="rgb(36,31,28)"/><g><rect x="137.652" y="752.104" width="247.367" height="2.973" transform="matrix(0,1,-1,0,1014.927,492.255)" fill="rgb(0,0,0)"/><g><rect x="117.407" y="752.686" width="247.263" height="2.209" transform="matrix(0,1,-1,0,994.829,512.753)" fill="rgb(0,0,0)"/><rect x="138.75" y="752.686" width="247.263" height="2.209" transform="matrix(0,1,-1,0,1016.172,491.409)" fill="rgb(0,0,0)"/><rect x="160.176" y="752.686" width="247.263" height="2.209" transform="matrix(0,1,-1,0,1037.598,469.984)" fill="rgb(0,0,0)"/><rect x="181.526" y="752.686" width="247.263" height="2.209" transform="matrix(0,1,-1,0,1058.949,448.633)" fill="rgb(0,0,0)"/><rect x="202.952" y="752.451" width="247.263" height="2.209" transform="matrix(0,1,-1,0,1080.138,426.972)" fill="rgb(0,0,0)"/><rect x="224.299" y="752.451" width="247.263" height="2.209" transform="matrix(0,1,-1,0,1101.485,405.625)" fill="rgb(0,0,0)"/><rect x="245.724" y="752.451" width="247.263" height="2.209" transform="matrix(0,1,-1,0,1122.911,384.199)" fill="rgb(0,0,0)"/><rect x="267.072" y="752.451" width="247.263" height="2.209" transform="matrix(0,1,-1,0,1144.258,362.852)" fill="rgb(0,0,0)"/></g><rect x="98.82" y="752.56" width="247.487" height="2.209" transform="matrix(0,1,-1,0,976.228,531.101)" fill="rgb(0,0,0)"/></g><rect x="263.782" y="684.717" width="123.039" height="0.926" transform="matrix(-1,0,0,-1,650.604,1370.359)" fill="rgb(255,255,255)"/><rect x="265.465" y="874.616" width="123.477" height="0.937" transform="matrix(-1,0,0,-1,654.407,1750.168)" fill="rgb(255,255,255)"/><g><rect x="41.413" y="678.924" width="7.556" height="10.351" transform="matrix(0,-1,1,0,-638.909,729.29)" fill="rgb(40,23,11)"/><rect x="41.4" y="818.658" width="7.556" height="10.351" transform="matrix(0,-1,1,0,-778.655,869.012)" fill="rgb(40,23,11)"/><rect x="41.484" y="868.133" width="7.556" height="10.351" transform="matrix(0,-1,1,0,-828.047,918.571)" fill="rgb(40,23,11)"/><rect x="41.409" y="628.521" width="7.556" height="10.351" transform="matrix(0,-1,1,0,-588.51,678.883)" fill="rgb(40,23,11)"/></g><rect x="40" y="628.5" width="5.962" height="248.938" transform="matrix(1,0,0,1,0,0)" fill="rgb(0,0,0)"/><rect x="48.942" y="630.86" width="342.11" height="245.629" transform="matrix(1,0,0,1,0,0)" fill="none" vector-effect="non-scaling-stroke" stroke-width="2.496" stroke="rgb(0,0,0)" stroke-linejoin="miter" stroke-linecap="butt" stroke-miterlimit="2"/><rect x="95.474" y="752.232" width="248.938" height="1.491" transform="matrix(0,-1,1,0,-533.034,972.92)" fill="rgb(255,255,255)"/></g><rect x="15" y="618.5" width="1005" height="60" transform="matrix(1,0,0,1,0,0)" fill="rgb(105,105,105)"/><g><g><path d=" M 616.083 682.583 L 616.083 878.417 L 727.617 878.044 L 727.917 682.583 L 616.083 682.588 L 616.083 682.583 Z " fill-rule="evenodd" fill="rgb(139,69,19)" vector-effect="non-scaling-stroke" stroke-width="0.167" stroke="rgb(0,0,0)" stroke-linejoin="miter" stroke-linecap="butt" stroke-miterlimit="4"/><path d=" M 623.579 876.902 L 623.279 688.955 L 720.721 689.323 L 720.421 876.897" fill-rule="evenodd" fill="rgb(205,133,63)" vector-effect="non-scaling-stroke" stroke-width="0.167" stroke="rgb(0,0,0)" stroke-linejoin="miter" stroke-linecap="butt" stroke-miterlimit="4"/></g><g><path d=" M 623.917 682.583 L 623.917 878.417 L 512.383 878.044 L 512.083 682.583 L 623.917 682.588 L 623.917 682.583 Z " fill-rule="evenodd" fill="rgb(139,69,19)" vector-effect="non-scaling-stroke" stroke-width="0.167" stroke="rgb(0,0,0)" stroke-linejoin="miter" stroke-linecap="butt" stroke-miterlimit="4"/><path d=" M 616.421 876.902 L 616.721 688.955 L 519.279 689.323 L 519.579 876.897" fill-rule="evenodd" fill="rgb(205,133,63)" vector-effect="non-scaling-stroke" stroke-width="0.167" stroke="rgb(0,0,0)" stroke-linejoin="miter" stroke-linecap="butt" stroke-miterlimit="4"/></g></g><g><path d=" M 983.417 682.583 L 983.417 878.417 L 871.884 878.044 L 871.583 682.583 L 983.417 682.588 L 983.417 682.583 Z " fill-rule="evenodd" fill="rgb(139,69,19)" vector-effect="non-scaling-stroke" stroke-width="0.167" stroke="rgb(0,0,0)" stroke-linejoin="miter" stroke-linecap="butt" stroke-miterlimit="4"/><path d=" M 975.921 876.902 L 976.221 688.955 L 878.779 689.323 L 879.079 876.897" fill-rule="evenodd" fill="rgb(205,133,63)" vector-effect="non-scaling-stroke" stroke-width="0.167" stroke="rgb(0,0,0)" stroke-linejoin="miter" stroke-linecap="butt" stroke-miterlimit="4"/></g></g></g></svg>