<?xml version="1.0" standalone="no"?><!-- Generator: Gravit.io --><svg xmlns="http://www.w3.org/2000/svg" xmlns:xlink="http://www.w3.org/1999/xlink" style="isolation:isolate" viewBox="0 0 420 360" width="420" height="360"><defs><clipPath id="_clipPath_KByNAXKVQGT9KDZ03he2S508aJ8O2BnB"><rect width="420" height="360"/></clipPath></defs><g clip-path="url(#_clipPath_KByNAXKVQGT9KDZ03he2S508aJ8O2BnB)"><g><rect x="-1" y="-1" width="582" height="402" transform="matrix(1,0,0,1,0,0)" fill="none"/></g><g><path d=" M 64.336 133.15 L 376.745 133.15 L 376.745 316.983 L 64.336 316.983 L 64.336 133.15 L 64.336 133.15 Z " fill-rule="evenodd" fill="rgb(214,219,213)"/><path d=" M 302.363 34.78 L 302.363 16 L 283.235 16 L 283.235 34.78 L 156.253 34.78 L 156.253 16 L 137.124 16 L 137.124 34.78 L 64.336 133.15 L 376.747 133.15 L 302.363 34.78 L 302.363 34.78 Z " fill-rule="evenodd" fill="rgb(137,137,122)"/><path d=" M 152.267 113.76 L 177.505 113.76 L 177.505 88.388 C 177.505 81.449 171.825 75.77 164.887 75.77 L 164.887 75.77 C 157.945 75.77 152.266 81.449 152.266 88.388 L 152.266 113.76 L 152.267 113.76 Z " fill-rule="evenodd" fill="rgb(81,100,82)"/><path d=" M 152.267 94.285 L 163.626 94.285 L 163.626 75.834 C 164.039 75.792 164.462 75.77 164.887 75.77 L 164.887 75.77 C 165.312 75.77 165.729 75.792 166.144 75.834 L 166.144 94.285 L 177.505 94.285 L 177.505 96.803 L 166.144 96.803 L 166.144 113.76 L 163.626 113.76 L 163.626 96.803 L 152.267 96.803 L 152.267 94.285 Z " fill-rule="evenodd" fill="rgb(255,255,255)"/><path d=" M 258.465 113.76 L 283.702 113.76 L 283.702 88.388 C 283.702 81.449 278.024 75.77 271.082 75.77 L 271.082 75.77 C 264.142 75.77 258.464 81.449 258.464 88.388 L 258.464 113.76 L 258.465 113.76 Z " fill-rule="evenodd" fill="rgb(81,100,82)"/><path d=" M 258.465 94.285 L 269.825 94.285 L 269.825 75.834 C 270.24 75.792 270.658 75.77 271.083 75.77 L 271.083 75.77 C 271.51 75.77 271.929 75.792 272.344 75.834 L 272.344 94.285 L 283.702 94.285 L 283.702 96.803 L 272.344 96.803 L 272.344 113.76 L 269.825 113.76 L 269.825 96.803 L 258.465 96.803 L 258.465 94.285 Z " fill-rule="evenodd" fill="rgb(255,255,255)"/><path d=" M 81.499 300.513 L 96.194 300.513 C 96.302 300.513 96.394 300.607 96.394 300.712 L 96.394 308.284 C 96.394 308.39 96.3 308.483 96.194 308.483 L 81.499 308.483 C 81.395 308.483 81.302 308.39 81.302 308.284 L 81.302 300.712 C 81.302 300.604 81.389 300.513 81.499 300.513 Z " fill-rule="evenodd" fill="rgb(174,183,171)"/><path d=" M 64.535 144.357 L 90.623 144.357 C 90.735 144.357 90.825 144.446 90.825 144.554 L 90.825 152.122 C 90.825 152.23 90.731 152.323 90.623 152.323 L 64.535 152.323 C 64.427 152.323 64.336 152.236 64.336 152.122 L 64.336 144.554 C 64.336 144.444 64.426 144.357 64.535 144.357 Z " fill-rule="evenodd" fill="rgb(174,183,171)"/><path d=" M 208.09 136.66 L 234.18 136.66 C 234.29 136.66 234.38 136.755 234.38 136.862 L 234.38 144.434 C 234.38 144.538 234.286 144.631 234.18 144.631 L 208.09 144.631 C 207.983 144.631 207.891 144.542 207.891 144.434 L 207.891 136.862 C 207.891 136.752 207.98 136.66 208.09 136.66 Z " fill-rule="evenodd" fill="rgb(174,183,171)"/><path d=" M 325.455 151.175 L 343.859 151.175 C 343.969 151.175 344.061 151.269 344.061 151.372 L 344.061 158.946 C 344.061 159.048 343.965 159.143 343.859 159.143 L 325.455 159.143 C 325.351 159.143 325.255 159.053 325.255 158.946 L 325.255 151.372 C 325.256 151.263 325.345 151.175 325.455 151.175 Z " fill-rule="evenodd" fill="rgb(174,183,171)"/><path d=" M 341.999 229.452 L 360.405 229.452 C 360.515 229.452 360.605 229.546 360.605 229.651 L 360.605 237.222 C 360.605 237.327 360.511 237.42 360.405 237.42 L 341.999 237.42 C 341.894 237.42 341.8 237.333 341.8 237.222 L 341.8 229.651 C 341.8 229.54 341.891 229.452 341.999 229.452 Z " fill-rule="evenodd" fill="rgb(174,183,171)"/><path d=" M 363.576 292.657 L 376.548 292.657 C 376.656 292.657 376.748 292.75 376.748 292.854 L 376.748 300.426 C 376.748 300.533 376.652 300.623 376.548 300.623 L 363.576 300.623 C 363.47 300.623 363.376 300.535 363.376 300.426 L 363.376 292.854 C 363.376 292.744 363.464 292.657 363.576 292.657 Z " fill-rule="evenodd" fill="rgb(174,183,171)"/><path d=" M 107.372 179.905 L 134.998 179.905 L 134.998 218.691 L 107.372 218.691 L 107.372 179.905 L 107.372 179.905 Z " fill-rule="evenodd" fill="rgb(81,100,82)"/><path d=" M 107.373 179.907 L 109.333 179.907 L 120.205 179.907 L 122.164 179.907 L 133.039 179.907 L 134.998 179.907 L 134.998 181.867 L 134.998 191.427 L 134.998 193.383 L 134.998 203.087 L 134.998 205.049 L 134.998 216.735 L 134.998 218.692 L 133.039 218.692 L 122.164 218.692 L 120.205 218.692 L 109.333 218.692 L 107.373 218.692 L 107.373 216.735 L 107.373 205.049 L 107.373 203.087 L 107.373 193.383 L 107.373 191.427 L 107.373 181.867 L 107.373 179.907 L 107.373 179.907 L 107.373 179.907 Z  M 109.333 191.427 L 120.205 191.427 L 120.205 181.867 L 109.333 181.867 L 109.333 191.427 L 109.333 191.427 L 109.333 191.427 Z  M 122.165 191.427 L 133.04 191.427 L 133.04 181.867 L 122.165 181.867 L 122.165 191.427 L 122.165 191.427 Z  M 133.039 193.383 L 122.164 193.383 L 122.164 203.087 L 133.039 203.087 L 133.039 193.383 L 133.039 193.383 Z  M 120.205 193.383 L 109.333 193.383 L 109.333 203.087 L 120.205 203.087 L 120.205 193.383 L 120.205 193.383 Z  M 133.039 205.049 L 122.164 205.049 L 122.164 216.735 L 133.039 216.735 L 133.039 205.049 L 133.039 205.049 Z  M 120.205 205.049 L 109.333 205.049 L 109.333 216.735 L 120.205 216.735 L 120.205 205.049 Z " fill-rule="evenodd" fill="rgb(255,255,255)"/><path d=" M 153.779 179.905 L 181.408 179.905 L 181.408 218.691 L 153.779 218.691 L 153.779 179.905 L 153.779 179.905 Z " fill-rule="evenodd" fill="rgb(81,100,82)"/><path d=" M 153.777 179.907 L 155.738 179.907 L 166.613 179.907 L 168.572 179.907 L 179.448 179.907 L 181.408 179.907 L 181.408 181.867 L 181.408 191.427 L 181.408 193.383 L 181.408 203.087 L 181.408 205.049 L 181.408 216.735 L 181.408 218.692 L 179.448 218.692 L 168.572 218.692 L 166.613 218.692 L 155.738 218.692 L 153.777 218.692 L 153.777 216.735 L 153.777 205.049 L 153.777 203.087 L 153.777 193.383 L 153.777 191.427 L 153.777 181.867 L 153.777 179.907 L 153.777 179.907 Z  M 155.738 191.427 L 166.613 191.427 L 166.613 181.867 L 155.738 181.867 L 155.738 191.427 L 155.738 191.427 Z  M 168.572 191.427 L 179.448 191.427 L 179.448 181.867 L 168.572 181.867 L 168.572 191.427 L 168.572 191.427 Z  M 179.448 193.383 L 168.572 193.383 L 168.572 203.087 L 179.448 203.087 L 179.448 193.383 L 179.448 193.383 Z  M 166.613 193.383 L 155.738 193.383 L 155.738 203.087 L 166.613 203.087 L 166.613 193.383 L 166.613 193.383 Z  M 179.448 205.049 L 168.572 205.049 L 168.572 216.735 L 179.448 216.735 L 179.448 205.049 L 179.448 205.049 Z  M 166.613 205.049 L 155.738 205.049 L 155.738 216.735 L 166.613 216.735 L 166.613 205.049 Z " fill-rule="evenodd" fill="rgb(255,255,255)"/><path d=" M 107.372 245.352 L 134.998 245.352 L 134.998 284.139 L 107.372 284.139 L 107.372 245.352 Z " fill-rule="evenodd" fill="rgb(81,100,82)"/><path d=" M 107.373 245.353 L 109.333 245.353 L 120.205 245.353 L 122.164 245.353 L 133.039 245.353 L 134.998 245.353 L 134.998 247.313 L 134.998 256.872 L 134.998 258.832 L 134.998 268.535 L 134.998 270.495 L 134.998 282.181 L 134.998 284.14 L 133.039 284.14 L 122.164 284.14 L 120.205 284.14 L 109.333 284.14 L 107.373 284.14 L 107.373 282.181 L 107.373 270.495 L 107.373 268.535 L 107.373 258.832 L 107.373 256.872 L 107.373 247.313 L 107.373 245.353 L 107.373 245.353 L 107.373 245.353 Z  M 109.333 256.872 L 120.205 256.872 L 120.205 247.313 L 109.333 247.313 L 109.333 256.872 L 109.333 256.872 L 109.333 256.872 Z  M 122.165 256.872 L 133.04 256.872 L 133.04 247.313 L 122.165 247.313 L 122.165 256.872 L 122.165 256.872 Z  M 133.039 258.832 L 122.164 258.832 L 122.164 268.535 L 133.039 268.535 L 133.039 258.832 L 133.039 258.832 Z  M 120.205 258.832 L 109.333 258.832 L 109.333 268.535 L 120.205 268.535 L 120.205 258.832 L 120.205 258.832 Z  M 133.039 270.495 L 122.164 270.495 L 122.164 282.181 L 133.039 282.181 L 133.039 270.495 L 133.039 270.495 Z  M 120.205 270.495 L 109.333 270.495 L 109.333 282.181 L 120.205 282.181 L 120.205 270.495 Z " fill-rule="evenodd" fill="rgb(255,255,255)"/><path d=" M 153.779 245.352 L 181.408 245.352 L 181.408 284.139 L 153.779 284.139 L 153.779 245.352 L 153.779 245.352 Z " fill-rule="evenodd" fill="rgb(81,100,82)"/><path d=" M 153.777 245.353 L 155.738 245.353 L 166.613 245.353 L 168.572 245.353 L 179.448 245.353 L 181.408 245.353 L 181.408 247.313 L 181.408 256.872 L 181.408 258.832 L 181.408 268.535 L 181.408 270.495 L 181.408 282.181 L 181.408 284.14 L 179.448 284.14 L 168.572 284.14 L 166.613 284.14 L 155.738 284.14 L 153.777 284.14 L 153.777 282.181 L 153.777 270.495 L 153.777 268.535 L 153.777 258.832 L 153.777 256.872 L 153.777 247.313 L 153.777 245.353 L 153.777 245.353 Z  M 155.738 256.872 L 166.613 256.872 L 166.613 247.313 L 155.738 247.313 L 155.738 256.872 L 155.738 256.872 Z  M 168.572 256.872 L 179.448 256.872 L 179.448 247.313 L 168.572 247.313 L 168.572 256.872 L 168.572 256.872 Z  M 179.448 258.832 L 168.572 258.832 L 168.572 268.535 L 179.448 268.535 L 179.448 258.832 L 179.448 258.832 Z  M 166.613 258.832 L 155.738 258.832 L 155.738 268.535 L 166.613 268.535 L 166.613 258.832 L 166.613 258.832 Z  M 179.448 270.495 L 168.572 270.495 L 168.572 282.181 L 179.448 282.181 L 179.448 270.495 L 179.448 270.495 Z  M 166.613 270.495 L 155.738 270.495 L 155.738 282.181 L 166.613 282.181 L 166.613 270.495 Z " fill-rule="evenodd" fill="rgb(255,255,255)"/><path d=" M 260.346 179.905 L 287.975 179.905 L 287.975 218.691 L 260.346 218.691 L 260.346 179.905 L 260.346 179.905 Z " fill-rule="evenodd" fill="rgb(81,100,82)"/><path d=" M 260.346 179.907 L 262.307 179.907 L 273.182 179.907 L 275.141 179.907 L 286.016 179.907 L 287.975 179.907 L 287.975 181.867 L 287.975 191.427 L 287.975 193.383 L 287.975 203.087 L 287.975 205.049 L 287.975 216.735 L 287.975 218.692 L 286.016 218.692 L 275.141 218.692 L 273.182 218.692 L 262.307 218.692 L 260.346 218.692 L 260.346 216.735 L 260.346 205.049 L 260.346 203.087 L 260.346 193.383 L 260.346 191.427 L 260.346 181.867 L 260.346 179.907 L 260.346 179.907 Z  M 262.308 191.427 L 273.183 191.427 L 273.183 181.867 L 262.308 181.867 L 262.308 191.427 L 262.308 191.427 Z  M 275.141 191.427 L 286.016 191.427 L 286.016 181.867 L 275.141 181.867 L 275.141 191.427 L 275.141 191.427 Z  M 286.016 193.383 L 275.141 193.383 L 275.141 203.087 L 286.016 203.087 L 286.016 193.383 L 286.016 193.383 Z  M 273.182 193.383 L 262.307 193.383 L 262.307 203.087 L 273.182 203.087 L 273.182 193.383 L 273.182 193.383 Z  M 286.016 205.049 L 275.141 205.049 L 275.141 216.735 L 286.016 216.735 L 286.016 205.049 L 286.016 205.049 Z  M 273.182 205.049 L 262.307 205.049 L 262.307 216.735 L 273.182 216.735 L 273.182 205.049 Z " fill-rule="evenodd" fill="rgb(255,255,255)"/><path d=" M 306.754 179.905 L 334.383 179.905 L 334.383 218.691 L 306.754 218.691 L 306.754 179.905 L 306.754 179.905 Z " fill-rule="evenodd" fill="rgb(81,100,82)"/><path d=" M 306.754 179.907 L 308.713 179.907 L 319.586 179.907 L 321.547 179.907 L 332.423 179.907 L 334.382 179.907 L 334.382 181.867 L 334.382 191.427 L 334.382 193.383 L 334.382 203.087 L 334.382 205.049 L 334.382 216.735 L 334.382 218.692 L 332.423 218.692 L 321.547 218.692 L 319.586 218.692 L 308.713 218.692 L 306.754 218.692 L 306.754 216.735 L 306.754 205.049 L 306.754 203.087 L 306.754 193.383 L 306.754 191.427 L 306.754 181.867 L 306.754 179.907 L 306.754 179.907 Z  M 308.713 191.427 L 319.586 191.427 L 319.586 181.867 L 308.713 181.867 L 308.713 191.427 L 308.713 191.427 Z  M 321.547 191.427 L 332.423 191.427 L 332.423 181.867 L 321.547 181.867 L 321.547 191.427 L 321.547 191.427 Z  M 332.423 193.383 L 321.547 193.383 L 321.547 203.087 L 332.423 203.087 L 332.423 193.383 L 332.423 193.383 Z  M 319.586 193.383 L 308.713 193.383 L 308.713 203.087 L 319.586 203.087 L 319.586 193.383 L 319.586 193.383 Z  M 332.423 205.049 L 321.547 205.049 L 321.547 216.735 L 332.423 216.735 L 332.423 205.049 L 332.423 205.049 Z  M 319.586 205.049 L 308.713 205.049 L 308.713 216.735 L 319.586 216.735 L 319.586 205.049 Z " fill-rule="evenodd" fill="rgb(255,255,255)"/><path d=" M 260.346 245.352 L 287.975 245.352 L 287.975 284.139 L 260.346 284.139 L 260.346 245.352 Z " fill-rule="evenodd" fill="rgb(81,100,82)"/><path d=" M 260.346 245.353 L 262.307 245.353 L 273.182 245.353 L 275.141 245.353 L 286.016 245.353 L 287.975 245.353 L 287.975 247.313 L 287.975 256.872 L 287.975 258.832 L 287.975 268.535 L 287.975 270.495 L 287.975 282.181 L 287.975 284.14 L 286.016 284.14 L 275.141 284.14 L 273.182 284.14 L 262.307 284.14 L 260.346 284.14 L 260.346 282.181 L 260.346 270.495 L 260.346 268.535 L 260.346 258.832 L 260.346 256.872 L 260.346 247.313 L 260.346 245.353 L 260.346 245.353 Z  M 262.308 256.872 L 273.183 256.872 L 273.183 247.313 L 262.308 247.313 L 262.308 256.872 L 262.308 256.872 Z  M 275.141 256.872 L 286.016 256.872 L 286.016 247.313 L 275.141 247.313 L 275.141 256.872 L 275.141 256.872 Z  M 286.016 258.832 L 275.141 258.832 L 275.141 268.535 L 286.016 268.535 L 286.016 258.832 L 286.016 258.832 Z  M 273.182 258.832 L 262.307 258.832 L 262.307 268.535 L 273.182 268.535 L 273.182 258.832 L 273.182 258.832 Z  M 286.016 270.495 L 275.141 270.495 L 275.141 282.181 L 286.016 282.181 L 286.016 270.495 L 286.016 270.495 Z  M 273.182 270.495 L 262.307 270.495 L 262.307 282.181 L 273.182 282.181 L 273.182 270.495 Z " fill-rule="evenodd" fill="rgb(255,255,255)"/><path d=" M 306.754 245.352 L 334.383 245.352 L 334.383 284.139 L 306.754 284.139 L 306.754 245.352 Z " fill-rule="evenodd" fill="rgb(81,100,82)"/><path d=" M 306.754 245.353 L 308.713 245.353 L 319.586 245.353 L 321.547 245.353 L 332.423 245.353 L 334.382 245.353 L 334.382 247.313 L 334.382 256.872 L 334.382 258.832 L 334.382 268.535 L 334.382 270.495 L 334.382 282.181 L 334.382 284.14 L 332.423 284.14 L 321.547 284.14 L 319.586 284.14 L 308.713 284.14 L 306.754 284.14 L 306.754 282.181 L 306.754 270.495 L 306.754 268.535 L 306.754 258.832 L 306.754 256.872 L 306.754 247.313 L 306.754 245.353 L 306.754 245.353 Z  M 308.713 256.872 L 319.586 256.872 L 319.586 247.313 L 308.713 247.313 L 308.713 256.872 L 308.713 256.872 Z  M 321.547 256.872 L 332.423 256.872 L 332.423 247.313 L 321.547 247.313 L 321.547 256.872 L 321.547 256.872 Z  M 332.423 258.832 L 321.547 258.832 L 321.547 268.535 L 332.423 268.535 L 332.423 258.832 L 332.423 258.832 Z  M 319.586 258.832 L 308.713 258.832 L 308.713 268.535 L 319.586 268.535 L 319.586 258.832 L 319.586 258.832 Z  M 332.423 270.495 L 321.547 270.495 L 321.547 282.181 L 332.423 282.181 L 332.423 270.495 L 332.423 270.495 Z  M 319.586 270.495 L 308.713 270.495 L 308.713 282.181 L 319.586 282.181 L 319.586 270.495 Z " fill-rule="evenodd" fill="rgb(255,255,255)"/><path d=" M 200.617 316.983 L 241.794 316.983 L 241.794 280.724 C 241.794 269.398 232.529 260.135 221.203 260.135 L 221.203 260.135 C 209.88 260.135 200.618 269.398 200.618 280.724 L 200.618 316.983 L 200.617 316.983 L 200.617 316.983 Z " fill-rule="evenodd" fill="rgb(82,80,81)"/><path d=" M 207.657 276.87 L 234.755 276.87 L 234.755 316.983 L 207.657 316.983 L 207.657 276.87 Z " fill-rule="evenodd" fill="rgb(174,183,171)"/><path d=" M 56.898 113.767 L 64.336 113.767 L 64.336 316.985 L 56.898 316.985 L 56.898 113.767 Z " fill-rule="evenodd" fill="rgb(118,118,101)"/><path d=" M 376.747 113.767 L 384.183 113.767 L 384.183 316.985 L 376.747 316.985 L 376.747 113.767 Z " fill-rule="evenodd" fill="rgb(118,118,101)"/><path d=" M 208.584 216.523 L 233.822 216.523 L 233.822 191.148 C 233.822 184.211 228.144 178.53 221.202 178.53 L 221.202 178.53 C 214.264 178.53 208.583 184.212 208.583 191.148 L 208.583 216.523 L 208.584 216.523 Z " fill-rule="evenodd" fill="rgb(81,100,82)"/><path d=" M 208.584 197.047 L 219.947 197.047 L 219.947 178.594 C 220.36 178.556 220.777 178.531 221.202 178.531 L 221.202 178.531 C 221.627 178.531 222.05 178.556 222.463 178.594 L 222.463 197.047 L 233.821 197.047 L 233.821 199.564 L 222.464 199.564 L 222.464 216.524 L 219.947 216.524 L 219.947 199.564 L 208.584 199.564 L 208.584 197.047 Z " fill-rule="evenodd" fill="rgb(255,255,255)"/><path d=" M 49.193 316.985 L 392.154 316.985 L 398.264 329.207 L 42.819 329.207 L 49.193 316.985 Z " fill-rule="evenodd" fill="rgb(118,118,101)"/><path d=" M 32.457 329.207 L 408.888 329.207 L 415 341.426 L 26.081 341.426 L 32.457 329.207 L 32.457 329.207 Z " fill-rule="evenodd" fill="rgb(100,101,86)"/><path d=" M 134.998 182.677 L 137.572 182.677 L 137.572 221.463 L 109.944 221.463 L 109.944 218.691 L 120.205 218.691 L 122.165 218.691 L 133.039 218.691 L 134.998 218.691 L 134.998 216.734 L 134.998 205.049 L 134.998 203.087 L 134.998 193.383 L 134.998 191.427 L 134.998 182.677 L 134.998 182.677 Z " fill-rule="evenodd" fill="rgb(200,201,200)"/><path d=" M 134.998 248.126 L 137.572 248.126 L 137.572 286.911 L 109.944 286.911 L 109.944 284.139 L 120.205 284.139 L 122.165 284.139 L 133.039 284.139 L 134.998 284.139 L 134.998 282.18 L 134.998 270.495 L 134.998 268.535 L 134.998 258.832 L 134.998 256.872 L 134.998 248.126 L 134.998 248.126 Z " fill-rule="evenodd" fill="rgb(200,201,200)"/><path d=" M 181.408 182.677 L 183.979 182.677 L 183.979 221.463 L 156.35 221.463 L 156.35 218.691 L 166.613 218.691 L 168.572 218.691 L 179.448 218.691 L 181.408 218.691 L 181.408 216.734 L 181.408 205.049 L 181.408 203.087 L 181.408 193.383 L 181.408 191.427 L 181.408 182.677 L 181.408 182.677 Z " fill-rule="evenodd" fill="rgb(200,201,200)"/><path d=" M 181.408 248.126 L 183.979 248.126 L 183.979 286.911 L 156.35 286.911 L 156.35 284.139 L 166.613 284.139 L 168.572 284.139 L 179.448 284.139 L 181.408 284.139 L 181.408 282.18 L 181.408 270.495 L 181.408 268.535 L 181.408 258.832 L 181.408 256.872 L 181.408 248.126 L 181.408 248.126 Z " fill-rule="evenodd" fill="rgb(200,201,200)"/><path d=" M 287.975 182.677 L 290.547 182.677 L 290.547 221.463 L 262.918 221.463 L 262.918 218.691 L 273.182 218.691 L 275.141 218.691 L 286.016 218.691 L 287.975 218.691 L 287.975 216.734 L 287.975 205.049 L 287.975 203.087 L 287.975 193.383 L 287.975 191.427 L 287.975 182.677 L 287.975 182.677 Z " fill-rule="evenodd" fill="rgb(200,201,200)"/><path d=" M 287.975 248.126 L 290.547 248.126 L 290.547 286.911 L 262.918 286.911 L 262.918 284.139 L 273.182 284.139 L 275.141 284.139 L 286.016 284.139 L 287.975 284.139 L 287.975 282.18 L 287.975 270.495 L 287.975 268.535 L 287.975 258.832 L 287.975 256.872 L 287.975 248.126 L 287.975 248.126 Z " fill-rule="evenodd" fill="rgb(200,201,200)"/><path d=" M 334.383 182.677 L 336.956 182.677 L 336.956 221.463 L 309.325 221.463 L 309.325 218.691 L 319.586 218.691 L 321.547 218.691 L 332.423 218.691 L 334.383 218.691 L 334.383 216.734 L 334.383 205.049 L 334.383 203.087 L 334.383 193.383 L 334.383 191.427 L 334.383 182.677 L 334.383 182.677 Z " fill-rule="evenodd" fill="rgb(200,201,200)"/><path d=" M 334.383 248.126 L 336.956 248.126 L 336.956 286.911 L 309.325 286.911 L 309.325 284.139 L 319.586 284.139 L 321.547 284.139 L 332.423 284.139 L 334.383 284.139 L 334.383 282.18 L 334.383 270.495 L 334.383 268.535 L 334.383 258.832 L 334.383 256.872 L 334.383 248.126 L 334.383 248.126 Z " fill-rule="evenodd" fill="rgb(200,201,200)"/><path d=" M 210.697 218.302 L 235.935 218.302 L 235.935 192.931 C 235.935 188.583 233.703 184.729 230.332 182.458 C 232.493 184.726 233.823 187.79 233.823 191.148 L 233.823 216.523 L 210.697 216.523 L 210.697 218.302 L 210.697 218.302 Z " fill-rule="evenodd" fill="rgb(200,201,200)"/><path d=" M 154.253 115.886 L 179.491 115.886 L 179.491 90.516 C 179.491 86.681 177.757 83.231 175.033 80.911 C 176.585 83.009 177.505 85.597 177.505 88.389 L 177.505 113.761 L 154.253 113.761 L 154.253 115.886 L 154.253 115.886 Z " fill-rule="evenodd" fill="rgb(119,120,103)"/><path d=" M 260.452 115.886 L 285.693 115.886 L 285.693 90.516 C 285.693 86.681 283.955 83.231 281.234 80.911 C 282.784 83.009 283.703 85.597 283.703 88.389 L 283.703 113.761 L 260.453 113.761 L 260.453 115.886 L 260.452 115.886 L 260.452 115.886 Z " fill-rule="evenodd" fill="rgb(119,120,103)"/><path d=" M 64.336 133.15 L 376.745 133.15 L 376.745 136.869 L 64.336 136.869 L 64.336 133.15 L 64.336 133.15 Z " fill-rule="evenodd" fill="rgb(206,204,204)"/></g></g></svg>