<?xml version="1.0" standalone="no"?><!-- Generator: Gravit.io --><svg xmlns="http://www.w3.org/2000/svg" xmlns:xlink="http://www.w3.org/1999/xlink" style="isolation:isolate" viewBox="0 0 541.333 200" width="541.333" height="200"><defs><clipPath id="_clipPath_LZn2ygbACylGblDo9rUvimQN8B8M6pij"><rect width="541.333" height="200"/></clipPath></defs><g clip-path="url(#_clipPath_LZn2ygbACylGblDo9rUvimQN8B8M6pij)"><g><path d=" M 419.168 56.709 L 419.168 44.737 L 424.641 44.737 L 424.641 35.773 L 457.271 35.773 L 472.755 51.257 L 472.755 26.703 L 409.157 26.703 L 409.157 163.764 L 414.136 163.764 L 414.136 56.709 L 419.168 56.709" fill="rgb(102,102,102)"/><path d=" M 457.271 35.773 L 457.271 44.737 L 462.745 44.737 L 462.745 56.709 L 467.776 56.709 L 467.776 163.764 L 472.755 163.764 L 472.755 51.257 L 457.271 35.773" fill="rgb(77,77,77)"/><path d=" M 462.745 56.709 L 462.745 44.737 L 457.271 44.737 L 457.271 35.773 L 424.641 35.773 L 424.641 44.737 L 419.168 44.737 L 419.168 56.709 L 414.136 56.709 L 414.136 163.764 L 467.776 163.764 L 467.776 56.709 L 462.745 56.709" fill="rgb(197,197,197)"/><path d=" M 461.767 22.821 L 452.104 22.821 L 452.104 17.573 L 461.767 17.573 L 461.767 22.821 Z " fill="rgb(227,227,227)"/><path d=" M 456.987 9.333 L 456.884 9.333 L 456.273 17.573 L 457.596 17.573 L 456.987 9.333 Z " fill="rgb(157,157,157)"/><path d=" M 444.849 44.633 L 437.063 44.633 L 437.063 41.44 L 444.849 41.44 L 444.849 44.633 Z " fill="rgb(59,114,114)"/><path d=" M 444.849 51.021 L 437.063 51.021 L 437.063 47.828 L 444.849 47.828 L 444.849 51.021 Z " fill="rgb(59,114,114)"/><path d=" M 444.849 57.411 L 437.063 57.411 L 437.063 54.216 L 444.849 54.216 L 444.849 57.411 Z " fill="rgb(59,114,114)"/><path d=" M 444.849 63.8 L 437.063 63.8 L 437.063 60.605 L 444.849 60.605 L 444.849 63.8 Z " fill="rgb(59,114,114)"/><path d=" M 444.849 70.055 L 437.063 70.055 L 437.063 66.86 L 444.849 66.86 L 444.849 70.055 Z " fill="rgb(59,114,114)"/><path d=" M 444.849 76.443 L 437.063 76.443 L 437.063 73.249 L 444.849 73.249 L 444.849 76.443 Z " fill="rgb(59,114,114)"/><path d=" M 444.849 82.832 L 437.063 82.832 L 437.063 79.637 L 444.849 79.637 L 444.849 82.832 Z " fill="rgb(59,114,114)"/><path d=" M 444.849 89.22 L 437.063 89.22 L 437.063 86.027 L 444.849 86.027 L 444.849 89.22 Z " fill="rgb(59,114,114)"/><path d=" M 444.849 95.609 L 437.063 95.609 L 437.063 92.415 L 444.849 92.415 L 444.849 95.609 Z " fill="rgb(59,114,114)"/><path d=" M 444.849 101.997 L 437.063 101.997 L 437.063 98.803 L 444.849 98.803 L 444.849 101.997 Z " fill="rgb(59,114,114)"/><path d=" M 444.849 108.385 L 437.063 108.385 L 437.063 105.192 L 444.849 105.192 L 444.849 108.385 Z " fill="rgb(59,114,114)"/><path d=" M 444.849 114.773 L 437.063 114.773 L 437.063 111.58 L 444.849 111.58 L 444.849 114.773 Z " fill="rgb(59,114,114)"/><path d=" M 444.849 121.029 L 437.063 121.029 L 437.063 117.836 L 444.849 117.836 L 444.849 121.029 Z " fill="rgb(59,114,114)"/><path d=" M 444.849 127.419 L 437.063 127.419 L 437.063 124.224 L 444.849 124.224 L 444.849 127.419 Z " fill="rgb(59,114,114)"/><path d=" M 444.849 133.807 L 437.063 133.807 L 437.063 130.612 L 444.849 130.612 L 444.849 133.807 Z " fill="rgb(59,114,114)"/><path d=" M 444.849 140.195 L 437.063 140.195 L 437.063 137 L 444.849 137 L 444.849 140.195 Z " fill="rgb(59,114,114)"/><path d=" M 444.849 146.584 L 437.063 146.584 L 437.063 143.389 L 444.849 143.389 L 444.849 146.584 Z " fill="rgb(59,114,114)"/><path d=" M 444.849 152.972 L 437.063 152.972 L 437.063 149.779 L 444.849 149.779 L 444.849 152.972 Z " fill="rgb(59,114,114)"/><path d=" M 444.849 159.36 L 437.063 159.36 L 437.063 156.167 L 444.849 156.167 L 444.849 159.36 Z " fill="rgb(59,114,114)"/><path d=" M 456.527 51.021 L 448.743 51.021 L 448.743 47.828 L 456.527 47.828 L 456.527 51.021 Z " fill="rgb(59,114,114)"/><path d=" M 456.527 57.411 L 448.743 57.411 L 448.743 54.216 L 456.527 54.216 L 456.527 57.411 Z " fill="rgb(59,114,114)"/><path d=" M 456.527 63.8 L 448.743 63.8 L 448.743 60.605 L 456.527 60.605 L 456.527 63.8 Z " fill="rgb(59,114,114)"/><path d=" M 456.527 70.055 L 448.743 70.055 L 448.743 66.86 L 456.527 66.86 L 456.527 70.055 Z " fill="rgb(59,114,114)"/><path d=" M 456.527 76.443 L 448.743 76.443 L 448.743 73.249 L 456.527 73.249 L 456.527 76.443 Z " fill="rgb(59,114,114)"/><path d=" M 456.527 82.832 L 448.743 82.832 L 448.743 79.637 L 456.527 79.637 L 456.527 82.832 Z " fill="rgb(59,114,114)"/><path d=" M 456.527 89.22 L 448.743 89.22 L 448.743 86.027 L 456.527 86.027 L 456.527 89.22 Z " fill="rgb(59,114,114)"/><path d=" M 456.527 95.609 L 448.743 95.609 L 448.743 92.415 L 456.527 92.415 L 456.527 95.609 Z " fill="rgb(59,114,114)"/><path d=" M 456.527 101.997 L 448.743 101.997 L 448.743 98.803 L 456.527 98.803 L 456.527 101.997 Z " fill="rgb(59,114,114)"/><path d=" M 456.527 108.385 L 448.743 108.385 L 448.743 105.192 L 456.527 105.192 L 456.527 108.385 Z " fill="rgb(59,114,114)"/><path d=" M 456.527 114.773 L 448.743 114.773 L 448.743 111.58 L 456.527 111.58 L 456.527 114.773 Z " fill="rgb(59,114,114)"/><path d=" M 456.527 121.029 L 448.743 121.029 L 448.743 117.836 L 456.527 117.836 L 456.527 121.029 Z " fill="rgb(59,114,114)"/><path d=" M 456.527 127.419 L 448.743 127.419 L 448.743 124.224 L 456.527 124.224 L 456.527 127.419 Z " fill="rgb(59,114,114)"/><path d=" M 456.527 133.807 L 448.743 133.807 L 448.743 130.612 L 456.527 130.612 L 456.527 133.807 Z " fill="rgb(59,114,114)"/><path d=" M 456.527 140.195 L 448.743 140.195 L 448.743 137 L 456.527 137 L 456.527 140.195 Z " fill="rgb(59,114,114)"/><path d=" M 456.527 146.584 L 448.743 146.584 L 448.743 143.389 L 456.527 143.389 L 456.527 146.584 Z " fill="rgb(59,114,114)"/><path d=" M 456.527 152.972 L 448.743 152.972 L 448.743 149.779 L 456.527 149.779 L 456.527 152.972 Z " fill="rgb(59,114,114)"/><path d=" M 456.527 159.36 L 448.743 159.36 L 448.743 156.167 L 456.527 156.167 L 456.527 159.36 Z " fill="rgb(59,114,114)"/><path d=" M 433.171 51.021 L 425.385 51.021 L 425.385 47.828 L 433.171 47.828 L 433.171 51.021 Z " fill="rgb(59,114,114)"/><path d=" M 433.171 57.411 L 425.385 57.411 L 425.385 54.216 L 433.171 54.216 L 433.171 57.411 Z " fill="rgb(59,114,114)"/><path d=" M 433.171 63.8 L 425.385 63.8 L 425.385 60.605 L 433.171 60.605 L 433.171 63.8 Z " fill="rgb(59,114,114)"/><path d=" M 433.171 70.055 L 425.385 70.055 L 425.385 66.86 L 433.171 66.86 L 433.171 70.055 Z " fill="rgb(59,114,114)"/><path d=" M 433.171 76.443 L 425.385 76.443 L 425.385 73.249 L 433.171 73.249 L 433.171 76.443 Z " fill="rgb(59,114,114)"/><path d=" M 433.171 82.832 L 425.385 82.832 L 425.385 79.637 L 433.171 79.637 L 433.171 82.832 Z " fill="rgb(59,114,114)"/><path d=" M 433.171 89.22 L 425.385 89.22 L 425.385 86.027 L 433.171 86.027 L 433.171 89.22 Z " fill="rgb(59,114,114)"/><path d=" M 433.171 95.609 L 425.385 95.609 L 425.385 92.415 L 433.171 92.415 L 433.171 95.609 Z " fill="rgb(59,114,114)"/><path d=" M 433.171 101.997 L 425.385 101.997 L 425.385 98.803 L 433.171 98.803 L 433.171 101.997 Z " fill="rgb(59,114,114)"/><path d=" M 433.171 108.385 L 425.385 108.385 L 425.385 105.192 L 433.171 105.192 L 433.171 108.385 Z " fill="rgb(59,114,114)"/><path d=" M 433.171 114.773 L 425.385 114.773 L 425.385 111.58 L 433.171 111.58 L 433.171 114.773 Z " fill="rgb(59,114,114)"/><path d=" M 433.171 121.029 L 425.385 121.029 L 425.385 117.836 L 433.171 117.836 L 433.171 121.029 Z " fill="rgb(59,114,114)"/><path d=" M 433.171 127.419 L 425.385 127.419 L 425.385 124.224 L 433.171 124.224 L 433.171 127.419 Z " fill="rgb(59,114,114)"/><path d=" M 433.171 133.807 L 425.385 133.807 L 425.385 130.612 L 433.171 130.612 L 433.171 133.807 Z " fill="rgb(59,114,114)"/><path d=" M 433.171 140.195 L 425.385 140.195 L 425.385 137 L 433.171 137 L 433.171 140.195 Z " fill="rgb(59,114,114)"/><path d=" M 433.171 146.584 L 425.385 146.584 L 425.385 143.389 L 433.171 143.389 L 433.171 146.584 Z " fill="rgb(59,114,114)"/><path d=" M 433.171 152.972 L 425.385 152.972 L 425.385 149.779 L 433.171 149.779 L 433.171 152.972 Z " fill="rgb(59,114,114)"/><path d=" M 433.171 159.36 L 425.385 159.36 L 425.385 156.167 L 433.171 156.167 L 433.171 159.36 Z " fill="rgb(59,114,114)"/><path d=" M 467.776 26.804 L 414.136 26.804 L 414.136 22.821 L 467.776 22.821 L 467.776 26.804 Z " fill="rgb(170,170,170)"/><path d=" M 426.744 22.821 L 421.925 22.821 L 421.925 17.137 L 426.744 17.137 L 426.744 22.821 Z " fill="rgb(212,212,212)"/><path d=" M 474.681 163.764 L 472.755 163.764 L 472.755 26.703 L 474.681 26.703 L 474.681 163.764 Z " fill="rgb(101,197,197)"/><path d=" M 409.157 163.764 L 407.231 163.764 L 407.231 26.703 L 409.157 26.703 L 409.157 163.764 Z " fill="rgb(101,197,197)"/><path d=" M 420.372 172.607 L 420.372 180.999 L 424.149 180.999 L 424.149 172.607 L 420.372 172.607 Z " fill="rgb(29,70,70)"/><path d=" M 432.836 172.607 L 432.836 180.999 L 436.612 180.999 L 436.612 172.607 L 432.836 172.607 Z " fill="rgb(29,70,70)"/><path d=" M 445.3 172.607 L 445.3 180.999 L 449.077 180.999 L 449.077 172.607 L 445.3 172.607 Z " fill="rgb(29,70,70)"/><path d=" M 457.761 172.607 L 457.761 180.999 L 461.539 180.999 L 461.539 172.607 L 457.761 172.607 Z " fill="rgb(29,70,70)"/><path d=" M 407.712 172.607 L 411.687 176.581 L 411.687 172.607 L 407.712 172.607 Z " fill="rgb(29,70,70)"/><path d=" M 407.712 172.607 L 407.712 170.359 L 474.199 170.359 L 480.625 176.783 L 480.625 163.764 L 401.288 163.764 L 401.288 180.999 L 411.687 180.999 L 411.687 176.581 L 407.712 172.607" fill="rgb(43,104,104)"/><path d=" M 474.199 170.359 L 474.199 172.607 L 470.227 172.607 L 470.227 180.999 L 480.625 180.999 L 480.625 176.783 L 474.199 170.359" fill="rgb(29,70,70)"/><path d=" M 416.597 172.607 L 416.597 180.999 L 420.372 180.999 L 420.372 172.607 L 416.597 172.607 Z " fill="rgb(44,44,44)"/><path d=" M 411.687 176.581 L 415.464 180.359 L 415.464 172.607 L 411.687 172.607 L 411.687 176.581 Z " fill="rgb(44,44,44)"/><path d=" M 411.687 176.581 L 411.687 180.999 L 415.464 180.999 L 415.464 180.359 L 411.687 176.581 Z " fill="rgb(58,58,58)"/><path d=" M 415.464 172.607 L 415.464 180.359 L 416.104 180.999 L 416.597 180.999 L 416.597 172.607 L 415.464 172.607 Z " fill="rgb(108,108,108)"/><path d=" M 415.464 180.999 L 416.104 180.999 L 415.464 180.359 L 415.464 180.999 Z " fill="rgb(144,144,144)"/><path d=" M 424.149 172.607 L 424.149 180.999 L 427.927 180.999 L 427.927 172.607 L 424.149 172.607 Z " fill="rgb(44,44,44)"/><path d=" M 429.06 172.607 L 429.06 180.999 L 432.836 180.999 L 432.836 172.607 L 429.06 172.607 Z " fill="rgb(44,44,44)"/><path d=" M 427.927 172.607 L 427.927 180.999 L 429.06 180.999 L 429.06 172.607 L 427.927 172.607 Z " fill="rgb(108,108,108)"/><path d=" M 436.612 172.607 L 436.612 180.999 L 440.391 180.999 L 440.391 172.607 L 436.612 172.607 Z " fill="rgb(44,44,44)"/><path d=" M 441.523 172.607 L 441.523 180.999 L 445.3 180.999 L 445.3 172.607 L 441.523 172.607 Z " fill="rgb(44,44,44)"/><path d=" M 440.391 172.607 L 440.391 180.999 L 441.523 180.999 L 441.523 172.607 L 440.391 172.607 Z " fill="rgb(108,108,108)"/><path d=" M 453.984 172.607 L 453.984 180.999 L 457.761 180.999 L 457.761 172.607 L 453.984 172.607 Z " fill="rgb(44,44,44)"/><path d=" M 449.077 172.607 L 449.077 180.999 L 452.855 180.999 L 452.855 172.607 L 449.077 172.607 Z " fill="rgb(44,44,44)"/><path d=" M 452.855 172.607 L 452.855 180.999 L 453.984 180.999 L 453.984 172.607 L 452.855 172.607 Z " fill="rgb(108,108,108)"/><path d=" M 466.448 172.607 L 466.448 180.999 L 470.227 180.999 L 470.227 172.607 L 466.448 172.607 Z " fill="rgb(44,44,44)"/><path d=" M 461.539 172.607 L 461.539 180.999 L 465.316 180.999 L 465.316 172.607 L 461.539 172.607 Z " fill="rgb(44,44,44)"/><path d=" M 465.316 172.607 L 465.316 180.999 L 466.448 180.999 L 466.448 172.607 L 465.316 172.607 Z " fill="rgb(108,108,108)"/><path d=" M 407.712 170.359 L 407.712 172.607 L 440.956 172.607 L 440.956 170.359 L 407.712 170.359 Z " fill="rgb(149,149,149)"/><path d=" M 440.956 170.359 L 440.956 172.607 L 474.199 172.607 L 474.199 170.359 L 440.956 170.359 Z " fill="rgb(122,122,122)"/><path d=" M 1.969 598.236 L 1.02 598.236 L 1.02 561.195 L 1.969 561.195 L 1.969 598.236 Z " fill="rgb(232,232,232)"/></g></g></svg>