<?xml version="1.0" standalone="no"?><!-- Generator: Gravit.io --><svg xmlns="http://www.w3.org/2000/svg" xmlns:xlink="http://www.w3.org/1999/xlink" style="isolation:isolate" viewBox="0 0 320 360" width="320" height="360"><defs><clipPath id="_clipPath_AbO0RXeBJjfYg6JFDjdnf9Dw8M7jpwEn"><rect width="320" height="360"/></clipPath></defs><g clip-path="url(#_clipPath_AbO0RXeBJjfYg6JFDjdnf9Dw8M7jpwEn)"><rect x="0" y="0" width="666.221" height="464.747" transform="matrix(1,0,0,1,0,0)" fill="none"/><g><clipPath id="_clipPath_eTH1x856irkDQEMppt18UxcHnedxPY24"><path d=" M -324 -108 L 343.994 -108 L 343.994 360.55 L -324 360.55 L -324 -108 Z " fill="rgb(255,255,255)"/></clipPath><g clip-path="url(#_clipPath_eTH1x856irkDQEMppt18UxcHnedxPY24)"><g><g><g><g><g><path d=" M 19.063 68.064 L 297.712 68.064 L 297.712 353.87 L 19.063 353.87 L 19.063 68.064 Z " fill="rgb(239,201,191)"/></g><g><path d=" M 19.063 68.064 L 297.712 68.064 L 297.712 353.87 L 19.063 353.87 L 19.063 68.064 Z " fill="rgb(231,180,161)"/></g><g><path d=" M 308.257 69.019 L 8.518 69.019 L 36.622 8.422 L 280.535 8.422 L 308.257 69.019 Z " fill="rgb(122,72,72)"/></g></g><g><path d=" M 41.25 27.507 L 34.665 27.507 L 38.292 19.253 L 39.055 19.587 L 35.954 26.553 L 40.677 26.553 L 43.779 19.253 L 44.542 19.635 L 41.25 27.507 Z " fill="rgb(153,116,113)"/></g><g><path d=" M 48.693 30.847 L 42.109 30.847 L 45.783 22.784 L 46.546 23.261 L 43.397 30.37 L 48.168 30.37 L 51.222 23.022 L 51.985 23.213 L 48.693 30.847 Z " fill="rgb(153,116,113)"/></g><g><path d=" M 286.69 53.273 L 280.105 53.273 L 276.813 45.4 L 277.577 45.066 L 280.63 52.319 L 285.402 52.319 L 282.3 45.257 L 283.016 45.018 L 286.69 53.273 Z " fill="rgb(153,116,113)"/></g><g><path d=" M 256.821 27.03 L 250.237 27.03 L 246.944 19.205 L 247.708 18.823 L 250.761 26.076 L 255.533 26.076 L 252.384 19.11 L 253.147 18.823 L 256.821 27.03 Z " fill="rgb(153,116,113)"/></g><g><path d=" M 152.423 37.05 L 145.886 37.05 L 146.507 28.987 L 147.318 29.034 L 146.793 36.096 L 151.612 36.096 L 151.946 28.891 L 152.805 28.987 L 152.423 37.05 Z " fill="rgb(153,116,113)"/></g><g><path d=" M 159.866 40.39 L 153.377 40.39 L 153.95 32.517 L 154.809 32.708 L 154.284 39.913 L 159.103 39.913 L 159.437 32.661 L 160.248 32.565 L 159.866 40.39 Z " fill="rgb(153,116,113)"/></g><path d=" M 282.443 6.752 C 282.443 7.658 281.68 8.422 280.773 8.422 L 36.956 8.422 C 36.049 8.422 35.286 7.658 35.286 6.752 L 35.286 5.32 C 35.286 4.414 36.049 3.65 36.956 3.65 L 280.773 3.65 C 281.68 3.65 282.443 4.414 282.443 5.32 L 282.443 6.752 Z " fill="rgb(96,50,50)"/></g><g><g><g><path d=" M 222.706 104.518 L 277.052 104.518 L 277.052 175.898 L 222.706 175.898 L 222.706 104.518 Z " fill="rgb(255,255,255)"/><path d=" M 283.684 176.852 C 283.684 177.663 282.873 178.331 281.919 178.331 L 217.028 178.331 C 216.073 178.331 215.262 177.663 215.262 176.852 L 215.262 173.512 C 215.262 172.701 216.073 172.128 217.028 172.128 L 281.919 172.128 C 282.873 172.128 283.684 172.701 283.684 173.512 L 283.684 176.852 Z " fill="rgb(255,255,255)"/></g><g><path d=" M 247.612 111.579 L 247.612 108.192 L 228.097 108.192 L 228.097 138.919 L 229.72 138.919 C 230.96 124.844 243.032 114.919 247.612 111.579 Z " fill="rgb(119,69,69)"/><path d=" M 247.612 111.579 C 243.032 114.919 230.96 124.796 229.72 138.919 L 247.612 138.919 L 247.612 111.579 Z " fill="rgb(86,47,47)"/></g><g><path d=" M 270.849 144.693 L 270.849 140.971 L 251.334 140.971 L 251.334 172.081 L 252.813 172.081 C 254.101 158.005 266.268 148.033 270.849 144.693 Z " fill="rgb(119,69,69)"/><path d=" M 270.849 144.693 C 266.268 148.033 254.101 158.005 252.813 172.128 L 270.849 172.128 L 270.849 144.693 Z " fill="rgb(86,47,47)"/></g><g><path d=" M 270.849 111.579 L 270.849 108.192 L 251.334 108.192 L 251.334 138.919 L 252.813 138.919 C 254.101 124.844 266.268 114.919 270.849 111.579 Z " fill="rgb(119,69,69)"/><path d=" M 270.849 111.579 C 266.268 114.919 254.101 124.796 252.813 138.919 L 270.849 138.919 L 270.849 111.579 Z " fill="rgb(86,47,47)"/></g><g><path d=" M 247.612 144.693 L 247.612 140.971 L 228.097 140.971 L 228.097 172.081 L 229.72 172.081 C 230.96 158.005 243.032 148.033 247.612 144.693 Z " fill="rgb(119,69,69)"/><path d=" M 247.612 144.693 C 243.032 148.033 230.96 158.005 229.72 172.128 L 247.612 172.128 L 247.612 144.693 Z " fill="rgb(86,47,47)"/></g></g><g><g><path d=" M 131.429 104.518 L 185.775 104.518 L 185.775 175.898 L 131.429 175.898 L 131.429 104.518 Z " fill="rgb(255,255,255)"/><path d=" M 192.407 176.852 C 192.407 177.663 191.596 178.331 190.642 178.331 L 125.751 178.331 C 124.797 178.331 123.986 177.663 123.986 176.852 L 123.986 173.512 C 123.986 172.701 124.797 172.128 125.751 172.128 L 190.642 172.128 C 191.596 172.128 192.407 172.701 192.407 173.512 L 192.407 176.852 Z " fill="rgb(255,255,255)"/></g><g><path d=" M 156.336 111.579 L 156.336 108.192 L 136.821 108.192 L 136.821 138.919 L 138.443 138.919 C 139.684 124.844 151.755 114.919 156.336 111.579 Z " fill="rgb(119,69,69)"/><path d=" M 156.336 111.579 C 151.755 114.919 139.684 124.796 138.443 138.919 L 156.336 138.919 L 156.336 111.579 Z " fill="rgb(86,47,47)"/></g><g><path d=" M 179.572 144.693 L 179.572 140.971 L 160.057 140.971 L 160.057 172.081 L 161.536 172.081 C 162.777 158.005 174.992 148.033 179.572 144.693 Z " fill="rgb(119,69,69)"/><path d=" M 179.572 144.693 C 174.992 148.033 162.825 158.005 161.536 172.128 L 179.572 172.128 L 179.572 144.693 Z " fill="rgb(86,47,47)"/></g><g><path d=" M 179.572 111.579 L 179.572 108.192 L 160.057 108.192 L 160.057 138.919 L 161.536 138.919 C 162.777 124.844 174.992 114.919 179.572 111.579 Z " fill="rgb(119,69,69)"/><path d=" M 179.572 111.579 C 174.992 114.919 162.825 124.796 161.536 138.919 L 179.572 138.919 L 179.572 111.579 Z " fill="rgb(86,47,47)"/></g><g><path d=" M 156.336 144.693 L 156.336 140.971 L 136.821 140.971 L 136.821 172.081 L 138.443 172.081 C 139.684 158.005 151.755 148.033 156.336 144.693 Z " fill="rgb(119,69,69)"/><path d=" M 156.336 144.693 C 151.755 148.033 139.684 158.005 138.443 172.128 L 156.336 172.128 L 156.336 144.693 Z " fill="rgb(86,47,47)"/></g></g><g><g><path d=" M 40.152 104.518 L 94.498 104.518 L 94.498 175.898 L 40.152 175.898 L 40.152 104.518 Z " fill="rgb(255,255,255)"/><path d=" M 101.131 176.852 C 101.131 177.663 100.32 178.331 99.365 178.331 L 34.474 178.331 C 33.52 178.331 32.709 177.663 32.709 176.852 L 32.709 173.512 C 32.709 172.701 33.52 172.128 34.474 172.128 L 99.365 172.128 C 100.367 172.128 101.131 172.701 101.131 173.512 L 101.131 176.852 Z " fill="rgb(255,255,255)"/></g><g><path d=" M 65.011 111.579 L 65.011 108.192 L 45.496 108.192 L 45.496 138.919 L 47.119 138.919 C 48.407 124.844 60.478 114.919 65.011 111.579 Z " fill="rgb(119,69,69)"/><path d=" M 65.011 111.579 C 60.431 114.919 48.359 124.796 47.119 138.919 L 65.011 138.919 L 65.011 111.579 Z " fill="rgb(86,47,47)"/></g><g><path d=" M 88.248 144.693 L 88.248 140.971 L 68.733 140.971 L 68.733 172.081 L 70.212 172.081 C 71.5 158.005 83.715 148.033 88.248 144.693 Z " fill="rgb(119,69,69)"/><path d=" M 88.248 144.693 C 83.667 148.033 71.5 158.005 70.212 172.128 L 88.248 172.128 L 88.248 144.693 Z " fill="rgb(86,47,47)"/></g><g><path d=" M 88.248 111.579 L 88.248 108.192 L 68.733 108.192 L 68.733 138.919 L 70.212 138.919 C 71.5 124.844 83.715 114.919 88.248 111.579 Z " fill="rgb(119,69,69)"/><path d=" M 88.248 111.579 C 83.667 114.919 71.5 124.796 70.212 138.919 L 88.248 138.919 L 88.248 111.579 Z " fill="rgb(86,47,47)"/></g><g><path d=" M 65.011 144.693 L 65.011 140.971 L 45.496 140.971 L 45.496 172.081 L 47.119 172.081 C 48.407 158.005 60.478 148.033 65.011 144.693 Z " fill="rgb(119,69,69)"/><path d=" M 65.011 144.693 C 60.431 148.033 48.359 158.005 47.119 172.128 L 65.011 172.128 L 65.011 144.693 Z " fill="rgb(86,47,47)"/></g></g></g><g><g><g><path d=" M 222.706 217.79 L 277.052 217.79 L 277.052 289.17 L 222.706 289.17 L 222.706 217.79 Z " fill="rgb(255,255,255)"/><path d=" M 283.684 290.125 C 283.684 290.936 282.873 291.604 281.919 291.604 L 217.028 291.604 C 216.073 291.604 215.262 290.936 215.262 290.125 L 215.262 286.785 C 215.262 285.974 216.073 285.401 217.028 285.401 L 281.919 285.401 C 282.873 285.401 283.684 285.974 283.684 286.785 L 283.684 290.125 Z " fill="rgb(255,255,255)"/></g><g><path d=" M 247.612 224.852 L 247.612 221.464 L 228.097 221.464 L 228.097 252.192 L 229.72 252.192 C 230.96 238.117 243.032 228.192 247.612 224.852 Z " fill="rgb(119,69,69)"/><path d=" M 247.612 224.852 C 243.032 228.192 230.96 238.069 229.72 252.192 L 247.612 252.192 L 247.612 224.852 Z " fill="rgb(86,47,47)"/></g><g><path d=" M 270.849 257.965 L 270.849 254.244 L 251.334 254.244 L 251.334 285.353 L 252.813 285.353 C 254.101 271.278 266.268 261.305 270.849 257.965 Z " fill="rgb(119,69,69)"/><path d=" M 270.849 257.965 C 266.268 261.305 254.101 271.278 252.813 285.401 L 270.849 285.401 L 270.849 257.965 Z " fill="rgb(86,47,47)"/></g><g><path d=" M 270.849 224.852 L 270.849 221.464 L 251.334 221.464 L 251.334 252.192 L 252.813 252.192 C 254.101 238.117 266.268 228.192 270.849 224.852 Z " fill="rgb(119,69,69)"/><path d=" M 270.849 224.852 C 266.268 228.192 254.101 238.069 252.813 252.192 L 270.849 252.192 L 270.849 224.852 Z " fill="rgb(86,47,47)"/></g><g><path d=" M 247.612 257.965 L 247.612 254.244 L 228.097 254.244 L 228.097 285.353 L 229.72 285.353 C 230.96 271.278 243.032 261.305 247.612 257.965 Z " fill="rgb(119,69,69)"/><path d=" M 247.612 257.965 C 243.032 261.305 230.96 271.278 229.72 285.401 L 247.612 285.401 L 247.612 257.965 Z " fill="rgb(86,47,47)"/></g></g><g><g><path d=" M 40.152 217.79 L 94.498 217.79 L 94.498 289.17 L 40.152 289.17 L 40.152 217.79 Z " fill="rgb(255,255,255)"/><path d=" M 101.131 290.125 C 101.131 290.936 100.32 291.604 99.365 291.604 L 34.474 291.604 C 33.52 291.604 32.709 290.936 32.709 290.125 L 32.709 286.785 C 32.709 285.974 33.52 285.401 34.474 285.401 L 99.365 285.401 C 100.367 285.401 101.131 285.974 101.131 286.785 L 101.131 290.125 Z " fill="rgb(255,255,255)"/></g><g><path d=" M 65.011 224.852 L 65.011 221.464 L 45.496 221.464 L 45.496 252.192 L 47.119 252.192 C 48.407 238.117 60.478 228.192 65.011 224.852 Z " fill="rgb(119,69,69)"/><path d=" M 65.011 224.852 C 60.431 228.192 48.359 238.069 47.119 252.192 L 65.011 252.192 L 65.011 224.852 Z " fill="rgb(86,47,47)"/></g><g><path d=" M 88.248 257.965 L 88.248 254.244 L 68.733 254.244 L 68.733 285.353 L 70.212 285.353 C 71.5 271.278 83.715 261.305 88.248 257.965 Z " fill="rgb(119,69,69)"/><path d=" M 88.248 257.965 C 83.667 261.305 71.5 271.278 70.212 285.401 L 88.248 285.401 L 88.248 257.965 Z " fill="rgb(86,47,47)"/></g><g><path d=" M 88.248 224.852 L 88.248 221.464 L 68.733 221.464 L 68.733 252.192 L 70.212 252.192 C 71.5 238.117 83.715 228.192 88.248 224.852 Z " fill="rgb(119,69,69)"/><path d=" M 88.248 224.852 C 83.667 228.192 71.5 238.069 70.212 252.192 L 88.248 252.192 L 88.248 224.852 Z " fill="rgb(86,47,47)"/></g><g><path d=" M 65.011 257.965 L 65.011 254.244 L 45.496 254.244 L 45.496 285.353 L 47.119 285.353 C 48.407 271.278 60.478 261.305 65.011 257.965 Z " fill="rgb(119,69,69)"/><path d=" M 65.011 257.965 C 60.431 261.305 48.359 271.278 47.119 285.401 L 65.011 285.401 L 65.011 257.965 Z " fill="rgb(86,47,47)"/></g></g><g><path d=" M 124.701 240.168 L 195.604 240.168 L 195.604 345.377 L 124.701 345.377 L 124.701 240.168 Z " fill="rgb(255,255,255)"/></g></g><path d=" M 19.063 342.419 L 297.712 342.419 L 297.712 353.87 L 19.063 353.87 L 19.063 342.419 Z " fill="rgb(255,255,255)"/><g><path d=" M 119.262 345.759 L 200.376 345.759 L 200.376 354.348 L 119.262 354.348 L 119.262 345.759 Z " fill="rgb(86,47,47)"/><g><g><path d=" M 195.604 242.124 C 195.604 250.388 191.869 258.313 185.221 264.156 C 178.572 269.999 169.555 273.282 160.153 273.282 C 150.75 273.282 141.733 269.999 135.085 264.156 C 128.436 258.313 124.701 250.388 124.701 242.124 C 124.701 233.861 128.436 225.936 135.085 220.093 C 141.733 214.25 150.75 210.967 160.153 210.967 C 169.555 210.967 178.572 214.25 185.221 220.093 C 191.869 225.936 195.604 233.861 195.604 242.124 L 195.604 242.124 Z " fill="rgb(255,255,255)"/><g><path d=" M 158.244 248.327 L 158.244 243.079 L 129.139 243.079 L 129.139 290.793 L 131.524 290.793 C 133.433 268.892 151.469 253.528 158.244 248.327 Z " fill="rgb(119,69,69)"/><path d=" M 158.244 248.327 C 151.421 253.528 133.433 268.892 131.524 290.793 L 158.244 290.793 L 158.244 248.327 Z " fill="rgb(86,47,47)"/></g><g><path d=" M 191.071 299.811 L 191.071 294.037 L 161.966 294.037 L 161.966 342.371 L 164.161 342.371 C 166.022 320.471 184.248 304.964 191.071 299.811 Z " fill="rgb(119,69,69)"/><path d=" M 191.071 299.811 C 184.248 305.011 166.069 320.471 164.161 342.419 L 191.071 342.419 L 191.071 299.811 Z " fill="rgb(86,47,47)"/></g><g><path d=" M 191.071 248.327 L 191.071 243.079 L 161.966 243.079 L 161.966 290.793 L 164.161 290.793 C 166.022 268.892 184.248 253.528 191.071 248.327 Z " fill="rgb(119,69,69)"/><path d=" M 191.071 248.327 C 184.248 253.528 166.069 268.892 164.161 290.793 L 191.071 290.793 L 191.071 248.327 Z " fill="rgb(86,47,47)"/></g><g><path d=" M 158.244 299.811 L 158.244 294.037 L 129.139 294.037 L 129.139 342.371 L 131.524 342.371 C 133.433 320.471 151.469 304.964 158.244 299.811 Z " fill="rgb(119,69,69)"/><path d=" M 158.244 299.811 C 151.421 305.011 133.433 320.471 131.524 342.419 L 158.244 342.419 L 158.244 299.811 Z " fill="rgb(86,47,47)"/></g></g><path d=" M 158.387 215.023 L 158.387 238.403 L 129.139 238.546 C 129.139 238.546 135.723 216.693 158.387 215.023 Z " fill="rgb(86,47,47)"/><path d=" M 161.727 215.023 L 161.727 238.403 L 190.976 238.546 C 190.976 238.546 184.153 216.693 161.727 215.023 Z " fill="rgb(86,47,47)"/><path d=" M 137 221.257 L 139.282 218.818 L 160.186 238.377 L 157.904 240.816 L 137 221.257 Z " fill="rgb(255,255,255)"/><path d=" M 162.199 240.827 L 159.917 238.388 L 180.822 218.829 L 183.104 221.268 L 162.199 240.827 Z " fill="rgb(255,255,255)"/></g></g><path d=" M 19.063 190.689 L 297.712 190.689 L 297.712 195.937 L 19.063 195.937 L 19.063 190.689 Z " fill="rgb(255,255,255)"/><path d=" M 19.063 196.892 L 297.712 196.892 L 297.712 202.14 L 19.063 202.14 L 19.063 196.892 Z " fill="rgb(255,255,255)"/></g></g></g><path d=" M 312.503 68.303 C 312.503 70.545 310.356 72.358 307.732 72.358 L 9.52 72.358 C 6.896 72.358 4.749 70.545 4.749 68.303 C 4.749 66.06 6.896 64.247 9.52 64.247 L 307.732 64.247 C 310.356 64.247 312.503 66.06 312.503 68.303 Z " fill="rgb(96,50,50)"/></g></g></svg>