<?xml version="1.0" standalone="no"?><!-- Generator: Gravit.io --><svg xmlns="http://www.w3.org/2000/svg" xmlns:xlink="http://www.w3.org/1999/xlink" style="isolation:isolate" viewBox="0 0 360 470" width="360" height="470"><defs><clipPath id="_clipPath_vaUEnaUQqmSGGrCBHgA4Lc3EUF3bzl6a"><rect width="360" height="470"/></clipPath></defs><g clip-path="url(#_clipPath_vaUEnaUQqmSGGrCBHgA4Lc3EUF3bzl6a)"><g><path d=" M 154.056 268.907 L 154.056 470 L 194.944 470 L 194.944 268.907 L 194.944 34.339 L 194.944 7.141 L 154.056 7.141 L 154.056 34.339" fill="rgb(252,213,119)"/><path d=" M 154.056 198.457 L 154.056 293.253 L 194.944 293.253 L 194.944 198.457 L 194.944 87.881 L 194.944 75.06 L 154.056 75.06 L 154.056 87.881" fill="rgb(234,195,110)"/></g><g><path d=" M 16 7.141 L 333 7.141 L 333 181 L 16 181 L 16 7.141 L 16 7.141 Z " fill-rule="evenodd" fill="rgb(255,255,255)" vector-effect="non-scaling-stroke" stroke-width="4" stroke="rgb(31,25,23)" stroke-linejoin="miter" stroke-linecap="butt" stroke-miterlimit="10"/><path d=" M 209.516 112.227 L 199.053 97.181 L 191.759 97.181 L 191.759 93.383 L 172.757 93.383 L 172.757 97.181 L 163.718 97.181 L 153.397 112.227 L 153.397 119.274 L 149.946 119.274 L 149.946 97.181 L 128.204 40.611 L 107.707 97.181 L 107.707 132.239 L 104.433 132.207 L 104.433 97.184 L 76.427 90.027 L 48.421 97.184 L 48.421 147.508 L 300.579 147.508 L 300.579 82.832 L 283.499 76.917 L 265.563 82.832 L 265.563 132.242 L 261.969 132.242 L 261.969 97.184 L 238.696 90.027 L 212.862 97.184 L 212.862 119.278 L 209.516 119.278 L 209.516 112.231 L 209.516 112.227 Z " fill-rule="evenodd" fill="rgb(0,0,0)" vector-effect="non-scaling-stroke" stroke-width="0.36" stroke="rgb(255,255,255)" stroke-linejoin="miter" stroke-linecap="butt" stroke-miterlimit="10"/><path d=" M 31.941 154.222 L 309.669 18.765 L 317.059 33.919 L 39.332 169.375 L 31.941 154.222 L 31.941 154.222 Z " fill-rule="evenodd" fill="rgb(217,38,28)"/><path d=" M 48.421 15.818 L 300.579 15.818 C 313.789 15.818 324.595 26.978 324.595 40.611 L 324.595 147.529 C 324.595 161.163 313.785 172.323 300.579 172.323 L 48.421 172.323 C 35.215 172.323 24.405 161.166 24.405 147.529 L 24.405 40.611 C 24.405 26.975 35.212 15.818 48.421 15.818 L 48.421 15.818 Z  M 48.421 28.215 L 300.579 28.215 C 307.184 28.215 312.587 33.796 312.587 40.611 L 312.587 147.529 C 312.587 154.345 307.18 159.926 300.579 159.926 L 48.421 159.926 C 41.82 159.926 36.413 154.347 36.413 147.529 L 36.413 40.611 C 36.413 33.793 41.817 28.215 48.421 28.215" fill-rule="evenodd" fill="rgb(217,38,28)"/></g></g></svg>