<?xml version="1.0" standalone="no"?><!-- Generator: Gravit.io --><svg xmlns="http://www.w3.org/2000/svg" xmlns:xlink="http://www.w3.org/1999/xlink" style="isolation:isolate" viewBox="0 0 1000 490.505" width="1000" height="490.505"><defs><clipPath id="_clipPath_LrnGhqhyG3D5sSQlOFAiJA4ZjoMeMgSf"><rect width="1000" height="490.505"/></clipPath></defs><g clip-path="url(#_clipPath_LrnGhqhyG3D5sSQlOFAiJA4ZjoMeMgSf)"><path d=" M 480.314 181.395 C 485.937 181.395 490.505 176.833 490.505 171.204 L 490.505 156.936 C 490.505 151.307 485.937 146.745 480.314 146.745 L 472.641 146.745 L 472.641 118.276 C 472.641 116.524 472.194 114.813 471.334 113.285 L 447.435 70.706 C 446.544 69.137 444.889 68.158 443.087 68.158 C 441.289 68.158 439.634 69.137 438.743 70.706 L 414.84 113.285 C 413.981 114.813 413.537 116.524 413.537 118.276 L 413.537 146.745 L 373.71 146.745 L 373.71 118.276 C 373.71 116.524 373.267 114.813 372.403 113.285 L 348.52 70.706 C 347.629 69.137 345.974 68.158 344.16 68.158 C 342.358 68.158 340.703 69.137 339.828 70.706 L 315.913 113.285 C 315.05 114.813 314.606 116.524 314.606 118.276 L 314.606 146.745 L 274.796 146.745 L 274.796 118.276 C 274.796 116.524 274.353 114.813 273.493 113.285 L 249.606 70.706 C 248.715 69.137 247.061 68.158 245.246 68.158 C 243.443 68.158 241.789 69.137 240.913 70.706 L 216.998 113.285 C 216.139 114.813 215.691 116.524 215.691 118.276 L 215.691 146.745 L 175.886 146.745 L 175.886 118.276 C 175.886 116.524 175.438 114.813 174.579 113.285 L 150.68 70.706 C 149.801 69.137 148.146 68.158 146.332 68.158 C 144.518 68.158 142.859 69.137 141.984 70.706 L 118.084 113.285 C 117.225 114.813 116.777 116.524 116.777 118.276 L 116.777 146.745 L 76.973 146.745 L 76.973 118.276 C 76.973 116.524 76.525 114.813 75.666 113.285 L 51.751 70.706 C 50.876 69.137 49.217 68.158 47.418 68.158 C 45.604 68.158 43.945 69.137 43.054 70.706 L 19.171 113.285 C 18.312 114.813 17.864 116.524 17.864 118.276 L 17.864 146.745 L 10.191 146.745 C 4.556 146.745 0 151.307 0 156.937 L 0 171.205 C 0 176.834 4.556 181.396 10.191 181.396 L 17.864 181.396 L 17.864 342.408 L 10.191 342.408 C 4.556 342.407 0 346.969 0 352.598 L 0 366.866 C 0 372.493 4.556 377.055 10.191 377.055 L 17.864 377.055 L 17.864 412.159 C 17.864 417.786 22.42 422.348 28.055 422.348 L 66.781 422.348 C 72.4 422.348 76.972 417.786 76.972 412.159 L 76.972 377.055 L 116.777 377.055 L 116.777 412.159 C 116.777 417.786 121.333 422.348 126.968 422.348 L 165.695 422.348 C 171.33 422.348 175.886 417.786 175.886 412.159 L 175.886 377.055 L 215.691 377.055 L 215.691 412.159 C 215.691 417.786 220.259 422.348 225.882 422.348 L 264.604 422.348 C 270.243 422.348 274.795 417.786 274.795 412.159 L 274.795 377.055 L 314.605 377.055 L 314.605 412.159 C 314.605 417.786 319.173 422.348 324.796 422.348 L 363.519 422.348 C 369.158 422.348 373.71 417.786 373.71 412.159 L 373.71 377.055 L 413.535 377.055 L 413.535 412.159 C 413.535 417.786 418.103 422.348 423.726 422.348 L 462.448 422.348 C 468.071 422.348 472.639 417.786 472.639 412.159 L 472.639 377.055 L 480.312 377.055 C 485.935 377.055 490.503 372.493 490.503 366.866 L 490.503 352.598 C 490.503 346.969 485.935 342.407 480.312 342.407 L 472.639 342.407 L 472.639 181.395 L 480.314 181.395 Z  M 76.973 342.407 L 76.973 181.395 L 116.778 181.395 L 116.778 342.407 L 76.973 342.407 L 76.973 342.407 Z  M 175.887 342.407 L 175.887 181.395 L 215.692 181.395 L 215.692 342.407 L 175.887 342.407 L 175.887 342.407 Z  M 274.796 342.407 L 274.796 181.395 L 314.606 181.395 L 314.606 342.407 L 274.796 342.407 L 274.796 342.407 Z  M 413.536 342.407 L 373.71 342.407 L 373.71 181.395 L 413.535 181.395 L 413.535 342.407 L 413.536 342.407 Z " fill="rgb(255,255,255)"/><path d=" M 875.809 181.395 C 881.432 181.395 886 176.833 886 171.204 L 886 156.936 C 886 151.307 881.432 146.745 875.809 146.745 L 868.136 146.745 L 868.136 118.276 C 868.136 116.524 867.689 114.813 866.829 113.285 L 842.93 70.706 C 842.039 69.137 840.384 68.158 838.582 68.158 C 836.784 68.158 835.129 69.137 834.238 70.706 L 810.335 113.285 C 809.476 114.813 809.032 116.524 809.032 118.276 L 809.032 146.745 L 769.205 146.745 L 769.205 118.276 C 769.205 116.524 768.762 114.813 767.898 113.285 L 744.015 70.706 C 743.124 69.137 741.469 68.158 739.655 68.158 C 737.853 68.158 736.198 69.137 735.323 70.706 L 711.408 113.285 C 710.545 114.813 710.101 116.524 710.101 118.276 L 710.101 146.745 L 670.291 146.745 L 670.291 118.276 C 670.291 116.524 669.848 114.813 668.988 113.285 L 645.101 70.706 C 644.21 69.137 642.556 68.158 640.741 68.158 C 638.938 68.158 637.284 69.137 636.408 70.706 L 612.493 113.285 C 611.634 114.813 611.186 116.524 611.186 118.276 L 611.186 146.745 L 571.381 146.745 L 571.381 118.276 C 571.381 116.524 570.933 114.813 570.074 113.285 L 546.175 70.706 C 545.296 69.137 543.641 68.158 541.827 68.158 C 540.013 68.158 538.354 69.137 537.479 70.706 L 513.579 113.285 C 512.72 114.813 512.272 116.524 512.272 118.276 L 512.272 146.745 L 472.468 146.745 L 472.468 118.276 C 472.468 116.524 472.02 114.813 471.161 113.285 L 447.246 70.706 C 446.371 69.137 444.712 68.158 442.913 68.158 C 441.099 68.158 439.44 69.137 438.549 70.706 L 414.666 113.285 C 413.807 114.813 413.359 116.524 413.359 118.276 L 413.359 146.745 L 405.686 146.745 C 400.051 146.745 395.495 151.307 395.495 156.937 L 395.495 171.205 C 395.495 176.834 400.051 181.396 405.686 181.396 L 413.359 181.396 L 413.359 342.408 L 405.686 342.408 C 400.051 342.407 395.495 346.969 395.495 352.598 L 395.495 366.866 C 395.495 372.493 400.051 377.055 405.686 377.055 L 413.359 377.055 L 413.359 412.159 C 413.359 417.786 417.915 422.348 423.55 422.348 L 462.276 422.348 C 467.895 422.348 472.467 417.786 472.467 412.159 L 472.467 377.055 L 512.272 377.055 L 512.272 412.159 C 512.272 417.786 516.828 422.348 522.463 422.348 L 561.19 422.348 C 566.825 422.348 571.381 417.786 571.381 412.159 L 571.381 377.055 L 611.186 377.055 L 611.186 412.159 C 611.186 417.786 615.754 422.348 621.377 422.348 L 660.099 422.348 C 665.738 422.348 670.29 417.786 670.29 412.159 L 670.29 377.055 L 710.1 377.055 L 710.1 412.159 C 710.1 417.786 714.668 422.348 720.291 422.348 L 759.014 422.348 C 764.653 422.348 769.205 417.786 769.205 412.159 L 769.205 377.055 L 809.03 377.055 L 809.03 412.159 C 809.03 417.786 813.598 422.348 819.221 422.348 L 857.943 422.348 C 863.566 422.348 868.134 417.786 868.134 412.159 L 868.134 377.055 L 875.807 377.055 C 881.43 377.055 885.998 372.493 885.998 366.866 L 885.998 352.598 C 885.998 346.969 881.43 342.407 875.807 342.407 L 868.134 342.407 L 868.134 181.395 L 875.809 181.395 Z  M 472.468 342.407 L 472.468 181.395 L 512.273 181.395 L 512.273 342.407 L 472.468 342.407 L 472.468 342.407 Z  M 571.382 342.407 L 571.382 181.395 L 611.187 181.395 L 611.187 342.407 L 571.382 342.407 L 571.382 342.407 Z  M 670.291 342.407 L 670.291 181.395 L 710.101 181.395 L 710.101 342.407 L 670.291 342.407 L 670.291 342.407 Z  M 809.031 342.407 L 769.205 342.407 L 769.205 181.395 L 809.03 181.395 L 809.03 342.407 L 809.031 342.407 Z " fill="rgb(255,255,255)"/></g></svg>